<svg width="18" height="18" viewBox="0 0 18 18" fill="none" xmlns="http://www.w3.org/2000/svg">
<g clip-path="url(#clip0_361_746)">
<path d="M0.96525 3.05775C1.17621 2.80458 1.44033 2.60096 1.73885 2.46136C2.03736 2.32176 2.36295 2.2496 2.6925 2.25H14.8185L14.85 1.98675C14.9145 1.43956 15.1775 0.935049 15.5891 0.568858C16.0008 0.202667 16.5325 0.000256345 17.0835 0L17.25 0C17.4489 0 17.6397 0.0790176 17.7803 0.21967C17.921 0.360322 18 0.551088 18 0.75C18 0.948912 17.921 1.13968 17.7803 1.28033C17.6397 1.42098 17.4489 1.5 17.25 1.5H17.0835C16.8998 1.50002 16.7225 1.56747 16.5852 1.68954C16.4479 1.81161 16.3602 1.97981 16.3388 2.16225L15.3067 10.9372C15.1996 11.8498 14.7611 12.6913 14.0746 13.302C13.388 13.9127 12.5011 14.25 11.5822 14.25H3.75C3.55109 14.25 3.36032 14.171 3.21967 14.0303C3.07902 13.8897 3 13.6989 3 13.5C3 13.3011 3.07902 13.1103 3.21967 12.9697C3.36032 12.829 3.55109 12.75 3.75 12.75H11.5822C12.0465 12.7487 12.4989 12.6038 12.8775 12.3353C13.2562 12.0668 13.5425 11.6877 13.6972 11.25H4.75725C3.87803 11.2501 3.02675 10.9412 2.35213 10.3773C1.67752 9.81348 1.22247 9.03052 1.0665 8.16525L0.477749 4.89975C0.418982 4.57575 0.43219 4.2428 0.516436 3.92448C0.600683 3.60616 0.753906 3.31026 0.96525 3.05775ZM1.95 4.6335L2.5395 7.899C2.63315 8.41875 2.90665 8.88899 3.3121 9.2274C3.71756 9.5658 4.22913 9.7508 4.75725 9.75H13.9358L14.6415 3.75H2.6925C2.58233 3.74934 2.47336 3.77297 2.37335 3.81919C2.27334 3.86542 2.18474 3.93311 2.11386 4.01746C2.04297 4.1018 1.99154 4.20073 1.96322 4.3072C1.9349 4.41368 1.93039 4.52508 1.95 4.6335Z" fill="white"/>
<path d="M12.75 18C11.9216 18 11.25 17.3284 11.25 16.5C11.25 15.6716 11.9216 15 12.75 15C13.5784 15 14.25 15.6716 14.25 16.5C14.25 17.3284 13.5784 18 12.75 18Z" fill="white"/>
<path d="M5.25 18C4.42157 18 3.75 17.3284 3.75 16.5C3.75 15.6716 4.42157 15 5.25 15C6.07843 15 6.75 15.6716 6.75 16.5C6.75 17.3284 6.07843 18 5.25 18Z" fill="white"/>
</g>
<defs>
<clipPath id="clip0_361_746">
<rect width="18" height="18" fill="white" transform="matrix(-1 0 0 1 18 0)"/>
</clipPath>
</defs>
</svg>
