<svg width="4%" height="4%" viewBox="0 0 165 165" fill="none" xmlns="http://www.w3.org/2000/svg">
<path d="M31.8025 57.0482C32.2466 54.8056 32.8663 52.595 33.6611 50.4381L67.2571 22.5851C69.523 22.2041 71.8106 22.0045 74.0956 21.9839L31.8025 57.0482Z" fill="#1ABB8F"/>
<path d="M31.0269 67.8281C30.9384 66.129 30.9498 64.427 31.0593 62.7322L79.8191 22.3076C81.5045 22.5141 83.1784 22.8187 84.8315 23.2205L31.0269 67.8281Z" fill="#1ABB8F"/>
<path d="M32.4398 76.7941C32.0596 75.3702 31.7536 73.933 31.5214 72.4874L89.3178 24.5698C90.6952 25.0662 92.0511 25.6334 93.3796 26.2709L32.4398 76.7941Z" fill="#1ABB8F"/>
<path d="M35.3242 84.54C34.7282 83.3123 34.1937 82.0648 33.7205 80.8004L97.0788 28.2727C98.2329 28.9718 99.3598 29.7283 100.455 30.542L35.3242 84.54Z" fill="#1ABB8F"/>
<path d="M39.4039 91.2947C38.6227 90.2309 37.8963 89.1428 37.2247 88.0324L103.535 33.0572C104.501 33.923 105.436 34.8386 106.336 35.8037L39.4039 91.2947Z" fill="#1ABB8F"/>
<path d="M44.5663 97.1522C43.628 96.2615 42.7218 95.3221 41.8517 94.3336L108.868 38.7727C109.678 39.8112 110.433 40.8756 111.135 41.9626L44.5663 97.1522Z" fill="#1ABB8F"/>
<path d="M50.8345 102.093C49.7118 101.365 48.6172 100.582 47.5547 99.7426L113.126 45.3804C113.753 46.5799 114.32 47.8008 114.827 49.0387L50.8345 102.093Z" fill="#1ABB8F"/>
<path d="M58.3671 105.985C57.0287 105.452 55.7141 104.852 54.4265 104.183L116.215 52.9567C116.633 54.3455 116.979 55.7495 117.255 57.1633L58.3671 105.985Z" fill="#1ABB8F"/>
<path d="M67.5383 108.519C65.9119 108.256 64.2991 107.9 62.7084 107.454L117.893 61.7024C118.037 63.3481 118.087 64.9987 118.044 66.6459L67.5383 108.519Z" fill="#1ABB8F"/>
<path d="M79.4159 108.809C77.2842 109.048 75.1411 109.129 73.0052 109.055L117.557 72.118C117.235 74.2312 116.757 76.3224 116.127 78.3728L79.4159 108.809Z" fill="#1ABB8F"/>
<path d="M112.898 86.1187C110.314 90.9398 106.774 95.352 102.303 99.0578C97.8329 102.764 92.8415 105.426 87.6252 107.071L112.898 86.1187Z" fill="#1ABB8F"/>
<path d="M57.9214 25.2566L38.0167 41.7587C40.3516 38.1756 43.2586 34.8786 46.7235 32.0055C50.1891 29.1325 53.9679 26.8871 57.9214 25.2566Z" fill="#1ABB8F"/>
<path d="M61.875 110H130.625V123.75H61.875V110ZM165 52.1537V165H27.5V132.811L41.25 146.561V151.25H151.25V61.875H103.125V13.75H48.125C44.3369 13.75 41.25 16.83 41.25 20.625V35.6744C37.9569 34.8288 34.4988 34.375 30.9375 34.375C29.7825 34.375 28.6344 34.4231 27.5 34.5194V20.625C27.5 9.25375 36.7537 0 48.125 0H112.846L165 52.1537ZM116.875 48.125H141.529L116.875 23.4713V48.125ZM130.625 82.5H71.6169C70.7919 87.4362 69.0869 92.0769 66.6737 96.25H130.632L130.625 82.5ZM13.75 133.994V97.075C7.46625 92.0287 3.4375 84.2944 3.4375 75.625C3.4375 60.4587 15.7712 48.125 30.9375 48.125C46.1038 48.125 58.4375 60.4587 58.4375 75.625C58.4375 84.2944 54.4087 92.0287 48.125 97.075V133.994L30.9375 116.806L13.75 133.994ZM17.1875 75.625C17.1875 83.2081 23.3544 89.375 30.9375 89.375C38.5206 89.375 44.6875 83.2081 44.6875 75.625C44.6875 68.0419 38.5206 61.875 30.9375 61.875C23.3544 61.875 17.1875 68.0419 17.1875 75.625Z" fill="white"/>
</svg>
