<svg width="auto" height="auto" viewBox="0 0 102 102" fill="none" xmlns="http://www.w3.org/2000/svg">
<g clip-path="url(#clip0_369_2430)">
<path d="M36.9952 92.5741L75.414 20.3579C75.8767 20.6135 76.3325 20.8769 76.7813 21.1477L38.4143 93.2666C37.9389 93.0456 37.4658 92.8149 36.9952 92.5741Z" fill="#55B45C"/>
<path d="M39.862 93.9055L78.1202 21.9907C78.5643 22.2825 79.0011 22.5817 79.4304 22.8882L41.3382 94.4903C40.8443 94.3057 40.3519 94.1106 39.862 93.9055Z" fill="#55B45C"/>
<path d="M42.8441 95.0203L80.7112 23.8408C81.136 24.1699 81.5529 24.5063 81.962 24.8498L44.3796 95.4937C43.8664 95.3463 43.3541 95.1885 42.8441 95.0203Z" fill="#55B45C"/>
<path d="M45.946 95.9094L83.1819 25.9165C83.5865 26.2848 83.9829 26.6604 84.3702 27.0428L47.544 96.2654C47.0106 96.1578 46.4775 96.0391 45.946 95.9094Z" fill="#55B45C"/>
<path d="M49.1752 96.5601L85.526 28.231C85.9092 28.6413 86.2829 29.0588 86.6474 29.4829L50.8401 96.7905C50.2846 96.7252 49.7294 96.6485 49.1752 96.5601Z" fill="#55B45C"/>
<path d="M52.5407 96.9539L87.7332 30.8018C88.0933 31.2581 88.4427 31.7214 88.7817 32.1912L54.2788 97.0467C53.6997 97.0281 53.1202 96.9971 52.5407 96.9539Z" fill="#55B45C"/>
<path d="M56.0568 97.0651L89.7901 33.6558C90.1241 34.1636 90.4463 34.6784 90.7563 35.1998L57.877 97.0033C57.2716 97.0374 56.6647 97.0579 56.0568 97.0651Z" fill="#55B45C"/>
<path d="M59.7433 96.8557L91.6766 36.8301C91.9806 37.3982 92.2706 37.973 92.5471 38.554L61.6594 96.6139C61.0231 96.7095 60.3843 96.79 59.7433 96.8557Z" fill="#55B45C"/>
<path d="M63.6305 96.2688L93.3624 40.3813C93.63 41.023 93.8813 41.671 94.1161 42.325L65.6634 95.8076C64.9899 95.9784 64.3119 96.1321 63.6305 96.2688Z" fill="#55B45C"/>
<path d="M67.7664 95.2144L94.7994 44.4004C95.0207 45.1377 95.2211 45.8813 95.4007 46.63L69.9515 94.467C69.2303 94.7366 68.5015 94.9856 67.7664 95.2144Z" fill="#55B45C"/>
<path d="M72.235 93.5346L95.9038 49.0444C96.0591 49.9209 96.1859 50.8031 96.2841 51.6897L74.6411 92.3722C73.851 92.786 73.0487 93.1739 72.235 93.5346Z" fill="#55B45C"/>
<path d="M77.2087 90.9063L96.5032 54.6382C96.5458 55.7624 96.5423 56.8905 96.4915 58.0201L80.0067 89.0069C79.0983 89.6801 78.1647 90.3136 77.2087 90.9063Z" fill="#55B45C"/>
<path d="M83.186 86.3905L96.0985 62.1187C95.8129 64.0575 95.3849 65.9901 94.8098 67.9015L87.2613 82.0901C85.9976 83.6351 84.6344 85.07 83.186 86.3905Z" fill="#55B45C"/>
<path d="M34.2414 91.0305C34.6886 91.3039 35.1431 91.5702 35.6043 91.8287L74.0183 19.6211C73.5465 19.3831 73.0718 19.1551 72.5949 18.937L34.2414 91.0305Z" fill="#55B45C"/>
<path d="M31.6016 89.2719C32.0295 89.5815 32.4644 89.8836 32.9069 90.1784L71.1427 18.3062C70.6513 18.1038 70.1573 17.9118 69.6618 17.73L31.6016 89.2719Z" fill="#55B45C"/>
<path d="M29.0797 87.2926C29.487 87.6391 29.9024 87.9787 30.3256 88.3108L68.1512 17.2094C67.6392 17.044 67.1257 16.8893 66.6106 16.7451L29.0797 87.2926Z" fill="#55B45C"/>
<path d="M26.6814 85.08C27.0672 85.4657 27.4616 85.8445 27.8646 86.2163L65.0394 16.3386C64.506 16.212 63.9714 16.0966 63.4361 15.9922L26.6814 85.08Z" fill="#55B45C"/>
<path d="M24.4153 82.6197C24.7778 83.0473 25.1498 83.4684 25.5312 83.8822L61.7999 15.7077C61.2434 15.6227 60.6863 15.5494 60.1293 15.4878L24.4153 82.6197Z" fill="#55B45C"/>
<path d="M22.2932 79.8888C22.63 80.3626 22.9774 80.8297 23.3353 81.2899L58.4227 15.3357C57.841 15.296 57.2596 15.269 56.6785 15.2544L22.2932 79.8888Z" fill="#55B45C"/>
<path d="M20.3321 76.8546C20.6398 77.3801 20.9595 77.8997 21.2912 78.4119L54.894 15.2485C54.2836 15.2599 53.6744 15.285 53.0665 15.3235L20.3321 76.8546Z" fill="#55B45C"/>
<path d="M18.5576 73.4702C18.8309 74.0563 19.1183 74.6365 19.4195 75.21L51.1927 15.4858C50.5488 15.5565 49.9071 15.6424 49.268 15.7433L18.5576 73.4702Z" fill="#55B45C"/>
<path d="M17.0086 69.6615C17.2395 70.3221 17.4872 70.9767 17.7516 71.625L47.2874 16.106C46.6022 16.2489 45.9208 16.4093 45.2441 16.587L17.0086 69.6615Z" fill="#55B45C"/>
<path d="M15.7506 65.3058C15.9249 66.0639 16.1207 66.8163 16.3375 67.5628L43.1287 17.2031C42.3886 17.4404 41.6551 17.6987 40.9292 17.9776L15.7506 65.3058Z" fill="#55B45C"/>
<path d="M14.9077 60.1705C14.9973 61.0709 15.1167 61.9676 15.2654 62.8583L38.6279 18.9434C37.806 19.3179 36.9962 19.7198 36.1992 20.1487L14.9077 60.1705Z" fill="#55B45C"/>
<path d="M14.7786 53.6927C14.7095 54.8517 14.6902 56.0097 14.7197 57.1637L33.6007 21.6729C32.6273 22.2933 31.6777 22.9564 30.7553 23.6613L14.7786 53.6927Z" fill="#55B45C"/>
<path d="M16.8608 43.0586C16.1486 45.1581 15.617 47.2876 15.2601 49.4276L27.4874 26.4438C25.9123 27.9356 24.4433 29.5665 23.1002 31.3304L16.8608 43.0586Z" fill="#55B45C"/>
<path d="M94.9825 60.7988L82.3575 48.1738V32.3926H50.795V26.0801H69.7325V0.830078H25.545V26.0801H44.4825V32.3926H12.92V48.1738L0.294968 60.7988L12.92 73.4238L0.294968 86.0488L16.0762 101.83L31.8575 86.0488L19.2325 73.4238L31.8575 60.7988L19.2325 48.1738V38.7051H44.4825V48.1738L31.8575 60.7988L44.4825 73.4238L31.8575 86.0488L47.6387 101.83L63.42 86.0488L50.795 73.4238L63.42 60.7988L50.795 48.1738V38.7051H76.045V48.1738L63.42 60.7988L76.045 73.4238L63.42 86.0488L79.2012 101.83L94.9825 86.0488L82.3575 73.4238L94.9825 60.7988ZM22.9253 86.0488L16.0762 92.8979L9.22715 86.0488L16.0762 79.1998L22.9253 86.0488ZM22.9253 60.7988L16.0762 67.6479L9.22715 60.7988L16.0762 53.9498L22.9253 60.7988ZM54.4878 86.0488L47.6387 92.8979L40.7897 86.0488L47.6387 79.1998L54.4878 86.0488ZM54.4878 60.7988L47.6387 67.6479L40.7897 60.7988L47.6387 53.9498L54.4878 60.7988ZM31.8575 19.7676V7.14258H63.42V19.7676H31.8575ZM72.3522 60.7988L79.2012 53.9498L86.0503 60.7988L79.2012 67.6479L72.3522 60.7988ZM86.0503 86.0488L79.2012 92.8979L72.3522 86.0488L79.2012 79.1998L86.0503 86.0488Z" fill="#D9D9D9"/>
</g>
<defs>
<clipPath id="clip0_369_2430">
<rect width="101" height="101" fill="white" transform="translate(0.294968 0.830078)"/>
</clipPath>
</defs>
</svg>
