<svg width="auto" height="auto" viewBox="0 0 138 135" fill="none" xmlns="http://www.w3.org/2000/svg">
<g clip-path="url(#clip0_369_2412)">
<path d="M40.342 73.872C39.0943 73.751 37.8544 73.5341 36.6347 73.2217L19.6479 56.7204C19.3199 55.5295 19.0898 54.3185 18.9576 53.0986L40.342 73.872Z" fill="#55B45C"/>
<path d="M46.2691 73.7277C45.346 73.8629 44.4161 73.9454 43.4854 73.9747L18.8312 50.0256C18.8548 49.1144 18.9325 48.2049 19.0643 47.3008L46.2691 73.7277Z" fill="#55B45C"/>
<path d="M51.0897 72.5089C50.3324 72.7857 49.5639 73.0235 48.7869 73.2224L19.5635 44.8345C19.7616 44.0733 19.9995 43.3199 20.2772 42.5771L51.0897 72.5089Z" fill="#55B45C"/>
<path d="M55.1663 70.5666C54.5276 70.9489 53.8747 71.299 53.2098 71.6172L21.1744 40.4976C21.495 39.845 21.8484 39.2039 22.2347 38.5767L55.1663 70.5666Z" fill="#55B45C"/>
<path d="M58.6385 68.0381C58.0994 68.5109 57.5433 68.9552 56.973 69.3714L23.4449 36.8018C23.8665 36.2409 24.317 35.6941 24.7963 35.1636L58.6385 68.0381Z" fill="#55B45C"/>
<path d="M61.5634 64.9775C61.1267 65.5248 60.6618 66.057 60.1681 66.5729L26.2833 33.6568C26.8074 33.1706 27.3486 32.7121 27.905 32.2812L61.5634 64.9775Z" fill="#55B45C"/>
<path d="M63.9292 61.3739C63.5914 62.0112 63.2215 62.636 62.8195 63.247L29.6657 31.0409C30.2874 30.6437 30.924 30.2777 31.5731 29.9429L63.9292 61.3739Z" fill="#55B45C"/>
<path d="M65.6554 57.1493C65.4354 57.8913 65.1772 58.625 64.8805 59.3473L33.6389 28.9988C34.3751 28.7036 35.1233 28.4459 35.8806 28.2256L65.6554 57.1493Z" fill="#55B45C"/>
<path d="M66.5532 52.1194C66.4958 53.0017 66.3871 53.8815 66.2278 54.7537L38.3253 27.6492C39.2163 27.4872 40.1149 27.3749 41.0165 27.3125L66.5532 52.1194Z" fill="#55B45C"/>
<path d="M66.0827 45.7607C66.3263 46.8871 66.4843 48.0274 66.5566 49.1722L44.03 27.2896C45.2009 27.3524 46.368 27.4991 47.5209 27.7297L66.0827 45.7607Z" fill="#55B45C"/>
<path d="M51.9212 29.0527C54.6903 30.1827 57.2868 31.8453 59.5473 34.0411C61.8074 36.2368 63.5251 38.7649 64.6994 41.4657L51.9212 29.0527Z" fill="#55B45C"/>
<path d="M21.6008 61.5684L31.6649 71.3449C29.5849 70.2834 27.6308 68.9015 25.8786 67.1993C24.1265 65.4975 22.7004 63.5955 21.6008 61.5684Z" fill="#55B45C"/>
<path d="M103.116 23.3959V32.4409C108.51 34.7021 111.464 37.0471 111.678 38.5128C111.379 40.439 106.327 43.9146 97.2506 46.6784C95.8806 47.0971 94.3822 47.5159 92.7981 47.8928C90.0196 48.6046 86.9328 49.2328 83.5506 49.7353C81.6283 50.0284 79.569 50.2796 77.4284 50.4471V58.9059C84.6637 58.2359 91.3853 57.0634 97.2078 55.4721C101.746 54.2578 105.727 52.7503 109.067 51.0753C110.013 50.6146 110.865 50.154 111.678 49.6515V63.6378C111.379 65.564 106.327 69.0396 97.2506 71.8034C91.9419 73.4365 85.3059 74.8561 77.4284 75.568V84.0309C84.6637 83.3609 91.3853 82.1884 97.2078 80.5971C101.746 79.3828 105.727 77.8795 109.067 76.2003C110.013 75.7396 110.865 75.279 111.678 74.7765V88.7628C111.379 90.689 106.327 94.1646 97.2506 96.9284C90.1437 99.1478 80.558 100.907 68.8659 101.242V23.4796L87.2325 41.4859L93.3119 35.5396L64.5847 7.4834L35.8575 35.5396L41.9369 41.4859L60.3034 23.4796V101.242C48.6584 100.907 39.0684 99.1017 31.9615 96.9284C22.8425 94.1228 17.7906 90.689 17.4909 88.7628V74.7765C18.3044 75.279 19.1606 75.7396 20.1025 76.2003C23.399 77.8753 27.4234 79.3409 31.9187 80.5971C37.7412 82.1884 44.4628 83.3609 51.7409 84.0309V75.5721C43.9062 74.8184 37.2275 73.3946 31.9615 71.8076C22.8425 68.9978 17.7906 65.564 17.4909 63.6378V49.6515C18.3044 50.154 19.1606 50.6146 20.1025 51.0753C23.399 52.7503 27.4234 54.2159 31.9187 55.4721C37.7412 57.0634 44.4628 58.2359 51.7409 58.9059V50.4471C49.6431 50.2378 47.5881 49.9865 45.6615 49.6934C42.2794 49.1909 39.154 48.5628 36.3284 47.8509C34.7872 47.5159 33.3315 47.0971 31.9615 46.6784C22.8425 43.8728 17.7906 40.439 17.4909 38.5128C17.705 37.0053 20.659 34.7021 26.0534 32.4409V23.3959C15.4787 27.2065 8.92842 32.5665 8.92842 38.5128V113.888C8.92842 125.445 33.8453 134.825 64.5847 134.825C95.324 134.825 120.241 125.445 120.241 113.888V38.5128C120.241 32.5665 113.691 27.2065 103.116 23.3959ZM111.678 113.888C111.122 117.531 93.9112 126.45 64.5847 126.45C35.2581 126.45 18.0475 117.531 17.4909 113.888V99.9015C18.3044 100.404 19.1606 100.865 20.1025 101.325C23.399 103 27.4234 104.466 31.9187 105.722C41.0806 108.235 52.3831 109.7 64.5847 109.7C76.7862 109.7 88.0459 108.235 97.2078 105.722C101.746 104.508 105.727 103.004 109.067 101.325C110.013 100.865 110.865 100.404 111.678 99.9015V113.888Z" fill="black"/>
</g>
<defs>
<clipPath id="clip0_369_2412">
<rect width="137" height="134" fill="white" transform="translate(0.365921 0.825195)"/>
</clipPath>
</defs>
</svg>
