<svg width="auto" height="auto" viewBox="0 0 101 101" fill="none" xmlns="http://www.w3.org/2000/svg">
<g clip-path="url(#clip0_369_2338)">
<path d="M36.7002 91.744L75.1191 19.5278C75.5818 19.7835 76.0375 20.0468 76.4864 20.3177L38.1193 92.4365C37.644 92.2155 37.1708 91.9848 36.7002 91.744Z" fill="#1ABB8F"/>
<path d="M39.5671 93.0756L77.8252 21.1609C78.2693 21.4526 78.7061 21.7518 79.1354 22.0583L41.0432 93.6605C40.5493 93.4759 40.0569 93.2808 39.5671 93.0756Z" fill="#1ABB8F"/>
<path d="M42.5491 94.1904L80.4162 23.0109C80.841 23.34 81.258 23.6764 81.667 24.0199L44.0846 94.6638C43.5714 94.5164 43.0591 94.3586 42.5491 94.1904Z" fill="#1ABB8F"/>
<path d="M45.651 95.0795L82.8869 25.0866C83.2915 25.4549 83.688 25.8305 84.0752 26.2129L47.2491 95.4355C46.7156 95.3279 46.1826 95.2092 45.651 95.0795Z" fill="#1ABB8F"/>
<path d="M48.8802 95.73L85.2311 27.4008C85.6142 27.8112 85.9879 28.2286 86.3525 28.6528L50.5451 95.9604C49.9896 95.8951 49.4344 95.8184 48.8802 95.73Z" fill="#1ABB8F"/>
<path d="M52.2457 96.1239L87.4382 29.9718C87.7983 30.4282 88.1477 30.8914 88.4867 31.3613L53.9839 96.2167C53.4047 96.1981 52.8252 96.1672 52.2457 96.1239Z" fill="#1ABB8F"/>
<path d="M55.7618 96.235L89.4951 32.8256C89.8291 33.3335 90.1513 33.8482 90.4613 34.3697L57.582 96.1731C56.9766 96.2072 56.3697 96.2277 55.7618 96.235Z" fill="#1ABB8F"/>
<path d="M59.4483 96.0255L91.3816 35.9999C91.6856 36.568 91.9756 37.1428 92.2521 37.7238L61.3644 95.7837C60.7281 95.8793 60.0893 95.9598 59.4483 96.0255Z" fill="#1ABB8F"/>
<path d="M63.3355 95.4387L93.0674 39.5513C93.335 40.1929 93.5863 40.8409 93.8211 41.4949L65.3685 94.9775C64.6949 95.1483 64.0169 95.302 63.3355 95.4387Z" fill="#1ABB8F"/>
<path d="M67.4715 94.3845L94.5044 43.5704C94.7257 44.3077 94.9261 45.0513 95.1057 45.8L69.6565 93.6371C68.9353 93.9066 68.2066 94.1557 67.4715 94.3845Z" fill="#1ABB8F"/>
<path d="M71.9401 92.7048L95.6088 48.2146C95.7641 49.0911 95.891 49.9733 95.9891 50.8599L74.3461 91.5423C73.5561 91.9561 72.7538 92.344 71.9401 92.7048Z" fill="#1ABB8F"/>
<path d="M76.9137 90.0763L96.2082 53.8081C96.2508 54.9324 96.2473 56.0604 96.1965 57.19L79.7117 88.1768C78.8033 88.8501 77.8697 89.4835 76.9137 90.0763Z" fill="#1ABB8F"/>
<path d="M82.891 85.5606L95.8036 61.2887C95.5179 63.2276 95.0899 65.1602 94.5149 67.0716L86.9664 81.2602C85.7026 82.8052 84.3394 84.24 82.891 85.5606Z" fill="#1ABB8F"/>
<path d="M33.9464 90.2003C34.3937 90.4736 34.8482 90.74 35.3093 90.9985L73.7234 18.7908C73.2515 18.5528 72.7768 18.3248 72.2999 18.1068L33.9464 90.2003Z" fill="#1ABB8F"/>
<path d="M31.3066 88.4419C31.7345 88.7515 32.1694 89.0536 32.6119 89.3484L70.8477 17.4762C70.3563 17.2739 69.8623 17.0819 69.3668 16.9L31.3066 88.4419Z" fill="#1ABB8F"/>
<path d="M28.7847 86.4623C29.192 86.8089 29.6074 87.1485 30.0306 87.4805L67.8562 16.3791C67.3443 16.2138 66.8307 16.059 66.3156 15.9149L28.7847 86.4623Z" fill="#1ABB8F"/>
<path d="M26.3865 84.2501C26.7722 84.6358 27.1667 85.0145 27.5696 85.3863L64.7445 15.5086C64.2111 15.3821 63.6764 15.2666 63.1411 15.1622L26.3865 84.2501Z" fill="#1ABB8F"/>
<path d="M24.1203 81.7898C24.4828 82.2175 24.8548 82.6385 25.2362 83.0523L61.5049 14.8778C60.9484 14.7928 60.3914 14.7195 59.8343 14.6579L24.1203 81.7898Z" fill="#1ABB8F"/>
<path d="M21.9982 79.0587C22.335 79.5324 22.6824 79.9996 23.0403 80.4598L58.1277 14.5055C57.546 14.4659 56.9646 14.4389 56.3836 14.4243L21.9982 79.0587Z" fill="#1ABB8F"/>
<path d="M20.0372 76.0246C20.3448 76.5501 20.6645 77.0696 20.9962 77.5819L54.599 14.4185C53.9886 14.4299 53.3794 14.4549 52.7715 14.4935L20.0372 76.0246Z" fill="#1ABB8F"/>
<path d="M18.2626 72.6401C18.536 73.2263 18.8233 73.8064 19.1246 74.3799L50.8977 14.6558C50.2538 14.7264 49.6121 14.8123 48.973 14.9132L18.2626 72.6401Z" fill="#1ABB8F"/>
<path d="M16.7137 68.8315C16.9445 69.4921 17.1923 70.1467 17.4567 70.795L46.9925 15.276C46.3072 15.419 45.6258 15.5794 44.9491 15.757L16.7137 68.8315Z" fill="#1ABB8F"/>
<path d="M15.4557 64.4759C15.63 65.234 15.8257 65.9865 16.0425 66.7329L42.8338 16.3732C42.0936 16.6105 41.3601 16.8688 40.6342 17.1477L15.4557 64.4759Z" fill="#1ABB8F"/>
<path d="M14.6127 59.3403C14.7024 60.2408 14.8217 61.1375 14.9704 62.0282L38.333 18.1132C37.5111 18.4877 36.7012 18.8897 35.9042 19.3185L14.6127 59.3403Z" fill="#1ABB8F"/>
<path d="M14.4836 52.8628C14.4145 54.0217 14.3952 55.1798 14.4247 56.3337L33.3057 20.8429C32.3323 21.4633 31.3827 22.1264 30.4603 22.8313L14.4836 52.8628Z" fill="#1ABB8F"/>
<path d="M16.5658 42.2287C15.8536 44.3283 15.322 46.4578 14.9651 48.5977L27.1924 25.614C25.6173 27.1058 24.1483 28.7367 22.8052 30.5006L16.5658 42.2287Z" fill="#1ABB8F"/>
<path d="M94.6875 59.9688L82.0625 47.3438V31.5625H50.5V25.25H69.4375V0H25.25V25.25H44.1875V31.5625H12.625V47.3438L-7.62939e-06 59.9688L12.625 72.5938L-7.62939e-06 85.2188L15.7812 101L31.5625 85.2188L18.9375 72.5938L31.5625 59.9688L18.9375 47.3438V37.875H44.1875V47.3438L31.5625 59.9688L44.1875 72.5938L31.5625 85.2188L47.3437 101L63.125 85.2188L50.5 72.5938L63.125 59.9688L50.5 47.3438V37.875H75.75V47.3438L63.125 59.9688L75.75 72.5938L63.125 85.2188L78.9062 101L94.6875 85.2188L82.0625 72.5938L94.6875 59.9688ZM22.6303 85.2188L15.7812 92.0678L8.93218 85.2188L15.7812 78.3697L22.6303 85.2188ZM22.6303 59.9688L15.7812 66.8178L8.93218 59.9688L15.7812 53.1197L22.6303 59.9688ZM54.1928 85.2188L47.3437 92.0678L40.4947 85.2188L47.3437 78.3697L54.1928 85.2188ZM54.1928 59.9688L47.3437 66.8178L40.4947 59.9688L47.3437 53.1197L54.1928 59.9688ZM31.5625 18.9375V6.3125H63.125V18.9375H31.5625ZM72.0572 59.9688L78.9062 53.1197L85.7553 59.9688L78.9062 66.8178L72.0572 59.9688ZM85.7553 85.2188L78.9062 92.0678L72.0572 85.2188L78.9062 78.3697L85.7553 85.2188Z" fill="#D9D9D9"/>
</g>
<defs>
<clipPath id="clip0_369_2338">
<rect width="101" height="101" fill="white"/>
</clipPath>
</defs>
</svg>
