<svg width="auto" height="auto" viewBox="0 0 158 158" fill="none" xmlns="http://www.w3.org/2000/svg">
<g clip-path="url(#clip0_369_2389)">
<path d="M55.9195 76.6021C54.4893 76.4603 53.0685 76.2067 51.6707 75.8402L32.2042 56.5066C31.8283 55.1117 31.5646 53.6924 31.413 52.2637L55.9195 76.6021Z" fill="#55B45C"/>
<path d="M62.7117 76.4332C61.6539 76.5917 60.5882 76.6878 59.5211 76.7222L31.2682 48.6623C31.2952 47.5951 31.3843 46.5291 31.5354 45.4702L62.7117 76.4332Z" fill="#55B45C"/>
<path d="M68.2363 75.0052C67.3684 75.3295 66.4877 75.6082 65.5972 75.8412L32.1076 42.5811C32.3346 41.689 32.6073 40.8061 32.9255 39.936L68.2363 75.0052Z" fill="#55B45C"/>
<path d="M72.9079 72.7301C72.1759 73.1775 71.4277 73.5877 70.6653 73.9606L33.9536 37.4996C34.321 36.735 34.726 35.9839 35.1687 35.249L72.9079 72.7301Z" fill="#55B45C"/>
<path d="M76.887 69.7675C76.2688 70.3209 75.632 70.8415 74.978 71.3292L36.5557 33.1694C37.0388 32.5122 37.555 31.8716 38.1043 31.25L76.887 69.7675Z" fill="#55B45C"/>
<path d="M80.2387 66.1812C79.7383 66.8225 79.2055 67.4466 78.6398 68.051L39.8082 29.4848C40.4089 28.9151 41.0291 28.3779 41.6666 27.873L80.2387 66.1812Z" fill="#55B45C"/>
<path d="M82.9499 61.9586C82.5628 62.7053 82.1389 63.4378 81.6782 64.1536L43.6844 26.4193C44.3969 25.9539 45.1264 25.525 45.8702 25.1328L82.9499 61.9586Z" fill="#55B45C"/>
<path d="M84.9283 57.0092C84.6761 57.8791 84.3802 58.7382 84.0397 59.5845L48.2377 24.0271C49.0814 23.6812 49.9388 23.3792 50.8068 23.1211L84.9283 57.0092Z" fill="#55B45C"/>
<path d="M85.9572 51.1164C85.8914 52.1501 85.7668 53.1809 85.5843 54.2034L53.6083 22.4462C54.6293 22.2564 55.6591 22.1249 56.6924 22.0518L85.9572 51.1164Z" fill="#55B45C"/>
<path d="M85.4178 43.666C85.697 44.9855 85.878 46.3216 85.961 47.6628L60.1458 22.0244C61.4876 22.0981 62.8251 22.2699 64.1463 22.5401L85.4178 43.666Z" fill="#55B45C"/>
<path d="M69.1891 24.0908C72.3624 25.4148 75.3381 27.3627 77.9281 29.9353C80.5186 32.5079 82.487 35.4699 83.8327 38.6344L69.1891 24.0908Z" fill="#55B45C"/>
<path d="M34.4423 62.187L45.9757 73.6416C43.592 72.3979 41.3526 70.7788 39.3446 68.7849C37.3367 66.7905 35.7024 64.5621 34.4423 62.187Z" fill="#55B45C"/>
<path d="M132.464 55.0932C130.801 41.6501 121.676 29.2863 105.779 29.2863C104.504 29.2863 103.228 29.3845 101.903 29.5316C95.5743 9.46508 82.5727 0.830078 59.1699 0.830078C45.6287 0.830078 34.7859 5.04945 27.819 13.0957C20.9012 21.0438 18.1046 32.3282 19.4784 46.6545C6.42773 52.3457 0.294922 62.796 0.294922 79.3301C0.294922 96.6442 12.4134 108.768 29.7324 108.768H59.1699V98.9551H29.7324C17.8102 98.9551 10.1074 91.2523 10.1074 79.3301C10.1074 65.3963 14.6702 58.4295 26.3962 54.5535L30.2721 53.2288L29.6834 49.2057C27.7699 35.9098 29.6343 25.9501 35.2274 19.5229C41.6055 12.1635 51.7615 10.6426 59.1699 10.6426C82.6169 10.6426 89.5887 20.0626 93.656 36.3513L94.8335 41.1104L99.5974 39.9329C101.756 39.3932 103.861 39.0988 105.779 39.0988C117.554 39.0988 122.951 49.7945 122.951 59.7051V64.6113H127.857C139.24 64.6113 147.482 71.7745 147.482 81.6851C147.482 91.3995 139.588 98.9551 132.764 98.9551H88.6074V108.768H132.764C145.814 108.768 157.295 96.1095 157.295 81.6851C157.295 67.8004 146.894 57.0066 132.464 55.0932Z" fill="black"/>
<path d="M96.9971 126.97L73.8887 150.029L50.7802 126.97L57.7471 120.003L68.9824 131.287V59.7051H78.7949V131.287L90.0302 120.003L96.9971 126.97Z" fill="black"/>
</g>
<defs>
<clipPath id="clip0_369_2389">
<rect width="157" height="157" fill="white" transform="translate(0.294922 0.830078)"/>
</clipPath>
</defs>
</svg>
