<svg width="auto" height="auto" viewBox="0 0 138 134" fill="none" xmlns="http://www.w3.org/2000/svg">
<g clip-path="url(#clip0_369_2294)">
<path d="M40.047 73.0418C38.7993 72.9208 37.5594 72.7039 36.3398 72.3915L19.3529 55.8902C19.025 54.6993 18.7948 53.4883 18.6626 52.2684L40.047 73.0418Z" fill="#1ABB8F"/>
<path d="M45.9741 72.8972C45.0511 73.0325 44.1212 73.115 43.1904 73.1443L18.5363 49.1951C18.5598 48.2839 18.6375 47.3744 18.7694 46.4703L45.9741 72.8972Z" fill="#1ABB8F"/>
<path d="M50.7948 71.6787C50.0374 71.9555 49.269 72.1933 48.4919 72.3922L19.2685 44.0043C19.4667 43.2431 19.7046 42.4897 19.9823 41.7469L50.7948 71.6787Z" fill="#1ABB8F"/>
<path d="M54.8714 69.7366C54.2326 70.1189 53.5797 70.469 52.9149 70.7873L20.8794 39.6676C21.2 39.015 21.5535 38.3739 21.9398 37.7467L54.8714 69.7366Z" fill="#1ABB8F"/>
<path d="M58.3435 67.2078C57.8045 67.6805 57.2484 68.1248 56.6781 68.5411L23.15 35.9714C23.5716 35.4105 24.022 34.8638 24.5013 34.3333L58.3435 67.2078Z" fill="#1ABB8F"/>
<path d="M61.2684 64.1475C60.8318 64.6949 60.3668 65.2271 59.8732 65.743L25.9883 32.8269C26.5125 32.3407 27.0537 31.8821 27.61 31.4513L61.2684 64.1475Z" fill="#1ABB8F"/>
<path d="M63.6343 60.5437C63.2965 61.181 62.9266 61.8058 62.5246 62.4168L29.3707 30.2107C29.9925 29.8135 30.6291 29.4475 31.2782 29.1127L63.6343 60.5437Z" fill="#1ABB8F"/>
<path d="M65.3605 56.319C65.1404 57.061 64.8822 57.7947 64.5856 58.517L33.3439 28.1685C34.0801 27.8733 34.8284 27.6156 35.5856 27.3953L65.3605 56.319Z" fill="#1ABB8F"/>
<path d="M66.2582 51.2893C66.2009 52.1716 66.0921 53.0514 65.9329 53.9237L38.0303 26.8191C38.9213 26.6571 39.8199 26.5449 40.7215 26.4824L66.2582 51.2893Z" fill="#1ABB8F"/>
<path d="M65.7877 44.9302C66.0313 46.0567 66.1893 47.1969 66.2617 48.3418L43.735 26.4591C44.9059 26.522 46.073 26.6686 47.2259 26.8993L65.7877 44.9302Z" fill="#1ABB8F"/>
<path d="M51.6262 28.2228C54.3953 29.3528 56.9919 31.0154 59.2524 33.2111C61.5125 35.4069 63.2301 37.9349 64.4045 40.6357L51.6262 28.2228Z" fill="#1ABB8F"/>
<path d="M21.3058 60.738L31.37 70.5146C29.29 69.4531 27.3359 68.0712 25.5837 66.369C23.8315 64.6672 22.4055 62.7652 21.3058 60.738Z" fill="#1ABB8F"/>
<path d="M102.821 22.5656V31.6106C108.215 33.8718 111.169 36.2168 111.383 37.6824C111.084 39.6087 106.032 43.0843 96.9557 45.8481C95.5857 46.2668 94.0872 46.6856 92.5032 47.0624C89.7246 47.7743 86.6378 48.4024 83.2557 48.9049C81.3334 49.1981 79.2741 49.4493 77.1335 49.6168V58.0756C84.3688 57.4056 91.0903 56.2331 96.9128 54.6418C101.451 53.4274 105.433 51.9199 108.772 50.2449C109.718 49.7843 110.57 49.3237 111.383 48.8212V62.8074C111.084 64.7337 106.032 68.2093 96.9557 70.9731C91.6469 72.6062 85.011 74.0258 77.1335 74.7376V83.2006C84.3688 82.5306 91.0903 81.3581 96.9128 79.7668C101.451 78.5524 105.433 77.0491 108.772 75.3699C109.718 74.9093 110.57 74.4487 111.383 73.9462V87.9324C111.084 89.8587 106.032 93.3343 96.9557 96.0981C89.8488 98.3174 80.2631 100.076 68.571 100.411V22.6493L86.9375 40.6556L93.0169 34.7093L64.2897 6.65308L35.5625 34.7093L41.6419 40.6556L60.0085 22.6493V100.411C48.3635 100.076 38.7735 98.2714 31.6666 96.0981C22.5475 93.2924 17.4957 89.8587 17.196 87.9324V73.9462C18.0094 74.4487 18.8657 74.9093 19.8075 75.3699C23.1041 77.0449 27.1285 78.5106 31.6238 79.7668C37.4463 81.3581 44.1678 82.5306 51.446 83.2006V74.7418C43.6113 73.9881 36.9325 72.5643 31.6666 70.9773C22.5475 68.1674 17.4957 64.7337 17.196 62.8074V48.8212C18.0094 49.3237 18.8657 49.7843 19.8075 50.2449C23.1041 51.9199 27.1285 53.3856 31.6238 54.6418C37.4463 56.2331 44.1678 57.4056 51.446 58.0756V49.6168C49.3482 49.4074 47.2932 49.1562 45.3666 48.8631C41.9844 48.3606 38.8591 47.7324 36.0335 47.0206C34.4922 46.6856 33.0366 46.2668 31.6666 45.8481C22.5475 43.0424 17.4957 39.6087 17.196 37.6824C17.41 36.1749 20.3641 33.8718 25.7585 31.6106V22.5656C15.1838 26.3762 8.63347 31.7362 8.63347 37.6824V113.057C8.63347 124.615 33.5503 133.995 64.2897 133.995C95.0291 133.995 119.946 124.615 119.946 113.057V37.6824C119.946 31.7362 113.396 26.3762 102.821 22.5656ZM111.383 113.057C110.827 116.701 93.6163 125.62 64.2897 125.62C34.9632 125.62 17.7525 116.701 17.196 113.057V99.0712C18.0094 99.5737 18.8657 100.034 19.8075 100.495C23.1041 102.17 27.1285 103.636 31.6238 104.892C40.7857 107.404 52.0882 108.87 64.2897 108.87C76.4913 108.87 87.751 107.404 96.9128 104.892C101.451 103.677 105.433 102.174 108.772 100.495C109.718 100.034 110.57 99.5737 111.383 99.0712V113.057Z" fill="black"/>
</g>
<defs>
<clipPath id="clip0_369_2294">
<rect width="137" height="134" fill="white" transform="translate(0.0709686 -0.00500488)"/>
</clipPath>
</defs>
</svg>
