<svg width="auto" height="auto" viewBox="0 0 157 157" fill="none" xmlns="http://www.w3.org/2000/svg">
<g clip-path="url(#clip0_369_2247)">
<path d="M55.6246 75.7722C54.1944 75.6304 52.7736 75.3767 51.3758 75.0102L31.9092 55.6766C31.5334 54.2818 31.2697 52.8624 31.1181 51.4337L55.6246 75.7722Z" fill="#1ABB8F"/>
<path d="M62.4168 75.6033C61.359 75.7618 60.2934 75.858 59.2262 75.8923L30.9734 47.8324C31.0003 46.7652 31.0894 45.6992 31.2405 44.6403L62.4168 75.6033Z" fill="#1ABB8F"/>
<path d="M67.9412 74.1752C67.0733 74.4995 66.1926 74.7781 65.3022 75.0112L31.8125 41.7511C32.0396 40.859 32.3122 39.976 32.6305 39.106L67.9412 74.1752Z" fill="#1ABB8F"/>
<path d="M72.613 71.9001C71.881 72.3476 71.1328 72.7577 70.3703 73.1306L33.6586 36.6697C34.0261 35.9051 34.4311 35.1539 34.8737 34.4191L72.613 71.9001Z" fill="#1ABB8F"/>
<path d="M76.5919 68.9372C75.9738 69.4907 75.3369 70.0112 74.6829 70.4989L36.2607 32.3391C36.7438 31.6819 37.26 31.0414 37.8093 30.4197L76.5919 68.9372Z" fill="#1ABB8F"/>
<path d="M79.9439 65.3512C79.4434 65.9925 78.9106 66.6166 78.3449 67.221L39.5133 28.6548C40.114 28.0851 40.7342 27.5479 41.3718 27.043L79.9439 65.3512Z" fill="#1ABB8F"/>
<path d="M82.6551 61.1289C82.268 61.8757 81.8441 62.6082 81.3834 63.324L43.3895 25.5896C44.1021 25.1242 44.8316 24.6954 45.5754 24.3032L82.6551 61.1289Z" fill="#1ABB8F"/>
<path d="M84.6333 56.179C84.3811 57.0489 84.0853 57.908 83.7448 58.7543L47.9427 23.1969C48.7864 22.851 49.6439 22.549 50.5118 22.2909L84.6333 56.179Z" fill="#1ABB8F"/>
<path d="M85.6621 50.2861C85.5964 51.3199 85.4717 52.3507 85.2892 53.3731L53.3132 21.616C54.3342 21.4261 55.364 21.2946 56.3973 21.2215L85.6621 50.2861Z" fill="#1ABB8F"/>
<path d="M85.1229 42.8357C85.4021 44.1551 85.5831 45.4913 85.666 46.8325L59.8508 21.1941C61.1927 21.2677 62.5301 21.4396 63.8514 21.7098L85.1229 42.8357Z" fill="#1ABB8F"/>
<path d="M68.894 23.2604C72.0674 24.5844 75.043 26.5324 77.633 29.105C80.2235 31.6775 82.1919 34.6396 83.5377 37.804L68.894 23.2604Z" fill="#1ABB8F"/>
<path d="M34.1473 61.3566L45.6806 72.8112C43.2969 71.5675 41.0576 69.9484 39.0496 67.9545C37.0416 65.9601 35.4074 63.7317 34.1473 61.3566Z" fill="#1ABB8F"/>
<path d="M132.169 54.2631C130.506 40.82 121.381 28.4563 105.484 28.4563C104.209 28.4563 102.933 28.5544 101.608 28.7016C95.2793 8.635 82.2778 0 58.875 0C45.3337 0 34.4909 4.21938 27.524 12.2656C20.6062 20.2138 17.8097 31.4981 19.1834 45.8244C6.13278 51.5156 -3.05176e-05 61.9659 -3.05176e-05 78.5C-3.05176e-05 95.8142 12.1184 107.938 29.4375 107.938H58.875V98.125H29.4375C17.5153 98.125 9.81247 90.4222 9.81247 78.5C9.81247 64.5663 14.3753 57.5994 26.1012 53.7234L29.9772 52.3988L29.3884 48.3756C27.475 35.0797 29.3393 25.12 34.9325 18.6928C41.3106 11.3334 51.4665 9.8125 58.875 9.8125C82.3219 9.8125 89.2937 19.2325 93.361 35.5212L94.5385 40.2803L99.3025 39.1028C101.461 38.5631 103.566 38.2687 105.484 38.2687C117.259 38.2687 122.656 48.9644 122.656 58.875V63.7812H127.562C138.945 63.7812 147.187 70.9444 147.187 80.855C147.187 90.5694 139.293 98.125 132.469 98.125H88.3125V107.938H132.469C145.519 107.938 157 95.2794 157 80.855C157 66.9703 146.599 56.1766 132.169 54.2631Z" fill="black"/>
<path d="M96.7022 126.14L73.5937 149.199L50.4853 126.14L57.4522 119.173L68.6875 130.457V58.875H78.5V130.457L89.7353 119.173L96.7022 126.14Z" fill="black"/>
</g>
<defs>
<clipPath id="clip0_369_2247">
<rect width="157" height="157" fill="white"/>
</clipPath>
</defs>
</svg>
