<svg width="35%" height="35%" viewBox="0 0 500 500" fill="none" xmlns="http://www.w3.org/2000/svg">
<path d="M87.5248 455.094C-2.20619 403.288 -2.20619 319.293 87.5248 267.487C177.256 215.681 322.74 215.681 412.473 267.487C502.206 319.293 502.206 403.288 412.473 455.094C322.74 506.9 177.256 506.9 87.5248 455.094Z" fill="#D6D6D6"/>
<path d="M147.311 461.059C165.023 461.059 179.381 452.769 179.381 442.543C179.381 432.317 165.023 424.027 147.311 424.027C129.599 424.027 115.241 432.317 115.241 442.543C115.241 452.769 129.599 461.059 147.311 461.059Z" fill="#B7B7B7"/>
<path d="M188.084 472.448C186.632 473.287 184.278 473.287 182.825 472.448L153.192 455.323C151.74 454.485 151.74 453.125 153.192 452.287L294.748 370.538C296.2 369.7 298.554 369.7 300.007 370.538L329.641 387.664C331.093 388.502 331.098 389.871 329.653 390.721L188.084 472.448Z" fill="#B7B7B7"/>
<path d="M462.916 197.205C461.325 194.994 459.396 193.775 457.675 193.659L448.989 166.475C449.512 166.2 449.984 165.786 450.376 165.213C452.303 162.393 451.608 156.973 448.825 153.106C446.042 149.239 442.224 148.39 440.297 151.21C438.37 154.03 439.064 159.45 441.848 163.317C443.439 165.528 445.368 166.747 447.089 166.863L455.775 194.047C455.252 194.322 454.78 194.736 454.388 195.309C453.997 195.882 453.719 196.566 453.539 197.318L434.257 185.642C434.131 183.192 433.226 180.474 431.635 178.263C428.852 174.396 425.034 173.547 423.107 176.367C421.18 179.187 421.875 184.607 424.658 188.474C427.441 192.341 431.259 193.19 433.185 190.37C433.576 189.797 433.854 189.113 434.034 188.361L453.316 200.037C453.442 202.487 454.347 205.205 455.938 207.416C458.721 211.283 462.539 212.132 464.466 209.312C466.394 206.492 465.699 201.072 462.916 197.205Z" fill="#B7B7B7"/>
<path d="M46.7189 387.426C48.0199 385.571 49.5959 384.548 51.0029 384.45L58.1029 361.641C57.6749 361.41 57.2889 361.063 56.9699 360.582C55.3949 358.216 55.9619 353.668 58.2369 350.423C60.5119 347.178 63.6329 346.466 65.2079 348.832C66.7829 351.198 66.2149 355.746 63.9399 358.991C62.6389 360.846 61.0629 361.869 59.6559 361.966L52.5559 384.775C52.9829 385.006 53.3689 385.353 53.6889 385.834C54.0089 386.315 54.2359 386.889 54.3829 387.52L70.1459 377.723C70.2489 375.667 70.9889 373.387 72.2899 371.532C74.5649 368.287 77.6859 367.575 79.2609 369.941C80.8359 372.307 80.2679 376.855 77.9929 380.1C75.7179 383.345 72.5969 384.057 71.0219 381.691C70.7019 381.21 70.4749 380.636 70.3279 380.005L54.5649 389.802C54.4619 391.858 53.7219 394.138 52.4209 395.993C50.1459 399.237 47.0249 399.95 45.4499 397.584C43.8759 395.219 44.4439 390.671 46.7189 387.426Z" fill="#B7B7B7"/>
<path d="M332.353 61.234C335.95 63.311 338.866 61.106 338.866 56.31C338.866 51.514 335.949 45.942 332.353 43.866C328.756 41.789 325.84 43.993 325.84 48.79C325.839 53.585 328.755 59.157 332.353 61.234ZM343.653 78.694C342.993 74.189 340.261 69.664 337.098 67.838L327.607 62.358C324.445 60.532 321.714 61.902 321.053 65.644L319.89 72.235C319.66 73.541 320.482 75.372 321.586 76.009L343.119 88.441C344.222 89.078 345.045 88.197 344.815 86.626L343.653 78.694ZM348.16 65.592C350.744 67.084 352.84 65.5 352.84 62.053C352.84 58.607 350.744 54.603 348.16 53.111C345.574 51.618 343.48 53.203 343.48 56.65C343.479 60.096 345.574 64.099 348.16 65.592ZM356.957 82.814L356.284 77.329C355.801 74.116 353.842 70.857 351.569 69.545L344.749 65.608C342.814 64.491 341.122 65.029 340.372 66.853C343.686 69.669 345.777 74.184 346.793 79.123L355.735 84.268C357.042 85.021 357.223 84.676 356.957 82.814Z" fill="#B7B7B7"/>
<path d="M437.443 382.008C441.04 379.931 443.956 374.36 443.956 369.564C443.956 364.768 441.04 362.563 437.443 364.64C433.846 366.717 430.929 372.288 430.929 377.084C430.929 381.881 433.846 384.085 437.443 382.008ZM421.635 386.367C424.22 384.874 426.315 380.871 426.315 377.425C426.315 373.978 424.22 372.393 421.635 373.886C419.051 375.378 416.955 379.382 416.955 382.828C416.956 386.275 419.051 387.858 421.635 386.367ZM449.905 393.009L448.742 386.418C448.082 382.676 445.35 381.307 442.188 383.132L432.697 388.612C429.534 390.438 426.802 394.963 426.142 399.468L424.98 407.399C424.75 408.971 425.572 409.851 426.676 409.215L448.209 396.783C449.313 396.146 450.135 394.315 449.905 393.009ZM429.422 387.627C428.672 385.803 426.98 385.265 425.045 386.382L418.225 390.32C415.952 391.632 413.993 394.891 413.51 398.104L412.837 403.589C412.571 405.451 412.752 405.796 414.058 405.042L423 399.897C424.017 394.957 426.109 390.443 429.422 387.627Z" fill="#B7B7B7"/>
<path d="M89.9901 191.383C89.3801 189.849 88.2071 188.643 86.6861 187.988C85.1661 187.332 83.4841 187.307 81.9511 187.918C79.6001 188.852 78.3431 191.415 78.1411 193.54L78.0031 194.987L76.9101 194.03C75.8041 193.061 74.0831 192.162 72.2711 192.162C71.6461 192.162 71.0091 192.269 70.3841 192.518C68.8491 193.127 67.6441 194.3 66.9881 195.821C66.3331 197.342 66.3071 199.024 66.9171 200.559C69.3271 206.617 77.0141 208.094 79.9081 208.65L83.7931 209.396L86.1021 206.188C87.8261 203.793 92.4001 197.441 89.9901 191.383Z" fill="#7B7B7B"/>
<path d="M131.493 443.86C123.032 435.129 118.062 412.448 126.315 405.523H168.306C176.557 412.446 171.592 435.115 163.136 443.852C163.064 443.933 162.98 444.012 162.904 444.092C162.807 444.189 162.71 444.287 162.613 444.38C162.374 444.614 162.121 444.843 161.848 445.068C161.781 445.124 161.713 445.174 161.646 445.229C161.439 445.393 161.234 445.558 161.008 445.717C160.647 445.976 160.283 446.217 159.914 446.424C152.954 450.488 141.669 450.488 134.71 446.424H134.709H134.708C134.336 446.215 133.97 445.973 133.607 445.712C133.396 445.565 133.207 445.411 133.012 445.258C132.929 445.191 132.845 445.129 132.762 445.06C132.499 444.843 132.255 444.622 132.024 444.396C131.911 444.288 131.799 444.175 131.688 444.063C131.624 443.995 131.554 443.929 131.493 443.86Z" fill="#37474F"/>
<path d="M164.66 402.734C174.241 408.328 174.241 417.398 164.66 422.991C155.079 428.585 139.544 428.585 129.963 422.991C120.382 417.397 120.382 408.328 129.964 402.734C139.545 397.14 155.079 397.14 164.66 402.734Z" fill="#455A64"/>
<path d="M160.051 405.425C167.087 409.533 167.087 416.193 160.051 420.301C153.015 424.409 141.607 424.409 134.571 420.301C127.535 416.193 127.535 409.533 134.571 405.424C141.608 401.317 153.016 401.317 160.051 405.425Z" fill="#263238"/>
<path d="M134.572 412.485C141.608 408.377 153.016 408.377 160.052 412.485C162.007 413.626 163.397 414.968 164.267 416.393C163.398 417.819 162.007 419.16 160.052 420.301C153.016 424.409 141.608 424.409 134.572 420.301C132.617 419.16 131.226 417.819 130.357 416.393C131.225 414.967 132.617 413.626 134.572 412.485Z" fill="#FAFAFA"/>
<path d="M144.487 356.486C141.269 359.973 132.325 360.933 128.622 351.511C125.149 342.674 121.4 334.299 120.331 331.055C119.262 327.811 122.469 326.742 122.469 326.742C122.469 326.742 122.724 321.888 130.952 325.177C139.096 328.432 144.984 333.46 148.57 341.534C152.106 349.494 149.994 355.401 144.487 356.486Z" fill="#55B45C"/>
<path opacity="0.45" d="M144.487 356.486C141.269 359.973 132.325 360.933 128.622 351.511C125.149 342.674 121.4 334.299 120.331 331.055C119.262 327.811 122.469 326.742 122.469 326.742C122.469 326.742 122.724 321.888 130.952 325.177C139.096 328.432 144.984 333.46 148.57 341.534C152.106 349.494 149.994 355.401 144.487 356.486Z" fill="white"/>
<path d="M148.048 368.942C147.893 367.294 147.674 365.649 147.335 364.028C146.66 360.803 145.74 357.642 144.606 354.549C142.297 348.248 139.075 342.336 135.071 336.95C132.82 333.922 130.36 331.006 127.578 328.45C127.494 328.372 127.428 328.561 127.485 328.621C132.068 333.553 136.095 338.854 139.221 344.834C142.263 350.652 144.566 356.815 146.01 363.222C146.414 365.012 146.799 366.811 147.128 368.616C147.463 370.451 147.653 372.305 147.962 374.142C147.993 374.326 148.277 374.438 148.293 374.188C148.397 372.448 148.21 370.675 148.048 368.942Z" fill="#55B45C"/>
<path opacity="0.3" d="M148.048 368.942C147.893 367.294 147.674 365.649 147.335 364.028C146.66 360.803 145.74 357.642 144.606 354.549C142.297 348.248 139.075 342.336 135.071 336.95C132.82 333.922 130.36 331.006 127.578 328.45C127.494 328.372 127.428 328.561 127.485 328.621C132.068 333.553 136.095 338.854 139.221 344.834C142.263 350.652 144.566 356.815 146.01 363.222C146.414 365.012 146.799 366.811 147.128 368.616C147.463 370.451 147.653 372.305 147.962 374.142C147.993 374.326 148.277 374.438 148.293 374.188C148.397 372.448 148.21 370.675 148.048 368.942Z" fill="black"/>
<path d="M150.797 354.043C143.408 356.328 137.918 350.561 139.818 341.516C141.718 332.471 151.219 322.431 154.808 325.128C157.048 322.888 161.986 323.692 164.309 331.037C166.632 338.382 164.52 357.248 150.797 354.043Z" fill="#55B45C"/>
<path opacity="0.25" d="M150.797 354.043C143.408 356.328 137.918 350.561 139.818 341.516C141.718 332.471 151.219 322.431 154.808 325.128C157.048 322.888 161.986 323.692 164.309 331.037C166.632 338.382 164.52 357.248 150.797 354.043Z" fill="white"/>
<path d="M155.131 330.631C152.932 335.824 151.493 341.398 150.219 346.881C148.916 352.488 148.052 358.186 147.366 363.898C146.04 374.95 145.814 386.126 145.885 397.246C145.905 400.323 145.949 403.4 146.008 406.476C146.068 409.64 146.017 412.846 146.289 415.999C146.393 417.208 148.113 416.886 148.134 415.778C148.243 410.239 147.939 404.676 147.883 399.134C147.827 393.657 147.846 388.177 147.986 382.701C148.27 371.551 149.084 360.397 150.977 349.396C151.504 346.33 152.089 343.269 152.804 340.241C153.556 337.054 154.478 333.915 155.315 330.751C155.348 330.626 155.204 330.46 155.131 330.631Z" fill="#55B45C"/>
<path opacity="0.3" d="M155.131 330.631C152.932 335.824 151.493 341.398 150.219 346.881C148.916 352.488 148.052 358.186 147.366 363.898C146.04 374.95 145.814 386.126 145.885 397.246C145.905 400.323 145.949 403.4 146.008 406.476C146.068 409.64 146.017 412.846 146.289 415.999C146.393 417.208 148.113 416.886 148.134 415.778C148.243 410.239 147.939 404.676 147.883 399.134C147.827 393.657 147.846 388.177 147.986 382.701C148.27 371.551 149.084 360.397 150.977 349.396C151.504 346.33 152.089 343.269 152.804 340.241C153.556 337.054 154.478 333.915 155.315 330.751C155.348 330.626 155.204 330.46 155.131 330.631Z" fill="black"/>
<path d="M138.772 380.567C135.543 384.222 128.145 383.899 123.184 377.377C118.223 370.855 115.243 346.334 122.225 347.897C123.704 344.623 142.998 352.483 145.474 368.486C147.274 380.118 138.772 380.567 138.772 380.567Z" fill="#55B45C"/>
<path opacity="0.25" d="M138.772 380.567C135.543 384.222 128.145 383.899 123.184 377.377C118.223 370.855 115.243 346.334 122.225 347.897C123.704 344.623 142.998 352.483 145.474 368.486C147.274 380.118 138.772 380.567 138.772 380.567Z" fill="white"/>
<path d="M144.543 392.155C144.342 390.638 143.988 389.159 143.591 387.683C142.784 384.677 141.824 381.721 140.72 378.811C138.464 372.861 135.505 367.258 132.098 361.892C130.212 358.921 128.232 355.954 125.979 353.246C125.917 353.171 125.859 353.341 125.894 353.393C127.618 355.906 129.364 358.389 130.916 361.016C132.523 363.736 133.963 366.56 135.29 369.426C137.845 374.944 139.99 380.649 141.654 386.498C142.127 388.159 142.516 389.842 143.006 391.498C143.515 393.217 144.157 394.903 144.589 396.643C144.652 396.896 144.975 396.988 144.942 396.654C144.794 395.156 144.741 393.652 144.543 392.155Z" fill="#55B45C"/>
<path opacity="0.3" d="M144.543 392.155C144.342 390.638 143.988 389.159 143.591 387.683C142.784 384.677 141.824 381.721 140.72 378.811C138.464 372.861 135.505 367.258 132.098 361.892C130.212 358.921 128.232 355.954 125.979 353.246C125.917 353.171 125.859 353.341 125.894 353.393C127.618 355.906 129.364 358.389 130.916 361.016C132.523 363.736 133.963 366.56 135.29 369.426C137.845 374.944 139.99 380.649 141.654 386.498C142.127 388.159 142.516 389.842 143.006 391.498C143.515 393.217 144.157 394.903 144.589 396.643C144.652 396.896 144.975 396.988 144.942 396.654C144.794 395.156 144.741 393.652 144.543 392.155Z" fill="black"/>
<path d="M150.586 376.943C146.363 375.981 146.152 370.908 151.43 364.683C156.708 358.458 170.009 355.744 170.643 358.368C173.599 358.368 173.599 367.627 167.054 376.132C160.509 384.638 150.982 382.66 150.586 376.943Z" fill="#55B45C"/>
<path opacity="0.25" d="M150.586 376.943C146.363 375.981 146.152 370.908 151.43 364.683C156.708 358.458 170.009 355.744 170.643 358.368C173.599 358.368 173.599 367.627 167.054 376.132C160.509 384.638 150.982 382.66 150.586 376.943Z" fill="white"/>
<path d="M158.86 367.891C156.088 369.875 153.642 372.127 151.55 374.832C149.472 377.518 147.843 380.496 146.636 383.669C146.498 384.031 147.124 384.56 147.273 384.167C149.627 377.95 153.716 372.176 158.884 367.977C158.915 367.95 158.913 367.853 158.86 367.891Z" fill="#55B45C"/>
<path opacity="0.3" d="M158.86 367.891C156.088 369.875 153.642 372.127 151.55 374.832C149.472 377.518 147.843 380.496 146.636 383.669C146.498 384.031 147.124 384.56 147.273 384.167C149.627 377.95 153.716 372.176 158.884 367.977C158.915 367.95 158.913 367.853 158.86 367.891Z" fill="black"/>
<path d="M155.411 407.842C149.561 410.21 152.068 417.175 157.779 422.468C163.49 427.761 171.655 429.154 175.582 428.875C179.509 428.596 180.514 428.058 180.514 428.058C180.514 428.058 181.14 422.036 180.484 418.376C179.561 413.228 175.793 405.99 166.696 403.524C157.598 401.058 155.411 404.359 155.411 407.842Z" fill="#55B45C"/>
<path opacity="0.45" d="M155.411 407.842C149.561 410.21 152.068 417.175 157.779 422.468C163.49 427.761 171.655 429.154 175.582 428.875C179.509 428.596 180.514 428.058 180.514 428.058C180.514 428.058 181.14 422.036 180.484 418.376C179.561 413.228 175.793 405.99 166.696 403.524C157.598 401.058 155.411 404.359 155.411 407.842Z" fill="white"/>
<path d="M171.606 418.128C168.895 415.099 166.064 412.089 162.648 409.841C159.317 407.649 154.876 405.779 150.882 407.145C149.334 407.674 146.928 409.217 147.218 411.134C147.247 411.324 147.585 411.797 147.813 411.534C148.529 410.709 149.041 409.752 149.919 409.076C150.832 408.373 151.925 408.018 153.06 407.885C155.847 407.559 158.81 408.452 161.262 409.751C165.218 411.848 168.41 415.102 171.56 418.221C171.594 418.255 171.633 418.158 171.606 418.128Z" fill="#55B45C"/>
<path opacity="0.3" d="M171.606 418.128C168.895 415.099 166.064 412.089 162.648 409.841C159.317 407.649 154.876 405.779 150.882 407.145C149.334 407.674 146.928 409.217 147.218 411.134C147.247 411.324 147.585 411.797 147.813 411.534C148.529 410.709 149.041 409.752 149.919 409.076C150.832 408.373 151.925 408.018 153.06 407.885C155.847 407.559 158.81 408.452 161.262 409.751C165.218 411.848 168.41 415.102 171.56 418.221C171.594 418.255 171.633 418.158 171.606 418.128Z" fill="black"/>
<path d="M133.138 377.887C133.692 375.222 129.849 368.844 117.855 367.621C105.86 366.398 96.876 371.487 95.064 373.81C93.252 376.133 92.339 378.581 94.514 379.189C96.689 379.797 104.183 380.528 109.104 382.793C114.025 385.058 124.024 391.749 130.85 389.759C137.675 387.769 136.531 380.533 133.138 377.887Z" fill="#55B45C"/>
<path opacity="0.45" d="M133.138 377.887C133.692 375.222 129.849 368.844 117.855 367.621C105.86 366.398 96.876 371.487 95.064 373.81C93.252 376.133 92.339 378.581 94.514 379.189C96.689 379.797 104.183 380.528 109.104 382.793C114.025 385.058 124.024 391.749 130.85 389.759C137.675 387.769 136.531 380.533 133.138 377.887Z" fill="white"/>
<path d="M142.255 387.172C137.196 376.724 124.16 373.535 113.504 373.593C109.974 373.612 106.529 374.057 103.112 374.944C103.065 374.956 103.058 375.074 103.115 375.065C108.83 374.163 114.753 373.959 120.476 374.889C126.132 375.808 131.688 377.565 136.341 381.006C138.629 382.698 140.571 384.922 142.014 387.37C142.164 387.623 142.358 387.385 142.255 387.172Z" fill="#55B45C"/>
<path opacity="0.3" d="M142.255 387.172C137.196 376.724 124.16 373.535 113.504 373.593C109.974 373.612 106.529 374.057 103.112 374.944C103.065 374.956 103.058 375.074 103.115 375.065C108.83 374.163 114.753 373.959 120.476 374.889C126.132 375.808 131.688 377.565 136.341 381.006C138.629 382.698 140.571 384.922 142.014 387.37C142.164 387.623 142.358 387.385 142.255 387.172Z" fill="black"/>
<path d="M161.079 363.89C160.925 368.086 166.829 370.52 172.542 366.894C178.255 363.268 184.245 359.736 189.538 358.368C194.831 357 197.338 352.682 195.667 350.593C193.995 348.503 191.337 343.231 177.42 344.952C163.502 346.673 158.573 352.944 156.665 357.372C154.757 361.799 158.985 365.099 161.079 363.89Z" fill="#55B45C"/>
<path opacity="0.45" d="M161.079 363.89C160.925 368.086 166.829 370.52 172.542 366.894C178.255 363.268 184.245 359.736 189.538 358.368C194.831 357 197.338 352.682 195.667 350.593C193.995 348.503 191.337 343.231 177.42 344.952C163.502 346.673 158.573 352.944 156.665 357.372C154.757 361.799 158.985 365.099 161.079 363.89Z" fill="white"/>
<path d="M183.729 350.574C181.764 350.265 179.666 350.71 177.761 351.2C176.005 351.652 174.297 352.268 172.652 353.03C169.385 354.544 166.411 356.704 163.95 359.333C163.25 360.081 162.583 360.866 161.985 361.698C161.449 362.444 160.797 363.257 160.499 364.132C160.405 364.408 160.808 364.857 161.052 364.576C161.741 363.782 162.258 362.81 162.905 361.973C163.6 361.074 164.344 360.216 165.144 359.409C166.751 357.788 168.559 356.375 170.506 355.185C172.395 354.031 174.366 353.048 176.448 352.293C177.585 351.881 178.738 351.548 179.911 351.254C181.16 350.941 182.396 350.633 183.695 350.728C183.762 350.734 183.796 350.585 183.729 350.574Z" fill="#55B45C"/>
<path opacity="0.3" d="M183.729 350.574C181.764 350.265 179.666 350.71 177.761 351.2C176.005 351.652 174.297 352.268 172.652 353.03C169.385 354.544 166.411 356.704 163.95 359.333C163.25 360.081 162.583 360.866 161.985 361.698C161.449 362.444 160.797 363.257 160.499 364.132C160.405 364.408 160.808 364.857 161.052 364.576C161.741 363.782 162.258 362.81 162.905 361.973C163.6 361.074 164.344 360.216 165.144 359.409C166.751 357.788 168.559 356.375 170.506 355.185C172.395 354.031 174.366 353.048 176.448 352.293C177.585 351.881 178.738 351.548 179.911 351.254C181.16 350.941 182.396 350.633 183.695 350.728C183.762 350.734 183.796 350.585 183.729 350.574Z" fill="black"/>
<path d="M151.093 386.53C149.143 384.58 143.85 385.033 141.343 390.796C138.836 396.559 144.098 402.864 144.686 404.638C147.105 403.241 148.985 404.074 153.243 403.241C157.501 402.409 161.68 397.92 161.401 392.643C161.122 387.366 158.893 383.883 151.093 386.53Z" fill="#55B45C"/>
<path opacity="0.45" d="M151.093 386.53C149.143 384.58 143.85 385.033 141.343 390.796C138.836 396.559 144.098 402.864 144.686 404.638C147.105 403.241 148.985 404.074 153.243 403.241C157.501 402.409 161.68 397.92 161.401 392.643C161.122 387.366 158.893 383.883 151.093 386.53Z" fill="white"/>
<path d="M151.02 385.949C149.975 386.456 149.081 387.688 148.436 388.623C147.747 389.623 147.183 390.715 146.762 391.854C145.904 394.176 145.544 396.748 146.025 399.192C146.043 399.285 146.12 399.2 146.116 399.141C145.956 396.648 146.313 394.171 147.349 391.887C147.819 390.851 148.41 389.874 149.106 388.974C149.473 388.5 149.863 388.043 150.282 387.615C150.641 387.249 151.13 386.935 151.402 386.499C151.54 386.279 151.317 385.805 151.02 385.949Z" fill="#55B45C"/>
<path opacity="0.3" d="M151.02 385.949C149.975 386.456 149.081 387.688 148.436 388.623C147.747 389.623 147.183 390.715 146.762 391.854C145.904 394.176 145.544 396.748 146.025 399.192C146.043 399.285 146.12 399.2 146.116 399.141C145.956 396.648 146.313 394.171 147.349 391.887C147.819 390.851 148.41 389.874 149.106 388.974C149.473 388.5 149.863 388.043 150.282 387.615C150.641 387.249 151.13 386.935 151.402 386.499C151.54 386.279 151.317 385.805 151.02 385.949Z" fill="black"/>
<path d="M141.915 398.208C141.736 393.918 137.088 390.521 130.474 388.554C123.859 386.587 116.709 388.247 111.882 393.496C107.055 398.744 104.552 403.214 106.519 404.465C108.485 405.716 117.245 408.934 122.966 410.722C128.687 412.51 136.195 413.046 141.916 409.649C147.636 406.253 147.278 400.353 141.915 398.208Z" fill="#55B45C"/>
<path opacity="0.25" d="M141.915 398.208C141.736 393.918 137.088 390.521 130.474 388.554C123.859 386.587 116.709 388.247 111.882 393.496C107.055 398.744 104.552 403.214 106.519 404.465C108.485 405.716 117.245 408.934 122.966 410.722C128.687 412.51 136.195 413.046 141.916 409.649C147.636 406.253 147.278 400.353 141.915 398.208Z" fill="white"/>
<path d="M142.283 397.726C140.16 396.494 137.507 396.052 135.096 395.807C132.703 395.564 130.285 395.612 127.898 395.894C125.374 396.192 122.88 396.751 120.445 397.469C119.17 397.845 117.908 398.263 116.661 398.722C115.501 399.149 114.289 399.551 113.201 400.145C113.159 400.168 113.134 400.31 113.208 400.295C114.42 400.042 115.605 399.569 116.789 399.205C118.066 398.812 119.348 398.435 120.641 398.099C123.057 397.47 125.505 396.973 127.989 396.71C130.467 396.448 132.979 396.429 135.454 396.736C137.788 397.026 139.972 397.746 142.22 398.391C142.681 398.523 142.544 397.877 142.283 397.726Z" fill="#55B45C"/>
<path opacity="0.3" d="M142.283 397.726C140.16 396.494 137.507 396.052 135.096 395.807C132.703 395.564 130.285 395.612 127.898 395.894C125.374 396.192 122.88 396.751 120.445 397.469C119.17 397.845 117.908 398.263 116.661 398.722C115.501 399.149 114.289 399.551 113.201 400.145C113.159 400.168 113.134 400.31 113.208 400.295C114.42 400.042 115.605 399.569 116.789 399.205C118.066 398.812 119.348 398.435 120.641 398.099C123.057 397.47 125.505 396.973 127.989 396.71C130.467 396.448 132.979 396.429 135.454 396.736C137.788 397.026 139.972 397.746 142.22 398.391C142.681 398.523 142.544 397.877 142.283 397.726Z" fill="black"/>
<path d="M155.563 391.819C150.835 388.064 152.411 379.055 168.958 378.569C185.505 378.083 197.324 382.403 196.798 387.728C199.461 390.391 198.111 397.852 184.716 400.181C171.322 402.51 152.149 401.353 155.563 391.819Z" fill="#55B45C"/>
<path opacity="0.25" d="M155.563 391.819C150.835 388.064 152.411 379.055 168.958 378.569C185.505 378.083 197.324 382.403 196.798 387.728C199.461 390.391 198.111 397.852 184.716 400.181C171.322 402.51 152.149 401.353 155.563 391.819Z" fill="white"/>
<path d="M189.015 387.788C184.169 386.896 179.148 386.787 174.234 386.926C169.694 387.054 164.986 387.269 160.587 388.494C159.444 388.812 158.329 389.218 157.259 389.731C156.764 389.968 156.276 390.223 155.807 390.508C155.432 390.736 155.012 390.935 154.876 391.375C154.794 391.642 155.103 391.964 155.369 391.902C156.375 391.667 157.313 390.891 158.263 390.467C159.191 390.053 160.153 389.713 161.127 389.424C163.003 388.869 164.937 388.534 166.876 388.292C171.496 387.715 176.187 387.46 180.843 387.522C183.564 387.558 186.272 387.764 188.983 387.98C189.066 387.986 189.098 387.803 189.015 387.788Z" fill="#55B45C"/>
<path opacity="0.3" d="M189.015 387.788C184.169 386.896 179.148 386.787 174.234 386.926C169.694 387.054 164.986 387.269 160.587 388.494C159.444 388.812 158.329 389.218 157.259 389.731C156.764 389.968 156.276 390.223 155.807 390.508C155.432 390.736 155.012 390.935 154.876 391.375C154.794 391.642 155.103 391.964 155.369 391.902C156.375 391.667 157.313 390.891 158.263 390.467C159.191 390.053 160.153 389.713 161.127 389.424C163.003 388.869 164.937 388.534 166.876 388.292C171.496 387.715 176.187 387.46 180.843 387.522C183.564 387.558 186.272 387.764 188.983 387.98C189.066 387.986 189.098 387.803 189.015 387.788Z" fill="black"/>
<path d="M319.267 377.917L298.441 73.059C297.948 65.832 293.939 63.921 290.375 62.154C286.811 60.386 281.073 59.39 276.364 62.109L155.814 131.708C151.105 134.426 147.577 140.871 147.934 146.102L168.76 450.96C169.117 456.191 172.867 459.2 176.431 460.968C179.995 462.736 186.129 464.63 190.838 461.911L311.388 392.311C316.096 389.592 319.763 385.202 319.267 377.917Z" fill="#37474F"/>
<path d="M311.49 380.744L187.528 452.313L166.66 146.24L149.974 137.963C148.549 140.567 147.756 143.486 147.934 146.101L168.76 450.96C169.117 456.191 172.867 459.2 176.431 460.968C179.995 462.736 186.129 464.63 190.837 461.911L311.387 392.311C314.328 390.613 317.179 388.095 318.508 384.225L317.992 383.969L311.49 380.744Z" fill="#263238"/>
<path d="M289.196 70.823L168.3 140.625C165.003 142.524 162.516 147.066 162.765 150.72L183.434 453.297C183.817 458.912 188.278 461.119 193.333 458.195L311.014 390.256C314.742 388.101 317.563 382.957 317.28 378.81L296.49 74.441C296.207 70.294 292.924 68.669 289.196 70.823Z" fill="#455A64"/>
<path d="M291.276 87.885L310.706 372.29C310.975 376.24 308.301 381.134 304.756 383.172L195.767 446.098C192.214 448.165 189.111 446.627 188.841 442.668L169.281 156.35C169.063 153.149 170.767 149.328 173.334 146.912C173.536 146.728 173.728 146.543 173.931 146.368C174.349 146.037 174.788 145.733 175.231 145.477L205.887 127.776C205.887 127.776 206.782 127.255 207.885 126.624C208.988 125.984 209.951 126.457 210.035 127.688C210.118 128.91 211.142 129.363 212.323 128.674L248.049 108.05C249.22 107.371 250.118 105.825 250.034 104.603C249.956 103.457 250.678 102.047 251.674 101.343C251.742 101.294 251.811 101.255 251.88 101.215L281.867 83.908L282.506 83.534C286.996 80.947 290.936 82.903 291.276 87.885Z" fill="black"/>
<path d="M281.867 83.91L251.88 101.217C251.811 101.256 251.742 101.296 251.674 101.344C250.678 102.048 249.956 103.458 250.034 104.604C250.117 105.826 249.22 107.372 248.049 108.051L212.323 128.675C211.142 129.364 210.119 128.911 210.035 127.689C209.951 126.458 208.988 125.985 207.885 126.625C206.782 127.255 205.886 127.777 205.886 127.777L175.23 145.478C174.787 145.734 174.347 146.037 173.93 146.369C173.727 146.544 173.535 146.728 173.333 146.913C170.766 149.329 169.062 153.149 169.28 156.351L188.841 442.67C188.876 443.186 188.962 443.659 189.088 444.09C189.571 443.938 190.067 443.725 190.575 443.429L299.564 380.503C303.109 378.465 305.783 373.571 305.514 369.621L286.084 85.216C286.012 84.159 285.77 83.247 285.402 82.477C284.486 82.618 283.512 82.958 282.507 83.538L281.867 83.91Z" fill="white"/>
<path d="M217.238 118.075L233.615 108.62C234.592 108.056 235.44 108.424 235.51 109.442C235.579 110.46 234.844 111.743 233.867 112.307L217.49 121.762C216.513 122.326 215.665 121.958 215.595 120.94C215.525 119.922 216.261 118.639 217.238 118.075Z" fill="#263238"/>
<path d="M241.968 103.02C243.069 102.385 244.028 102.861 244.112 104.083C244.195 105.306 243.371 106.812 242.27 107.448C241.169 108.083 240.21 107.608 240.126 106.385C240.043 105.162 240.868 103.656 241.968 103.02Z" fill="#263238"/>
<path d="M162.865 194.576C162.724 192.515 161.093 190.092 159.221 189.163C158.317 188.715 157.528 188.702 156.968 189.039C156.573 189.277 155.016 190.144 154.604 190.392C154.006 190.751 153.67 191.507 153.742 192.566L155.303 215.452C155.444 217.513 157.075 219.936 158.947 220.865C159.81 221.293 160.568 221.324 161.123 221.033C161.559 220.804 163.149 219.885 163.56 219.64C164.161 219.283 164.499 218.525 164.426 217.464L162.865 194.576Z" fill="#455A64"/>
<path d="M160.521 195.928L162.082 218.814C162.223 220.875 160.819 221.793 158.947 220.864C157.075 219.935 155.443 217.512 155.303 215.451L153.742 192.565C153.601 190.504 155.005 189.586 156.877 190.515C158.749 191.443 160.38 193.867 160.521 195.928Z" fill="#37474F"/>
<path d="M165.597 234.632C165.456 232.571 163.825 230.148 161.953 229.219C161.049 228.771 160.26 228.757 159.7 229.095C159.305 229.333 157.748 230.2 157.336 230.448C156.738 230.807 156.402 231.562 156.474 232.622L158.035 255.508C158.176 257.569 159.807 259.992 161.679 260.921C162.542 261.349 163.3 261.38 163.855 261.089C164.291 260.86 165.881 259.941 166.292 259.696C166.893 259.338 167.231 258.581 167.158 257.52L165.597 234.632Z" fill="#455A64"/>
<path d="M163.254 235.983L164.815 258.869C164.956 260.93 163.552 261.848 161.68 260.919C159.808 259.99 158.176 257.567 158.036 255.506L156.475 232.62C156.334 230.559 157.738 229.641 159.61 230.57C161.482 231.499 163.113 233.922 163.254 235.983Z" fill="#37474F"/>
<path d="M194.906 86.759L191.904 81.114L194.32 74.141V69.873L186.928 74.141V78.409L190.106 83.914C190.16 84.007 190.237 84.068 190.322 84.106L190.32 84.109L194.906 86.759Z" fill="#55B45C"/>
<path opacity="0.15" d="M194.906 86.759L191.904 81.114L194.32 74.141V69.873L186.928 74.141V78.409L190.106 83.914C190.16 84.007 190.237 84.068 190.322 84.106L190.32 84.109L194.906 86.759Z" fill="black"/>
<path d="M214.264 34.961C214.264 33.548 213.272 31.829 212.048 31.122L210.243 30.08C209.019 29.373 207.035 29.373 205.81 30.08L170.734 50.367C169.51 51.074 168.517 52.792 168.517 54.206V84.657C168.517 86.071 169.51 87.789 170.734 88.496L172.539 89.538C173.763 90.245 175.748 90.245 176.972 89.538L191.569 81.098L194.741 86.592C194.944 86.943 195.466 86.894 195.598 86.51L198.95 76.834L212.048 69.251C213.272 68.545 214.264 66.826 214.264 65.412V34.961Z" fill="#55B45C"/>
<path opacity="0.15" d="M168.518 84.657C168.518 86.071 169.511 87.789 170.734 88.496L172.539 89.538C173.646 90.177 175.367 90.232 176.593 89.717C175.55 90.112 174.756 89.523 174.756 88.259V57.808C174.756 57.101 175.004 56.319 175.405 55.624L169.168 52.023C168.767 52.717 168.519 53.5 168.519 54.207L168.518 84.657Z" fill="black"/>
<path opacity="0.45" d="M214.191 34.331C213.932 33.39 213.074 33.09 212.051 33.68L176.97 53.97C176.36 54.321 175.802 54.921 175.409 55.624L169.174 52.026C169.577 51.323 170.125 50.723 170.735 50.372L205.805 30.082C207.035 29.379 209.02 29.379 210.241 30.082L212.05 31.126C213.096 31.725 213.974 33.069 214.191 34.331Z" fill="white"/>
<path d="M196.827 54.746L190.678 58.296V53.446L179.748 69.758L190.678 73.449V68.6L196.827 65.05C202.766 61.621 206.018 60.66 207.78 65.028C208.962 53.601 204.18 50.501 196.827 54.746Z" fill="white"/>
<path d="M375.459 390.139L372.457 384.494L374.873 377.521V373.253L367.481 377.521V381.789L370.659 387.294C370.713 387.387 370.79 387.448 370.875 387.486L370.873 387.489L375.459 390.139Z" fill="#55B45C"/>
<path opacity="0.15" d="M375.459 390.139L372.457 384.494L374.873 377.521V373.253L367.481 377.521V381.789L370.659 387.294C370.713 387.387 370.79 387.448 370.875 387.486L370.873 387.489L375.459 390.139Z" fill="black"/>
<path d="M394.817 338.341C394.817 336.928 393.825 335.209 392.601 334.502L390.796 333.46C389.572 332.753 387.588 332.753 386.363 333.46L351.287 353.747C350.063 354.454 349.07 356.173 349.07 357.586V388.037C349.07 389.451 350.063 391.169 351.287 391.876L353.092 392.918C354.316 393.625 356.301 393.625 357.525 392.918L372.122 384.478L375.294 389.972C375.497 390.323 376.018 390.274 376.151 389.89L379.503 380.214L392.601 372.631C393.825 371.925 394.817 370.206 394.817 368.792V338.341Z" fill="#55B45C"/>
<path opacity="0.15" d="M349.071 388.037C349.071 389.451 350.063 391.169 351.287 391.876L353.092 392.918C354.199 393.557 355.92 393.612 357.146 393.097C356.103 393.492 355.309 392.903 355.309 391.639V361.188C355.309 360.481 355.557 359.698 355.958 359.004L349.721 355.403C349.32 356.098 349.072 356.88 349.072 357.587V388.037H349.071Z" fill="black"/>
<path opacity="0.45" d="M394.745 337.711C394.486 336.77 393.628 336.47 392.605 337.06L357.524 357.35C356.914 357.701 356.356 358.301 355.962 359.004L349.727 355.406C350.13 354.703 350.678 354.103 351.288 353.752L386.358 333.462C387.588 332.759 389.573 332.759 390.794 333.462L392.603 334.506C393.649 335.106 394.528 336.45 394.745 337.711Z" fill="white"/>
<path d="M361.533 382.697C363.295 376.295 366.547 373.501 372.486 370.072L378.635 366.522V371.372L389.565 355.06L378.635 351.369V356.219L372.486 359.769C365.132 364.014 360.35 372.635 361.533 382.697Z" fill="white"/>
<path opacity="0.15" d="M230.847 425.394C259.84 432.359 274.943 458.179 308.691 451.204C320.56 449.388 336.361 439.386 325.135 428.731C304.323 413.85 277.03 420.372 253.928 409.602C245.626 406.063 237.177 399.521 228.621 396.703C219.467 394.109 209.532 392.895 200.703 397.335C198.509 398.26 194.973 400.792 195.779 406.089C197.63 418.26 220.507 422.246 230.847 425.394Z" fill="black"/>
<path d="M231.43 406.379C232.1 402.792 228.585 400.668 226.889 398.681C224.265 395.608 223.384 390.743 223.262 386.981C223.111 382.288 222.432 378.959 225.094 374.613C228.245 369.468 232.675 363.416 247.709 348.45L227.047 338.671C223.281 345.329 214.694 359.062 214.694 359.062L213.903 360.268C212.089 362.698 211.096 364.578 208.257 366.706C208.243 366.716 207.226 367.299 207.213 367.309C205.432 368.667 200.827 370.208 201.084 374.702C201.341 379.196 203.086 380.245 205.2 383.855C206.548 386.156 207.512 387.313 207.781 391.801C207.998 395.417 207.826 396.983 207.917 400.223C207.994 402.95 210.591 406.82 215.742 408.407C223.248 410.719 230.771 409.908 231.43 406.379Z" fill="#FFA8A7"/>
<path d="M198.456 374.926C197.238 376.616 194.084 382.306 193.293 384.994L198.69 392.187L202.68 384.582C202.68 384.582 199.395 380.043 198.456 374.926Z" fill="#263238"/>
<path d="M198.689 392.188L205.678 391.434C205.678 391.434 206.186 388.954 204.81 386.995C203.435 385.036 202.679 384.583 202.679 384.583L198.689 392.188Z" fill="black"/>
<path d="M199.796 373.209C199.796 373.209 198.801 374.022 198.502 374.764C198.201 375.51 198.762 380.124 200.308 382.312C201.854 384.5 204.321 386.791 205.033 389.961C205.745 393.132 204.622 398.066 206.032 402.48C207.441 406.894 211.811 411.841 220.949 412.709C227.48 413.329 229.881 411.97 231.998 410.491C232.669 407.569 232.563 406.817 228.916 404.503C225.269 402.19 199.796 373.209 199.796 373.209Z" fill="#263238"/>
<path d="M211.432 360.984C208.66 364.669 207.669 366.083 205.052 367.786C201.885 369.847 201.243 370.654 199.796 373.209C199.294 377.098 200.112 378.671 203.748 383.487C206.236 386.783 207.097 388.978 207.215 393.631C207.358 399.26 205.519 401.987 212.389 407.501C217.739 411.796 229.065 411.678 232.013 408.448C234.337 400.673 227.625 401.473 225.717 393.395C224.66 388.92 223.692 383.974 224.882 379.422C225.293 377.85 225.978 376.441 226.819 375.068C227.577 373.831 229.871 371.041 228.493 369.567L227.557 370.891C225.927 371.325 222.286 370.722 219.577 368.64C213.038 363.616 213.903 360.268 213.903 360.268L214.694 359.062C214.021 358.292 213.005 358.894 211.432 360.984Z" fill="#37474F"/>
<path d="M251.292 272.31L266.624 251.388C266.624 251.388 297.168 234.417 297.171 233.734C297.171 233.734 303.232 251.224 298.679 274.921C293.933 299.625 281.089 317.623 274.567 325.266C268.045 332.909 234.234 362.971 234.234 362.971C230.844 362.483 221.385 355.049 220.192 350.164C220.192 350.164 227.594 336.903 231.968 330.091C237.681 321.196 239.359 316.942 250.077 309.472C249.223 300.33 251.292 272.31 251.292 272.31Z" fill="#37474F"/>
<path d="M224.567 349.292L223.873 348.849L224.29 348.196C234.569 332.114 244.342 317.174 267.116 312.289L267.288 313.094C244.85 317.907 235.18 332.686 224.984 348.64L224.567 349.292Z" fill="#263238"/>
<path d="M242.818 315.266C243.172 314.93 243.541 314.592 243.928 314.249C244.08 314.115 244.236 313.979 244.394 313.843C244.761 313.526 245.146 313.204 245.545 312.878C245.728 312.729 245.909 312.58 246.1 312.429C246.52 312.094 246.967 311.751 247.425 311.405C247.613 311.263 247.79 311.124 247.985 310.98C248.645 310.49 249.336 309.991 250.08 309.473C250.045 309.098 250.016 308.681 249.991 308.245C249.985 308.135 249.978 308.021 249.972 307.907C249.951 307.493 249.932 307.062 249.918 306.604C249.917 306.565 249.915 306.529 249.914 306.489C249.899 305.985 249.89 305.451 249.883 304.9C249.881 304.775 249.88 304.647 249.879 304.52C249.875 304.008 249.873 303.484 249.874 302.94C249.874 302.886 249.874 302.834 249.874 302.779C249.876 302.165 249.882 301.531 249.892 300.884C249.894 300.778 249.895 300.671 249.897 300.564C249.906 299.951 249.918 299.328 249.933 298.692C249.934 298.652 249.934 298.614 249.935 298.574C249.952 297.86 249.972 297.134 249.995 296.4C249.996 296.377 249.997 296.353 249.997 296.329C250.02 295.601 250.045 294.866 250.072 294.127C250.072 294.117 250.073 294.106 250.073 294.096L279.906 269.159C280.041 268.507 294.125 259.361 294.125 259.361C293.101 268.312 283.91 272.438 283.91 272.438L287.044 306.943C286.859 307.252 284.407 311.506 284.222 311.808C284.004 312.165 283.787 312.524 283.57 312.871C283.219 313.431 282.872 313.971 282.525 314.505C282.35 314.775 282.173 315.057 281.999 315.32C281.498 316.077 281.003 316.806 280.517 317.507C280.338 317.764 280.165 318.003 279.988 318.252C279.661 318.715 279.334 319.174 279.015 319.61C278.821 319.876 278.631 320.131 278.44 320.386C278.145 320.782 277.853 321.17 277.569 321.541C277.391 321.774 277.213 322.005 277.039 322.228C276.736 322.616 276.442 322.986 276.154 323.343C276.02 323.51 275.882 323.684 275.751 323.844C275.34 324.348 274.941 324.828 274.568 325.265C271.056 329.382 259.632 339.997 249.833 348.92C249.618 344.581 249.866 339.916 250.293 334.798L242.587 315.481C242.663 315.411 242.742 315.339 242.818 315.266Z" fill="#263238"/>
<path d="M217.487 354.568C217.487 354.568 217.167 358.812 222.754 363.163C227.171 366.604 231.617 366.172 231.617 366.172L238.218 359.708C238.218 359.708 234.702 360.66 229.179 355.896C223.388 350.901 223.127 344.678 223.127 344.678L217.487 354.568Z" fill="#455A64"/>
<path d="M278.289 427.44C280.06 432.63 286.174 433.777 290.967 432.189C293.672 431.293 294.975 428.227 296.685 426.19C299.213 423.18 302.948 421.486 306.618 420.079C310.289 418.672 314.108 417.412 317.196 414.979C319.808 412.921 321.784 410.066 322.789 406.896C323.109 405.886 323.335 404.812 323.147 403.769C322.695 401.25 319.923 399.708 317.364 399.704C314.805 399.701 312.403 400.834 310.054 401.852C306.884 403.225 303.639 404.426 300.339 405.446C299.302 405.767 298.241 406.072 297.155 406.073C295.446 406.074 292.843 404.735 292.19 403.272C291.148 400.937 289.961 375.032 289.979 373.83L265.276 380.086C265.276 380.086 274.539 408.079 276.014 412.8C276.158 413.26 276.247 413.733 276.329 414.207C277.084 418.601 276.832 423.171 278.289 427.44Z" fill="#FFA8A7"/>
<path d="M243.596 233.734C235.17 251.262 232.043 258.148 235.547 275.806C237.934 287.833 245.58 307.832 254.773 334.799C254.127 350.264 256.452 354.94 259.728 365.698C264.739 382.154 270.801 396.824 270.801 396.824C270.801 396.824 275.14 389.944 291.098 390.873C290.113 375.318 289.2 344.798 287.901 333.525C285.972 316.786 280.51 268.995 280.51 268.995C280.51 268.995 301.438 268.474 297.172 233.734H243.596Z" fill="#37474F"/>
<path d="M276.25 392.855C272.653 383.432 268.797 372.532 266.645 364.214C264.099 354.375 263.301 347.557 263.043 343.465C262.78 339.308 262.726 334.189 262.632 332.382C262.322 326.412 259.743 313.77 255.089 299.917C250.977 287.675 248.627 275.171 247.401 267.772C247.54 267.779 247.681 267.799 247.818 267.799C249.465 267.799 250.998 267.249 252.385 266.16C256.508 262.922 259.317 255.024 260.737 242.687L259.918 242.592C258.544 254.533 255.764 262.458 251.876 265.512C250.488 266.602 248.941 267.08 247.272 266.945C245.56 255.171 248.589 246.731 251.272 239.279C251.96 237.368 252.603 235.556 253.165 233.734H252.299C251.759 235.458 251.15 237.183 250.496 239C247.757 246.612 244.65 255.239 246.499 267.391C247.623 274.783 250.092 287.63 254.307 300.179C258.738 313.37 261.504 326.567 261.808 332.424C261.899 334.18 261.958 339.308 262.219 343.405C262.483 347.541 263.142 353.824 265.89 364.215C267.959 372.037 271.975 384.172 275.505 393.215C275.738 393.093 276 392.975 276.25 392.855Z" fill="#263238"/>
<path d="M321.322 398.658C319.129 396.359 314.706 397.873 311.858 399.029C305.842 401.47 304.024 403.135 299.568 403.988C293.106 405.225 293.307 401.521 293.307 401.521C293.307 401.521 288.602 398.103 280.255 402.661C274.326 405.899 274.378 410.108 274.378 410.108C274.378 410.108 276.118 413.926 276.351 419.974C276.583 426.021 277.122 427.942 277.89 429.647L304.821 412.032L306.743 411.58C312.565 408.412 321.322 398.658 321.322 398.658Z" fill="#37474F"/>
<path d="M324.622 403.055C324.335 401.335 323.742 400.256 322.929 399.672C322.618 399.448 321.53 398.809 321.321 398.658C318.555 396.663 313.234 400.403 308.723 404.11C303.468 408.428 294.361 409.06 289.988 415.064C285.615 421.069 280.445 423.207 278.642 425.861C277.363 427.744 277.576 429.895 278.854 431.436C279.1 431.732 280.013 432.67 280.195 432.862C281.468 434.208 283.808 434.842 286.63 434.441C292.324 433.631 296.465 432.037 301.453 425.623C306.441 419.208 312.199 422.53 317.85 418.531C323.504 414.533 325.524 408.461 324.622 403.055Z" fill="#263238"/>
<path d="M324.622 403.055C323.358 395.479 316.166 400.339 310.332 405.133C305.078 409.451 295.971 410.082 291.598 416.087C287.225 422.092 281.935 424.153 280.252 426.883C277.193 431.848 280.937 435.251 286.631 434.442C292.325 433.632 296.466 432.038 301.454 425.624C306.442 419.209 312.2 422.531 317.851 418.532C323.503 414.533 325.524 408.461 324.622 403.055Z" fill="black"/>
<path d="M304.29 422.015L291.598 416.088C287.225 422.093 281.935 424.154 280.252 426.884C278.708 429.389 278.371 430.731 278.371 430.731L280.342 435.023C280.374 435.059 280.974 435.705 281.008 435.741L281.026 435.761L281.028 435.76C282.309 437.079 284.629 437.702 287.424 437.304C293.117 436.495 297.259 434.901 302.247 428.486C303.278 427.16 304.205 425.972 305.083 424.877L304.29 422.015Z" fill="#263238"/>
<path d="M281.045 429.744C277.986 434.709 281.73 438.112 287.424 437.303C293.117 436.494 297.259 434.9 302.247 428.485C303.278 427.159 304.205 425.971 305.083 424.876L292.39 418.949C288.017 424.953 282.727 427.014 281.045 429.744Z" fill="black"/>
<path d="M267.399 388.11L271.557 399.119C271.557 399.119 276.799 392.678 291.236 393.657L290.558 381.575C290.558 381.575 276.309 378.618 267.399 388.11Z" fill="#455A64"/>
<path d="M268.435 128.774C260.501 128.374 256.96 135.615 257.955 144.029C258.736 150.631 257.664 153.544 253.879 157.474C250.095 161.404 247.152 165.023 250.677 171.487C254.202 177.95 253.443 180.447 251.55 184.085C265.55 195.364 287.669 194.593 303.773 188.306C319.721 182.08 318.147 172.985 318.147 172.985C318.147 172.985 312.463 175.042 310.539 170.012C308.114 163.672 318.497 163.431 316.311 154.096C315.01 148.542 309.97 147.304 310.698 142.371C311.05 139.984 315.158 133.803 310.064 126.883C305.285 120.391 297.465 115.727 283.542 117.295C277.125 118.017 269.325 122.393 268.435 128.774Z" fill="#37474F"/>
<path d="M317.981 194.216C325.322 204.614 326.631 206.691 326.631 206.691C331.793 196.641 335.729 189.691 337.155 185.237C338.581 180.784 346.852 172.284 346.852 172.284C351.228 174.628 353.109 182.854 348.92 189.781C345.873 194.819 345.897 208.881 338.279 225.642C334.295 234.407 328.675 235.346 320.153 227.367C314.182 221.776 303.884 209.693 303.884 209.693L296.755 174.297C307.493 176.186 310.83 184.087 317.981 194.216Z" fill="#FFA8A7"/>
<path d="M360.164 176C359.299 179.026 357.599 180.816 356.598 182.233C352.707 187.742 351.525 186.694 347.994 190.799L346.118 176.502C344.855 172.105 347.008 170.812 350.606 170.832L360.164 176Z" fill="#F28F8F"/>
<path d="M331.712 163.475C334.556 166.573 339.372 166.778 342.47 163.934C345.567 161.09 345.773 156.273 342.929 153.176C340.085 150.079 335.269 149.873 332.171 152.717C329.074 155.562 328.868 160.378 331.712 163.475Z" fill="#455A64"/>
<path d="M335.166 161.611C336.726 161.264 340.773 160.362 344.849 159.454C344.601 161.117 343.805 162.709 342.47 163.935C339.373 166.779 334.556 166.573 331.712 163.476C330.645 162.315 330.008 160.911 329.791 159.46C330.603 161.35 332.052 162.304 335.166 161.611Z" fill="#37474F"/>
<path d="M341.978 161.186L343.812 155.34C346.753 160.952 352.296 168.337 357.162 173.017L356.428 175.355C352.772 173.209 346.972 167.304 341.978 161.186Z" fill="#37474F"/>
<path d="M337.192 165.51L340.765 166.095L346.443 172.196C348.986 174.928 352.775 176.127 356.426 175.354C352.227 172.657 346.571 166.712 341.976 161.185L337.192 165.51Z" fill="#455A64"/>
<path d="M348.813 167.731C348.795 167.789 348.777 167.847 348.759 167.903C348.673 168.178 348.374 168.452 348.092 168.515L346.723 168.82C346.441 168.883 346.371 169.106 346.566 169.318L346.686 169.449C346.881 169.661 347.268 169.783 347.549 169.721L348.941 169.412C349.222 169.349 349.518 169.075 349.6 168.798L349.648 168.636C349.73 168.359 349.639 167.963 349.444 167.75L349.322 167.617C349.128 167.404 348.899 167.455 348.813 167.731Z" fill="#55B45C"/>
<path d="M350.8 169.613C350.782 169.671 350.764 169.729 350.746 169.785C350.66 170.06 350.361 170.334 350.08 170.397L348.711 170.702C348.429 170.765 348.359 170.988 348.554 171.2L348.674 171.331C348.869 171.544 349.256 171.665 349.537 171.603L350.929 171.294C351.211 171.232 351.506 170.957 351.588 170.68L351.637 170.517C351.719 170.241 351.627 169.844 351.433 169.631L351.311 169.498C351.115 169.287 350.887 169.338 350.8 169.613Z" fill="#55B45C"/>
<path d="M352.786 171.495C352.768 171.554 352.749 171.612 352.732 171.667C352.646 171.942 352.347 172.216 352.065 172.279L350.696 172.584C350.414 172.647 350.344 172.87 350.539 173.082L350.659 173.213C350.854 173.425 351.241 173.547 351.522 173.485L352.914 173.176C353.196 173.114 353.491 172.839 353.573 172.562L353.622 172.399C353.704 172.122 353.613 171.726 353.418 171.514L353.296 171.381C353.101 171.169 352.872 171.22 352.786 171.495Z" fill="#55B45C"/>
<path d="M341.532 148.241V148.245C340.386 148.503 339.392 149.448 338.774 151.026C338.708 151.19 338.647 151.362 338.589 151.543C338.523 151.757 338.464 151.97 338.413 152.194C338.327 152.56 338.261 152.936 338.217 153.324C338.132 154.03 338.111 154.765 338.152 155.512C338.262 157.517 338.806 159.592 339.696 161.346C340.146 162.23 340.683 163.032 341.3 163.703C342.609 165.129 344.029 165.694 345.276 165.457L340.957 166.423L340.956 166.414C339.393 166.693 337.686 166.197 336.398 164.794C335.81 164.153 335.291 163.392 334.856 162.554C333.93 160.777 333.364 158.654 333.252 156.605C333.212 155.858 333.23 155.121 333.318 154.417C333.362 154.029 333.426 153.651 333.514 153.287C333.564 153.064 333.623 152.846 333.69 152.636C333.746 152.457 333.81 152.284 333.88 152.117C334.525 150.595 335.747 149.605 337.129 149.233V149.229L337.249 149.201C337.299 149.19 337.351 149.177 337.404 149.169L341.532 148.241Z" fill="#55B45C"/>
<path opacity="0.1" d="M340.956 166.422L340.955 166.413C339.392 166.692 337.685 166.196 336.397 164.793C335.809 164.152 335.29 163.391 334.855 162.553L339.696 161.345C340.146 162.229 340.683 163.031 341.3 163.702C342.609 165.128 344.029 165.693 345.276 165.456L340.956 166.422Z" fill="black"/>
<path d="M345.61 149.979C348.297 152.906 349.51 158.348 348.319 162.137C347.722 164.043 346.627 165.169 345.346 165.441C345.324 165.448 345.299 165.452 345.275 165.457C344.028 165.694 342.608 165.129 341.299 163.703C338.612 160.777 337.399 155.334 338.588 151.543C339.182 149.653 340.264 148.529 341.531 148.245C342.803 147.957 344.263 148.513 345.61 149.979Z" fill="#55B45C"/>
<path opacity="0.2" d="M345.61 149.979C348.297 152.906 349.51 158.348 348.319 162.137C347.722 164.043 346.627 165.169 345.346 165.441C345.324 165.448 345.299 165.452 345.275 165.457C344.028 165.694 342.608 165.129 341.299 163.703C338.612 160.777 337.399 155.334 338.588 151.543C339.182 149.653 340.264 148.529 341.531 148.245C342.803 147.957 344.263 148.513 345.61 149.979Z" fill="black"/>
<path d="M358.981 136.307C358.981 136.307 356.534 142.932 358.867 153.408C359.325 155.465 359.889 157.312 360.497 158.948C362.983 165.641 366.228 168.844 366.228 168.844C361.746 166.733 356.819 164.809 351.499 164.758C348.206 164.726 345.28 165.046 345.28 165.046L345.279 165.041C344.118 165.297 342.8 164.747 341.592 163.432C340.797 162.565 340.136 161.471 339.636 160.26C339.316 159.496 339.061 158.686 338.877 157.86C338.402 155.728 338.397 153.493 338.971 151.663C339.507 149.96 340.468 148.903 341.627 148.642L341.626 148.637C341.626 148.637 344.411 147.685 347.38 146.258C352.175 143.953 355.819 140.12 358.981 136.307Z" fill="#55B45C"/>
<path opacity="0.6" d="M358.981 136.307C358.981 136.307 356.534 142.932 358.867 153.408C359.325 155.465 359.889 157.312 360.497 158.948C362.983 165.641 366.228 168.844 366.228 168.844C361.746 166.733 356.819 164.809 351.499 164.758C348.206 164.726 345.28 165.046 345.28 165.046L345.279 165.041C344.118 165.297 342.8 164.747 341.592 163.432C340.797 162.565 340.136 161.471 339.636 160.26C339.316 159.496 339.061 158.686 338.877 157.86C338.402 155.728 338.397 153.493 338.971 151.663C339.507 149.96 340.468 148.903 341.627 148.642L341.626 148.637C341.626 148.637 344.411 147.685 347.38 146.258C352.175 143.953 355.819 140.12 358.981 136.307Z" fill="white"/>
<path opacity="0.1" d="M360.499 158.948C362.985 165.641 366.23 168.844 366.23 168.844C361.748 166.733 356.821 164.809 351.501 164.758C348.208 164.726 345.282 165.046 345.282 165.046L345.281 165.041C344.12 165.297 342.802 164.747 341.594 163.432C340.799 162.565 340.138 161.471 339.638 160.26C344.756 158.796 353.405 156.824 360.499 158.948Z" fill="black"/>
<path d="M373.765 134.905C376.567 137.957 378.695 142.159 379.962 146.679L379.964 146.681C381.586 152.472 381.8 158.775 380.208 163.84C377.374 172.857 369.895 174.522 363.504 167.561C362.041 165.968 360.764 164.063 359.694 161.963C357.064 156.789 355.706 150.437 356.015 144.678C356.057 143.867 356.133 143.069 356.245 142.286C356.29 141.961 356.343 141.636 356.401 141.317L356.403 141.315C356.485 140.86 356.578 140.413 356.686 139.974C356.798 139.517 356.921 139.067 357.06 138.627C359.893 129.61 367.372 127.942 373.765 134.905Z" fill="#55B45C"/>
<path opacity="0.1" d="M379.964 146.68C381.586 152.471 381.8 158.774 380.208 163.839C377.374 172.856 369.895 174.521 363.504 167.56C362.041 165.967 360.764 164.062 359.694 161.962L359.696 161.96C360.931 162.486 363.577 162.425 363.406 160.922C364.371 162.795 365.508 164.481 366.792 165.88C368.629 167.881 370.558 169.085 372.371 169.368C373.917 169.608 375.326 169.158 376.554 168.027C377.751 166.932 378.735 165.216 379.411 163.074C380.765 158.767 380.669 153.348 379.439 148.24C379.439 148.24 380.106 148.214 379.964 146.68Z" fill="black"/>
<path d="M373.375 135.979C376.198 139.053 378.306 143.515 379.439 148.241C380.669 153.35 380.765 158.768 379.411 163.075C378.736 165.217 377.751 166.932 376.554 168.028C375.326 169.159 373.917 169.609 372.371 169.369C370.558 169.087 368.63 167.882 366.792 165.881C365.508 164.482 364.371 162.796 363.406 160.923C363.04 160.216 362.7 159.482 362.387 158.728C361.84 157.414 361.369 156.032 360.991 154.624C360.913 154.334 360.838 154.045 360.767 153.755C360.647 153.273 360.537 152.786 360.441 152.299C360.103 150.634 359.892 148.948 359.813 147.294C359.812 147.277 359.813 147.255 359.81 147.237C359.759 146.135 359.766 145.05 359.834 143.992C359.883 143.23 359.965 142.485 360.077 141.758C360.123 141.453 360.177 141.152 360.236 140.853C360.308 140.496 360.388 140.142 360.475 139.793C360.562 139.455 360.657 139.122 360.758 138.796C361.432 136.645 362.422 134.935 363.615 133.836C366.263 131.403 369.913 132.208 373.375 135.979Z" fill="#55B45C"/>
<path opacity="0.4" d="M373.375 135.979C376.198 139.053 378.306 143.515 379.439 148.241C380.669 153.35 380.765 158.768 379.411 163.075C378.736 165.217 377.751 166.932 376.554 168.028C375.326 169.159 373.917 169.609 372.371 169.369C370.558 169.087 368.63 167.882 366.792 165.881C365.508 164.482 364.371 162.796 363.406 160.923C363.04 160.216 362.7 159.482 362.387 158.728C361.84 157.414 361.369 156.032 360.991 154.624C360.913 154.334 360.838 154.045 360.767 153.755C360.647 153.273 360.537 152.786 360.441 152.299C360.103 150.634 359.892 148.948 359.813 147.294C359.812 147.277 359.813 147.255 359.81 147.237C359.759 146.135 359.766 145.05 359.834 143.992C359.883 143.23 359.965 142.485 360.077 141.758C360.123 141.453 360.177 141.152 360.236 140.853C360.308 140.496 360.388 140.142 360.475 139.793C360.562 139.455 360.657 139.122 360.758 138.796C361.432 136.645 362.422 134.935 363.615 133.836C366.263 131.403 369.913 132.208 373.375 135.979Z" fill="black"/>
<path d="M367.912 145.879L370.237 155.883C367.914 156.49 365.065 157.207 362.709 159.472C362.597 159.227 362.492 158.98 362.388 158.728C361.841 157.414 361.37 156.032 360.992 154.624C360.914 154.334 360.839 154.044 360.768 153.755C360.648 153.273 360.538 152.786 360.442 152.299C360.104 150.634 359.893 148.948 359.814 147.294C359.813 147.277 359.814 147.255 359.811 147.237C359.801 146.994 359.791 146.752 359.787 146.511C362.94 147.544 367.912 145.879 367.912 145.879Z" fill="#37474F"/>
<path d="M370.85 155.515C370.038 156.261 368.95 156.05 367.942 154.951L367.911 154.918C366.325 153.19 365.607 149.965 366.31 147.728L366.324 147.685C366.511 147.088 366.791 146.607 367.134 146.292C367.946 145.546 369.034 145.757 370.043 146.856L370.074 146.89C371.66 148.617 372.378 151.843 371.675 154.08L371.662 154.124C371.473 154.719 371.193 155.2 370.85 155.515Z" fill="#55B45C"/>
<path d="M350.672 165.708C350.672 165.708 352.297 165.628 352.859 165.642C354.204 165.677 355.264 165.443 355.991 166.615C356.239 167.015 356.282 167.666 356.589 168.013C356.937 168.407 357.805 168.491 358.281 168.721C358.835 168.989 359.323 169.388 359.557 169.973C359.715 170.367 359.634 171 359.907 171.279C360.251 171.631 360.953 171.752 361.361 172.061C362.28 172.758 362.236 174.195 362.388 175.225C362.553 176.336 362.898 177.907 362.198 178.885C361.661 179.635 360.884 180.072 360.045 180.439C359.08 180.861 358.035 181.279 357.023 181.581C356.144 181.843 355.415 181.28 355.081 180.529C354.642 179.542 353.345 179.554 352.749 178.642C352.491 178.247 352.507 177.749 352.258 177.347C351.958 176.862 351.677 176.54 351.662 175.944C351.635 174.907 352.362 173.976 352.787 173.081C353.157 172.3 353.182 171.278 353.151 170.418C353.128 169.757 353.074 168.728 352.632 168.173C352.633 168.175 350.678 165.716 350.672 165.708Z" fill="#FFA8A7"/>
<path d="M337.154 185.237C338.67 179.564 338.922 177.026 339.587 174.335C340.344 171.27 342.895 170.048 345.929 168.613C348.216 167.531 349.106 166.988 350.575 166.013C351.778 165.19 351.827 168.647 351.339 169.821C350.752 171.234 348.977 172.577 347.754 173.665C344.968 176.142 352.081 182.273 347.992 190.8C345.389 193.26 337.154 185.237 337.154 185.237Z" fill="#FFA8A7"/>
<path d="M238.842 240.419C241.783 235.896 245.406 229.842 248.246 225.244C251.117 220.597 251.33 214.042 250.899 208.608C250.433 202.722 249.148 186.782 250.55 181.596C251.348 178.645 254.322 176.012 260.53 175.042C266.227 174.151 272.111 173.557 278.243 173.419C291.541 173.119 296.755 174.297 296.755 174.297C301.474 178.867 313.635 195.527 313.274 204.967C312.812 217.082 303.969 219.291 303.969 219.291C303.969 219.291 299.843 226.158 298.88 230.224C298.214 233.036 299.524 236.455 299.8 246.162C299.8 246.162 293.066 261.615 266.713 257.724C244.948 254.51 238.842 240.419 238.842 240.419Z" fill="#55B45C"/>
<path opacity="0.2" d="M288.996 221.179C286.685 222.352 284.416 222.94 281.854 223.23C279.448 223.503 276.981 223.4 274.669 222.706C272.708 222.117 270.949 221.082 269.364 219.894C267.636 218.599 266.584 217.011 265.434 215.295C265.278 215.063 265.144 215.425 265.176 215.552C265.708 217.626 267.21 219.575 268.8 221.109C270.501 222.75 272.751 223.905 275.098 224.585C277.505 225.282 280.401 225.156 282.865 224.614C285.248 224.09 287.23 222.864 289.057 221.431C289.139 221.367 289.142 221.105 288.996 221.179Z" fill="black"/>
<path d="M303.6 132.376C305.186 134.32 307.882 139.377 307.386 154.251C307.027 165.012 303.638 167.101 299.851 168.655C297.997 169.416 294.804 169.7 291.43 169.344L290.489 174.735C290.489 174.735 293.117 185.182 291.731 193.516C275.81 187.698 269.565 175.691 269.565 175.691L272.844 157.089C271.976 158.666 267.947 160.342 264.812 156.751C261.295 152.722 262.075 147.565 264.971 145.658C267.97 143.683 271.481 145.436 272.888 148.844C273.618 152.003 277.031 151.751 277.41 147.588C281.771 145.502 282.127 140.573 280.566 135.42C286.634 129.352 300.488 130.789 303.6 132.376Z" fill="#FFA8A7"/>
<path d="M294.553 143.493L296.006 155.724L302.607 152.835C300.224 149.151 296.915 144.33 294.553 143.493Z" fill="#F28F8F"/>
<path d="M291.431 169.344C282.302 168.11 277.208 165.826 274.831 159.186C274.831 159.186 275.124 164.128 278.229 166.952C282.203 170.567 290.958 172.039 290.958 172.039L291.431 169.344Z" fill="#F28F8F"/>
<path d="M296.051 159.15L290.391 157.227C289.792 158.771 290.574 160.452 292.137 160.983C293.699 161.514 295.452 160.693 296.051 159.15Z" fill="#B16668"/>
<path d="M293.42 161.122C292.996 161.164 292.559 161.127 292.136 160.983C291.046 160.613 290.35 159.68 290.223 158.629C291.746 158.685 293.021 159.711 293.42 161.122Z" fill="#F28F8F"/>
<path d="M286.82 146.219C286.788 147.303 287.648 148.208 288.74 148.24C289.832 148.272 290.744 147.42 290.776 146.336C290.808 145.252 289.949 144.347 288.856 144.315C287.763 144.283 286.852 145.135 286.82 146.219Z" fill="#263238"/>
<path d="M300.151 145.581C300.283 146.657 301.269 147.422 302.354 147.289C303.439 147.156 304.211 146.176 304.079 145.099C303.947 144.023 302.961 143.258 301.876 143.391C300.791 143.524 300.019 144.504 300.151 145.581Z" fill="#263238"/>
<path d="M304.443 141.529L299.75 140.527C299.984 139.22 301.225 138.384 302.521 138.661C303.817 138.938 304.677 140.223 304.443 141.529Z" fill="#263238"/>
<path d="M285.392 142.567L289.909 140.78C289.455 139.513 288.075 138.887 286.827 139.38C285.581 139.874 284.938 141.301 285.392 142.567Z" fill="#263238"/>
<path d="M247.801 178.955C244.194 182.088 237.555 191.03 234.258 195.657C230.961 200.284 227.661 204.915 227.661 204.915C225.211 199.514 220.011 188.028 219.06 185.732C217.513 182.408 215.138 176.528 214.736 175.778C211.968 170.609 207.124 167.066 202.265 164.013C201.432 163.49 200.593 162.977 199.753 162.466C199.345 162.218 198.925 161.985 198.556 161.688C198.206 161.407 197.898 161.181 197.431 161.506C197.102 161.736 196.928 162.132 196.841 162.524C196.552 163.825 197.06 165.193 197.843 166.272C198.625 167.351 199.665 168.211 200.62 169.141C201.352 169.854 200.202 170.039 199.647 170.047C196.919 170.082 193.2 167.864 190.887 166.511C189.369 165.622 188.019 164.455 186.371 163.794C185.357 163.388 184.228 163.193 183.165 163.443C182.444 163.613 181.839 164.016 182.141 164.892C182.329 165.437 182.793 165.83 183.205 166.233C184.054 167.064 184.803 167.818 184.821 169.079C184.832 169.873 184.687 170.684 184.901 171.448C185.173 172.42 185.981 173.154 186.358 174.09C186.693 174.925 186.521 175.814 186.755 176.635C187.006 177.514 188.043 178.426 188.66 179.071C190.132 180.609 191.84 181.912 193.66 183.011C196.425 184.681 197.179 185.068 200.23 186.129C201.899 186.71 204.297 186.96 205.68 189.568C207.063 192.175 207.702 196.263 209.99 204.814C212.021 212.406 214.764 223.601 220.749 229.897C226.383 234.193 232.764 227.462 236.423 224.025C238.887 221.711 253.665 203.612 253.665 203.612C260.915 192.694 261.336 184.359 260.53 175.043C260.53 175.043 252.523 174.853 247.801 178.955Z" fill="#FFA8A7"/>
<path d="M202.188 173.47C203.227 176.613 206.247 180.233 208.033 181.311C208.033 181.311 205.067 180.915 203.579 178.858C201.949 176.604 201.988 174.718 202.188 173.47Z" fill="#F28F8F"/>
<path d="M227.662 204.915C229.548 209.547 230.485 216.309 229.756 221.302C232.149 213.708 231.473 207.46 229.366 202.522L227.662 204.915Z" fill="#F28F8F"/>
<path d="M400.751 121.374C401.093 121.59 401.218 122.021 401.075 122.38C398.757 127.663 393.671 132.299 388.227 134.294C395.631 136.576 407.167 133.665 414.319 127.412C414.517 127.25 414.786 127.16 415.038 127.232C421.435 128.652 427.886 128.688 434.23 127.34C458.561 122.147 474.159 98.121 468.965 73.772C463.772 49.423 439.729 33.825 415.38 39.019C391.031 44.212 375.451 68.256 380.644 92.604C383.195 104.59 390.347 114.815 400.751 121.374Z" fill="white"/>
<path d="M399.296 122.363C396.708 127.664 391.174 132.138 385.603 133.378C385.262 133.45 385.01 133.737 384.974 134.061C384.92 134.402 385.1 134.744 385.405 134.906C393.096 138.859 406.591 136.11 415.073 128.904C421.578 130.288 428.137 130.306 434.552 128.94C459.782 123.549 475.936 98.661 470.545 73.431C465.172 48.202 440.266 32.065 415.054 37.438C389.825 42.811 373.67 67.717 379.043 92.946C381.65 105.13 388.82 115.552 399.296 122.363ZM380.643 92.604C375.45 68.255 391.029 44.212 415.379 39.019C439.728 33.826 463.771 49.424 468.964 73.772C474.158 98.121 458.56 122.146 434.229 127.34C427.886 128.688 421.434 128.652 415.037 127.232C414.785 127.16 414.516 127.25 414.318 127.412C407.166 133.665 395.629 136.576 388.226 134.294C393.671 132.299 398.756 127.663 401.074 122.38C401.218 122.021 401.092 121.589 400.75 121.374C390.347 114.815 383.195 104.59 380.643 92.604Z" fill="#455A64"/>
<path opacity="0.1" d="M455.796 100.866L424.798 82.969L393.8 100.866L424.798 118.763L455.796 100.866Z" fill="black"/>
<path d="M424.798 116.379L397.388 100.536V76.281L396.81 75.948V67.868L424.798 84.027V116.379Z" fill="#55B45C"/>
<path opacity="0.1" d="M424.798 116.379L397.388 100.536V76.281L396.81 75.948V67.868L424.798 84.027V116.379Z" fill="black"/>
<path opacity="0.3" d="M424.798 116.379L397.388 100.536V76.281L396.81 75.948V67.868L424.798 84.027V116.379Z" fill="white"/>
<path opacity="0.15" d="M424.797 92.107L414.304 86.048L397.388 76.281V77.443L424.797 93.266V92.107Z" fill="black"/>
<path d="M424.798 116.379L452.058 100.652V76.366L452.786 75.948V67.868L424.798 84.027V116.379Z" fill="#55B45C"/>
<path opacity="0.45" d="M424.798 116.379L452.058 100.652V76.366L452.786 75.948V67.868L424.798 84.027V116.379Z" fill="white"/>
<path opacity="0.1" d="M452.061 76.366L424.797 92.107V93.266L452.061 77.541V76.366Z" fill="black"/>
<path d="M452.786 67.868L424.798 51.709L396.81 67.868L424.798 84.027L452.786 67.868Z" fill="#55B45C"/>
<path opacity="0.6" d="M452.786 67.868L424.798 51.709L396.81 67.868L424.798 84.027L452.786 67.868Z" fill="white"/>
<path d="M436.164 109.821V77.464L440.711 74.839V107.198L436.164 109.821Z" fill="#55B45C"/>
<path opacity="0.15" d="M436.164 109.821V77.464L440.711 74.839V107.198L436.164 109.821Z" fill="black"/>
<path d="M413.431 109.821V77.464L408.885 74.839V107.198L413.431 109.821Z" fill="#55B45C"/>
<path opacity="0.4" d="M413.431 109.821V77.464L408.885 74.839V107.198L413.431 109.821Z" fill="black"/>
<path d="M440.711 74.839L412.723 58.681L408.177 61.306L436.164 77.464L440.711 74.839Z" fill="#55B45C"/>
<path opacity="0.25" d="M425.17 71.117L429.717 68.492L425.17 65.867L420.624 68.492L425.17 71.117Z" fill="black"/>
<path d="M413.431 77.464L441.419 61.305L436.872 58.68L408.885 74.839L413.431 77.464Z" fill="#55B45C"/>
<path d="M424.831 70.813L426.883 82.822V100.028L431.337 94.762V80.251L425.785 68.97L424.831 70.813Z" fill="#55B45C"/>
<path opacity="0.1" d="M424.831 70.813L426.883 82.822V100.028L431.337 94.762V80.251L425.785 68.97L424.831 70.813Z" fill="black"/>
<path d="M425.926 69.781L443.704 70.894L446.905 66.853L425.94 68.072L425.926 69.781Z" fill="#55B45C"/>
<path opacity="0.1" d="M425.926 69.781L443.704 70.894L446.905 66.853L425.94 68.072L425.926 69.781Z" fill="black"/>
<path d="M403.266 59.863C403.266 59.863 402.99 63.757 407.235 66.592C414.048 71.141 422.089 71.03 424.831 70.814L424.796 68.353C424.796 68.353 418.431 67.647 414.328 63.75C410.634 60.242 410.042 52.064 410.042 52.064L403.266 59.863Z" fill="#55B45C"/>
<path opacity="0.5" d="M403.266 59.863C403.266 59.863 402.99 63.757 407.235 66.592C414.048 71.141 422.089 71.03 424.831 70.814L424.796 68.353C424.796 68.353 418.431 67.647 414.328 63.75C410.634 60.242 410.042 52.064 410.042 52.064L403.266 59.863Z" fill="black"/>
<path d="M424.832 68.658C424.832 68.658 424.3 62.137 419.24 57.369C414.179 52.601 410.043 52.064 410.043 52.064C406.734 54.102 404.4 56.661 403.267 59.863C403.267 59.863 407.552 58.89 414.498 61.896C420.677 64.57 424.832 70.814 424.832 70.814V68.658Z" fill="#55B45C"/>
<path opacity="0.15" d="M424.832 68.658C424.832 68.658 424.3 62.137 419.24 57.369C414.179 52.601 410.043 52.064 410.043 52.064C406.734 54.102 404.4 56.661 403.267 59.863C403.267 59.863 407.552 58.89 414.498 61.896C420.677 64.57 424.832 70.814 424.832 70.814V68.658Z" fill="black"/>
<path d="M409.127 60.175C410.67 60.496 412.451 61.01 414.498 61.896C415.086 62.15 415.648 62.444 416.197 62.755L419.53 57.665C419.431 57.567 419.342 57.466 419.239 57.369C417.377 55.615 415.646 54.441 414.194 53.648C412.876 55.302 410.642 58.201 409.127 60.175Z" fill="#55B45C"/>
<path d="M443.704 57.792C443.704 57.792 444.562 61.6 440.791 65.041C434.739 70.562 427.575 70.616 424.832 70.814L424.497 68.376C424.497 68.376 429.881 67.766 433.352 63.297C436.477 59.273 435.834 51.1 435.834 51.1L443.704 57.792Z" fill="#55B45C"/>
<path opacity="0.5" d="M443.704 57.792C443.704 57.792 444.562 61.6 440.791 65.041C434.739 70.562 427.575 70.616 424.832 70.814L424.497 68.376C424.497 68.376 429.881 67.766 433.352 63.297C436.477 59.273 435.834 51.1 435.834 51.1L443.704 57.792Z" fill="black"/>
<path d="M424.508 68.683C424.508 68.683 423.251 63.201 427.538 57.726C431.825 52.251 435.833 51.099 435.833 51.099C439.41 52.617 442.103 54.796 443.704 57.792C443.704 57.792 439.321 57.474 432.906 61.49C427.199 65.062 424.833 70.814 424.833 70.814L424.508 68.683Z" fill="#55B45C"/>
<path opacity="0.15" d="M424.508 68.683C424.508 68.683 423.251 63.201 427.538 57.726C431.825 52.251 435.833 51.099 435.833 51.099C439.41 52.617 442.103 54.796 443.704 57.792C443.704 57.792 439.321 57.474 432.906 61.49C427.199 65.062 424.833 70.814 424.833 70.814L424.508 68.683Z" fill="black"/>
<path d="M428.983 56.035C430.987 57.05 433.907 58.557 436.177 59.733C438.904 58.472 441.035 58.011 442.32 57.867C440.99 56.284 438.116 53.262 434.492 51.678C433.231 52.32 431.217 53.61 428.983 56.035Z" fill="#55B45C"/>
<path d="M431.338 80.251L426.884 82.822V100.028L431.338 94.762V80.251Z" fill="#55B45C"/>
<path opacity="0.15" d="M431.338 80.251L426.884 82.822V100.028L431.338 94.762V80.251Z" fill="black"/>
<path d="M454.866 245.202L382.835 203.51C381.71 202.86 380.236 202.536 378.762 202.536C377.288 202.536 375.814 202.861 374.689 203.51L373.799 204.048C371.549 205.347 369.726 208.506 369.726 211.103L369.725 287.398C369.725 289.996 369.759 292.091 373.418 294.177L381.397 298.802C380.241 302.45 377.026 305.659 374.068 307.075C373.181 307.5 373.344 308.835 374.31 309.025C379.506 310.044 386.21 309.041 391.298 304.54L445.829 336.146C446.954 336.796 448.428 337.12 449.903 337.12C451.378 337.12 452.852 336.795 453.976 336.146L454.866 335.608C457.115 334.309 458.94 331.15 458.94 328.552V252.257C458.94 249.659 457.116 246.501 454.866 245.202Z" fill="#FAFAFA"/>
<path d="M369.858 209.946C370.333 208.217 371.91 207.666 373.792 208.749L445.831 250.448C446.952 251.094 447.978 252.196 448.7 253.488L457.732 248.252C456.991 246.96 455.984 245.858 454.863 245.212L382.843 203.513C380.581 202.221 376.933 202.221 374.691 203.513L373.792 204.055C371.872 205.157 370.257 207.628 369.858 209.946Z" fill="#55B45C"/>
<path opacity="0.45" d="M369.858 209.946C370.333 208.217 371.91 207.666 373.792 208.749L445.831 250.448C446.952 251.094 447.978 252.196 448.7 253.488L457.732 248.252C456.991 246.96 455.984 245.858 454.863 245.212L382.843 203.513C380.581 202.221 376.933 202.221 374.691 203.513L373.792 204.055C371.872 205.157 370.257 207.628 369.858 209.946Z" fill="white"/>
<path d="M458.938 328.552C458.938 331.15 457.114 334.309 454.865 335.608L453.975 336.146C451.942 337.32 448.777 337.436 446.524 336.488C448.441 337.213 449.901 336.118 449.901 333.795V257.5C449.901 256.201 449.445 254.762 448.708 253.486L457.744 248.245C458.481 249.522 458.937 250.96 458.937 252.259V328.552H458.938Z" fill="#55B45C"/>
<path opacity="0.25" d="M458.938 328.552C458.938 331.15 457.114 334.309 454.865 335.608L453.975 336.146C451.942 337.32 448.777 337.436 446.524 336.488C448.441 337.213 449.901 336.118 449.901 333.795V257.5C449.901 256.201 449.445 254.762 448.708 253.486L457.744 248.245C458.481 249.522 458.937 250.96 458.937 252.259V328.552H458.938Z" fill="white"/>
<path d="M392.202 305.065L391.302 304.545C391.062 304.765 390.812 304.965 390.562 305.165C390.042 305.585 389.512 305.955 388.962 306.305C388.712 306.465 388.462 306.615 388.212 306.755C387.942 306.915 387.672 307.055 387.402 307.195C387.392 307.205 387.382 307.205 387.372 307.215C387.112 307.345 386.842 307.475 386.582 307.595C386.362 307.695 386.142 307.795 385.912 307.885C385.702 307.965 385.492 308.045 385.292 308.115C384.352 308.475 383.382 308.745 382.422 308.945C382.182 308.995 381.942 309.045 381.712 309.085C381.472 309.125 381.232 309.165 380.992 309.195C380.802 309.225 380.622 309.245 380.432 309.265C380.382 309.275 380.332 309.275 380.282 309.285C378.192 309.495 376.152 309.385 374.312 309.025C373.342 308.835 373.182 307.495 374.072 307.075C377.022 305.655 380.242 302.455 381.402 298.805L380.882 298.505L381.352 298.425C384.092 296.225 387.242 295.625 390.692 295.225L392.202 305.065Z" fill="#263238"/>
<path d="M432.653 324.825C432.563 325.835 432.473 326.895 432.373 327.995L421.143 321.485L394.223 305.885C394.143 305.955 394.053 306.025 393.973 306.095L392.203 305.065L391.303 304.545C388.023 307.445 384.063 308.895 380.283 309.285C380.943 307.145 381.673 305.325 382.423 303.785C385.182 297.525 389.893 295.375 390.693 295.225C393.913 294.625 400.903 294.105 411.373 295.895C419.493 297.285 430.693 303.305 430.693 303.305C433.302 305.715 433.603 314.505 432.653 324.825Z" fill="#55B45C"/>
<path opacity="0.2" d="M432.653 324.825C432.563 325.835 432.473 326.895 432.373 327.995L421.143 321.485L394.223 305.885C394.143 305.955 394.053 306.025 393.973 306.095L392.203 305.065L391.303 304.545C388.023 307.445 384.063 308.895 380.283 309.285C380.943 307.145 381.673 305.325 382.423 303.785C385.182 297.525 389.893 295.375 390.693 295.225C393.913 294.625 400.903 294.105 411.373 295.895C419.493 297.285 430.693 303.305 430.693 303.305C433.302 305.715 433.603 314.505 432.653 324.825Z" fill="black"/>
<path d="M389.178 262.92C387.818 261.723 386.66 260.378 386.118 258.239C385.535 255.939 385.393 254.116 385.722 251.699C385.796 251.157 386.144 249.924 386.43 249.47C386.955 248.635 387.946 248.421 388.828 248.307C389.392 248.234 389.956 248.171 390.52 248.118C389.595 246.939 388.645 245.713 388.237 244.187C387.935 243.058 387.953 241.805 388.287 240.651C388.378 240.338 388.498 240.021 388.713 239.795C389.213 239.268 389.991 239.38 390.621 239.588C395.704 241.263 400.75 240.978 402.519 240.921C405.708 240.819 407.326 240.449 411.718 240.131C416.11 239.813 423.751 242.179 424.498 251.094C430.269 252.295 430.336 262.494 428.374 266.739C424.761 274.557 421.468 279.704 419.529 285.354C419.242 285.114 400.478 272.345 396.221 268.785C394.626 267.451 393.03 266.117 391.435 264.783C390.667 264.14 389.895 263.551 389.178 262.92Z" fill="#263238"/>
<path d="M425.608 279.665C421.942 282.381 419.855 279.633 419.855 279.633L418.69 298.812C410.822 308.753 391.633 306.666 400.637 296.651L400.755 292.055C400.755 292.055 397.825 292.167 395.435 291.677C394.39 291.462 393.219 290.951 392.414 290.357C390.515 288.972 389.221 287.14 388.561 284.103C387.781 280.482 387.487 275.659 387.806 270.324C388.139 264.752 389.12 257.568 391.063 253.872C394.339 251.004 403.556 250.929 411.142 253.496C411.149 255.585 410.837 257.402 412.236 259.725C412.923 260.866 414.064 261.748 415.034 262.301C414.983 266.356 415.065 267.452 415.648 269.255C415.969 270.293 416.638 271.853 418.594 271.15C419.517 270.818 420.322 268.682 421.343 267.274C422.717 265.379 426.712 264.567 428.357 268.776C430.016 273.062 428.111 277.79 425.608 279.665Z" fill="#FFA8A7"/>
<path d="M400.757 292.05C404.69 291.719 411.752 290.285 413.929 287.757C416.106 285.23 418.045 279.326 418.045 279.326C418.045 279.326 416.846 285.98 415.138 288.846C413.429 291.711 409.976 292.802 407.462 293.556C404.948 294.31 400.689 294.607 400.689 294.607L400.757 292.05Z" fill="#F28F8F"/>
<path d="M404.647 263.386L408.273 265.223C408.773 264.079 408.367 262.739 407.365 262.232C406.364 261.725 405.147 262.241 404.647 263.386Z" fill="#263238"/>
<path d="M394.369 262.23L390.334 263.466C390.116 262.277 390.843 261.036 391.957 260.695C393.072 260.354 394.151 261.041 394.369 262.23Z" fill="#263238"/>
<path d="M405.487 278.213L398.534 280.858C399.195 282.918 401.289 283.996 403.209 283.265C405.129 282.534 406.149 280.272 405.487 278.213Z" fill="#B16668"/>
<path d="M405.181 279.736C403.24 279.693 401.563 281.341 401.404 283.426C401.991 283.527 402.607 283.494 403.209 283.265C404.639 282.721 405.567 281.327 405.675 279.801C405.513 279.772 405.351 279.739 405.181 279.736Z" fill="#F28F8F"/>
<path d="M399.921 264.023L397.863 277.17L391.722 274.161L399.921 264.023Z" fill="#F28F8F"/>
<path d="M406.974 268.098C406.922 269.159 406.082 270.015 405.098 270.009C404.113 270.003 403.357 269.139 403.409 268.077C403.461 267.016 404.301 266.16 405.285 266.166C406.27 266.172 407.026 267.036 406.974 268.098Z" fill="#263238"/>
<path d="M394.609 266.81C394.561 267.804 393.774 268.605 392.853 268.599C391.931 268.594 391.223 267.784 391.271 266.79C391.319 265.796 392.106 264.995 393.028 265C393.949 265.006 394.658 265.816 394.609 266.81Z" fill="#263238"/>
<path d="M443.13 334.225L432.37 327.995L421.14 321.485C421.14 321.325 421.15 321.155 421.16 320.995C421.72 310.095 430.69 303.305 430.69 303.305C434.85 305.485 439.91 309.665 441.8 315.065C443.67 320.415 443.16 322.645 443.13 334.225Z" fill="#263238"/>
<path d="M371.969 209.484C372.201 209.484 372.592 209.551 373.14 209.87L445.186 251.559C446.089 252.079 446.96 253.009 447.579 254.113C448.239 255.254 448.612 256.48 448.612 257.491V333.8C448.612 334.403 448.486 335.413 447.643 335.413C447.499 335.413 447.339 335.388 447.168 335.339L447.084 335.315L447.063 335.312L447.012 335.294C446.82 335.21 446.64 335.126 446.471 335.03L414.725 316.639L401.153 308.763L391.947 303.424L391.143 302.958L390.447 303.574C387.149 306.493 382.777 308.1 378.139 308.1C377.176 308.1 376.224 308.029 375.301 307.889C378.165 306.297 381.384 303.125 382.63 299.187L382.942 298.202L382.048 297.684L374.069 293.057C371.011 291.322 371.011 289.846 371.011 287.4V211.107C371.011 210.85 371.036 210.576 371.085 210.293L371.103 210.297C371.322 209.484 371.792 209.484 371.969 209.484ZM371.97 208.195C371.969 208.195 371.969 208.195 371.97 208.195C370.947 208.195 370.168 208.823 369.858 209.953C369.904 209.661 369.981 209.37 370.057 209.078C369.842 209.754 369.72 210.444 369.72 211.105V287.398C369.72 289.993 369.766 292.096 373.42 294.169L381.399 298.797C380.244 302.447 377.028 305.658 374.069 307.074C373.182 307.499 373.345 308.834 374.311 309.023C375.518 309.26 376.806 309.387 378.137 309.387C382.534 309.387 387.394 307.994 391.299 304.538L400.505 309.877L414.078 317.754L445.831 336.149C446.046 336.272 446.276 336.379 446.522 336.487C446.614 336.518 446.707 336.564 446.814 336.579C447.104 336.661 447.381 336.702 447.642 336.702C448.985 336.702 449.9 335.638 449.9 333.8V257.491C449.9 256.201 449.44 254.758 448.703 253.483C447.981 252.193 446.952 251.088 445.831 250.443L373.787 208.755C373.135 208.376 372.518 208.195 371.97 208.195Z" fill="#55B45C"/>
<path d="M126.776 222.163C126.776 220.005 125.261 217.381 123.392 216.301L122.652 215.854C121.717 215.314 120.493 215.044 119.268 215.044C118.043 215.044 116.818 215.314 115.884 215.854L56.0334 250.496C54.1644 251.575 52.6484 254.199 52.6484 256.358V319.752C52.6484 321.911 54.1644 324.535 56.0334 325.614L56.7734 326.061C57.7084 326.601 58.9334 326.87 60.1574 326.87C61.3824 326.87 62.6074 326.6 63.5424 326.061L108.852 299.8C113.079 303.54 118.65 304.373 122.967 303.526C123.77 303.369 123.906 302.259 123.168 301.906C120.71 300.73 118.039 298.064 117.078 295.032L123.708 291.189C126.749 289.455 126.777 287.715 126.777 285.556L126.776 222.163Z" fill="#FAFAFA"/>
<path d="M126.666 221.202C126.271 219.765 124.961 219.307 123.397 220.207L63.5394 254.855C62.6084 255.392 61.7554 256.308 61.1554 257.381L53.6504 253.03C54.2664 251.956 55.1034 251.04 56.0344 250.504L115.876 215.856C117.755 214.782 120.786 214.782 122.65 215.856L123.397 216.307C124.992 217.223 126.334 219.275 126.666 221.202Z" fill="#55B45C"/>
<path opacity="0.45" d="M126.666 221.202C126.271 219.765 124.961 219.307 123.397 220.207L63.5394 254.855C62.6084 255.392 61.7554 256.308 61.1554 257.381L53.6504 253.03C54.2664 251.956 55.1034 251.04 56.0344 250.504L115.876 215.856C117.755 214.782 120.786 214.782 122.65 215.856L123.397 216.307C124.992 217.223 126.334 219.275 126.666 221.202Z" fill="white"/>
<path d="M52.6484 319.752C52.6484 321.911 54.1644 324.535 56.0334 325.615L56.7734 326.062C58.4624 327.037 61.0924 327.134 62.9644 326.346C61.3714 326.948 60.1584 326.039 60.1584 324.108V260.714C60.1584 259.635 60.5374 258.439 61.1494 257.378L53.6414 253.023C53.0294 254.084 52.6504 255.279 52.6504 256.359V319.752H52.6484Z" fill="#55B45C"/>
<path opacity="0.25" d="M52.6484 319.752C52.6484 321.911 54.1644 324.535 56.0334 325.615L56.7734 326.062C58.4624 327.037 61.0924 327.134 62.9644 326.346C61.3714 326.948 60.1584 326.039 60.1584 324.108V260.714C60.1584 259.635 60.5374 258.439 61.1494 257.378L53.6414 253.023C53.0294 254.084 52.6504 255.279 52.6504 256.359V319.752H52.6484Z" fill="white"/>
<path d="M122.97 303.525C121.85 303.745 120.64 303.855 119.4 303.815C116.45 303.755 113.27 302.935 110.48 301.065L108.31 289.405C113.24 289.355 116.53 289.875 118.95 291.345C119.69 291.795 120.34 292.275 120.94 292.805L117.08 295.035C118.04 298.065 120.71 300.735 123.17 301.905C123.91 302.255 123.77 303.365 122.97 303.525Z" fill="#263238"/>
<path d="M119.399 303.815C116.449 303.755 113.269 302.935 110.479 301.065C109.919 300.685 109.369 300.265 108.849 299.805L77.439 318.015L70.549 322.005C70.349 321.025 70.149 320.035 69.929 319.005C68.369 311.585 70.329 300.055 73.619 298.455C77.909 296.365 78.979 295.715 80.219 294.775C80.219 294.775 86.209 289.135 96.139 289.265C100.039 289.315 103.939 289.225 108.309 289.405C112.849 289.595 116.999 294.445 119.399 303.815Z" fill="#37474F"/>
<path d="M80.528 253.585C76.268 259.087 78.299 264.254 80.216 270.736C82.441 278.113 83.951 281.746 85.617 282.231C83.686 259.055 92.359 287.391 108.787 269.346C111.757 266.084 111.5 256.003 107.514 251.435C101.88 244.979 88.876 243.208 80.528 253.585Z" fill="#263238"/>
<path d="M79.8972 278.195C82.3602 279.896 84.4211 277.268 84.4211 277.268L85.6511 292.636C85.6511 292.636 85.6711 294.59 89.9061 297.019C92.7071 298.626 98.5192 299.549 101.829 303.041C103.22 300.516 104.339 295.84 101.235 291.864L100.986 287.696C100.986 287.696 102.584 287.898 104.314 287.4C106.579 286.747 109.545 284.417 110.33 280.951C111.588 275.377 110.98 266.972 108.638 256.084C105.208 253.246 93.2251 253.286 87.7821 258.239C89.6541 264.822 86.4681 266.343 86.5521 268.667C86.1301 269.58 85.5432 270.34 85.1892 270.678C84.1282 271.684 83.1551 269.031 82.2071 267.983C81.2501 266.943 78.2101 265.496 76.8301 268.87C75.4351 272.305 77.7692 276.732 79.8972 278.195Z" fill="#B16668"/>
<path d="M95.1301 263.012L92.2931 264.923C91.7671 264.018 91.9761 262.856 92.7591 262.328C93.5431 261.801 94.6041 262.107 95.1301 263.012Z" fill="#263238"/>
<path d="M108.123 263.133L104.688 262.081C104.86 261.093 105.769 260.528 106.717 260.819C107.665 261.109 108.295 262.145 108.123 263.133Z" fill="#263238"/>
<path d="M93.9223 267.354C93.9753 268.192 94.6473 268.856 95.4243 268.839C96.2003 268.821 96.7873 268.128 96.7343 267.291C96.6813 266.453 96.0083 265.789 95.2323 265.807C94.4563 265.823 93.8693 266.516 93.9223 267.354Z" fill="#263238"/>
<path d="M105.013 266.299C105.066 267.137 105.738 267.801 106.515 267.783C107.292 267.765 107.878 267.072 107.825 266.235C107.772 265.397 107.1 264.733 106.323 264.75C105.547 264.768 104.961 265.461 105.013 266.299Z" fill="#263238"/>
<path d="M99.5713 263.007L100.595 272.322L105.546 270.494C104.709 267.91 101.586 264.046 99.5713 263.007Z" fill="#9A4A4D"/>
<path d="M86.494 267.822C86.792 274.143 89.519 275.351 91.759 276.013C95.33 277.069 96.966 273.856 101.106 273.543C103.477 273.364 104.092 273.826 106.332 275.244C106.67 275.458 107.608 275.938 108.022 276.022C108.866 276.194 110.16 276.311 110.513 275.058C110.967 273.449 110.917 270.123 110.542 267.359L110.397 265.848C110.397 265.848 111.639 272.497 111.17 277.675C110.876 280.92 109.806 283.948 108.212 285.49C106.026 287.604 102.112 288.811 96.014 287.625C90.005 286.457 87.534 284.382 86.636 282.128C83.721 274.816 84.366 271.276 83.471 269.907C82.579 268.539 86.494 267.822 86.494 267.822Z" fill="#263238"/>
<path d="M102.624 275.423C105.451 275.693 106.903 276.863 107.027 278.828C107.151 280.793 106.692 283.227 105.07 283.962C103.448 284.697 103.532 282.785 103.738 281.752C103.945 280.719 103.381 280.952 102.463 280.973C101.545 280.994 101.167 280.858 101.52 281.896C101.872 282.934 102.375 284.397 100.473 284.217C98.5714 284.037 97.1144 282.081 96.6694 279.593C96.2244 277.105 98.3504 275.014 102.624 275.423Z" fill="#B16668"/>
<path d="M98.8016 277.029L103.607 277.021C103.521 278.347 102.567 279.416 101.24 279.418C99.9136 279.42 98.7226 278.362 98.8016 277.029Z" fill="#9A4A4D"/>
<path d="M98.8789 277.684C99.1469 278.691 100.141 279.42 101.239 279.418C101.741 279.417 102.19 279.262 102.558 279C101.589 278.107 100.284 277.602 98.8789 277.684Z" fill="#F28F8F"/>
<path d="M101.83 303.041C100.001 301.901 95.1828 299.735 94.7958 301.017C94.5238 301.919 93.7428 305.199 92.3858 305.125C90.5798 305.026 85.6908 303.198 82.4448 299.163C80.3668 296.58 80.2168 294.775 80.2168 294.775C80.2168 294.775 81.8228 291.319 82.8128 289.733C83.7958 288.159 84.0618 287.147 85.1758 287.046L85.4728 290.293C85.4728 290.293 86.5618 292.401 88.7928 294.013C92.0498 296.365 98.5408 298.922 101.83 303.041Z" fill="#263238"/>
<path d="M101.829 303.041C102.82 301.992 104.465 297.681 105.319 297.849C107.098 298.199 108.317 299.562 108.312 298.57C108.307 297.578 106.986 295.472 105.379 292.6C104.146 290.397 102.186 288.583 101.027 288.386L101.302 292.837C101.302 292.837 101.981 294.206 102.233 296.656C102.502 299.28 102.509 301.214 101.829 303.041Z" fill="#263238"/>
<path d="M77.5795 316.695L63.0095 325.135C62.8695 325.215 62.7195 325.285 62.5595 325.355L62.5195 325.375H62.4995L62.4295 325.395C62.2895 325.435 62.1595 325.455 62.0395 325.455C61.3295 325.455 61.2295 324.615 61.2295 324.115V311.355C61.2495 311.265 61.2695 311.165 61.2895 311.075C62.3895 306.025 68.3595 300.865 73.6195 298.455C77.8195 303.685 78.0795 311.354 77.5795 316.695Z" fill="#263238"/>
<path d="M124.912 220.818C125.059 220.818 125.449 220.818 125.634 221.492L125.649 221.489C125.69 221.724 125.711 221.952 125.711 222.166V285.559C125.711 287.591 125.711 288.818 123.17 290.259L116.54 294.104L115.797 294.535L116.056 295.354C117.091 298.626 119.766 301.262 122.146 302.584C121.379 302.701 120.588 302.76 119.788 302.76C115.934 302.76 112.302 301.424 109.561 298.999L108.982 298.487L108.314 298.875L100.664 303.311L89.3872 309.856L63.0092 325.137C62.8692 325.217 62.7192 325.286 62.5602 325.356L62.5182 325.371L62.5012 325.374L62.4312 325.394C62.2882 325.434 62.1552 325.455 62.0362 325.455C61.3352 325.455 61.2302 324.615 61.2302 324.115V260.71C61.2302 259.87 61.5402 258.851 62.0892 257.903C62.6032 256.986 63.3262 256.213 64.0772 255.781L123.941 221.141C124.395 220.873 124.72 220.818 124.912 220.818ZM124.912 219.747C124.457 219.747 123.944 219.897 123.401 220.213L63.5392 254.852C62.6082 255.388 61.7532 256.306 61.1532 257.378C60.5412 258.437 60.1582 259.636 60.1582 260.708V324.113C60.1582 325.64 60.9182 326.524 62.0342 326.524C62.2512 326.524 62.4812 326.49 62.7222 326.422C62.8112 326.409 62.8882 326.371 62.9652 326.346C63.1692 326.257 63.3602 326.167 63.5392 326.065L89.9232 310.781L101.201 304.236L108.85 299.8C112.095 302.671 116.133 303.829 119.787 303.829C120.893 303.829 121.963 303.723 122.966 303.526C123.769 303.369 123.904 302.259 123.167 301.906C120.708 300.729 118.036 298.061 117.076 295.028L123.706 291.183C126.743 289.461 126.781 287.713 126.781 285.557V222.164C126.781 221.615 126.679 221.041 126.501 220.48C126.564 220.722 126.628 220.965 126.667 221.207C126.409 220.269 125.762 219.747 124.912 219.747Z" fill="#55B45C"/>
<path d="M122.951 52.182C122.951 49.565 121.114 46.383 118.847 45.074L117.95 44.532C116.817 43.878 115.332 43.55 113.846 43.55C112.36 43.55 110.875 43.877 109.742 44.532L37.1724 86.538C34.9054 87.847 33.0684 91.028 33.0684 93.646V170.514C33.0684 173.131 34.9064 176.314 37.1724 177.622L38.0684 178.164C39.2014 178.818 40.6874 179.146 42.1724 179.146C43.6584 179.146 45.1434 178.819 46.2764 178.164L101.217 146.321C106.343 150.856 113.098 151.866 118.332 150.839C119.305 150.648 119.47 149.303 118.576 148.875C115.595 147.449 112.356 144.216 111.192 140.54L119.231 135.881C122.918 133.779 122.952 131.669 122.952 129.051L122.951 52.182Z" fill="#FAFAFA"/>
<path d="M122.818 51.017C122.339 49.275 120.751 48.719 118.855 49.811L46.2742 91.823C45.1452 92.474 44.1112 93.584 43.3832 94.886L34.2832 89.61C35.0302 88.308 36.0442 87.198 37.1742 86.547L109.736 44.535C112.015 43.233 115.69 43.233 117.95 44.535L118.856 45.082C120.788 46.192 122.415 48.681 122.818 51.017Z" fill="#55B45C"/>
<path opacity="0.45" d="M122.818 51.017C122.339 49.275 120.751 48.719 118.855 49.811L46.2742 91.823C45.1452 92.474 44.1112 93.584 43.3832 94.886L34.2832 89.61C35.0302 88.308 36.0442 87.198 37.1742 86.547L109.736 44.535C112.015 43.233 115.69 43.233 117.95 44.535L118.856 45.082C120.788 46.192 122.415 48.681 122.818 51.017Z" fill="white"/>
<path d="M33.0684 170.514C33.0684 173.132 34.9064 176.314 37.1724 177.623L38.0694 178.165C40.1184 179.348 43.3064 179.464 45.5764 178.509C43.6454 179.239 42.1744 178.136 42.1744 175.795V98.927C42.1744 97.618 42.6344 96.168 43.3764 94.882L34.2724 89.601C33.5294 90.887 33.0704 92.337 33.0704 93.646V170.514H33.0684Z" fill="#55B45C"/>
<path opacity="0.25" d="M33.0684 170.514C33.0684 173.132 34.9064 176.314 37.1724 177.623L38.0694 178.165C40.1184 179.348 43.3064 179.464 45.5764 178.509C43.6454 179.239 42.1744 178.136 42.1744 175.795V98.927C42.1744 97.618 42.6344 96.168 43.3764 94.882L34.2724 89.601C33.5294 90.887 33.0704 92.337 33.0704 93.646V170.514H33.0684Z" fill="white"/>
<path d="M118.869 149.095L117.196 151.023C116.444 151.132 115.68 151.193 114.88 151.193C111.679 151.266 108.199 150.599 105.01 148.926L99.2021 133.612C105.544 133.418 108.927 133.66 113.34 137.941C113.583 138.171 113.874 138.462 114.201 138.802L111.194 140.548C112.358 144.222 115.595 147.447 118.579 148.878C118.699 148.937 118.796 149.01 118.869 149.095Z" fill="#F0997A"/>
<path d="M114.88 151.192C111.679 151.265 108.199 150.598 105.01 148.925C103.688 148.234 102.403 147.373 101.215 146.318L74.6 161.742L70.756 163.973C71.011 162.979 71.205 161.863 71.326 160.602C72.43 148.901 67.737 143.008 67.216 142.377C67.204 142.365 67.192 142.353 67.179 142.341L67.167 142.329C67.167 142.329 71.023 140.074 76.031 138.134C81.039 136.194 83.84 135.2 93.273 133.805L99.202 133.611C99.202 133.611 105.701 138.449 110.612 143.906C111.363 144.729 113.91 147.688 114.88 151.192Z" fill="#F0F0F0"/>
<path d="M108.159 131.061C109.472 121.207 97.9912 122.119 94.6402 115.813L103.358 109.037C108.731 105.366 107.653 97.352 105.857 93.255C101.848 84.108 92.1582 81.206 86.3422 81.234C75.3132 81.286 70.2592 84.688 69.7322 90.899C65.6512 90.8 59.9382 95.591 60.5442 108.877C60.6652 111.533 60.9672 114.763 59.7582 117.063C58.6952 119.085 57.0882 121.051 56.4092 123.331C55.2812 127.121 56.6822 132.573 61.0982 133.141C60.7282 132.147 60.1452 130.829 60.8942 129.876C61.4152 134.567 69.0812 137.211 72.5022 135.933C71.5692 135.333 70.8342 134.828 70.4662 133.656C76.2632 136.623 81.0352 135.225 86.6312 132.806C87.6392 132.37 88.3222 132.17 91.6512 133.028C93.6742 133.549 96.1012 133.776 99.7952 131.546C102.123 130.14 105.757 128.043 108.159 131.061Z" fill="#37474F"/>
<path d="M72.9084 120.478C70.9534 120.92 69.0084 119.903 67.7184 118.502C64.8554 115.393 64.4084 112.176 65.5184 110.004C66.4304 108.219 68.8794 107.039 70.7184 108.195C72.6844 109.431 72.8084 110.471 73.6114 111.897C74.4354 113.361 77.1644 113.138 77.4614 107.309C77.7394 101.872 78.1954 96.884 80.5044 94.383C83.9514 90.648 88.3144 92.1669 89.9144 94.2939C91.2564 91.7329 93.8384 90.6999 96.4404 92.0989C98.9914 93.4699 100.606 96.4469 102.11 106.719C103.643 117.19 102.076 124.668 99.9574 126.48C98.3494 127.855 96.2194 128.186 92.5814 128.442L92.8764 135.375C92.8764 135.375 96.8444 137.968 97.3904 146.96C91.0364 145.582 81.2394 143.486 75.8294 138.605L74.8914 118.785C74.8914 118.785 74.7664 120.057 72.9084 120.478Z" fill="#FFBDA7"/>
<path d="M87.2851 107.958C87.0731 108.913 86.2011 109.471 85.3381 109.206C84.4741 108.94 83.9461 107.951 84.1581 106.996C84.3701 106.041 85.2421 105.482 86.1061 105.748C86.9691 106.014 87.4971 107.003 87.2851 107.958Z" fill="#263238"/>
<path d="M85.5228 105.691C84.5178 105.742 84.0128 107.217 83.0088 106.657C83.2178 107.438 84.3328 107.885 85.0198 107.475C85.4578 107.213 85.5228 105.691 85.5228 105.691Z" fill="#263238"/>
<path d="M99.494 102.768L95.958 100.961C96.342 99.905 97.446 99.454 98.422 99.953C99.399 100.451 99.879 101.712 99.494 102.768Z" fill="#263238"/>
<path d="M95.7719 107.221C96.1449 108.148 97.1059 108.616 97.9169 108.268C98.7279 107.92 99.0829 106.887 98.7089 105.961C98.3349 105.035 97.3749 104.566 96.5639 104.914C95.7529 105.263 95.3979 106.296 95.7719 107.221Z" fill="#263238"/>
<path d="M97.1309 104.8C98.1369 104.752 98.8889 106.165 99.7889 105.511C99.7159 106.306 98.6859 106.858 97.9349 106.519C97.4549 106.303 97.1309 104.8 97.1309 104.8Z" fill="#263238"/>
<path d="M85.5842 101.77L82.2482 104.194C81.5422 103.187 81.7162 101.828 82.6382 101.158C83.5592 100.49 84.8792 100.763 85.5842 101.77Z" fill="#263238"/>
<path d="M86.6186 116.665L92.0736 118.174C91.8116 119.806 90.2246 120.782 88.5096 120.237C87.0166 119.761 86.3566 118.296 86.6186 116.665Z" fill="#B16668"/>
<path d="M90.0479 120.312C89.7259 118.734 88.3629 117.582 86.8539 117.697C86.7619 117.704 86.6779 117.731 86.5889 117.747C86.7089 118.913 87.3579 119.87 88.5099 120.236C89.0499 120.408 89.5709 120.415 90.0479 120.312Z" fill="#F0997A"/>
<path d="M90.2988 104.157L92.0298 114.437L97.0818 112.175L90.2988 104.157Z" fill="#F0997A"/>
<path d="M92.5802 128.442C89.1802 128.278 85.5872 127.969 82.0672 126.591C80.8222 126.104 79.0002 123.837 77.4512 121.287C77.4512 121.287 78.8352 126.398 81.5792 128.037C85.7522 130.53 92.6802 130.796 92.6802 130.796L92.5802 128.442Z" fill="#F0997A"/>
<path d="M76.3154 120.838C76.5644 122.807 75.6464 124.625 74.1424 125.502C73.6474 125.801 73.1064 125.985 72.4994 126.037C70.0554 126.265 67.8114 124.325 67.4844 121.679C67.3554 120.636 67.5334 119.616 67.9784 118.757C68.1174 118.905 68.2544 119.034 68.3904 119.143C68.6634 119.381 68.9494 119.56 69.2144 119.701C68.9404 120.26 68.8344 120.887 68.9114 121.544C69.1424 123.32 70.6644 124.638 72.3044 124.472C72.9634 124.398 73.5324 124.115 73.9774 123.663C74.6384 123.006 75.0014 122.034 74.8704 120.972C74.6394 119.196 73.1174 117.878 71.4954 118.042C71.0854 118.083 70.7144 117.753 70.6754 117.328C70.6194 116.904 70.8904 116.52 71.2834 116.479C73.7274 116.254 75.9704 118.194 76.3154 120.838Z" fill="#55B45C"/>
<path opacity="0.2" d="M76.3154 120.838C76.5644 122.807 75.6464 124.625 74.1424 125.502C73.6474 125.801 73.1064 125.985 72.4994 126.037C70.0554 126.265 67.8114 124.325 67.4844 121.679C67.3554 120.636 67.5334 119.616 67.9784 118.757C68.1174 118.905 68.2544 119.034 68.3904 119.143C68.6634 119.381 68.9494 119.56 69.2144 119.701C68.9404 120.26 68.8344 120.887 68.9114 121.544C69.1424 123.32 70.6644 124.638 72.3044 124.472C72.9634 124.398 73.5324 124.115 73.9774 123.663C74.6384 123.006 75.0014 122.034 74.8704 120.972C74.6394 119.196 73.1174 117.878 71.4954 118.042C71.0854 118.083 70.7144 117.753 70.6754 117.328C70.6194 116.904 70.8904 116.52 71.2834 116.479C73.7274 116.254 75.9704 118.194 76.3154 120.838Z" fill="black"/>
<path d="M74.5993 161.742L70.7553 163.973L56.9693 171.964C56.9333 170.582 56.8843 169.199 56.8363 167.866C56.1453 149.835 58.8613 147.471 67.1673 142.33L67.1793 142.342C67.1913 142.354 67.2033 142.366 67.2163 142.378C73.1313 147.906 74.3923 156.807 74.5993 161.742Z" fill="#FFBDA7"/>
<path d="M120.693 50.551C120.871 50.551 121.344 50.551 121.568 51.368L121.586 51.364C121.636 51.649 121.661 51.926 121.661 52.185V129.052C121.661 131.516 121.661 133.003 118.58 134.751L110.541 139.413L109.64 139.935L109.954 140.928C111.209 144.895 114.452 148.091 117.338 149.695C116.408 149.837 115.449 149.908 114.479 149.908C109.805 149.908 105.401 148.289 102.078 145.348L101.376 144.727L100.566 145.197L91.2898 150.576L77.6158 158.512L45.6308 177.041C45.4608 177.138 45.2788 177.222 45.0858 177.307L45.0338 177.326L45.0128 177.329L44.9288 177.353C44.7558 177.402 44.5948 177.427 44.4498 177.427C43.5998 177.427 43.4728 176.409 43.4728 175.802V98.919C43.4728 97.9 43.8488 96.665 44.5138 95.515C45.1368 94.403 46.0138 93.465 46.9238 92.941L119.512 50.938C120.065 50.619 120.459 50.551 120.693 50.551ZM120.692 49.253C120.14 49.253 119.518 49.435 118.86 49.818L46.2748 91.819C45.1458 92.469 44.1088 93.583 43.3818 94.882C42.6388 96.166 42.1758 97.62 42.1758 98.92V175.802C42.1758 177.654 43.0978 178.726 44.4508 178.726C44.7138 178.726 44.9928 178.685 45.2848 178.602C45.3928 178.587 45.4858 178.54 45.5788 178.509C45.8258 178.401 46.0578 178.292 46.2748 178.169L78.2668 159.636L91.9418 151.7L101.217 146.321C105.152 149.803 110.048 151.207 114.478 151.207C115.819 151.207 117.117 151.079 118.333 150.84C119.306 150.649 119.471 149.304 118.577 148.876C115.595 147.449 112.355 144.214 111.192 140.537L119.231 135.875C122.913 133.786 122.959 131.667 122.959 129.053V52.185C122.959 51.52 122.836 50.824 122.619 50.143C122.696 50.437 122.774 50.731 122.82 51.025C122.508 49.886 121.723 49.253 120.692 49.253Z" fill="#55B45C"/>
</svg>
