<svg width="4%" height="4%" viewBox="0 0 165 165" fill="none" xmlns="http://www.w3.org/2000/svg">
<path d="M40.49 69.0482C40.9341 66.8056 41.5538 64.5949 42.3486 62.4381L75.9446 34.5851C78.2105 34.2041 80.4981 34.0045 82.7831 33.9838L40.49 69.0482Z" fill="#55B45C"/>
<path d="M39.7144 79.8281C39.6259 78.129 39.6373 76.427 39.7468 74.7322L88.5066 34.3075C90.192 34.5141 91.8659 34.8187 93.519 35.2205L39.7144 79.8281Z" fill="#55B45C"/>
<path d="M41.1273 88.7941C40.7471 87.3701 40.4411 85.933 40.2089 84.4873L98.0053 36.5697C99.3827 37.0662 100.739 37.6334 102.067 38.2708L41.1273 88.7941Z" fill="#55B45C"/>
<path d="M44.0117 96.54C43.4157 95.3123 42.8812 94.0647 42.408 92.8003L105.766 40.2726C106.92 40.9718 108.047 41.7283 109.143 42.542L44.0117 96.54Z" fill="#55B45C"/>
<path d="M48.0914 103.295C47.3102 102.231 46.5838 101.143 45.9122 100.032L112.223 45.0572C113.189 45.923 114.124 46.8386 115.023 47.8037L48.0914 103.295Z" fill="#55B45C"/>
<path d="M53.2538 109.152C52.3155 108.261 51.4093 107.322 50.5392 106.334L117.556 50.7727C118.366 51.8112 119.121 52.8756 119.822 53.9626L53.2538 109.152Z" fill="#55B45C"/>
<path d="M59.522 114.093C58.3993 113.365 57.3047 112.582 56.2422 111.743L121.813 57.3803C122.441 58.5799 123.008 59.8008 123.514 61.0387L59.522 114.093Z" fill="#55B45C"/>
<path d="M67.0546 117.985C65.7162 117.452 64.4016 116.852 63.114 116.183L124.902 64.9566C125.32 66.3455 125.667 67.7495 125.942 69.1633L67.0546 117.985Z" fill="#55B45C"/>
<path d="M76.2258 120.518C74.5994 120.256 72.9866 119.9 71.3959 119.454L126.581 73.7024C126.724 75.348 126.774 76.9987 126.732 78.6459L76.2258 120.518Z" fill="#55B45C"/>
<path d="M88.1034 120.808C85.9717 121.048 83.8286 121.129 81.6927 121.055L126.245 84.118C125.922 86.2312 125.445 88.3224 124.814 90.3728L88.1034 120.808Z" fill="#55B45C"/>
<path d="M121.585 98.1187C119.002 102.94 115.461 107.352 110.991 111.058C106.52 114.764 101.529 117.426 96.3127 119.071L121.585 98.1187Z" fill="#55B45C"/>
<path d="M66.6089 37.2566L46.7042 53.7587C49.0391 50.1755 51.9461 46.8786 55.411 44.0055C58.8766 41.1324 62.6554 38.8871 66.6089 37.2566Z" fill="#55B45C"/>
<path fill-rule="evenodd" clip-rule="evenodd" d="M82.1876 153.997C82.5355 153.928 82.8797 153.842 83.2188 153.739C84.0026 153.505 85.0132 153.099 86.2507 152.522C88.7257 151.357 91.8916 149.531 95.4597 147.025C104.43 140.574 112.38 132.811 119.044 123.998C134.792 103.403 147.992 72.1153 142.278 29.2462C142.149 28.3259 141.763 27.4606 141.165 26.7494C140.567 26.0381 139.781 25.5096 138.896 25.2244C132.183 23.0278 120.849 19.4494 109.639 16.4072C98.1926 13.3031 87.6635 11.0034 82.1876 11.0034V153.997ZM51.9926 5.775C63.1816 2.73281 75.0719 0 82.1876 0C89.3032 0 101.194 2.73281 112.383 5.775C123.829 8.86875 135.369 12.5297 142.155 14.7469C144.992 15.6838 147.507 17.402 149.411 19.7041C151.316 22.0062 152.532 24.7989 152.921 27.7612C159.067 73.9303 144.805 108.147 127.501 130.783C120.16 140.464 111.411 148.991 101.544 156.08C98.1361 158.539 94.5199 160.695 90.7366 162.525C87.8491 163.886 84.7451 165 82.1876 165C79.6301 165 76.5363 163.886 73.6385 162.525C69.8552 160.695 66.239 158.539 62.831 156.08C52.9645 148.991 44.2153 140.464 36.8744 130.783C19.5701 108.147 5.30787 73.9303 11.4541 27.7612C11.8428 24.7989 13.0592 22.0062 14.9636 19.7041C16.8681 17.402 19.3833 15.6838 22.2204 14.7469C32.0714 11.5192 41.9983 8.52768 51.9926 5.775Z" fill="black"/>
</svg>
