<svg width="4%" height="4%" viewBox="0 0 165 165" fill="none" xmlns="http://www.w3.org/2000/svg">
<g clip-path="url(#clip0_529_3786)">
<path d="M22.8025 114.048C23.2466 111.806 23.8663 109.595 24.6611 107.438L58.2571 79.5851C60.523 79.2041 62.8106 79.0045 65.0956 78.9839L22.8025 114.048Z" fill="#55B45C"/>
<path d="M22.0269 124.828C21.9384 123.129 21.9498 121.427 22.0593 119.732L70.8191 79.3076C72.5045 79.5141 74.1784 79.8187 75.8315 80.2206L22.0269 124.828Z" fill="#55B45C"/>
<path d="M23.4398 133.794C23.0596 132.37 22.7536 130.933 22.5214 129.487L80.3178 81.5698C81.6952 82.0662 83.0511 82.6334 84.3796 83.2709L23.4398 133.794Z" fill="#55B45C"/>
<path d="M26.3242 141.54C25.7282 140.312 25.1937 139.065 24.7205 137.8L88.0788 85.2727C89.2329 85.9718 90.3598 86.7284 91.4552 87.542L26.3242 141.54Z" fill="#55B45C"/>
<path d="M30.4039 148.295C29.6227 147.231 28.8963 146.143 28.2247 145.032L94.5351 90.0572C95.5014 90.923 96.4362 91.8386 97.336 92.8038L30.4039 148.295Z" fill="#55B45C"/>
<path d="M35.5663 154.152C34.628 153.261 33.7218 152.322 32.8517 151.334L99.8684 95.7727C100.678 96.8112 101.433 97.8757 102.135 98.9626L35.5663 154.152Z" fill="#55B45C"/>
<path d="M41.8345 159.093C40.7118 158.365 39.6172 157.582 38.5547 156.743L104.126 102.38C104.753 103.58 105.32 104.801 105.827 106.039L41.8345 159.093Z" fill="#55B45C"/>
<path d="M49.3671 162.985C48.0287 162.452 46.7141 161.852 45.4265 161.183L107.215 109.957C107.633 111.346 107.979 112.75 108.255 114.163L49.3671 162.985Z" fill="#55B45C"/>
<path d="M58.5383 165.519C56.9119 165.256 55.2991 164.9 53.7084 164.454L108.893 118.702C109.037 120.348 109.087 121.999 109.044 123.646L58.5383 165.519Z" fill="#55B45C"/>
<path d="M70.4159 165.809C68.2842 166.048 66.1411 166.13 64.0052 166.055L108.557 129.118C108.235 131.231 107.757 133.322 107.127 135.373L70.4159 165.809Z" fill="#55B45C"/>
<path d="M103.898 143.119C101.314 147.94 97.7737 152.352 93.3033 156.058C88.8329 159.764 83.8415 162.426 78.6252 164.071L103.898 143.119Z" fill="#55B45C"/>
<path d="M48.9214 82.2566L29.0167 98.7587C31.3516 95.1756 34.2586 91.8786 37.7235 89.0055C41.1891 86.1325 44.9679 83.8871 48.9214 82.2566Z" fill="#55B45C"/>
<path d="M118.091 43.8738C118.785 43.1914 119.533 42.5624 120.33 41.9943L138.827 40.2531C139.715 40.6624 140.568 41.1408 141.377 41.6815L118.091 43.8738Z" fill="#55B45C"/>
<path d="M115.233 47.4798C115.609 46.8609 116.022 46.2649 116.466 45.695L143.312 43.1679C143.856 43.6447 144.371 44.1532 144.857 44.691L115.233 47.4798Z" fill="#55B45C"/>
<path d="M113.58 50.9725C113.788 50.3805 114.025 49.8016 114.29 49.2373L146.111 46.2414C146.477 46.7464 146.818 47.2711 147.132 47.8139L113.58 50.9725Z" fill="#55B45C"/>
<path d="M112.737 54.3889C112.822 53.8142 112.933 53.2471 113.07 52.6889L147.953 49.4051C148.192 49.9278 148.407 50.4642 148.597 51.013L112.737 54.3889Z" fill="#55B45C"/>
<path d="M112.552 57.7433C112.533 57.1818 112.538 56.6248 112.568 56.0732L149.077 52.6364C149.209 53.1726 149.319 53.7189 149.404 54.2742L112.552 57.7433Z" fill="#55B45C"/>
<path d="M112.964 61.0418C112.847 60.5034 112.754 59.9556 112.685 59.3993L149.582 55.9258C149.618 56.4853 149.629 57.0408 149.615 57.5914L112.964 61.0418Z" fill="#55B45C"/>
<path d="M113.984 64.2829C113.763 63.7577 113.566 63.2196 113.394 62.6696L149.496 59.2711C149.429 59.8435 149.335 60.4089 149.217 60.9659L113.984 64.2829Z" fill="#55B45C"/>
<path d="M115.7 67.4583C115.357 66.9499 115.039 66.4235 114.746 65.8794L148.765 62.6769C148.579 63.2657 148.364 63.8427 148.122 64.406L115.7 67.4583Z" fill="#55B45C"/>
<path d="M118.319 70.5488C117.81 70.0663 117.328 69.5545 116.875 69.0162L147.258 66.1558C146.914 66.7692 146.536 67.3618 146.126 67.931L118.319 70.5488Z" fill="#55B45C"/>
<path d="M122.427 73.4991C121.62 73.0721 120.847 72.5869 120.113 72.0484L144.643 69.7391C144.022 70.4051 143.353 71.0262 142.639 71.5963L122.427 73.4991Z" fill="#55B45C"/>
<path d="M139.646 73.5467C137.581 74.6231 135.278 75.3261 132.817 75.5576C130.355 75.7894 127.961 75.5288 125.732 74.8565L139.646 73.5467Z" fill="#55B45C"/>
<path d="M134.902 38.9541L123.943 39.9857C125.624 39.2852 127.437 38.8226 129.345 38.6428C131.253 38.4632 133.121 38.5796 134.902 38.9541Z" fill="#55B45C"/>
<path d="M144.375 85.415V75.625C144.375 59.2147 137.856 43.4766 126.252 31.8728C114.648 20.269 98.9103 13.75 82.5 13.75C66.0897 13.75 50.3516 20.269 38.7478 31.8728C27.144 43.4766 20.625 59.2147 20.625 75.625V85.415C13.4142 88.5901 7.513 94.1459 3.90927 101.152C0.305539 108.159 -0.78196 116.19 0.828829 123.903C2.43962 131.615 6.65092 138.54 12.7577 143.519C18.8645 148.497 26.4962 151.226 34.375 151.25H48.125V82.5H34.375V75.625C34.375 62.8615 39.4453 50.6207 48.4705 41.5955C57.4957 32.5703 69.7365 27.5 82.5 27.5C95.2635 27.5 107.504 32.5703 116.53 41.5955C125.555 50.6207 130.625 62.8615 130.625 75.625V82.5H116.875V137.5H89.375V151.25H130.625C138.504 151.226 146.135 148.497 152.242 143.519C158.349 138.54 162.56 131.615 164.171 123.903C165.782 116.19 164.694 108.159 161.091 101.152C157.487 94.1459 151.586 88.5901 144.375 85.415ZM34.375 137.5C28.9049 137.5 23.6589 135.327 19.7909 131.459C15.923 127.591 13.75 122.345 13.75 116.875C13.75 111.405 15.923 106.159 19.7909 102.291C23.6589 98.423 28.9049 96.25 34.375 96.25V137.5ZM130.625 137.5V96.25C136.095 96.25 141.341 98.423 145.209 102.291C149.077 106.159 151.25 111.405 151.25 116.875C151.25 122.345 149.077 127.591 145.209 131.459C141.341 135.327 136.095 137.5 130.625 137.5Z" fill="black"/>
</g>
<defs>
<clipPath id="clip0_529_3786">
<rect width="165" height="165" fill="white"/>
</clipPath>
</defs>
</svg>
