<svg width="auto" height="auto" viewBox="0 0 500 500" fill="none" xmlns="http://www.w3.org/2000/svg">
<path d="M402.119 428.843C417.528 418.684 430.542 405.516 440.364 388.422C497.521 288.948 484.608 142.257 374.528 79.36C323.654 50.292 250.408 31.887 195.429 61.747C150.833 85.968 123.489 131.563 100.876 173.046C86.653 199.138 74.942 227.217 57.425 251.626C34.703 283.287 9.689 325.567 34.945 362.346C69.351 412.451 134.341 435.33 193.276 450.391C257.217 466.732 329.109 469.051 388.173 437.179C392.954 434.598 397.61 431.816 402.119 428.843Z" fill="#55B45C"/>
<path opacity="0.7" d="M402.119 428.843C417.528 418.684 430.542 405.516 440.364 388.422C497.521 288.948 484.608 142.257 374.528 79.36C323.654 50.292 250.408 31.887 195.429 61.747C150.833 85.968 123.489 131.563 100.876 173.046C86.653 199.138 74.942 227.217 57.425 251.626C34.703 283.287 9.689 325.567 34.945 362.346C69.351 412.451 134.341 435.33 193.276 450.391C257.217 466.732 329.109 469.051 388.173 437.179C392.954 434.598 397.61 431.816 402.119 428.843Z" fill="#C9C9C9"/>
<path d="M338.236 85.8702C380.279 86.5222 415.362 102.471 442.989 134.37C446.762 138.726 446.3 144.77 442.091 148.386C438.078 151.833 432.109 151.395 428.419 147.111C418.375 135.45 406.732 125.795 393.089 118.635C350.311 96.1842 299.143 101.69 262.29 132.869C257.211 137.166 252.691 142.15 248.113 147.004C244.147 151.209 238.296 151.882 234.103 148.269C229.964 144.702 229.649 138.627 233.426 134.25C256.579 107.415 285.71 91.5522 320.821 86.7022C323.571 86.3222 326.344 86.0272 329.115 85.9012C332.15 85.7642 335.196 85.8702 338.236 85.8702Z" fill="#263238"/>
<path d="M341.71 124.853C368.285 125.541 393.265 136.892 412.925 159.61C416.802 164.09 416.347 169.873 412.044 173.57C407.947 177.09 402.015 176.616 398.23 172.235C387.973 160.361 375.54 151.651 360.382 147.559C329.491 139.219 302.784 146.825 280.417 169.69C279.585 170.54 278.817 171.454 278.026 172.344C274.335 176.502 268.364 177.059 264.328 173.621C260.073 169.996 259.632 164.005 263.353 159.618C272.113 149.292 282.542 141.08 294.677 135.058C308.43 128.234 323.005 124.916 341.71 124.853Z" fill="#263238"/>
<path d="M385.431 191.337C385.426 195.383 382.981 198.963 379.22 200.429C375.433 201.905 371.227 200.923 368.391 197.711C364.212 192.979 359.395 189.153 353.55 186.676C337.596 179.916 319.996 184.115 308.132 197.516C305.317 200.695 301.806 201.847 297.747 200.616C293.843 199.432 291.589 196.62 290.987 192.591C290.563 189.754 291.418 187.232 293.243 185.032C313.562 160.531 350.945 157.062 375.391 177.487C378.169 179.808 380.779 182.406 383.077 185.196C384.429 186.837 385.012 189.111 385.941 191.1C385.77 191.179 385.6 191.258 385.431 191.337Z" fill="#263238"/>
<path d="M338.204 242.378C327.303 242.384 318.646 233.734 318.653 222.845C318.659 212.128 327.369 203.415 338.118 203.373C348.916 203.331 357.68 212.117 357.652 222.957C357.624 233.751 348.99 242.373 338.204 242.378Z" fill="#263238"/>
<path d="M221.263 335.798C230.342 326.719 230.342 311.998 221.263 302.919C212.184 293.84 197.463 293.84 188.384 302.919C179.305 311.998 179.305 326.719 188.384 335.798C197.463 344.877 212.184 344.877 221.263 335.798Z" stroke="#263238" stroke-width="2" stroke-miterlimit="10" stroke-linecap="round" stroke-linejoin="round"/>
<path d="M204.827 342.608C211.178 342.608 216.327 332.199 216.327 319.359C216.327 306.519 211.178 296.11 204.827 296.11C198.476 296.11 193.327 306.519 193.327 319.359C193.327 332.199 198.476 342.608 204.827 342.608Z" stroke="#263238" stroke-width="2" stroke-miterlimit="10" stroke-linecap="round" stroke-linejoin="round"/>
<path d="M188.829 302.915C192.997 306.868 198.628 309.294 204.826 309.294C211.134 309.294 216.856 306.782 221.045 302.703" stroke="#263238" stroke-width="2" stroke-miterlimit="10" stroke-linecap="round" stroke-linejoin="round"/>
<path d="M220.891 335.867C216.717 331.876 211.058 329.424 204.827 329.424C198.479 329.424 192.725 331.968 188.529 336.093" stroke="#263238" stroke-width="2" stroke-miterlimit="10" stroke-linecap="round" stroke-linejoin="round"/>
<path d="M181.578 319.359H228.077" stroke="#263238" stroke-width="2" stroke-miterlimit="10" stroke-linecap="round" stroke-linejoin="round"/>
<path d="M204.827 296.109V342.609" stroke="#263238" stroke-width="2" stroke-miterlimit="10" stroke-linecap="round" stroke-linejoin="round"/>
<path d="M204.941 288.758V286.258" stroke="#263238" stroke-linecap="round" stroke-linejoin="round"/>
<path d="M204.941 281.184V30.0132" stroke="#263238" stroke-linecap="round" stroke-linejoin="round" stroke-dasharray="5.07 5.07"/>
<path d="M204.941 27.4761V24.9761" stroke="#263238" stroke-linecap="round" stroke-linejoin="round"/>
<path d="M167.427 153.229C159.448 153.229 152.98 159.697 152.98 167.676C152.98 175.655 167.427 191.974 167.427 191.974C167.427 191.974 181.874 175.656 181.874 167.676C181.874 159.697 175.406 153.229 167.427 153.229ZM167.427 174.243C163.8 174.243 160.86 171.303 160.86 167.676C160.86 164.049 163.8 161.109 167.427 161.109C171.054 161.109 173.994 164.049 173.994 167.676C173.994 171.303 171.054 174.243 167.427 174.243Z" fill="#263238" stroke="#263238" stroke-miterlimit="10" stroke-linecap="round" stroke-linejoin="round"/>
<path d="M167.427 153.229V150.729" stroke="#263238" stroke-linecap="round" stroke-linejoin="round"/>
<path d="M167.427 145.799V29.9409" stroke="#263238" stroke-linecap="round" stroke-linejoin="round" stroke-dasharray="4.93 4.93"/>
<path d="M167.427 27.4761V24.9761" stroke="#263238" stroke-linecap="round" stroke-linejoin="round"/>
<path d="M133.268 271.755H104.643C99.979 271.755 96.197 275.536 96.197 280.201V293.238C96.197 297.902 99.978 301.684 104.643 301.684L104.927 314.778L113.913 301.684H133.269C137.934 301.684 141.715 297.903 141.715 293.238V280.201C141.713 275.536 137.932 271.755 133.268 271.755Z" fill="white" stroke="#263238" stroke-miterlimit="10" stroke-linecap="round" stroke-linejoin="round"/>
<path d="M122.467 278.793H145.995C149.829 278.793 152.937 281.901 152.937 285.735V296.451C152.937 300.285 149.829 303.393 145.995 303.393L145.762 314.155L138.376 303.393H122.467C118.633 303.393 115.525 300.285 115.525 296.451V285.735C115.525 281.901 118.633 278.793 122.467 278.793Z" fill="#263238" stroke="#263238" stroke-miterlimit="10" stroke-linecap="round" stroke-linejoin="round"/>
<path d="M129.501 291.084C129.501 289.656 128.343 288.498 126.915 288.498C125.487 288.498 124.329 289.656 124.329 291.084C124.329 292.512 125.487 293.67 126.915 293.67C128.344 293.67 129.501 292.512 129.501 291.084Z" fill="#55B45C"/>
<path d="M134.927 293.67C136.355 293.67 137.513 292.512 137.513 291.084C137.513 289.656 136.355 288.498 134.927 288.498C133.499 288.498 132.341 289.656 132.341 291.084C132.341 292.512 133.499 293.67 134.927 293.67Z" fill="#55B45C"/>
<path d="M142.938 293.67C144.366 293.67 145.524 292.512 145.524 291.084C145.524 289.656 144.366 288.498 142.938 288.498C141.51 288.498 140.352 289.656 140.352 291.084C140.352 292.512 141.51 293.67 142.938 293.67Z" fill="#55B45C"/>
<path d="M127.509 262.608V260.108" stroke="#263238" stroke-linecap="round" stroke-linejoin="round"/>
<path d="M127.509 255.178V30.8398" stroke="#263238" stroke-linecap="round" stroke-linejoin="round" stroke-dasharray="4.93 4.93"/>
<path d="M127.509 28.374V25.874" stroke="#263238" stroke-linecap="round" stroke-linejoin="round"/>
<path d="M116.839 189.152H66.274V218.703H116.839V189.152Z" fill="white" stroke="#263238" stroke-miterlimit="10" stroke-linecap="round" stroke-linejoin="round"/>
<path d="M66.274 218.703L91.155 195.719L116.839 218.703H66.274Z" fill="white" stroke="#263238" stroke-miterlimit="10" stroke-linecap="round" stroke-linejoin="round"/>
<path d="M66.274 189.152L91.557 203.927L116.839 189.152H66.274Z" fill="white" stroke="#263238" stroke-miterlimit="10" stroke-linecap="round" stroke-linejoin="round"/>
<path d="M91.109 187.802V185.302" stroke="#263238" stroke-linecap="round" stroke-linejoin="round"/>
<path d="M91.109 180.608V145.403" stroke="#263238" stroke-linecap="round" stroke-linejoin="round" stroke-dasharray="4.69 4.69"/>
<path d="M91.109 143.056V140.556" stroke="#263238" stroke-linecap="round" stroke-linejoin="round"/>
<path d="M104.63 97.8769C100.255 88.9099 90.906 82.7129 80.077 82.7129C67.355 82.7129 56.676 91.2659 53.705 102.818C53.269 102.785 52.832 102.753 52.388 102.753C43.02 102.753 35.427 110.187 35.427 119.357C35.427 127.79 41.855 134.739 50.173 135.804V135.962H101.324C112.145 135.962 120.917 127.375 120.917 116.781C120.917 107.291 113.876 99.4159 104.63 97.8769Z" fill="white" stroke="#263238" stroke-miterlimit="10" stroke-linecap="round" stroke-linejoin="round"/>
<path d="M80.077 82.7129V80.2129" stroke="#263238" stroke-linecap="round" stroke-linejoin="round"/>
<path d="M80.077 75.3347V28.9897" stroke="#263238" stroke-linecap="round" stroke-linejoin="round" stroke-dasharray="4.88 4.88"/>
<path d="M80.077 26.5508V24.0508" stroke="#263238" stroke-linecap="round" stroke-linejoin="round"/>
<path d="M47.585 261.104C46.393 261.104 45.297 261.506 44.415 262.175L31.824 252.732C32.047 252.15 32.174 251.52 32.174 250.859C32.174 247.957 29.822 245.605 26.921 245.605C24.019 245.605 21.668 247.957 21.668 250.859C21.668 253.76 24.02 256.113 26.921 256.113C28.113 256.113 29.209 255.711 30.091 255.042L42.682 264.485C42.459 265.068 42.332 265.698 42.332 266.358C42.332 267.019 42.459 267.648 42.682 268.231L30.091 277.674C29.209 277.005 28.113 276.603 26.921 276.603C24.019 276.603 21.668 278.955 21.668 281.857C21.668 284.759 24.02 287.111 26.921 287.111C29.822 287.111 32.174 284.759 32.174 281.857C32.174 281.196 32.047 280.566 31.824 279.984L44.414 270.541C45.296 271.21 46.392 271.613 47.584 271.613C50.485 271.613 52.837 269.261 52.837 266.359C52.837 263.457 50.486 261.104 47.585 261.104Z" fill="#263238"/>
<path d="M39.837 88.7759V86.2759" stroke="#263238" stroke-linecap="round" stroke-linejoin="round"/>
<path d="M39.837 80.9082V29.9092" stroke="#263238" stroke-linecap="round" stroke-linejoin="round" stroke-dasharray="5.37 5.37"/>
<path d="M39.837 27.2251V24.7251" stroke="#263238" stroke-linecap="round" stroke-linejoin="round"/>
<path d="M39.837 249.984V247.484" stroke="#263238" stroke-linecap="round" stroke-linejoin="round"/>
<path d="M39.837 242.467V144.64" stroke="#263238" stroke-linecap="round" stroke-linejoin="round" stroke-dasharray="5.02 5.02"/>
<path d="M39.837 142.131V139.631" stroke="#263238" stroke-linecap="round" stroke-linejoin="round"/>
<path d="M93.391 405.187C100.394 405.187 106.071 390.296 106.071 371.927C106.071 353.558 100.394 338.667 93.391 338.667C86.388 338.667 80.711 353.558 80.711 371.927C80.711 390.296 86.388 405.187 93.391 405.187Z" fill="#55B45C" stroke="#263238" stroke-miterlimit="10"/>
<path d="M132.805 351.41C136.769 338.933 135.58 327.42 130.15 325.695C124.72 323.97 117.105 332.686 113.141 345.163C109.177 357.639 110.365 369.152 115.796 370.878C121.226 372.603 128.841 363.887 132.805 351.41Z" fill="#55B45C" stroke="#263238" stroke-miterlimit="10"/>
<path d="M39.747 426.646C26.84 424.46 17.148 418.133 18.1 412.516C19.051 406.899 30.286 404.117 43.193 406.304C56.1 408.49 65.791 414.817 64.84 420.434C63.888 426.051 52.654 428.833 39.747 426.646Z" fill="#55B45C" stroke="#263238" stroke-miterlimit="10"/>
<path d="M144.726 395.898C133.945 406.589 121.209 411.225 116.277 406.253C111.346 401.28 116.087 388.582 126.867 377.891C137.647 367.2 150.384 362.564 155.316 367.536C160.248 372.508 155.507 385.206 144.726 395.898Z" fill="#55B45C" stroke="#263238" stroke-miterlimit="10"/>
<path d="M70.443 366.572C80.867 381.697 83.974 397.641 77.381 402.185C70.788 406.729 56.993 398.152 46.569 383.027C36.145 367.903 33.038 351.958 39.631 347.414C46.223 342.87 60.019 351.448 70.443 366.572Z" fill="#55B45C" stroke="#263238" stroke-miterlimit="10"/>
<path d="M94.28 403.527L95.261 449.257" stroke="#263238" stroke-miterlimit="10" stroke-linecap="round"/>
<path d="M93.098 359.56L94.28 403.527" stroke="#263238" stroke-miterlimit="10" stroke-linecap="round"/>
<path d="M93.183 352.387L93.098 355.755" stroke="#263238" stroke-miterlimit="10" stroke-linecap="round"/>
<path d="M77.333 400.025C83.689 413.375 88.857 429.589 89.857 448.01" stroke="#263238" stroke-miterlimit="10" stroke-linecap="round"/>
<path d="M55.551 366.701C61.462 373.525 70.155 384.949 77.332 400.025" stroke="#263238" stroke-miterlimit="10" stroke-linecap="round"/>
<path d="M48.698 359.455C48.698 359.455 50.013 360.656 52.174 362.953" stroke="#263238" stroke-miterlimit="10" stroke-linecap="round"/>
<path d="M117.065 404.719C109.667 414.944 102.237 428.327 96.508 445.514" stroke="#263238" stroke-miterlimit="10" stroke-linecap="round"/>
<path d="M131.654 387.956C127.177 392.203 122.129 397.721 117.066 404.719" stroke="#263238" stroke-miterlimit="10" stroke-linecap="round"/>
<path d="M147.23 376.085C147.23 376.085 142.707 378.403 136.122 383.956" stroke="#263238" stroke-miterlimit="10" stroke-linecap="round"/>
<path d="M116.532 367.791C109.508 389.897 100.078 422.564 95.678 450.92" stroke="#263238" stroke-miterlimit="10" stroke-linecap="round"/>
<path d="M120.811 354.677C119.561 358.405 118.107 362.832 116.531 367.79" stroke="#263238" stroke-miterlimit="10" stroke-linecap="round"/>
<path d="M125.195 341.993C125.195 341.993 123.967 345.377 121.991 351.182" stroke="#263238" stroke-miterlimit="10" stroke-linecap="round"/>
<path d="M64.19 417.37C72.966 420.698 81.535 427.118 85.699 439.278" stroke="#263238" stroke-miterlimit="10" stroke-linecap="round"/>
<path d="M47.978 414.074C52.702 414.352 58.49 415.209 64.19 417.37" stroke="#263238" stroke-miterlimit="10" stroke-linecap="round"/>
<path d="M37.472 414.333C37.472 414.333 39.034 414.11 41.611 414.009" stroke="#263238" stroke-miterlimit="10" stroke-linecap="round"/>
<path d="M150.2 426.646C163.107 424.46 172.799 418.133 171.847 412.516C170.895 406.899 159.661 404.117 146.754 406.304C133.847 408.49 124.155 414.817 125.107 420.434C126.059 426.051 137.294 428.833 150.2 426.646Z" fill="#55B45C" stroke="#263238" stroke-miterlimit="10"/>
<path d="M126.035 417.266C117.163 420.564 108.456 426.99 104.248 439.279" stroke="#263238" stroke-miterlimit="10" stroke-linecap="round"/>
<path d="M143.328 414.008C138.455 414.193 132.205 414.973 126.035 417.266" stroke="#263238" stroke-miterlimit="10" stroke-linecap="round"/>
<path d="M152.475 414.333C152.475 414.333 151.446 414.186 149.68 414.077" stroke="#263238" stroke-miterlimit="10" stroke-linecap="round"/>
<path d="M125.85 478.137C129.636 470.215 131.847 461.067 131.847 451.959C131.847 446.317 130.992 440.924 129.448 435.953H61.906C60.362 440.924 59.507 446.317 59.507 451.959C59.507 461.067 61.717 470.215 65.504 478.137H125.85Z" fill="#263238"/>
<path d="M60.173 443.436C59.98 444.666 59.831 445.914 59.721 447.178H131.633C131.523 445.915 131.374 444.666 131.181 443.436H60.173Z" fill="#7A7A7A"/>
<path d="M130.868 462.56C131.093 461.32 131.29 460.073 131.438 458.818H59.917C60.065 460.072 60.262 461.319 60.487 462.56H130.868Z" fill="#7A7A7A"/>
<path d="M68.238 452.167C68.238 453.774 66.935 455.077 65.328 455.077C63.721 455.077 62.418 453.774 62.418 452.167C62.418 450.56 63.721 449.257 65.328 449.257C66.935 449.257 68.238 450.56 68.238 452.167Z" fill="#8C8C8C"/>
<path d="M82.789 452.167C82.789 453.774 81.486 455.077 79.879 455.077C78.272 455.077 76.969 453.774 76.969 452.167C76.969 450.56 78.272 449.257 79.879 449.257C81.486 449.257 82.789 450.56 82.789 452.167Z" fill="#8C8C8C"/>
<path d="M97.34 452.167C97.34 453.774 96.037 455.077 94.43 455.077C92.823 455.077 91.52 453.774 91.52 452.167C91.52 450.56 92.823 449.257 94.43 449.257C96.037 449.257 97.34 450.56 97.34 452.167Z" fill="#8C8C8C"/>
<path d="M108.981 455.077C110.588 455.077 111.891 453.774 111.891 452.167C111.891 450.56 110.588 449.257 108.981 449.257C107.374 449.257 106.071 450.56 106.071 452.167C106.071 453.774 107.374 455.077 108.981 455.077Z" fill="#8C8C8C"/>
<path d="M126.443 452.167C126.443 453.774 125.14 455.077 123.533 455.077C121.926 455.077 120.623 453.774 120.623 452.167C120.623 450.56 121.926 449.257 123.533 449.257C125.14 449.257 126.443 450.56 126.443 452.167Z" fill="#8C8C8C"/>
<path d="M443.652 250.081C441.552 249.844 439.649 251.335 439.378 253.431L419.98 403.169L432.596 404.593L447.072 254.3C447.274 252.195 445.752 250.318 443.652 250.081Z" fill="#263238" stroke="#263238" stroke-miterlimit="10" stroke-linecap="round" stroke-linejoin="round"/>
<path d="M248.767 250.081C250.867 249.844 252.77 251.335 253.041 253.431L272.439 403.169L259.823 404.593L245.347 254.3C245.145 252.195 246.667 250.318 248.767 250.081Z" fill="#263238" stroke="#263238" stroke-miterlimit="10" stroke-linecap="round" stroke-linejoin="round"/>
<path d="M465.939 478.137H268.663C266.13 478.137 264.076 476.083 264.076 473.55V404.74C264.076 402.207 266.13 400.153 268.663 400.153H465.939C468.473 400.153 470.526 402.207 470.526 404.74V473.55C470.527 476.083 468.473 478.137 465.939 478.137Z" fill="white" stroke="#263238" stroke-miterlimit="10" stroke-linecap="round" stroke-linejoin="round"/>
<path d="M470.723 468.522H263.88C261.576 468.522 259.708 466.654 259.708 464.35V413.938C259.708 411.634 261.576 409.766 263.88 409.766H470.723C473.027 409.766 474.895 411.634 474.895 413.938V464.35C474.895 466.655 473.027 468.522 470.723 468.522Z" fill="white" stroke="#263238" stroke-miterlimit="10" stroke-linecap="round" stroke-linejoin="round"/>
<path d="M357.674 478.137H160.398C157.865 478.137 155.811 476.083 155.811 473.55V404.74C155.811 402.207 157.865 400.153 160.398 400.153H357.674C360.207 400.153 362.261 402.207 362.261 404.74V473.55C362.261 476.083 360.207 478.137 357.674 478.137Z" fill="white" stroke="#263238" stroke-miterlimit="10" stroke-linecap="round" stroke-linejoin="round"/>
<path d="M362.457 468.522H155.614C153.31 468.522 151.442 466.654 151.442 464.35V413.938C151.442 411.634 153.31 409.766 155.614 409.766H362.457C364.761 409.766 366.629 411.634 366.629 413.938V464.35C366.629 466.655 364.761 468.522 362.457 468.522Z" fill="white" stroke="#263238" stroke-miterlimit="10" stroke-linecap="round" stroke-linejoin="round"/>
<path d="M345.376 454.227H174.55C171.785 454.227 169.543 451.985 169.543 449.22V427.654C169.543 424.889 171.785 422.647 174.55 422.647H345.376C348.141 422.647 350.383 424.889 350.383 427.654V449.22C350.383 451.985 348.141 454.227 345.376 454.227Z" fill="#263238" stroke="#263238" stroke-miterlimit="10" stroke-linecap="round" stroke-linejoin="round"/>
<path d="M179.588 430.301C176.495 431.539 174.309 434.564 174.309 438.099C174.309 442.736 178.068 446.495 182.705 446.495C187.342 446.495 191.101 442.736 191.101 438.099C191.101 434.621 188.986 431.637 185.973 430.363" stroke="#55B45C" stroke-width="3" stroke-miterlimit="10" stroke-linecap="round"/>
<path d="M182.793 427.055V433.258" stroke="#55B45C" stroke-width="3" stroke-miterlimit="10" stroke-linecap="round"/>
<path d="M280.666 447.234C280.666 447.234 272.501 449.795 270.772 450.134C269.044 450.472 263.717 449.086 263.556 451.175C263.396 453.264 266.623 455.105 271.754 457.165C276.885 459.225 282.514 460.924 286.331 460.746C290.148 460.568 289.421 453.05 289.628 451.762C289.836 450.473 280.666 447.234 280.666 447.234Z" fill="white" stroke="#263238" stroke-miterlimit="10" stroke-linecap="round" stroke-linejoin="round"/>
<path d="M274.433 455.305C268.035 452.669 265.064 451.298 263.762 450.658C263.652 450.802 263.573 450.967 263.557 451.175C263.397 453.264 266.624 455.105 271.755 457.165C276.886 459.225 282.515 460.924 286.332 460.746C287.756 460.68 288.548 459.591 288.991 458.185C285.863 458.236 280.559 457.829 274.433 455.305Z" fill="white" stroke="#263238" stroke-miterlimit="10" stroke-linecap="round" stroke-linejoin="round"/>
<path d="M330.323 370.549L328.184 371.716V374.828C328.184 374.828 283.555 382.269 282.971 386.159C282.388 390.049 280.622 447.92 280.622 447.92C280.622 447.92 287.818 455.669 289.374 453.918C290.93 452.168 291.319 446.558 291.319 446.558L298.725 395.299C298.725 395.299 348.995 399.917 356.58 397.583C364.165 395.249 367.861 385.135 368.055 380.468C368.249 375.8 368.249 373.661 368.249 373.661L334.018 368.993L330.323 370.549Z" fill="#55B45C" stroke="#263238" stroke-miterlimit="10" stroke-linecap="round" stroke-linejoin="round"/>
<path d="M315.152 449.319C315.152 449.319 315.039 449.511 314.829 449.846C314.047 451.095 311.924 454.339 309.317 457.099C306.011 460.6 300.565 463.517 300.759 464.684C300.953 465.851 304.649 466.629 317.291 462.739C322.978 460.989 327.21 460.989 327.794 459.044C328.377 457.099 323.71 448.736 323.71 448.736L315.152 449.319Z" fill="white" stroke="#263238" stroke-miterlimit="10" stroke-linecap="round" stroke-linejoin="round"/>
<path d="M327.794 459.043C327.954 458.51 327.718 457.493 327.293 456.299C324.875 457.465 320.216 459.495 313.985 461.182C308.399 462.695 304.011 463.369 301.376 463.669C300.957 464.082 300.717 464.427 300.759 464.683C300.953 465.85 304.649 466.628 317.291 462.738C322.979 460.989 327.211 460.988 327.794 459.043Z" fill="white" stroke="#263238" stroke-miterlimit="10" stroke-linecap="round" stroke-linejoin="round"/>
<path d="M342.576 378.912C342.576 378.912 337.908 374.828 337.519 377.162C337.13 379.496 336.352 380.079 336.352 380.079C336.352 380.079 303.677 383.969 299.982 386.303C296.287 388.637 295.12 391.749 297.259 396.417C299.398 401.085 313.791 452.237 313.791 452.237C313.791 452.237 316.319 453.404 318.459 453.793C320.598 454.182 325.072 452.042 325.072 452.042C325.072 452.042 324.53 442.51 323.169 439.398C321.808 436.286 316.238 400.412 316.238 400.412C316.238 400.412 339.854 400.501 347.828 400.501C355.802 400.501 364.554 393.888 366.305 388.443C368.055 382.997 367.278 381.83 367.278 381.83" fill="#55B45C"/>
<path d="M342.576 378.912C342.576 378.912 337.908 374.828 337.519 377.162C337.13 379.496 336.352 380.079 336.352 380.079C336.352 380.079 303.677 383.969 299.982 386.303C296.287 388.637 295.12 391.749 297.259 396.417C299.398 401.085 313.791 452.237 313.791 452.237C313.791 452.237 316.319 453.404 318.459 453.793C320.598 454.182 325.072 452.042 325.072 452.042C325.072 452.042 324.53 442.51 323.169 439.398C321.808 436.286 316.238 400.412 316.238 400.412C316.238 400.412 339.854 400.501 347.828 400.501C355.802 400.501 364.554 393.888 366.305 388.443C368.055 382.997 367.278 381.83 367.278 381.83" stroke="#263238" stroke-miterlimit="10" stroke-linecap="round" stroke-linejoin="round"/>
<path d="M316.238 400.412L315.112 394.288" stroke="#263238" stroke-miterlimit="10" stroke-linecap="round" stroke-linejoin="round"/>
<path d="M353.374 387.511C353.978 388.368 354.498 389.31 354.885 390.34" stroke="#263238" stroke-miterlimit="10" stroke-linecap="round" stroke-linejoin="round"/>
<path d="M344.484 380.762C344.484 380.762 348.859 382.421 352.121 385.964" stroke="#263238" stroke-miterlimit="10" stroke-linecap="round" stroke-linejoin="round"/>
<path d="M351.874 381.856C351.874 381.856 356.526 383.772 358.99 388.424" stroke="#263238" stroke-miterlimit="10" stroke-linecap="round" stroke-linejoin="round"/>
<path d="M330.8 322.822C330.8 322.822 330.778 323.097 330.748 323.585C330.578 326.327 327.534 330.422 329.351 335.541C333.481 347.181 332.641 355.727 332.268 353.24C332.851 357.13 329.351 365.493 329.351 368.216C329.351 370.939 322.153 371.349 338.491 376.212C354.829 381.074 360.47 380.858 364.555 379.303C368.639 377.747 371.557 376.386 371.946 373.079C372.335 369.772 368.834 363.938 368.64 358.881C368.446 353.824 367.756 337.994 362.894 327.88C358.032 317.766 345.195 310.765 345.195 310.765L330.8 322.822Z" fill="white" stroke="#263238" stroke-miterlimit="10" stroke-linecap="round" stroke-linejoin="round"/>
<path d="M356.399 360.956C357.247 360.309 358.044 359.654 358.77 358.997" stroke="#263238" stroke-miterlimit="10" stroke-linecap="round" stroke-linejoin="round"/>
<path d="M335.896 372.438C335.896 372.438 345.536 368.285 353.289 363.156" stroke="#263238" stroke-miterlimit="10" stroke-linecap="round" stroke-linejoin="round"/>
<path d="M342.175 371.318C340.259 372.261 337.665 373.381 334.953 374.089" stroke="#263238" stroke-miterlimit="10" stroke-linecap="round" stroke-linejoin="round"/>
<path d="M345.328 369.608C345.328 369.608 344.783 369.945 343.857 370.448" stroke="#263238" stroke-miterlimit="10" stroke-linecap="round" stroke-linejoin="round"/>
<path d="M348.022 343.903L353.273 337.485" stroke="#263238" stroke-miterlimit="10" stroke-linecap="round" stroke-linejoin="round"/>
<path d="M328.954 279.689C328.954 279.689 326.294 282.509 325.448 284.184C324.602 285.859 324.482 287.076 322.997 288.14C321.512 289.204 318.552 288.534 318.628 290.262C318.704 291.99 320.507 293.643 320.507 293.643C320.507 293.643 319.05 304.202 319.603 305.882C320.156 307.563 327.708 307.872 327.708 307.872L331.559 320.41L345.154 311.199L345.514 307.547C345.849 306.067 348.286 301.486 350.307 298.054C352.328 294.623 351.425 285.552 346.553 281.65C341.681 277.747 335.212 278.15 333.222 278.011C331.232 277.871 328.954 279.689 328.954 279.689Z" fill="white" stroke="#263238" stroke-miterlimit="10" stroke-linecap="round" stroke-linejoin="round"/>
<path d="M321.437 295.72C321.437 295.72 323.288 297.85 326.468 296.859" stroke="#263238" stroke-miterlimit="10" stroke-linecap="round" stroke-linejoin="round"/>
<path d="M327.22 289.366C326.888 290.135 326.369 290.651 326.061 290.518C325.753 290.385 325.773 289.654 326.106 288.885C326.438 288.116 326.957 287.6 327.265 287.733C327.572 287.866 327.552 288.597 327.22 289.366Z" fill="#263238"/>
<path d="M326.693 285.555C326.693 285.555 329.624 284.974 330.057 287.872" stroke="#263238" stroke-miterlimit="10" stroke-linecap="round" stroke-linejoin="round"/>
<path d="M327.708 307.872L332.415 307.693L329.191 311.63L327.708 307.872Z" fill="#263238" stroke="#263238" stroke-miterlimit="10" stroke-linecap="round" stroke-linejoin="round"/>
<path d="M338.457 302.994L336.418 302.377L335.21 304.282" stroke="#263238" stroke-miterlimit="10" stroke-linecap="round" stroke-linejoin="round"/>
<path d="M337.315 275.048C337.315 275.048 340.257 271.67 336.726 270.093C333.194 268.516 321.187 271.398 322.483 276.669C323.779 281.94 334.982 282.609 336.052 282.695C337.121 282.781 333.908 283.921 334.79 285.52C335.672 287.12 337.825 287.918 337.9 289.646C337.976 291.374 335.893 293.703 336.909 294.71C337.925 295.718 339.511 294.21 340.533 293.819C341.555 293.428 344.341 296.236 342.139 299.782C339.937 303.328 338.457 302.993 338.457 302.993C338.457 302.993 337.511 305.112 339.462 306.798C341.413 308.484 345.414 307.99 346.408 306.348C347.402 304.706 349.135 303.232 352.736 299.692C356.337 296.152 358.051 287.207 355.557 281.042C353.064 274.879 341.818 272.334 337.315 275.048Z" fill="#263238" stroke="#263238" stroke-miterlimit="10" stroke-linecap="round" stroke-linejoin="round"/>
<path d="M345.155 307.893L326.62 321.543L327.679 327.425L348.539 312.058L345.155 307.893Z" fill="white" stroke="#263238" stroke-miterlimit="10" stroke-linecap="round" stroke-linejoin="round"/>
<path d="M298.888 387.478L331.528 380.331L323.904 375.804L292.932 382.713L298.888 387.478Z" fill="white" stroke="#263238" stroke-miterlimit="10" stroke-linecap="round" stroke-linejoin="round"/>
<path d="M284.355 356.506L298.888 387.478L292.932 382.713L278.161 353.647L284.355 356.506Z" fill="#263238" stroke="#263238" stroke-miterlimit="10" stroke-linecap="round" stroke-linejoin="round"/>
<path d="M310.614 374.309L303.094 376.254L298.426 382.996C298.426 382.996 299.074 383.644 299.852 383.515C300.63 383.385 302.705 381.57 302.705 381.57L308.151 380.144C308.151 380.144 305.298 381.83 305.298 382.219C305.298 382.608 305.817 382.738 307.113 382.608C308.41 382.478 311.521 379.626 311.521 379.626L313.596 377.033L310.614 374.309Z" fill="white" stroke="#263238" stroke-miterlimit="10" stroke-linecap="round" stroke-linejoin="round"/>
<path d="M330.925 340.536L327.081 358.101L310.614 374.309L314.504 377.94L328.184 371.716L329.129 369.252L332.433 354.536L330.925 340.536Z" fill="white" stroke="#263238" stroke-miterlimit="10" stroke-linecap="round" stroke-linejoin="round"/>
<path d="M306.055 370.774C306.055 370.774 300.804 371.552 298.859 371.552C296.914 371.552 292.246 371.941 291.468 372.33C290.69 372.719 286.995 375.053 287.189 376.803C287.383 378.553 290.69 376.998 290.69 376.998C290.69 376.998 291.662 379.332 293.218 381.471C294.774 383.61 295.552 382.832 298.664 381.665C301.776 380.498 306.444 376.997 306.444 376.997L309.167 374.469L306.055 370.774Z" fill="white" stroke="#263238" stroke-miterlimit="10" stroke-linecap="round" stroke-linejoin="round"/>
<path d="M351.717 316.091C351.717 316.091 343.743 314.924 340.825 318.814C337.908 322.704 334.99 329.511 334.407 334.568C333.824 339.625 330.128 349.739 330.128 349.739L305.397 370.326L309.676 376.744C309.676 376.744 339.659 362.77 340.437 361.797C341.215 360.824 351.134 335.151 351.134 335.151" fill="white"/>
<path d="M351.717 316.091C351.717 316.091 343.743 314.924 340.825 318.814C337.908 322.704 334.99 329.511 334.407 334.568C333.824 339.625 330.128 349.739 330.128 349.739L305.397 370.326L309.676 376.744C309.676 376.744 339.659 362.77 340.437 361.797C341.215 360.824 351.134 335.151 351.134 335.151" stroke="#263238" stroke-miterlimit="10" stroke-linecap="round" stroke-linejoin="round"/>
<path d="M28.498 478.137H488.607" stroke="#263238" stroke-miterlimit="10" stroke-linecap="round" stroke-linejoin="round"/>
</svg>
