<svg width="auto" height="auto" viewBox="0 0 396 402" fill="none" xmlns="http://www.w3.org/2000/svg">
<path d="M354.206 113.904C351.884 112.399 349.59 110.864 347.31 109.298C322.772 92.4346 207.948 15.733 159.541 22.768C105.189 30.6681 -10.1241 205.178 19.2551 256.885C48.6343 308.592 195.531 398.36 234.458 383.996C273.386 369.634 377.682 211.641 384.293 172.861C389.936 139.749 362.381 119.202 354.206 113.904Z" fill="#55B45C"/>
<path opacity="0.7" d="M354.206 113.904C351.884 112.399 349.59 110.864 347.31 109.298C322.772 92.4346 207.948 15.733 159.541 22.768C105.189 30.6681 -10.1241 205.178 19.2551 256.885C48.6343 308.592 195.531 398.36 234.458 383.996C273.386 369.634 377.682 211.641 384.293 172.861C389.936 139.749 362.381 119.202 354.206 113.904Z" fill="white"/>
<path d="M98.6911 119.354C94.3114 119.386 90.0631 120.454 86.2037 122.831C84.626 123.802 83.1917 125.019 81.7304 126.175C80.8846 126.844 80.0126 127.177 78.9537 126.856C77.3934 126.381 76.6442 124.464 77.517 123.064C77.8108 122.593 78.21 122.171 78.625 121.799C83.4808 117.447 89.1127 114.841 95.5722 114.181C104.432 113.276 112.133 116.018 118.812 121.9C119.482 122.49 120.077 123.135 120.146 124.116C120.226 125.24 119.804 126.105 118.859 126.666C117.899 127.235 116.927 127.113 116.037 126.495C115.512 126.131 115.056 125.667 114.564 125.255C110.147 121.555 105.081 119.587 99.354 119.385C99.175 119.377 98.996 119.368 98.6911 119.354Z" fill="#263238"/>
<path d="M111.746 133.702C110.932 133.718 110.283 133.358 109.706 132.816C107.386 130.629 104.701 129.091 101.573 128.572C96.7428 127.77 92.3377 128.834 88.521 132.056C88.0759 132.431 87.6475 132.831 87.1794 133.174C86.0516 134.002 84.5555 133.827 83.6613 132.79C82.7862 131.774 82.7941 130.266 83.7437 129.252C85.8583 126.995 88.403 125.385 91.2693 124.315C96.8267 122.241 102.308 122.502 107.681 125.004C109.877 126.026 111.834 127.418 113.541 129.157C114.343 129.974 114.545 131.126 114.097 132.13C113.642 133.153 112.845 133.667 111.746 133.702Z" fill="#263238"/>
<path d="M98.5937 131.863C102.169 131.94 105.232 133.223 107.699 135.896C108.674 136.953 108.724 138.524 107.808 139.529C106.827 140.604 105.313 140.671 104.138 139.765C103.207 139.047 102.296 138.213 101.237 137.777C98.4812 136.639 95.9579 137.274 93.7617 139.274C92.9808 139.985 92.1833 140.549 91.038 140.346C89.1158 140.006 88.2225 137.729 89.4382 136.18C90.6214 134.672 92.1342 133.614 93.8789 132.88C95.3877 132.244 96.9503 131.876 98.5937 131.863Z" fill="#263238"/>
<path d="M98.7093 147.544C96.8806 147.535 95.5065 146.156 95.512 144.337C95.5168 142.619 96.9685 141.137 98.6357 141.148C100.472 141.159 101.846 142.579 101.825 144.443C101.805 146.148 100.394 147.552 98.7093 147.544Z" fill="#263238"/>
<path d="M96.3626 98.3166C87.5999 98.3166 80.4965 91.1055 80.4965 82.21C80.4965 73.3146 87.5999 66.1035 96.3626 66.1035C105.125 66.1035 112.229 73.3146 112.229 82.21C112.229 91.1055 105.125 98.3166 96.3626 98.3166Z" fill="#263238"/>
<path fill-rule="evenodd" clip-rule="evenodd" d="M105.506 81.8214C105.391 77.1678 101.614 73.4316 96.9661 73.4316C92.3741 73.4316 88.6295 77.0826 88.43 81.663C88.426 81.7884 88.422 81.9146 88.422 82.0401C88.422 83.6682 88.8695 85.1877 89.6457 86.487L88.1052 91.1044L92.8374 89.5776C94.0619 90.2602 95.4693 90.6501 96.9661 90.6501C101.686 90.6501 105.51 86.7965 105.51 82.0409C105.51 81.9677 105.51 81.8945 105.506 81.8214ZM96.9653 89.2769C95.5057 89.2769 94.149 88.8379 93.0133 88.0789L90.2531 88.9722L91.1489 86.2836C90.2888 85.0896 89.7811 83.6239 89.7811 82.0401C89.7811 81.8045 89.793 81.5689 89.8168 81.3382C90.1692 77.6752 93.2414 74.8041 96.9653 74.8041C100.738 74.8041 103.838 77.7483 104.126 81.4757C104.142 81.663 104.15 81.8495 104.15 82.0401C104.15 86.0327 100.925 89.2769 96.9653 89.2769Z" fill="#55B45C"/>
<path fill-rule="evenodd" clip-rule="evenodd" d="M100.882 83.7787C100.67 83.6734 99.6415 83.1613 99.4499 83.0921C99.2574 83.0189 99.118 82.9868 98.9778 83.1974C98.8376 83.4089 98.4337 83.884 98.3141 84.0215C98.1906 84.1638 98.0702 84.1799 97.8579 84.0746C97.6496 83.9693 96.9741 83.7498 96.1741 83.027C95.554 82.4706 95.1303 81.7808 95.0099 81.5693C94.8903 81.3579 94.998 81.2445 95.1018 81.1392C95.1976 81.0419 95.3101 80.8916 95.4178 80.7702C95.4463 80.7332 95.4701 80.701 95.4938 80.6689C95.5421 80.5917 95.5778 80.5185 95.6261 80.4172C95.6981 80.2757 95.6625 80.1535 95.6102 80.0482C95.558 79.9428 95.1382 78.9033 94.9624 78.4804C94.7905 78.0583 94.6147 78.1314 94.4904 78.1314C94.37 78.1314 94.2306 78.1113 94.0904 78.1113C93.9502 78.1113 93.7221 78.1644 93.5304 78.375C93.3388 78.5865 92.7986 79.0978 92.7986 80.1374C92.7986 80.381 92.843 80.6246 92.9064 80.8562C93.1186 81.5991 93.5748 82.2125 93.6548 82.3179C93.7585 82.4561 95.1026 84.6567 97.2307 85.5057C99.3627 86.3467 99.3627 86.0661 99.7469 86.0291C100.131 85.9962 100.987 85.5218 101.159 85.0265C101.336 84.5353 101.336 84.1132 101.283 84.0231C101.229 83.9371 101.089 83.8848 100.882 83.7787Z" fill="#55B45C"/>
<path d="M328.967 74.4191C320.205 74.4191 313.101 67.208 313.101 58.3126C313.101 49.4171 320.205 42.2061 328.967 42.2061C337.73 42.2061 344.834 49.4171 344.834 58.3126C344.833 67.208 337.729 74.4191 328.967 74.4191Z" fill="#263238"/>
<path d="M326.454 68.0483H330.315V58.2298H333.01L333.297 54.9422H330.315C330.315 54.9422 330.315 53.7153 330.315 53.0697C330.315 52.2947 330.469 51.9884 331.207 51.9884C331.801 51.9884 333.297 51.9884 333.297 51.9884V48.5762C333.297 48.5762 331.094 48.5762 330.623 48.5762C327.749 48.5762 326.453 49.861 326.453 52.3204C326.453 54.4631 326.453 54.9414 326.453 54.9414H324.444V58.27H326.453V68.0483H326.454Z" fill="#55B45C"/>
<path d="M82.2365 336.692C73.4738 336.692 66.3704 329.48 66.3704 320.585C66.3704 311.69 73.4738 304.479 82.2365 304.479C90.9992 304.479 98.1027 311.69 98.1027 320.585C98.1027 329.48 90.9992 336.692 82.2365 336.692Z" fill="#263238"/>
<path d="M73.7835 325.977C75.3184 326.976 77.1416 327.559 79.1002 327.559C85.54 327.559 89.1784 322.037 88.9598 317.084C89.637 316.588 90.2254 315.968 90.6903 315.262C90.0678 315.542 89.3994 315.731 88.6985 315.816C89.4144 315.381 89.9641 314.691 90.2231 313.868C89.553 314.271 88.8101 314.565 88.0213 314.722C87.3885 314.038 86.4872 313.61 85.4885 313.61C83.2503 313.61 81.6045 315.731 82.1098 317.933C79.2269 317.787 76.6711 316.385 74.9604 314.254C74.052 315.837 74.4892 317.908 76.0336 318.956C75.4649 318.938 74.9295 318.779 74.4615 318.516C74.4242 320.147 75.5758 321.673 77.2438 322.013C76.7551 322.148 76.2205 322.179 75.678 322.073C76.1183 323.473 77.3998 324.49 78.918 324.519C77.4608 325.679 75.6233 326.198 73.7835 325.977Z" fill="#55B45C"/>
<path d="M79.8962 170.852C73.5063 170.852 68.3266 176.11 68.3266 182.597C68.3266 189.084 79.8962 199.422 79.8962 199.422C79.8962 199.422 91.4665 189.084 91.4665 182.597C91.4665 176.11 86.286 170.852 79.8962 170.852ZM79.8962 186.8C77.6097 186.8 75.7556 184.918 75.7556 182.596C75.7556 180.275 77.6097 178.393 79.8962 178.393C82.1827 178.393 84.0367 180.275 84.0367 182.596C84.0367 184.918 82.1835 186.8 79.8962 186.8Z" fill="#55B45C" stroke="#263238" stroke-miterlimit="10" stroke-linecap="round" stroke-linejoin="round"/>
<path d="M112.918 276.474C106.528 276.474 101.348 281.732 101.348 288.218C101.348 294.705 112.918 305.043 112.918 305.043C112.918 305.043 124.488 294.705 124.488 288.218C124.487 281.732 119.308 276.474 112.918 276.474ZM112.918 292.422C110.631 292.422 108.777 290.54 108.777 288.218C108.777 285.897 110.631 284.015 112.918 284.015C115.204 284.015 117.058 285.897 117.058 288.218C117.058 290.54 115.204 292.422 112.918 292.422Z" fill="#55B45C" stroke="#263238" stroke-miterlimit="10" stroke-linecap="round" stroke-linejoin="round"/>
<path d="M79.8962 199.421V208.156C79.8962 211.428 77.2834 214.08 74.0599 214.08H30.9696C27.5069 214.08 24.6993 216.93 24.6993 220.446V236.111C24.6993 239.627 27.5062 242.477 30.9696 242.477H58.0298C61.4188 242.477 64.167 245.266 64.167 248.707V259.975C64.167 263.415 61.4196 266.205 58.0298 266.205H51.1386C48.3872 266.205 46.157 268.469 46.157 271.262C46.157 274.055 48.3872 276.319 51.1386 276.319H90.8218C93.2422 276.319 95.2047 278.311 95.2047 280.769V299.561C95.2047 302.408 97.4786 304.716 100.283 304.716H112.831" stroke="#263238" stroke-miterlimit="10" stroke-linecap="round" stroke-linejoin="round"/>
<path d="M265.62 347.509C272.113 347.509 277.377 342.166 277.377 335.574C277.377 328.983 272.113 323.64 265.62 323.64C259.127 323.64 253.864 328.983 253.864 335.574C253.864 342.166 259.127 347.509 265.62 347.509Z" fill="#263238"/>
<path d="M264.64 330.104H260.722V341.54H264.64V330.104Z" fill="white"/>
<path d="M270.755 330.104H266.836V341.54H270.755V330.104Z" fill="white"/>
<path d="M295.007 347.509C301.499 347.509 306.763 342.166 306.763 335.574C306.763 328.983 301.499 323.64 295.007 323.64C288.514 323.64 283.25 328.983 283.25 335.574C283.25 342.166 288.514 347.509 295.007 347.509Z" fill="#263238"/>
<path d="M292.252 330.104H288.333V341.54H292.252V330.104Z" fill="white"/>
<path d="M303.239 335.826L294.738 330.518V341.134L303.239 335.826Z" fill="white"/>
<path d="M234.853 347.509C241.345 347.509 246.609 342.166 246.609 335.574C246.609 328.983 241.345 323.64 234.853 323.64C228.36 323.64 223.096 328.983 223.096 335.574C223.096 342.166 228.36 347.509 234.853 347.509Z" fill="#263238"/>
<path d="M237.607 341.541H241.526V330.104H237.607V341.541Z" fill="white"/>
<path d="M226.62 335.826L235.121 330.518V341.134L226.62 335.826Z" fill="white"/>
<path d="M339.481 307.966H310.376C308.927 307.966 307.751 306.773 307.751 305.301V279.622C307.751 278.151 308.927 276.958 310.376 276.958H339.481C340.93 276.958 342.105 278.151 342.105 279.622V305.301C342.105 306.773 340.93 307.966 339.481 307.966Z" fill="#55B45C" stroke="#263238" stroke-miterlimit="10" stroke-linecap="round" stroke-linejoin="round"/>
<path d="M329.545 298.849C333.026 296.253 333.775 291.285 331.218 287.751C328.661 284.218 323.767 283.458 320.286 286.053C316.806 288.649 316.057 293.617 318.614 297.151C321.17 300.684 326.065 301.444 329.545 298.849Z" fill="#263238"/>
<path d="M338.31 282.04C338.31 280.294 336.915 278.878 335.194 278.878C333.474 278.878 332.079 280.294 332.079 282.04C332.079 283.786 333.474 285.202 335.194 285.202C336.915 285.202 338.31 283.787 338.31 282.04Z" fill="#263238"/>
<path d="M282.421 287.865H253.316C251.867 287.865 250.692 286.672 250.692 285.201V259.522C250.692 258.051 251.867 256.857 253.316 256.857H282.421C283.87 256.857 285.046 258.051 285.046 259.522V285.201C285.045 286.672 283.87 287.865 282.421 287.865Z" fill="#55B45C" stroke="#263238" stroke-miterlimit="10" stroke-linecap="round" stroke-linejoin="round"/>
<path d="M277.872 272.605L261.234 262.854V282.356L277.872 272.605Z" fill="white" stroke="#263238" stroke-miterlimit="10" stroke-linecap="round" stroke-linejoin="round"/>
<path d="M342.847 240.751H298.133L291.317 210.812H336.031L342.847 240.751Z" fill="#55B45C" stroke="#263238" stroke-miterlimit="10" stroke-linecap="round" stroke-linejoin="round"/>
<path d="M342.91 204.021H300.114V238.114H342.91V204.021Z" fill="white" stroke="#263238" stroke-miterlimit="10" stroke-linecap="round" stroke-linejoin="round"/>
<path d="M340.992 206.163H298.195V240.257H340.992V206.163Z" fill="white" stroke="#263238" stroke-miterlimit="10" stroke-linecap="round" stroke-linejoin="round"/>
<path d="M342.847 240.75L344.446 207.332H326.022L323.527 209.086H301.073L298.133 240.75H342.847Z" fill="#55B45C" stroke="#263238" stroke-miterlimit="10" stroke-linecap="round" stroke-linejoin="round"/>
<path d="M330.438 225.19L322.903 213.56L315.369 225.19H319.545V233.827H326.262V225.19H330.438Z" fill="#263238" stroke="#263238" stroke-miterlimit="10" stroke-linecap="round" stroke-linejoin="round"/>
<path d="M137.775 222.962H108.67C107.221 222.962 106.046 224.155 106.046 225.626V251.305C106.046 252.777 107.221 253.97 108.67 253.97H120.009L123.223 259.621L126.436 253.97H137.775C139.224 253.97 140.399 252.777 140.399 251.305V225.626C140.399 224.155 139.224 222.962 137.775 222.962Z" fill="white" stroke="#263238" stroke-miterlimit="10" stroke-linecap="round" stroke-linejoin="round"/>
<path d="M132.411 238.668L131.17 239.939L123.223 248.006L114.024 238.668C111.838 236.437 111.838 232.831 114.024 230.6C115.128 229.48 116.563 228.925 117.998 228.925C119.444 228.925 120.878 229.48 121.971 230.6L123.223 231.871L124.464 230.6C125.557 229.48 127.004 228.925 128.438 228.925C129.872 228.925 131.318 229.48 132.411 230.6C134.609 232.831 134.609 236.437 132.411 238.668Z" fill="#55B45C" stroke="#263238" stroke-miterlimit="10" stroke-linecap="round" stroke-linejoin="round"/>
<path d="M257.535 128.985H139.564C137.483 128.985 135.796 127.272 135.796 125.16V52.8912C135.796 49.7885 138.274 47.2744 141.329 47.2744H255.768C258.824 47.2744 261.301 49.7893 261.301 52.8912V125.16C261.301 127.273 259.615 128.985 257.535 128.985Z" stroke="#263238" stroke-miterlimit="10" stroke-linecap="round" stroke-linejoin="round"/>
<path d="M261.302 56.9554V52.8912C261.302 49.7893 258.824 47.2744 255.769 47.2744H141.33C138.274 47.2744 135.797 49.7893 135.797 52.8912V56.9554H261.302Z" fill="#55B45C" stroke="#263238" stroke-miterlimit="10" stroke-linecap="round" stroke-linejoin="round"/>
<path d="M144.809 52.7005C144.809 51.402 143.773 50.3496 142.493 50.3496C141.214 50.3496 140.178 51.402 140.178 52.7005C140.178 53.999 141.214 55.0514 142.493 55.0514C143.772 55.0522 144.809 53.999 144.809 52.7005Z" fill="#263238" stroke="#263238" stroke-miterlimit="10" stroke-linecap="round" stroke-linejoin="round"/>
<path d="M151.967 52.7005C151.967 51.402 150.931 50.3496 149.652 50.3496C148.372 50.3496 147.336 51.402 147.336 52.7005C147.336 53.999 148.372 55.0514 149.652 55.0514C150.931 55.0522 151.967 53.999 151.967 52.7005Z" fill="white" stroke="#263238" stroke-miterlimit="10" stroke-linecap="round" stroke-linejoin="round"/>
<path d="M156.81 55.0514C158.089 55.0514 159.126 53.9989 159.126 52.7005C159.126 51.4021 158.089 50.3496 156.81 50.3496C155.531 50.3496 154.495 51.4021 154.495 52.7005C154.495 53.9989 155.531 55.0514 156.81 55.0514Z" fill="white" stroke="#263238" stroke-miterlimit="10" stroke-linecap="round" stroke-linejoin="round"/>
<path d="M307.518 93.192C307.064 93.192 306.62 93.2314 306.181 93.2885C305.264 85.4447 298.7 79.3584 290.727 79.3584C283.618 79.3584 277.635 84.1977 275.767 90.8041C269.945 91.4763 265.419 96.4884 265.419 102.58C265.419 109.128 270.649 114.437 277.099 114.437H307.518C313.297 114.437 317.982 109.681 317.982 103.814C317.982 97.9477 313.297 93.192 307.518 93.192Z" fill="white" stroke="#263238" stroke-miterlimit="10" stroke-linecap="round" stroke-linejoin="round"/>
<path d="M287.829 123.166L283.495 115.546L279.161 123.166H281.365V129.273H285.624V123.166H287.829Z" fill="#263238"/>
<path d="M292.884 121.653L297.218 129.273L301.552 121.653H299.347V115.546H295.088V121.653H292.884Z" fill="#263238"/>
<path d="M290.269 136.448V172.494" stroke="#263238" stroke-miterlimit="10" stroke-linecap="round" stroke-linejoin="round" stroke-dasharray="5 5"/>
<path d="M227.629 108.511C227.629 108.511 232.9 108.817 234.557 106.217C236.214 103.618 232.147 100.254 232.599 98.5721C233.052 96.8901 240.733 97.1957 238.624 88.3275C236.516 79.4586 229.135 76.7065 225.219 77.0129C221.302 77.3184 217.537 79.0003 214.072 78.3893C210.608 77.7775 198.708 71.5087 187.11 79.0011C175.512 86.4936 180.332 100.714 181.085 103.619C181.838 106.524 168.884 105.913 167.077 117.075C165.27 128.237 173.253 136.799 191.629 135.729C210.005 134.659 210.307 127.319 209.402 121.05C208.499 114.781 212.716 100.867 217.235 99.7966C221.754 98.7265 223.259 103.466 224.012 105.454C224.767 107.441 226.575 109.123 227.629 108.511Z" fill="#263238" stroke="#263238" stroke-miterlimit="10" stroke-linecap="round" stroke-linejoin="round"/>
<path d="M222.855 148.023C222.855 148.023 229.213 149 231.14 153.303C233.067 157.606 237.306 190.857 237.306 190.857L222.47 196.724C222.47 196.724 222.278 190.465 220.159 175.601C218.038 160.736 219.58 147.24 222.855 148.023Z" fill="#55B45C" stroke="#263238" stroke-miterlimit="10" stroke-linecap="round" stroke-linejoin="round"/>
<path d="M148.349 220.991C148.349 220.991 155.087 223.828 162.976 223.828C170.865 223.828 168.4 215.819 168.236 215.152C168.071 214.484 153.28 218.155 148.349 220.991Z" fill="white" stroke="#263238" stroke-miterlimit="10" stroke-linecap="round" stroke-linejoin="round"/>
<path d="M165.675 210.856C165.675 210.856 179.344 235.717 187.317 244.389C195.291 253.061 198.139 261.445 198.139 261.445L202.41 268.382C202.41 268.382 193.297 285.149 193.297 286.017C193.297 286.884 170.231 325.62 169.092 326.487C167.953 327.355 159.41 328.511 158.556 331.402C157.701 334.293 160.264 340.652 160.834 341.809C161.403 342.965 161.688 351.926 164.251 355.106C166.814 358.286 168.238 358.575 169.092 356.84C169.947 355.106 170.231 339.495 173.363 334.292C176.496 329.088 212.661 298.735 218.925 290.063C225.19 281.39 228.807 246.935 227.469 235.716C226.13 224.498 223.482 218.082 223.482 218.082C223.482 218.082 196.145 200.449 165.675 210.856Z" fill="#263238" stroke="#263238" stroke-miterlimit="10" stroke-linecap="round" stroke-linejoin="round"/>
<path d="M176.677 314.479C172.715 321.018 169.5 326.178 169.093 326.488C167.954 327.356 159.411 328.512 158.557 331.402C157.702 334.292 160.265 340.653 160.835 341.809C161.404 342.965 161.689 351.927 164.252 355.106C166.815 358.286 168.239 358.576 169.093 356.841C169.947 355.106 170.232 339.496 173.364 334.292C174.478 332.442 179.769 327.412 186.406 321.308C181.288 319.769 178.236 316.613 176.677 314.479Z" fill="white" stroke="#263238" stroke-miterlimit="10" stroke-linecap="round" stroke-linejoin="round"/>
<path d="M169.378 334.005C169.378 334.005 167.966 331.287 168.057 326.928C165.445 327.766 159.277 328.969 158.557 331.404C157.702 334.294 160.265 340.654 160.835 341.811C161.404 342.967 161.689 351.928 164.252 355.108C166.815 358.288 168.239 358.577 169.093 356.842C169.947 355.108 170.232 339.497 173.364 334.294L169.378 334.005Z" fill="white" stroke="#263238" stroke-miterlimit="10" stroke-linecap="round" stroke-linejoin="round"/>
<path d="M191.59 216.349C203.265 225.021 223.198 265.781 222.629 268.961C222.06 272.141 208.676 285.15 199.279 290.353C189.881 295.557 155.425 319.551 153.431 320.995C151.438 322.441 144.318 334.582 143.18 337.184C142.041 339.786 142.041 342.676 140.617 345.856C139.193 349.036 134.921 344.41 133.213 338.629C131.505 332.847 132.644 318.104 133.498 315.792C134.353 313.48 147.737 313.768 147.737 313.768C147.737 313.768 171.087 287.752 175.644 283.126C180.2 278.501 196.431 273.009 196.431 273.009C196.431 273.009 180.769 256.242 172.226 245.257C163.683 234.272 159.127 214.036 159.127 214.036C159.127 214.036 180.484 210.856 188.743 211.146" fill="#263238"/>
<path d="M191.59 216.349C203.265 225.021 223.198 265.781 222.629 268.961C222.06 272.141 208.676 285.15 199.279 290.353C189.881 295.557 155.425 319.551 153.431 320.995C151.438 322.441 144.318 334.582 143.18 337.184C142.041 339.786 142.041 342.676 140.617 345.856C139.193 349.036 134.921 344.41 133.213 338.629C131.505 332.847 132.644 318.104 133.498 315.792C134.353 313.48 147.737 313.768 147.737 313.768C147.737 313.768 171.087 287.752 175.644 283.126C180.2 278.501 196.431 273.009 196.431 273.009C196.431 273.009 180.769 256.242 172.226 245.257C163.683 234.272 159.127 214.036 159.127 214.036C159.127 214.036 180.484 210.856 188.743 211.146" stroke="#263238" stroke-miterlimit="10" stroke-linecap="round" stroke-linejoin="round"/>
<path d="M208.902 234.981C214.826 244.97 225.478 264.334 223.609 271.542C221.044 281.437 191.802 297.061 191.802 297.061" stroke="#D1D1D1" stroke-miterlimit="10" stroke-linecap="round" stroke-linejoin="round"/>
<path d="M205.141 228.836C205.141 228.836 205.969 230.128 207.277 232.276" stroke="#D1D1D1" stroke-miterlimit="10" stroke-linecap="round" stroke-linejoin="round"/>
<path d="M159.936 300.23C153.547 307.294 147.736 313.768 147.736 313.768C147.736 313.768 134.352 313.48 133.497 315.792C132.643 318.104 131.504 332.847 133.212 338.629C134.92 344.41 139.192 349.036 140.616 345.856C142.04 342.676 142.04 339.785 143.179 337.183C144.317 334.581 151.437 322.44 153.43 320.995C154.237 320.409 160.364 316.13 167.994 310.896C163.711 307.581 161.261 303.322 159.936 300.23Z" fill="white" stroke="#263238" stroke-miterlimit="10" stroke-linecap="round" stroke-linejoin="round"/>
<path d="M148.875 322.441C148.02 321.573 146.027 321.863 146.027 321.863C146.027 321.863 146.194 318.464 146.4 313.757C142.995 313.754 134.185 313.93 133.497 315.792C132.643 318.104 131.504 332.847 133.212 338.629C134.92 344.41 139.192 349.036 140.616 345.856C142.04 342.676 142.04 339.785 143.179 337.183C143.984 335.344 147.775 328.743 150.633 324.518C150.025 323.756 149.305 322.878 148.875 322.441Z" fill="white" stroke="#263238" stroke-miterlimit="10" stroke-linecap="round" stroke-linejoin="round"/>
<path d="M281.633 201.908C281.633 201.908 280.361 206.929 271.88 205.495C269.441 205.083 261.562 209.369 248.841 210.804C243.274 211.432 236.779 211.076 234.532 211.076C232.286 211.076 231.162 210.411 230.413 209.745C229.665 209.079 225.265 196.347 225.265 196.347L235.468 192.736L238.276 197.773C238.276 197.773 238.396 198.732 248.559 200.616C258.861 202.527 275.157 197.867 277.309 197.012C279.462 196.157 281.726 200.862 281.633 201.908Z" fill="white" stroke="#263238" stroke-miterlimit="10" stroke-linecap="round" stroke-linejoin="round"/>
<path d="M221.892 193.595C221.892 193.595 239.232 187.141 239.81 188.118C240.389 189.096 240.581 197.898 240.581 197.898C240.581 197.898 238.462 199.854 232.874 201.224C227.287 202.593 222.855 202.984 222.855 202.984L221.892 193.595Z" fill="white" stroke="#263238" stroke-miterlimit="10" stroke-linecap="round" stroke-linejoin="round"/>
<path d="M287.158 176.792L272.941 199.402L279.813 205.656L294.503 183.287L287.158 176.792Z" fill="#263238" stroke="#263238" stroke-miterlimit="10" stroke-linecap="round" stroke-linejoin="round"/>
<path d="M272.941 199.402L278.628 192.426C278.628 192.426 278.628 192.426 280.286 191.946C281.945 191.465 285.025 191.465 285.973 190.743C286.921 190.022 285.973 188.578 284.788 188.819C283.603 189.059 278.865 189.059 277.917 189.059C276.969 189.059 270.809 194.592 270.809 194.592L269.624 201.567" fill="white"/>
<path d="M272.941 199.402L278.628 192.426C278.628 192.426 278.628 192.426 280.286 191.946C281.945 191.465 285.025 191.465 285.973 190.743C286.921 190.022 285.973 188.578 284.788 188.819C283.603 189.059 278.865 189.059 277.917 189.059C276.969 189.059 270.809 194.592 270.809 194.592L269.624 201.567" stroke="#263238" stroke-miterlimit="10" stroke-linecap="round" stroke-linejoin="round"/>
<path d="M291.423 188.338C291.423 188.338 293.792 189.781 291.66 190.984C289.527 192.187 289.664 190.835 289.664 190.835L291.423 188.338Z" fill="white" stroke="#263238" stroke-miterlimit="10" stroke-linecap="round" stroke-linejoin="round"/>
<path d="M288.448 193.021C288.448 193.021 289.384 193.78 288.823 194.731C288.261 195.681 286.576 195.491 286.576 195.491L288.448 193.021Z" fill="white" stroke="#263238" stroke-miterlimit="10" stroke-linecap="round" stroke-linejoin="round"/>
<path d="M286.389 196.441C286.389 196.441 287.325 197.201 286.763 198.152C286.202 199.102 284.517 198.912 284.517 198.912L286.389 196.441Z" fill="white" stroke="#263238" stroke-miterlimit="10" stroke-linecap="round" stroke-linejoin="round"/>
<path d="M284.329 199.387C284.329 199.387 285.265 200.146 284.703 201.097C284.142 202.047 282.456 201.857 282.456 201.857L284.329 199.387Z" fill="white" stroke="#263238" stroke-miterlimit="10" stroke-linecap="round" stroke-linejoin="round"/>
<path d="M222.855 188.315C222.855 188.315 224.457 197.357 228.118 203.812C231.779 210.266 232.816 219.921 232.816 219.921L233.282 228.906L221.171 222.285C221.171 222.285 221.507 199.268 220.351 195.161C219.195 191.053 218.232 181.274 219.965 182.252C221.699 183.23 222.855 188.315 222.855 188.315Z" fill="white" stroke="#263238" stroke-miterlimit="10" stroke-linecap="round" stroke-linejoin="round"/>
<path d="M215.534 143.916C215.534 143.916 217.653 144.503 219.002 148.219C220.351 151.935 222.085 175.797 221.892 179.513C221.7 183.229 222.278 192.617 222.47 196.725C222.663 200.832 226.131 224.499 226.131 224.499C226.131 224.499 215.149 217.654 198.965 215.698C182.78 213.741 171.991 215.111 170.642 215.502C169.293 215.894 179.505 194.965 180.083 179.123C180.66 163.281 178.349 142.939 186.826 142.157C195.303 141.374 201.661 140.787 203.973 140.592C206.286 140.395 215.534 143.916 215.534 143.916Z" fill="#D1D1D1" stroke="#263238" stroke-miterlimit="10" stroke-linecap="round" stroke-linejoin="round"/>
<path d="M214.763 178.339L197.808 186.358" stroke="#263238" stroke-miterlimit="10" stroke-linecap="round" stroke-linejoin="round"/>
<path d="M210.139 182.838L199.928 187.923" stroke="#263238" stroke-miterlimit="10" stroke-linecap="round" stroke-linejoin="round"/>
<path d="M202.717 118.292C202.717 118.292 201.377 128.204 198.888 134.034C196.399 139.865 189.507 141.031 190.272 142.003C191.038 142.975 201.568 158.329 205.206 158.717C208.843 159.105 216.884 148.223 217.075 146.278C217.267 144.335 215.927 145.89 215.161 141.42C214.395 136.95 218.033 130.731 218.033 130.731C218.033 130.731 202.909 121.402 202.717 118.292Z" fill="white" stroke="#263238" stroke-miterlimit="10" stroke-linecap="round" stroke-linejoin="round"/>
<path d="M223.712 97.0425C223.712 97.0425 220.098 93.9841 215.428 96.2779C210.758 98.5717 210.608 106.829 207.596 110.956C204.583 115.085 201.42 113.403 201.42 113.403C201.42 113.403 196.6 107.287 195.998 115.543C195.395 123.8 200.818 122.883 202.023 122.883C203.227 122.883 202.625 121.966 202.625 121.966C202.625 121.966 204.734 127.164 206.24 128.388C207.746 129.611 219.787 133.856 222.959 134.046C228.08 134.351 227.779 129.305 227.779 129.305L230.34 118.602C230.34 118.602 234.859 115.238 233.954 113.861C233.051 112.485 228.833 111.415 227.628 108.51C226.424 105.605 228.081 99.9481 223.712 97.0425Z" fill="white" stroke="#263238" stroke-miterlimit="10" stroke-linecap="round" stroke-linejoin="round"/>
<path d="M217.537 117.686C217.537 117.686 220.55 121.049 223.864 121.202" stroke="#263238" stroke-miterlimit="10" stroke-linecap="round" stroke-linejoin="round"/>
<path d="M223.712 109.046C223.712 110.186 223.342 111.11 222.884 111.11C222.426 111.11 222.055 110.186 222.055 109.046C222.055 107.906 222.426 106.982 222.884 106.982C223.342 106.982 223.712 107.906 223.712 109.046Z" fill="#263238"/>
<path d="M219.947 104.23C219.947 104.23 222.658 101.325 224.918 103.313" stroke="#263238" stroke-miterlimit="10" stroke-linecap="round" stroke-linejoin="round"/>
<path d="M191.575 153.919C191.575 153.919 191.246 176.944 190.752 183.784C190.259 190.625 185.164 205.975 182.699 209.312C180.233 212.649 179.083 215.152 172.509 217.154C165.934 219.156 148.348 220.991 148.348 220.991C148.348 220.991 164.291 199.634 166.756 193.461C169.221 187.288 170.371 172.606 170.371 172.606L143.746 170.604C143.746 170.604 158.702 156.588 162.153 151.25C165.605 145.91 170.042 142.073 178.096 141.072C186.149 140.071 190.272 142.003 190.272 142.003L191.575 153.919Z" fill="#55B45C" stroke="#263238" stroke-miterlimit="10" stroke-linecap="round" stroke-linejoin="round"/>
<path d="M193.433 139.333C193.433 139.333 191.742 145.768 191.742 149.843C191.742 153.917 191.32 155.849 191.32 155.849C191.32 155.849 187.939 155.419 186.672 155.849C185.404 156.278 180.756 157.136 180.756 157.136C180.756 157.136 182.446 141.263 186.249 138.69C190.051 136.115 193.433 139.333 193.433 139.333Z" fill="white" stroke="#263238" stroke-miterlimit="10" stroke-linecap="round" stroke-linejoin="round"/>
<path d="M218.788 158.209C218.788 158.209 221.121 182.447 222.855 188.315C222.855 188.315 224.975 182.056 225.938 176.971C226.901 171.885 224.397 159.759 223.818 156.433C223.241 153.109 219.344 152.552 218.788 158.209Z" fill="#55B45C" stroke="#263238" stroke-miterlimit="10" stroke-linecap="round" stroke-linejoin="round"/>
<path d="M215.162 141.42L217.52 151.131L218.788 158.209L225.338 160.139C225.338 160.139 225.925 150.368 222.967 146.077C220.008 141.787 216.228 139.904 215.162 141.42Z" fill="white" stroke="#263238" stroke-miterlimit="10" stroke-linecap="round" stroke-linejoin="round"/>
<path d="M189.766 189.123C189.766 189.123 185 195.963 181.713 197.966C178.426 199.968 169.386 208.31 169.386 208.31C169.386 208.31 175.303 209.311 177.11 211.313C178.918 213.315 178.59 214.316 178.59 214.316C178.59 214.316 182.534 211.981 185.657 204.973C188.78 197.966 189.766 189.123 189.766 189.123Z" fill="white" stroke="#263238" stroke-miterlimit="10" stroke-linecap="round" stroke-linejoin="round"/>
<path d="M145.391 166.099C145.391 166.099 140.46 172.773 140.131 173.44C139.802 174.107 141.282 174.441 142.268 174.275C143.254 174.107 151.965 175.443 151.965 175.443L161.334 171.272C161.334 171.272 161.005 169.103 154.924 167.101C148.841 165.098 146.541 164.931 145.391 166.099Z" fill="white" stroke="#263238" stroke-miterlimit="10" stroke-linecap="round" stroke-linejoin="round"/>
<path d="M180.726 167.266C180.726 167.266 148.019 173.106 142.267 174.274C136.515 175.442 135.693 181.949 135.364 184.118C135.035 186.287 142.76 190.458 153.443 187.788C164.126 185.119 180.397 174.608 182.041 173.773C183.685 172.939 188.122 172.105 190.752 171.437C193.382 170.77 195.847 168.101 196.833 167.6C197.819 167.1 202.914 164.931 205.545 163.095C208.174 161.26 208.01 159.925 205.873 160.092C203.736 160.259 199.956 162.094 198.806 162.261C197.655 162.428 197.655 162.428 197.655 162.428L205.38 155.921C205.38 155.921 208.503 152.25 206.531 152.25C204.559 152.25 194.533 154.586 192.396 156.088C190.26 157.589 180.726 167.266 180.726 167.266Z" fill="white" stroke="#263238" stroke-miterlimit="10" stroke-linecap="round" stroke-linejoin="round"/>
<path d="M205.173 152.57C205.173 152.57 206.615 152.96 205.557 154.424C204.5 155.887 196.909 161.935 196.909 161.935" fill="white"/>
<path d="M205.173 152.57C205.173 152.57 206.615 152.96 205.557 154.424C204.5 155.887 196.909 161.935 196.909 161.935" stroke="#263238" stroke-miterlimit="10" stroke-linecap="round" stroke-linejoin="round"/>
<path d="M189.991 159.594C189.991 159.594 194.7 156.765 196.525 155.79C198.351 154.815 205.077 152.962 204.5 154.23C203.923 155.498 200.656 157.936 200.656 157.936" fill="white"/>
<path d="M189.991 159.594C189.991 159.594 194.7 156.765 196.525 155.79C198.351 154.815 205.077 152.962 204.5 154.23C203.923 155.498 200.656 157.936 200.656 157.936" stroke="#263238" stroke-miterlimit="10" stroke-linecap="round" stroke-linejoin="round"/>
<path d="M187.301 164.763C187.301 164.763 193.547 159.09 195.683 158.257C197.82 157.422 202.75 154.086 202.093 155.921C201.436 157.757 194.369 162.762 194.369 162.762C194.369 162.762 193.218 165.264 191.739 166.933C190.26 168.601 186.808 170.269 186.151 170.437" fill="white"/>
<path d="M187.301 164.763C187.301 164.763 193.547 159.09 195.683 158.257C197.82 157.422 202.75 154.086 202.093 155.921C201.436 157.757 194.369 162.762 194.369 162.762C194.369 162.762 193.218 165.264 191.739 166.933C190.26 168.601 186.808 170.269 186.151 170.437" stroke="#263238" stroke-miterlimit="10" stroke-linecap="round" stroke-linejoin="round"/>
</svg>
