<svg width="35%" height="35%" viewBox="0 0 556 556" fill="none" xmlns="http://www.w3.org/2000/svg">
<path d="M112.58 474.424C207.25 524.955 360.739 524.956 455.407 474.425C550.076 423.892 550.076 341.963 455.407 291.432C360.737 240.899 207.248 240.899 112.578 291.431C17.9099 341.962 17.9099 423.892 112.58 474.424Z" fill="#A1A1A1"/>
<path d="M281.006 406.31L350.187 446.088C350.984 446.548 352.278 446.548 353.076 446.088L475.532 375.387C476.33 374.926 476.33 374.179 475.532 373.719L406.351 333.941C405.554 333.481 404.26 333.481 403.462 333.941L281.006 404.642C280.208 405.103 280.208 405.849 281.006 406.31Z" fill="#7B7B7B"/>
<path d="M492.352 426.964C492.128 425.192 490.005 424.294 488.836 423.62L441.593 396.263C439.507 395.058 436.923 395.013 434.836 396.217L387.608 423.455C386.216 424.259 383.94 425.795 383.94 427.593C383.94 429.391 385.183 429.788 387.472 431.11C389.76 432.432 434.366 458.202 434.366 458.202C436.756 459.582 439.7 459.583 442.09 458.202L490.476 430.482C492.069 429.397 492.498 428.113 492.352 426.964Z" fill="#7B7B7B"/>
<path d="M331.074 286.778L342.217 280.345C343.547 279.578 345.703 279.578 347.032 280.345L416.897 320.682" stroke="#428F47" stroke-miterlimit="10"/>
<path d="M326.556 284.171L342.217 275.129C343.547 274.362 345.702 274.362 347.032 275.129L421.414 318.073" stroke="#428F47" stroke-miterlimit="10"/>
<path d="M425.931 315.464L347.032 269.912C345.702 269.145 343.546 269.144 342.216 269.911L322.04 281.553" stroke="#428F47" stroke-miterlimit="10"/>
<path d="M430.448 312.857L347.032 264.697C345.702 263.93 343.547 263.929 342.217 264.697L317.507 278.955" stroke="#428F47" stroke-miterlimit="10"/>
<path d="M260.896 50.8696L188.922 92.4239C187.592 93.1912 186.515 95.0582 186.515 96.5939V294.449C186.515 295.984 187.592 297.851 188.922 298.619L260.897 340.173C262.227 340.94 264.382 340.94 265.712 340.173L337.684 298.619C339.014 297.851 340.092 295.984 340.092 294.449V96.595C340.092 95.0593 339.014 93.1923 337.684 92.425L265.711 50.8707C264.381 50.1023 262.226 50.1023 260.896 50.8696Z" fill="#37474F"/>
<path d="M340.09 96.5906V294.449C340.09 295.983 339.011 297.851 337.688 298.619L265.708 340.174C265.052 340.563 264.174 340.752 263.306 340.752V137.334C264.174 137.334 265.041 137.134 265.708 136.756L337.688 95.2006L338.344 94.6557L339.2 93.944C339.745 94.7669 340.09 95.7232 340.09 96.5906Z" fill="#263238"/>
<path d="M197.956 116.067L251.863 147.19C253.193 147.957 254.271 149.824 254.271 151.36L254.27 171.88C254.27 173.415 253.192 174.037 251.862 173.27L197.957 142.147C196.627 141.38 195.549 139.513 195.549 137.977L195.548 117.457C195.548 115.922 196.626 115.3 197.956 116.067Z" fill="#455A64"/>
<path d="M200.065 125.109C200.065 126.549 201.143 128.339 202.473 129.107L247.345 155.013C248.675 155.78 249.753 155.235 249.753 153.795C249.753 152.355 248.675 150.565 247.345 149.798L202.473 123.891C201.143 123.124 200.065 123.669 200.065 125.109Z" fill="#55B45C"/>
<path d="M200.065 135.541C200.065 136.981 201.143 138.771 202.473 139.538L247.345 165.446C248.675 166.213 249.753 165.668 249.753 164.228C249.753 162.788 248.675 160.998 247.345 160.23L202.473 134.323C201.143 133.556 200.065 134.101 200.065 135.541Z" fill="#263238"/>
<path d="M202.473 134.323L227.168 148.581V153.796L202.473 139.539C201.143 138.772 200.065 136.982 200.065 135.542C200.065 134.101 201.143 133.556 202.473 134.323Z" fill="#55B45C"/>
<path d="M197.956 152.578L251.863 183.7C253.193 184.468 254.271 186.335 254.271 187.87L254.27 208.39C254.27 209.926 253.192 210.547 251.862 209.78L197.957 178.657C196.627 177.89 195.549 176.023 195.549 174.487L195.548 153.968C195.548 152.432 196.626 151.81 197.956 152.578Z" fill="#455A64"/>
<path d="M200.065 161.619C200.065 163.059 201.143 164.85 202.473 165.617L247.345 191.524C248.675 192.292 249.753 191.747 249.753 190.307C249.753 188.867 248.675 187.076 247.345 186.309L202.473 160.402C201.143 159.634 200.065 160.179 200.065 161.619Z" fill="#55B45C"/>
<path d="M200.065 172.051C200.065 173.491 201.143 175.281 202.473 176.049L247.345 201.956C248.675 202.723 249.753 202.178 249.753 200.738C249.753 199.298 248.675 197.508 247.345 196.741L202.473 170.833C201.143 170.066 200.065 170.611 200.065 172.051Z" fill="#263238"/>
<path d="M202.473 170.833L240.719 192.914V198.13L202.473 176.049C201.143 175.281 200.065 173.491 200.065 172.051C200.065 170.611 201.143 170.066 202.473 170.833Z" fill="#55B45C"/>
<path d="M197.956 189.088L251.863 220.211C253.193 220.978 254.271 222.845 254.271 224.381L254.27 244.9C254.27 246.436 253.192 247.058 251.862 246.29L197.957 215.168C196.627 214.4 195.549 212.533 195.549 210.998L195.548 190.478C195.548 188.942 196.626 188.321 197.956 189.088Z" fill="#455A64"/>
<path d="M200.065 198.13C200.065 199.57 201.143 201.36 202.473 202.127L247.345 228.035C248.675 228.802 249.753 228.257 249.753 226.817C249.753 225.377 248.675 223.587 247.345 222.819L202.473 196.912C201.143 196.145 200.065 196.69 200.065 198.13Z" fill="#55B45C"/>
<path d="M200.065 208.561C200.065 210.001 201.143 211.792 202.473 212.559L247.345 238.466C248.675 239.234 249.753 238.689 249.753 237.249C249.753 235.809 248.675 234.018 247.345 233.251L202.473 207.344C201.143 206.576 200.065 207.121 200.065 208.561Z" fill="#263238"/>
<path d="M202.473 207.344L218.133 216.385V221.601L202.473 212.56C201.143 211.793 200.065 210.002 200.065 208.562C200.065 207.122 201.143 206.576 202.473 207.344Z" fill="#55B45C"/>
<path d="M197.956 225.598L251.863 256.721C253.193 257.488 254.271 259.355 254.271 260.891L254.27 281.41C254.27 282.946 253.192 283.568 251.862 282.8L197.957 251.678C196.627 250.911 195.549 249.044 195.549 247.508L195.548 226.988C195.548 225.452 196.626 224.831 197.956 225.598Z" fill="#455A64"/>
<path d="M200.065 234.64C200.065 236.08 201.143 237.87 202.473 238.637L247.345 264.545C248.675 265.312 249.753 264.767 249.753 263.327C249.753 261.887 248.675 260.097 247.345 259.33L202.473 233.422C201.143 232.655 200.065 233.2 200.065 234.64Z" fill="#55B45C"/>
<path d="M200.065 245.071C200.065 246.512 201.143 248.302 202.473 249.069L247.345 274.976C248.675 275.744 249.753 275.199 249.753 273.759C249.753 272.319 248.675 270.528 247.345 269.761L202.473 243.854C201.143 243.087 200.065 243.631 200.065 245.071Z" fill="#263238"/>
<path d="M202.473 243.854L227.168 258.112V263.327L202.473 249.07C201.143 248.303 200.065 246.513 200.065 245.073C200.065 243.633 201.143 243.087 202.473 243.854Z" fill="#55B45C"/>
<path d="M197.956 262.108L251.863 293.231C253.193 293.998 254.271 295.865 254.271 297.401L254.27 317.921C254.27 319.456 253.192 320.078 251.862 319.311L197.957 288.188C196.627 287.421 195.549 285.554 195.549 284.018L195.548 263.498C195.548 261.964 196.626 261.341 197.956 262.108Z" fill="#455A64"/>
<path d="M200.065 271.15C200.065 272.59 201.143 274.38 202.473 275.148L247.345 301.055C248.675 301.822 249.753 301.277 249.753 299.837C249.753 298.397 248.675 296.607 247.345 295.84L202.473 269.932C201.143 269.165 200.065 269.71 200.065 271.15Z" fill="#55B45C"/>
<path d="M200.065 281.582C200.065 283.022 201.143 284.812 202.473 285.579L247.345 311.486C248.675 312.253 249.753 311.708 249.753 310.268C249.753 308.828 248.675 307.038 247.345 306.27L202.473 280.363C201.143 279.597 200.065 280.142 200.065 281.582Z" fill="#263238"/>
<path d="M202.473 280.364L236.202 299.837V305.053L202.473 285.58C201.143 284.813 200.065 283.023 200.065 281.583C200.065 280.143 201.143 279.597 202.473 280.364Z" fill="#55B45C"/>
<path d="M274.596 149.894C277.09 148.449 279.113 149.765 279.113 152.836L279.114 272.121C279.114 275.191 277.091 278.853 274.597 280.3C272.103 281.746 270.08 280.429 270.08 277.358L270.079 158.073C270.078 155.003 272.101 151.341 274.596 149.894Z" fill="#37474F"/>
<path d="M274.596 277.66C275.844 276.939 276.854 275.111 276.854 273.575L276.853 153.956C276.853 152.421 275.843 151.76 274.595 152.481C273.347 153.2 272.336 155.03 272.336 156.565L272.338 276.184C272.338 277.719 273.349 278.38 274.596 277.66Z" fill="#263238"/>
<path d="M274.596 277.66C275.844 276.939 276.854 275.111 276.854 273.575L276.853 216.385L272.336 218.993L272.338 276.184C272.338 277.719 273.349 278.38 274.596 277.66Z" fill="#55B45C"/>
<path d="M288.147 142.071C290.641 140.626 292.664 141.942 292.664 145.013V264.298C292.664 267.369 290.641 271.03 288.147 272.477C285.653 273.923 283.63 272.606 283.63 269.535L283.629 150.25C283.63 147.179 285.652 143.517 288.147 142.071Z" fill="#37474F"/>
<path d="M288.147 269.837C289.394 269.116 290.405 267.288 290.405 265.752L290.404 146.133C290.404 144.598 289.393 143.937 288.146 144.658C286.898 145.378 285.887 147.207 285.887 148.742L285.888 268.361C285.888 269.896 286.9 270.556 288.147 269.837Z" fill="#55B45C"/>
<path d="M301.698 134.248C304.192 132.803 306.215 134.119 306.215 137.19V256.475C306.215 259.545 304.192 263.207 301.698 264.654C299.204 266.101 297.181 264.783 297.181 261.713L297.18 142.427C297.181 139.356 299.204 135.694 301.698 134.248Z" fill="#37474F"/>
<path d="M301.699 262.013C302.947 261.292 303.957 259.464 303.957 257.928L303.956 138.31C303.956 136.774 302.946 136.113 301.698 136.834C300.45 137.553 299.439 139.383 299.439 140.918L299.441 260.537C299.441 262.073 300.451 262.733 301.699 262.013Z" fill="#263238"/>
<path d="M301.699 262.013C302.947 261.292 303.957 259.464 303.957 257.928L303.956 165.53L299.439 168.138L299.441 260.536C299.441 262.073 300.451 262.733 301.699 262.013Z" fill="#55B45C"/>
<path d="M315.248 126.424C317.743 124.979 319.765 126.295 319.765 129.366L319.766 248.651C319.766 251.722 317.744 255.383 315.249 256.83C312.755 258.277 310.733 256.959 310.733 253.889L310.731 134.603C310.731 131.533 312.754 127.871 315.248 126.424Z" fill="#37474F"/>
<path d="M315.25 254.19C316.497 253.469 317.508 251.641 317.508 250.106L317.507 130.487C317.507 128.951 316.496 128.29 315.249 129.011C314.001 129.732 312.99 131.56 312.99 133.095L312.991 252.714C312.991 254.249 314.002 254.91 315.25 254.19Z" fill="#263238"/>
<path d="M315.25 254.19C316.497 253.469 317.508 251.641 317.508 250.105V229.916L312.991 232.524L312.992 252.713C312.991 254.249 314.002 254.91 315.25 254.19Z" fill="#55B45C"/>
<path d="M328.8 118.602C331.294 117.156 333.317 118.473 333.317 121.543V240.828C333.317 243.898 331.294 247.56 328.8 249.007C326.306 250.454 324.283 249.136 324.283 246.066L324.282 126.78C324.282 123.709 326.305 120.047 328.8 118.602Z" fill="#37474F"/>
<path d="M328.801 246.367C330.048 245.646 331.059 243.818 331.059 242.283L331.058 122.664C331.058 121.128 330.047 120.467 328.799 121.188C327.552 121.907 326.541 123.737 326.541 125.272L326.542 244.891C326.542 246.426 327.554 247.086 328.801 246.367Z" fill="#263238"/>
<path d="M328.801 246.367C330.048 245.646 331.059 243.818 331.059 242.283L331.058 179.875L326.541 182.483L326.542 244.89C326.542 246.426 327.554 247.086 328.801 246.367Z" fill="#55B45C"/>
<path d="M272.005 294.813L331.391 260.527C332.456 259.913 333.317 260.41 333.317 261.639V283.27C333.317 284.499 332.456 285.992 331.391 286.606L272.005 320.892C270.941 321.506 270.079 321.009 270.079 319.78V298.149C270.079 296.922 270.942 295.427 272.005 294.813Z" fill="#37474F"/>
<path d="M274.447 301.227C274.447 302.667 275.526 303.212 276.856 302.445L326.542 273.749C327.872 272.982 328.95 271.191 328.95 269.751C328.95 268.311 327.872 267.766 326.542 268.534L276.854 297.23C275.524 297.997 274.446 299.787 274.447 301.227Z" fill="#263238"/>
<path d="M274.447 301.227C274.447 302.667 275.526 303.212 276.855 302.445L312.99 281.572L312.991 276.356L276.854 297.23C275.524 297.997 274.446 299.787 274.447 301.227Z" fill="#55B45C"/>
<path d="M274.447 311.659C274.447 313.099 275.526 313.644 276.856 312.877L326.542 284.181C327.872 283.413 328.95 281.623 328.95 280.183C328.95 278.743 327.872 278.198 326.542 278.965L276.854 307.662C275.524 308.43 274.446 310.219 274.447 311.659Z" fill="#263238"/>
<path d="M274.447 311.659C274.447 313.099 275.526 313.644 276.856 312.877L290.407 305.053L290.408 299.838L276.855 307.662C275.524 308.43 274.446 310.219 274.447 311.659Z" fill="#55B45C"/>
<path d="M337.684 92.425L265.71 50.8707C264.38 50.1034 262.225 50.1034 260.895 50.8707L188.921 92.425C187.591 93.1923 187.591 94.4377 188.921 95.205L260.896 136.759C262.226 137.527 264.381 137.527 265.711 136.759L337.683 95.205C339.014 94.4366 339.014 93.1923 337.684 92.425Z" fill="#455A64"/>
<path d="M261.858 126.883L206.026 94.6479C205.229 94.1875 204.582 93.0667 204.582 92.1459V90.2655C204.582 89.3448 205.229 88.2239 206.026 87.7635L261.857 55.5289C262.655 55.0685 263.949 55.0685 264.746 55.5289L320.579 87.7635C321.376 88.2239 322.023 89.3448 322.023 90.2655V92.1448C322.023 93.0655 321.376 94.1864 320.579 94.6468L264.747 126.881C263.95 127.344 262.657 127.344 261.858 126.883Z" fill="#263238"/>
<path d="M206.027 89.4326L261.859 121.667C262.657 122.128 263.951 122.128 264.748 121.667L320.58 89.4326C321.377 88.9722 321.377 88.225 320.58 87.7646L264.747 56.6431C263.95 56.1827 262.656 56.1827 261.858 56.6431L206.027 87.7646C205.229 88.225 205.229 88.9722 206.027 89.4326Z" fill="#455A64"/>
<path d="M263.306 122.011V127.226C262.784 127.226 262.261 127.115 261.861 126.881L206.027 94.6446C205.227 94.1886 204.582 93.0655 204.582 92.1426V90.2633C204.582 89.4515 205.082 88.4841 205.76 87.9503C205.238 88.4062 205.327 89.029 206.027 89.4293L261.861 121.666C262.26 121.9 262.784 122.011 263.306 122.011Z" fill="#37474F"/>
<path d="M261.858 111.236L224.093 89.4326C223.296 88.9722 222.649 87.8525 222.649 86.9306V85.0513C222.649 84.1306 223.296 83.0097 224.093 82.5493L248.306 68.5704C249.103 68.11 250.195 67.137 250.745 66.3975L262.308 50.8206C262.858 50.0812 263.95 49.8543 264.747 50.3147L302.512 72.1165C303.309 72.5769 303.956 73.6978 303.956 74.6185L303.955 86.9306C303.955 87.8513 303.308 88.9722 302.511 89.4326L264.747 111.236C263.95 111.696 262.656 111.696 261.858 111.236Z" fill="#263238"/>
<path d="M264.747 106.019L288.96 92.0403C289.344 91.819 289.796 91.4776 290.223 91.1017C290.683 90.697 291.114 90.25 291.399 89.8663L302.962 74.2894C303.512 73.5499 303.31 72.5769 302.512 72.1166L264.747 50.3147C263.95 49.8543 262.858 50.0801 262.309 50.8207L250.745 66.3976C250.196 67.137 249.304 68.1979 248.506 68.6582L224.094 82.5494C223.296 83.0097 223.296 83.757 224.094 84.2174L261.857 106.02C262.657 106.481 263.95 106.481 264.747 106.019Z" fill="#455A64"/>
<path d="M302.513 72.1166L264.749 50.3147C263.952 49.8543 262.86 50.0801 262.311 50.8195L250.747 66.3964C250.461 66.7812 250.028 67.2226 249.565 67.6274C249.565 67.6274 290.21 91.1095 290.222 91.0995C290.682 90.6947 291.115 90.2522 291.399 89.8674L302.963 74.2905C303.513 73.5499 303.31 72.5769 302.513 72.1166Z" fill="#37474F"/>
<path d="M233.258 82.9319C234.193 82.3914 235.71 82.3914 236.646 82.9319C237.581 83.4723 237.581 84.3474 236.646 84.8879C235.711 85.4283 234.194 85.4283 233.258 84.8879C232.322 84.3474 232.322 83.4712 233.258 82.9319Z" fill="#55B45C"/>
<path d="M240.033 86.8428C240.968 86.3023 242.485 86.3023 243.421 86.8428C244.356 87.3832 244.356 88.2583 243.421 88.7988C242.486 89.3392 240.969 89.3392 240.033 88.7988C239.096 88.2583 239.096 87.3832 240.033 86.8428Z" fill="#55B45C"/>
<path d="M246.807 90.7548C247.743 90.2144 249.259 90.2144 250.196 90.7548C251.131 91.2952 251.131 92.1704 250.196 92.7108C249.26 93.2513 247.744 93.2513 246.807 92.7108C245.872 92.1704 245.872 91.2952 246.807 90.7548Z" fill="#263238"/>
<path d="M253.583 94.6668C254.518 94.1264 256.035 94.1264 256.971 94.6668C257.906 95.2072 257.906 96.0824 256.971 96.6228C256.036 97.1632 254.519 97.1632 253.583 96.6228C252.648 96.0824 252.648 95.2061 253.583 94.6668Z" fill="#263238"/>
<path d="M240.033 82.3592C241.356 82.3592 242.428 81.7399 242.428 80.9759C242.428 80.2119 241.356 79.5925 240.033 79.5925C238.71 79.5925 237.638 80.2119 237.638 80.9759C237.638 81.7399 238.71 82.3592 240.033 82.3592Z" fill="#55B45C"/>
<path d="M245.114 83.9094C246.049 83.3689 247.565 83.3689 248.502 83.9094C249.437 84.4498 249.437 85.3249 248.502 85.8654C247.567 86.4058 246.05 86.4058 245.114 85.8654C244.178 85.3249 244.178 84.4498 245.114 83.9094Z" fill="#263238"/>
<path d="M253.583 90.1821C254.906 90.1821 255.978 89.5628 255.978 88.7988C255.978 88.0348 254.906 87.4155 253.583 87.4155C252.26 87.4155 251.188 88.0348 251.188 88.7988C251.188 89.5628 252.26 90.1821 253.583 90.1821Z" fill="#55B45C"/>
<path d="M258.664 91.7322C259.599 91.1918 261.116 91.1918 262.053 91.7322C262.988 92.2727 262.988 93.1478 262.053 93.6882C261.117 94.2287 259.601 94.2287 258.664 93.6882C257.729 93.1489 257.729 92.2727 258.664 91.7322Z" fill="#263238"/>
<path d="M243.42 77.0638C244.355 76.5234 245.872 76.5234 246.808 77.0638C247.743 77.6043 247.743 78.4794 246.808 79.0198C245.873 79.5603 244.356 79.5603 243.42 79.0198C242.484 78.4794 242.484 77.6032 243.42 77.0638Z" fill="#263238"/>
<path d="M250.195 80.9759C251.131 80.4354 252.647 80.4354 253.584 80.9759C254.519 81.5163 254.519 82.3915 253.584 82.9319C252.648 83.4723 251.132 83.4723 250.195 82.9319C249.259 82.3915 249.259 81.5152 250.195 80.9759Z" fill="#55B45C"/>
<path d="M256.971 84.8868C257.906 84.3463 259.423 84.3463 260.359 84.8868C261.294 85.4272 261.294 86.3023 260.359 86.8428C259.424 87.3832 257.907 87.3832 256.971 86.8428C256.034 86.3023 256.034 85.4272 256.971 84.8868Z" fill="#263238"/>
<path d="M260.397 98.4999C261.332 97.9594 262.849 97.9594 263.784 98.4999C264.719 99.0403 264.719 99.9154 263.784 100.456C262.849 100.996 261.332 100.996 260.397 100.456C259.461 99.9154 259.461 99.0403 260.397 98.4999Z" fill="#55B45C"/>
<path d="M265.478 95.5664C266.413 95.026 267.93 95.026 268.865 95.5664C269.8 96.1068 269.8 96.982 268.865 97.5224C267.93 98.0628 266.413 98.0628 265.478 97.5224C264.543 96.982 264.543 96.1057 265.478 95.5664Z" fill="#263238"/>
<path d="M263.745 88.8021C264.681 88.2617 266.197 88.2617 267.134 88.8021C268.069 89.3425 268.069 90.2177 267.134 90.7581C266.198 91.2985 264.682 91.2985 263.745 90.7581C262.81 90.2177 262.81 89.3414 263.745 88.8021Z" fill="#263238"/>
<path d="M248.501 74.1326C249.436 73.5922 250.953 73.5922 251.889 74.1326C252.824 74.6731 252.824 75.5482 251.889 76.0886C250.954 76.6291 249.437 76.6291 248.501 76.0886C247.566 75.5482 247.566 74.6731 248.501 74.1326Z" fill="#55B45C"/>
<path d="M256.97 80.4054C258.293 80.4054 259.365 79.7861 259.365 79.0221C259.365 78.2581 258.293 77.6387 256.97 77.6387C255.647 77.6387 254.575 78.2581 254.575 79.0221C254.575 79.7861 255.647 80.4054 256.97 80.4054Z" fill="#263238"/>
<path d="M262.051 81.9567C262.987 81.4162 264.503 81.4162 265.44 81.9567C266.375 82.4971 266.375 83.3722 265.44 83.9127C264.505 84.4531 262.988 84.4531 262.051 83.9127C261.116 83.3722 261.116 82.496 262.051 81.9567Z" fill="#55B45C"/>
<path d="M270.521 88.2294C271.844 88.2294 272.916 87.6101 272.916 86.8461C272.916 86.0821 271.844 85.4628 270.521 85.4628C269.198 85.4628 268.125 86.0821 268.125 86.8461C268.125 87.6101 269.198 88.2294 270.521 88.2294Z" fill="#263238"/>
<path d="M270.56 92.6352C271.495 92.0948 273.012 92.0948 273.948 92.6352C274.883 93.1756 274.883 94.0508 273.948 94.5912C273.013 95.1316 271.496 95.1316 270.56 94.5912C269.623 94.0508 269.623 93.1756 270.56 92.6352Z" fill="#55B45C"/>
<path d="M275.64 89.7017C276.576 89.1613 278.092 89.1613 279.029 89.7017C279.964 90.2421 279.964 91.1173 279.029 91.6577C278.093 92.1982 276.577 92.1982 275.64 91.6577C274.705 91.1173 274.705 90.241 275.64 89.7017Z" fill="#263238"/>
<path d="M263.384 106.365V111.569C262.839 111.58 262.283 111.48 261.86 111.236L224.097 89.4293C223.296 88.9734 222.651 87.8502 222.651 86.9273V85.048C222.651 84.2362 223.152 83.2688 223.83 82.735C223.307 83.191 223.396 83.8137 224.097 84.214L261.86 106.02C262.282 106.265 262.838 106.376 263.384 106.365Z" fill="#37474F"/>
<path d="M255.74 65.7448L255.773 65.6992C256.138 65.2054 256.865 65.0542 257.397 65.3611L290.26 84.3352C290.791 84.6421 290.925 85.2904 290.558 85.783L290.523 85.8286C290.156 86.3212 289.428 86.4713 288.895 86.1644L256.04 67.1948C255.511 66.889 255.375 66.2396 255.74 65.7448Z" fill="#263238"/>
<path d="M255.74 65.7448L255.773 65.6992C256.138 65.2054 256.865 65.0542 257.397 65.3611L281.83 79.4668L280.466 81.2961L256.042 67.1948C255.511 66.889 255.375 66.2396 255.74 65.7448Z" fill="#55B45C"/>
<path d="M258.457 62.0985L258.49 62.0529C258.855 61.5592 259.582 61.408 260.114 61.7149L292.977 80.6889C293.508 80.9958 293.642 81.6441 293.275 82.1368L293.24 82.1823C292.873 82.675 292.144 82.8251 291.612 82.5182L258.757 63.5486C258.228 63.2428 258.092 62.5934 258.457 62.0985Z" fill="#263238"/>
<path d="M258.457 62.0985L258.49 62.0529C258.855 61.5592 259.582 61.408 260.114 61.7149L268.282 66.4298L266.919 68.259L258.759 63.5497C258.228 63.2417 258.092 62.5934 258.457 62.0985Z" fill="#55B45C"/>
<path d="M261.174 58.4523L261.208 58.4067C261.572 57.913 262.3 57.7617 262.831 58.0686L295.694 77.0427C296.226 77.3496 296.36 77.9979 295.992 78.4905L295.958 78.5361C295.591 79.0287 294.862 79.1788 294.33 78.8719L261.476 59.9034C260.944 59.5954 260.809 58.946 261.174 58.4523Z" fill="#263238"/>
<path d="M261.174 58.4523L261.208 58.4067C261.572 57.913 262.3 57.7606 262.832 58.0675L279.949 67.9198L278.586 69.7491L261.478 59.9023C260.944 59.5954 260.808 58.946 261.174 58.4523Z" fill="#55B45C"/>
<path d="M263.891 54.806L263.925 54.7604C264.289 54.2667 265.017 54.1155 265.548 54.4224L298.411 73.3965C298.943 73.7034 299.076 74.3517 298.709 74.8443L298.675 74.8899C298.308 75.3825 297.579 75.5326 297.047 75.2257L264.191 56.2561C263.661 55.9492 263.526 55.2998 263.891 54.806Z" fill="#263238"/>
<path d="M263.891 54.806L263.924 54.7604C264.289 54.2667 265.016 54.1155 265.548 54.4224L295.38 71.6451L294.016 73.4743L264.194 56.2572C263.661 55.9492 263.526 55.2998 263.891 54.806Z" fill="#55B45C"/>
<path d="M204.583 359.806L215.726 353.374C217.05 352.61 219.218 352.61 220.541 353.374L286.732 391.589C288.365 392.531 290.406 391.353 290.406 389.467V334.721" stroke="#428F47" stroke-miterlimit="10"/>
<path d="M200.065 357.199L215.727 348.157C217.051 347.392 219.217 347.392 220.542 348.157L291.249 388.98C292.883 389.923 294.923 388.744 294.923 386.858V334.72" stroke="#428F47" stroke-miterlimit="10"/>
<path d="M195.55 354.582L215.726 342.941C217.05 342.177 219.218 342.177 220.541 342.942L295.765 386.372C297.399 387.315 299.44 386.136 299.44 384.25V335.031" stroke="#428F47" stroke-miterlimit="10"/>
<path d="M191.016 351.984L215.726 337.725C217.05 336.962 219.218 336.962 220.541 337.727L300.282 383.766C301.916 384.709 303.956 383.53 303.956 381.644V335.032" stroke="#428F47" stroke-miterlimit="10"/>
<path d="M129.903 126.487L57.9285 168.041C56.5985 168.808 55.521 170.675 55.521 172.211V370.066C55.521 371.601 56.5985 373.469 57.9285 374.236L129.904 415.79C131.234 416.557 133.389 416.557 134.719 415.79L206.691 374.236C208.021 373.469 209.098 371.601 209.098 370.066V172.211C209.098 170.675 208.021 168.808 206.691 168.041L134.718 126.487C133.389 125.719 131.233 125.719 129.903 126.487Z" fill="#37474F"/>
<path d="M209.096 172.207V370.065C209.096 371.599 208.017 373.467 206.694 374.235L134.714 415.79C134.058 416.179 133.18 416.368 132.312 416.368V212.95C133.18 212.95 134.047 212.75 134.714 212.372L206.694 170.817L207.35 170.272L208.206 169.56C208.751 170.383 209.096 171.339 209.096 172.207Z" fill="#263238"/>
<path d="M66.9625 191.683L120.869 222.806C122.199 223.573 123.276 225.44 123.276 226.976L123.275 247.496C123.275 249.031 122.198 249.653 120.868 248.886L66.9636 217.763C65.6337 216.996 64.5562 215.129 64.5562 213.593V193.073C64.555 191.539 65.6326 190.916 66.9625 191.683Z" fill="#455A64"/>
<path d="M69.0718 200.725C69.0718 202.165 70.1493 203.955 71.4793 204.723L116.352 230.629C117.682 231.396 118.759 230.851 118.759 229.411C118.759 227.971 117.682 226.181 116.352 225.414L71.4793 199.507C70.1493 198.74 69.0718 199.285 69.0718 200.725Z" fill="#55B45C"/>
<path d="M69.0718 211.157C69.0718 212.597 70.1493 214.387 71.4793 215.154L116.352 241.062C117.682 241.829 118.759 241.284 118.759 239.844C118.759 238.404 117.682 236.614 116.352 235.846L71.4793 209.939C70.1493 209.172 69.0718 209.717 69.0718 211.157Z" fill="#263238"/>
<path d="M71.4793 209.939L96.1746 224.197V229.412L71.4793 215.155C70.1493 214.388 69.0718 212.598 69.0718 211.158C69.0718 209.717 70.1493 209.172 71.4793 209.939Z" fill="#55B45C"/>
<path d="M66.9622 228.193L120.869 259.316C122.199 260.083 123.276 261.95 123.276 263.486L123.275 284.006C123.275 285.542 122.197 286.163 120.867 285.396L66.9622 254.273C65.6322 253.506 64.5547 251.639 64.5547 250.103V229.583C64.5547 228.049 65.6322 227.426 66.9622 228.193Z" fill="#455A64"/>
<path d="M69.0718 237.236C69.0718 238.676 70.1493 240.467 71.4793 241.234L116.352 267.141C117.682 267.909 118.759 267.364 118.759 265.924C118.759 264.484 117.682 262.693 116.352 261.926L71.4793 236.017C70.1493 235.25 69.0718 235.795 69.0718 237.236Z" fill="#55B45C"/>
<path d="M69.0718 247.668C69.0718 249.108 70.1493 250.898 71.4793 251.666L116.352 277.573C117.682 278.34 118.759 277.795 118.759 276.355C118.759 274.915 117.682 273.125 116.352 272.358L71.4793 246.449C70.1493 245.682 69.0718 246.227 69.0718 247.668Z" fill="#263238"/>
<path d="M71.4793 246.449L109.725 268.53V273.745L71.4793 251.666C70.1493 250.898 69.0718 249.108 69.0718 247.668C69.0718 246.227 70.1493 245.682 71.4793 246.449Z" fill="#55B45C"/>
<path d="M66.9622 264.705L120.869 295.828C122.199 296.595 123.276 298.462 123.276 299.998L123.275 320.517C123.275 322.053 122.197 322.675 120.867 321.907L66.9622 290.785C65.6322 290.017 64.5547 288.15 64.5547 286.615V266.095C64.5547 264.559 65.6322 263.937 66.9622 264.705Z" fill="#455A64"/>
<path d="M69.0718 273.747C69.0718 275.187 70.1493 276.977 71.4793 277.744L116.352 303.651C117.682 304.418 118.759 303.873 118.759 302.433C118.759 300.993 117.682 299.203 116.352 298.435L71.4793 272.528C70.1493 271.761 69.0718 272.305 69.0718 273.747Z" fill="#55B45C"/>
<path d="M69.0718 284.178C69.0718 285.618 70.1493 287.409 71.4793 288.176L116.352 314.082C117.682 314.849 118.759 314.305 118.759 312.865C118.759 311.424 117.682 309.634 116.352 308.867L71.4793 282.96C70.1493 282.192 69.0718 282.737 69.0718 284.178Z" fill="#263238"/>
<path d="M71.4793 282.96L87.1396 292.001V297.216L71.4793 288.176C70.1493 287.409 69.0718 285.618 69.0718 284.178C69.0718 282.737 70.1493 282.192 71.4793 282.96Z" fill="#55B45C"/>
<path d="M66.9622 301.215L120.869 332.338C122.199 333.105 123.276 334.972 123.276 336.508L123.275 357.028C123.275 358.563 122.197 359.185 120.867 358.418L66.9622 327.295C65.6322 326.528 64.5547 324.661 64.5547 323.125V302.605C64.5547 301.07 65.6322 300.447 66.9622 301.215Z" fill="#455A64"/>
<path d="M69.0718 310.257C69.0718 311.697 70.1493 313.487 71.4793 314.255L116.352 340.161C117.682 340.928 118.759 340.383 118.759 338.943C118.759 337.503 117.682 335.713 116.352 334.946L71.4793 309.039C70.1493 308.271 69.0718 308.816 69.0718 310.257Z" fill="#55B45C"/>
<path d="M69.0718 320.689C69.0718 322.129 70.1493 323.919 71.4793 324.686L116.352 350.593C117.682 351.36 118.759 350.815 118.759 349.375C118.759 347.935 117.682 346.145 116.352 345.377L71.4793 319.471C70.1493 318.703 69.0718 319.249 69.0718 320.689Z" fill="#263238"/>
<path d="M71.4793 319.471L96.1746 333.729V338.944L71.4793 324.686C70.1493 323.919 69.0718 322.129 69.0718 320.689C69.0718 319.249 70.1493 318.703 71.4793 319.471Z" fill="#55B45C"/>
<path d="M66.9625 337.725L120.869 368.848C122.199 369.615 123.276 371.482 123.276 373.018V393.537C123.276 395.072 122.199 395.694 120.869 394.927L66.9636 363.804C65.6337 363.037 64.5562 361.17 64.5562 359.634V339.114C64.555 337.58 65.6326 336.957 66.9625 337.725Z" fill="#455A64"/>
<path d="M69.0718 346.767C69.0718 348.207 70.1493 349.998 71.4793 350.765L116.352 376.671C117.682 377.438 118.759 376.893 118.759 375.453C118.759 374.013 117.682 372.223 116.352 371.456L71.4793 345.55C70.1493 344.781 69.0718 345.327 69.0718 346.767Z" fill="#55B45C"/>
<path d="M69.0718 357.199C69.0718 358.639 70.1493 360.429 71.4793 361.196L116.352 387.103C117.682 387.87 118.759 387.325 118.759 385.885C118.759 384.445 117.682 382.655 116.352 381.887L71.4793 355.981C70.1493 355.213 69.0718 355.759 69.0718 357.199Z" fill="#263238"/>
<path d="M71.4793 355.981L105.208 375.454V380.67L71.4793 361.196C70.1493 360.429 69.0718 358.639 69.0718 357.199C69.0718 355.759 70.1493 355.213 71.4793 355.981Z" fill="#55B45C"/>
<path d="M143.603 225.511C146.097 224.065 148.119 225.382 148.119 228.453V347.738C148.119 350.808 146.097 354.47 143.603 355.917C141.108 357.363 139.086 356.046 139.086 352.975L139.084 233.69C139.086 230.619 141.107 226.957 143.603 225.511Z" fill="#37474F"/>
<path d="M143.603 353.276C144.85 352.555 145.861 350.727 145.861 349.191V229.572C145.861 228.037 144.85 227.376 143.603 228.097C142.355 228.817 141.344 230.645 141.344 232.181L141.345 351.8C141.344 353.336 142.356 353.996 143.603 353.276Z" fill="#263238"/>
<path d="M143.602 353.276C144.85 352.555 145.861 350.727 145.861 349.191L145.86 292.001L141.343 294.609L141.344 351.8C141.344 353.336 142.356 353.996 143.602 353.276Z" fill="#55B45C"/>
<path d="M157.153 217.687C159.648 216.241 161.67 217.558 161.67 220.629V339.914C161.67 342.984 159.648 346.646 157.153 348.093C154.659 349.539 152.636 348.222 152.636 345.151L152.635 225.866C152.636 222.796 154.659 219.134 157.153 217.687Z" fill="#37474F"/>
<path d="M157.155 345.453C158.402 344.732 159.413 342.904 159.413 341.368L159.412 221.749C159.412 220.214 158.401 219.553 157.153 220.274C155.906 220.994 154.895 222.823 154.895 224.358L154.896 343.977C154.896 345.512 155.907 346.173 157.155 345.453Z" fill="#55B45C"/>
<path d="M170.704 209.864C173.198 208.419 175.221 209.735 175.221 212.806V332.091C175.221 335.161 173.198 338.823 170.704 340.27C168.21 341.716 166.187 340.399 166.187 337.328L166.186 218.043C166.187 214.972 168.21 211.31 170.704 209.864Z" fill="#37474F"/>
<path d="M170.705 337.63C171.953 336.909 172.964 335.081 172.964 333.545L172.963 213.926C172.963 212.391 171.952 211.73 170.704 212.451C169.457 213.171 168.446 215 168.446 216.535L168.447 336.154C168.447 337.689 169.458 338.349 170.705 337.63Z" fill="#263238"/>
<path d="M170.705 337.63C171.953 336.909 172.964 335.081 172.964 333.545L172.963 241.147L168.446 243.755L168.447 336.153C168.447 337.689 169.458 338.349 170.705 337.63Z" fill="#55B45C"/>
<path d="M184.256 202.041C186.751 200.595 188.773 201.912 188.773 204.983V324.268C188.773 327.338 186.751 331 184.256 332.447C181.762 333.893 179.739 332.576 179.739 329.505L179.738 210.22C179.738 207.149 181.761 203.487 184.256 202.041Z" fill="#37474F"/>
<path d="M184.256 329.806C185.504 329.085 186.514 327.257 186.514 325.721V206.102C186.514 204.567 185.504 203.906 184.256 204.627C183.008 205.347 181.998 207.176 181.998 208.711L181.999 328.33C181.998 329.866 183.009 330.526 184.256 329.806Z" fill="#263238"/>
<path d="M184.256 329.806C185.504 329.085 186.515 327.257 186.515 325.721L186.514 305.532L181.997 308.14L181.998 328.329C181.998 329.866 183.01 330.526 184.256 329.806Z" fill="#55B45C"/>
<path d="M197.807 194.217C200.301 192.771 202.324 194.088 202.324 197.159V316.444C202.324 319.514 200.301 323.176 197.807 324.623C195.313 326.069 193.29 324.752 193.29 321.682L193.289 202.396C193.29 199.326 195.313 195.664 197.807 194.217Z" fill="#37474F"/>
<path d="M197.808 321.983C199.056 321.262 200.066 319.434 200.066 317.898L200.065 198.28C200.065 196.744 199.054 196.083 197.807 196.804C196.559 197.524 195.548 199.353 195.548 200.888L195.549 320.507C195.549 322.042 196.56 322.703 197.808 321.983Z" fill="#263238"/>
<path d="M197.808 321.983C199.056 321.262 200.066 319.434 200.066 317.899L200.065 255.491L195.548 258.098L195.549 320.506C195.549 322.042 196.56 322.703 197.808 321.983Z" fill="#55B45C"/>
<path d="M141.013 370.431L200.399 336.144C201.463 335.53 202.325 336.029 202.325 337.256V358.887C202.325 360.116 201.463 361.609 200.399 362.223L141.013 396.509C139.95 397.123 139.087 396.625 139.087 395.397V373.767C139.087 372.538 139.949 371.044 141.013 370.431Z" fill="#37474F"/>
<path d="M143.454 376.844C143.454 378.284 144.532 378.828 145.862 378.061L195.549 349.365C196.879 348.598 197.956 346.807 197.956 345.367C197.956 343.927 196.879 343.382 195.549 344.15L145.86 372.846C144.53 373.614 143.453 375.403 143.454 376.844Z" fill="#263238"/>
<path d="M143.454 376.844C143.454 378.284 144.532 378.828 145.861 378.061L181.997 357.188L181.998 351.973L145.86 372.846C144.53 373.614 143.453 375.403 143.454 376.844Z" fill="#55B45C"/>
<path d="M143.454 387.276C143.454 388.716 144.532 389.261 145.862 388.494L195.549 359.798C196.879 359.03 197.956 357.24 197.956 355.8C197.956 354.36 196.879 353.815 195.549 354.582L145.86 383.279C144.53 384.046 143.453 385.835 143.454 387.276Z" fill="#263238"/>
<path d="M143.454 387.276C143.454 388.716 144.532 389.261 145.862 388.494L159.413 380.67L159.414 375.455L145.861 383.279C144.53 384.046 143.453 385.835 143.454 387.276Z" fill="#55B45C"/>
<path d="M206.691 168.041L134.716 126.487C133.386 125.719 131.231 125.719 129.901 126.487L57.9272 168.041C56.5972 168.808 56.5972 170.054 57.9272 170.821L129.902 212.375C131.232 213.143 133.387 213.143 134.717 212.375L206.689 170.821C208.02 170.054 208.02 168.808 206.691 168.041Z" fill="#455A64"/>
<path d="M130.866 202.5L75.0334 170.265C74.236 169.805 73.5889 168.684 73.5889 167.763V165.883C73.5889 164.962 74.2349 163.841 75.0334 163.381L130.865 131.146C131.662 130.686 132.956 130.686 133.754 131.146L189.586 163.381C190.383 163.841 191.031 164.962 191.031 165.883V167.762C191.031 168.683 190.383 169.804 189.586 170.264L133.755 202.499C132.956 202.96 131.663 202.96 130.866 202.5Z" fill="#263238"/>
<path d="M75.0334 165.049L130.866 197.283C131.663 197.744 132.957 197.744 133.755 197.283L189.586 165.049C190.383 164.588 190.383 163.841 189.586 163.381L133.754 132.259C132.956 131.799 131.662 131.799 130.865 132.259L75.0334 163.381C74.235 163.841 74.235 164.588 75.0334 165.049Z" fill="#455A64"/>
<path d="M132.313 197.627V202.842C131.79 202.842 131.267 202.731 130.867 202.497L75.0335 170.261C74.2328 169.805 73.5879 168.681 73.5879 167.759V165.879C73.5879 165.067 74.0883 164.1 74.7666 163.566C74.244 164.022 74.3329 164.645 75.0335 165.045L130.867 197.282C131.267 197.516 131.79 197.627 132.313 197.627Z" fill="#37474F"/>
<path d="M130.866 186.851L93.1012 165.049C92.3039 164.588 91.6567 163.467 91.6567 162.547V160.667C91.6567 159.746 92.3039 158.626 93.1012 158.165L117.314 144.186C118.111 143.726 119.203 142.753 119.753 142.013L131.316 126.437C131.866 125.697 132.958 125.47 133.755 125.932L171.519 147.734C172.317 148.194 172.964 149.315 172.964 150.236L172.963 162.548C172.963 163.468 172.316 164.589 171.518 165.05L133.755 186.853C132.956 187.313 131.663 187.313 130.866 186.851Z" fill="#263238"/>
<path d="M133.755 181.636L157.968 167.657C158.351 167.436 158.804 167.095 159.231 166.719C159.691 166.314 160.122 165.867 160.406 165.483L171.97 149.906C172.519 149.167 172.318 148.194 171.52 147.734L133.755 125.932C132.958 125.471 131.866 125.697 131.316 126.437L119.753 142.013C119.203 142.753 118.312 143.814 117.514 144.274L93.1014 158.165C92.3041 158.626 92.3041 159.373 93.1014 159.833L130.865 181.636C131.663 182.097 132.957 182.097 133.755 181.636Z" fill="#455A64"/>
<path d="M171.52 147.733L133.756 125.931C132.958 125.47 131.866 125.696 131.318 126.435L119.754 142.012C119.468 142.397 119.034 142.839 118.572 143.242C118.572 143.242 159.216 166.724 159.229 166.714C159.689 166.31 160.122 165.867 160.406 165.482L171.97 149.905C172.519 149.167 172.317 148.194 171.52 147.733Z" fill="#37474F"/>
<path d="M102.264 158.548C103.199 158.007 104.716 158.007 105.652 158.548C106.587 159.088 106.587 159.963 105.652 160.504C104.717 161.044 103.2 161.044 102.264 160.504C101.329 159.963 101.329 159.088 102.264 158.548Z" fill="#55B45C"/>
<path d="M109.039 162.46C109.974 161.919 111.491 161.919 112.428 162.46C113.364 163 113.363 163.875 112.428 164.416C111.492 164.956 109.976 164.956 109.039 164.416C108.104 163.875 108.104 162.999 109.039 162.46Z" fill="#55B45C"/>
<path d="M115.815 166.371C116.75 165.83 118.266 165.83 119.203 166.371C120.138 166.911 120.138 167.786 119.203 168.327C118.268 168.867 116.751 168.867 115.815 168.327C114.878 167.786 114.878 166.911 115.815 166.371Z" fill="#263238"/>
<path d="M122.59 170.283C123.525 169.742 125.042 169.742 125.978 170.283C126.914 170.823 126.913 171.698 125.978 172.239C125.043 172.779 123.526 172.779 122.59 172.239C121.654 171.698 121.654 170.823 122.59 170.283Z" fill="#263238"/>
<path d="M107.346 155.614C108.281 155.074 109.798 155.074 110.734 155.614C111.67 156.155 111.669 157.03 110.734 157.57C109.799 158.111 108.282 158.111 107.346 157.57C106.409 157.03 106.409 156.154 107.346 155.614Z" fill="#55B45C"/>
<path d="M115.815 161.887C117.138 161.887 118.21 161.268 118.21 160.504C118.21 159.74 117.138 159.12 115.815 159.12C114.492 159.12 113.419 159.74 113.419 160.504C113.419 161.268 114.492 161.887 115.815 161.887Z" fill="#263238"/>
<path d="M120.895 163.437C121.83 162.897 123.347 162.897 124.284 163.437C125.22 163.978 125.219 164.853 124.284 165.393C123.348 165.934 121.832 165.934 120.895 165.393C119.96 164.853 119.96 163.978 120.895 163.437Z" fill="#55B45C"/>
<path d="M129.364 169.71C130.687 169.71 131.76 169.091 131.76 168.327C131.76 167.563 130.687 166.943 129.364 166.943C128.042 166.943 126.969 167.563 126.969 168.327C126.969 169.091 128.042 169.71 129.364 169.71Z" fill="#263238"/>
<path d="M112.426 152.68C113.362 152.139 114.878 152.139 115.814 152.68C116.749 153.22 116.749 154.095 115.814 154.636C114.878 155.176 113.362 155.176 112.426 154.636C111.491 154.095 111.491 153.22 112.426 152.68Z" fill="#263238"/>
<path d="M119.202 156.592C120.137 156.051 121.654 156.051 122.59 156.592C123.525 157.132 123.525 158.007 122.59 158.548C121.655 159.088 120.138 159.088 119.202 158.548C118.266 158.007 118.267 157.132 119.202 156.592Z" fill="#55B45C"/>
<path d="M125.977 160.504C126.912 159.963 128.429 159.963 129.364 160.504C130.3 161.044 130.3 161.919 129.364 162.46C128.429 163 126.912 163 125.977 162.46C125.042 161.919 125.042 161.043 125.977 160.504Z" fill="#263238"/>
<path d="M129.404 174.116C130.339 173.575 131.855 173.575 132.792 174.116C133.727 174.656 133.727 175.531 132.792 176.072C131.857 176.612 130.34 176.612 129.404 176.072C128.468 175.532 128.468 174.656 129.404 174.116Z" fill="#55B45C"/>
<path d="M134.484 171.182C135.419 170.642 136.936 170.642 137.872 171.182C138.809 171.723 138.808 172.598 137.872 173.138C136.937 173.679 135.42 173.679 134.484 173.138C133.549 172.598 133.549 171.723 134.484 171.182Z" fill="#263238"/>
<path d="M132.753 164.418C133.688 163.878 135.204 163.878 136.141 164.418C137.076 164.958 137.076 165.834 136.141 166.374C135.206 166.914 133.689 166.914 132.753 166.374C131.816 165.834 131.816 164.958 132.753 164.418Z" fill="#263238"/>
<path d="M119.202 152.11C120.525 152.11 121.597 151.491 121.597 150.727C121.597 149.963 120.525 149.344 119.202 149.344C117.879 149.344 116.807 149.963 116.807 150.727C116.807 151.491 117.879 152.11 119.202 152.11Z" fill="#55B45C"/>
<path d="M124.282 153.661C125.218 153.12 126.734 153.12 127.671 153.661C128.606 154.201 128.606 155.076 127.671 155.617C126.736 156.157 125.219 156.157 124.282 155.617C123.347 155.077 123.347 154.201 124.282 153.661Z" fill="#263238"/>
<path d="M132.753 159.933C134.076 159.933 135.148 159.314 135.148 158.55C135.148 157.786 134.076 157.167 132.753 157.167C131.43 157.167 130.357 157.786 130.357 158.55C130.357 159.314 131.43 159.933 132.753 159.933Z" fill="#55B45C"/>
<path d="M137.833 161.485C138.768 160.944 140.285 160.944 141.221 161.485C142.157 162.025 142.157 162.9 141.221 163.441C140.286 163.981 138.77 163.981 137.833 163.441C136.898 162.9 136.898 162.024 137.833 161.485Z" fill="#263238"/>
<path d="M139.566 168.251C140.501 167.711 142.018 167.711 142.954 168.251C143.89 168.791 143.89 169.667 142.954 170.207C142.019 170.747 140.502 170.747 139.566 170.207C138.631 169.668 138.631 168.791 139.566 168.251Z" fill="#55B45C"/>
<path d="M146.342 167.68C147.664 167.68 148.737 167.06 148.737 166.296C148.737 165.532 147.664 164.913 146.342 164.913C145.019 164.913 143.946 165.532 143.946 166.296C143.946 167.06 145.019 167.68 146.342 167.68Z" fill="#263238"/>
<path d="M132.39 181.981V187.185C131.845 187.196 131.289 187.096 130.867 186.852L93.1033 165.045C92.3027 164.589 91.6577 163.466 91.6577 162.543V160.664C91.6577 159.852 92.1581 158.885 92.8364 158.351C92.3138 158.807 92.4027 159.43 93.1033 159.83L130.867 181.636C131.289 181.881 131.845 181.992 132.39 181.981Z" fill="#37474F"/>
<path d="M124.748 141.362L124.781 141.316C125.146 140.823 125.873 140.671 126.405 140.978L159.267 159.952C159.799 160.259 159.932 160.907 159.565 161.4L159.531 161.446C159.164 161.938 158.435 162.088 157.903 161.781L125.048 142.812C124.517 142.505 124.382 141.856 124.748 141.362Z" fill="#263238"/>
<path d="M124.748 141.362L124.781 141.316C125.146 140.823 125.873 140.671 126.404 140.978L150.837 155.084L149.474 156.913L125.05 142.812C124.517 142.505 124.382 141.856 124.748 141.362Z" fill="#55B45C"/>
<path d="M127.464 137.716L127.498 137.67C127.863 137.176 128.59 137.025 129.121 137.332L161.984 156.306C162.516 156.613 162.65 157.261 162.282 157.754L162.248 157.799C161.881 158.292 161.152 158.442 160.62 158.135L127.765 139.166C127.234 138.859 127.1 138.209 127.464 137.716Z" fill="#263238"/>
<path d="M127.464 137.716L127.498 137.67C127.862 137.176 128.59 137.025 129.121 137.332L137.29 142.046L135.927 143.875L127.767 139.166C127.234 138.859 127.1 138.209 127.464 137.716Z" fill="#55B45C"/>
<path d="M130.181 134.069L130.214 134.024C130.579 133.53 131.306 133.379 131.838 133.686L164.701 152.66C165.232 152.967 165.366 153.615 164.999 154.108L164.964 154.153C164.597 154.646 163.869 154.796 163.336 154.489L130.482 135.519C129.951 135.212 129.816 134.563 130.181 134.069Z" fill="#263238"/>
<path d="M130.181 134.069L130.214 134.024C130.579 133.53 131.306 133.378 131.839 133.685L148.956 143.536L147.592 145.365L130.484 135.518C129.952 135.211 129.816 134.563 130.181 134.069Z" fill="#55B45C"/>
<path d="M132.898 130.423L132.931 130.378C133.296 129.884 134.023 129.733 134.554 130.039L167.417 149.014C167.949 149.32 168.082 149.969 167.715 150.461L167.681 150.507C167.314 151 166.586 151.15 166.053 150.843L133.198 131.873C132.667 131.566 132.533 130.917 132.898 130.423Z" fill="#263238"/>
<path d="M132.897 130.423L132.931 130.378C133.296 129.884 134.023 129.733 134.554 130.039L164.386 147.262L163.023 149.091L133.2 131.873C132.667 131.566 132.533 130.917 132.897 130.423Z" fill="#55B45C"/>
<path d="M285.253 343.388V404.289C285.253 404.749 285.577 405.31 285.976 405.54L344.353 439.201C344.752 439.431 345.398 439.431 345.797 439.201L347.74 438.079C348.139 437.849 348.463 437.288 348.463 436.828V375.927C348.463 375.467 348.089 375.093 347.629 375.093L286.087 342.554C285.627 342.554 285.253 342.927 285.253 343.388Z" fill="#FAFAFA"/>
<path d="M347.629 375.093H345.909C345.448 375.093 345.075 375.467 345.075 375.927V438.784C345.075 439.244 345.398 439.431 345.798 439.201L347.74 438.079C348.139 437.849 348.463 437.288 348.463 436.828V375.927C348.463 375.467 348.089 375.093 347.629 375.093Z" fill="#F5F5F5"/>
<path d="M401.507 273.603V334.504C401.507 334.964 401.831 335.525 402.23 335.755L462.911 370.761C463.31 370.991 463.956 370.991 464.355 370.761L466.298 369.639C466.697 369.409 467.021 368.848 467.021 368.388V307.487C467.021 307.027 466.647 306.653 466.187 306.653L402.342 272.77C401.881 272.769 401.507 273.143 401.507 273.603Z" fill="#E0E0E0"/>
<path d="M466.187 306.652H464.466C464.006 306.652 463.632 307.025 463.632 307.486V370.343C463.632 370.803 463.956 370.99 464.355 370.76L466.298 369.638C466.697 369.407 467.021 368.847 467.021 368.387V307.486C467.021 307.025 466.647 306.652 466.187 306.652Z" fill="#EBEBEB"/>
<path d="M279.561 341.476V340.9C279.561 339.98 280.208 338.859 281.006 338.398L403.462 267.697C404.26 267.237 405.554 267.237 406.351 267.697L471.218 305.147C472.015 305.608 472.662 306.729 472.662 307.649V308.225C472.662 309.146 472.015 310.267 471.218 310.727L348.761 381.428C347.963 381.889 346.669 381.889 345.872 381.428L281.006 343.978C280.208 343.518 279.561 342.398 279.561 341.476Z" fill="#F5F5F5"/>
<path d="M347.316 377.865V381.78C346.794 381.78 346.271 381.657 345.871 381.435L281.008 343.983C280.207 343.516 279.562 342.404 279.562 341.481V340.903C279.562 340.091 280.062 339.112 280.741 338.59C280.218 339.034 280.307 339.657 281.008 340.069L345.871 377.521C346.271 377.754 346.794 377.865 347.316 377.865Z" fill="#EBEBEB"/>
<path d="M281.006 340.067L345.872 377.517C346.669 377.978 347.964 377.978 348.761 377.517L471.218 306.816C472.015 306.356 472.015 305.609 471.218 305.148L406.351 267.698C405.554 267.238 404.26 267.238 403.462 267.698L281.006 338.399C280.208 338.86 280.208 339.606 281.006 340.067Z" fill="#FAFAFA"/>
<path d="M385.551 313.921L422.223 292.706C422.878 292.328 423.941 292.328 424.596 292.706L436.206 299.487C436.861 299.865 436.861 300.479 436.206 300.857L399.535 322.072C398.88 322.45 397.817 322.45 397.162 322.072L385.551 315.291C384.896 314.913 384.896 314.299 385.551 313.921Z" fill="#EBEBEB"/>
<path d="M392.052 300.76L392.019 300.743L388.133 298.495C387.602 298.188 387.602 297.689 388.133 297.382L418.607 279.785C419.138 279.478 419.138 278.98 418.607 278.673L418.296 278.494C417.765 278.187 416.902 278.187 416.37 278.494L386.757 295.591C386.225 295.898 385.731 295.924 385.716 295.643C385.706 295.471 385.715 295.301 385.747 295.137L387.426 286.443C387.543 285.841 387.205 285.105 386.672 284.8L386.367 284.625C385.835 284.321 385.309 284.562 385.193 285.165L383.257 295.259C383.187 295.619 383.185 295.999 383.239 296.379C383.327 296.987 383.11 297.696 382.578 298.004L364.093 308.676C363.561 308.983 363.561 309.481 364.093 309.788L364.408 309.97C364.939 310.277 365.802 310.277 366.334 309.97L383.999 299.769C384.53 299.462 384.996 299.236 385.036 299.266C385.061 299.285 385.086 299.303 385.112 299.317L391.12 302.786C391.652 303.093 392.516 303.096 393.047 302.79C395.683 301.275 402.982 297.07 405.617 295.552C406.149 295.245 406.325 294.852 406.008 294.673C405.691 294.495 404.985 294.567 404.432 294.833L393.087 300.293C392.535 300.561 392.071 300.77 392.052 300.76Z" fill="#EBEBEB"/>
<path d="M424.44 289.897L435.425 296.239C436.079 296.617 436.611 297.5 436.611 298.209C436.611 298.919 436.079 299.802 435.425 300.18L399.951 320.661C399.296 321.039 398.233 321.039 397.578 320.661L386.593 314.319C385.938 313.941 385.407 313.058 385.407 312.348C385.407 311.639 385.938 310.756 386.593 310.378L422.067 289.897C422.723 289.518 423.785 289.518 424.44 289.897Z" fill="#37474F"/>
<path d="M398.765 320.944C398.336 320.944 397.907 320.85 397.579 320.661L386.594 314.319C385.939 313.941 385.408 313.058 385.408 312.349C385.408 311.639 385.939 310.756 386.594 310.378L387.736 309.719H398.766V320.944H398.765Z" fill="#263238"/>
<path d="M386.586 310.377L422.06 289.896C422.715 289.518 423.778 289.518 424.433 289.896L435.419 296.238C436.074 296.616 436.074 297.23 435.419 297.608L399.945 318.089C399.29 318.467 398.227 318.467 397.572 318.089L386.586 311.747C385.931 311.369 385.931 310.756 386.586 310.377Z" fill="#455A64"/>
<path d="M419.012 299.346L420.129 298.701C420.177 298.673 420.173 298.628 420.122 298.597L418.831 297.851C418.78 297.822 418.7 297.82 418.653 297.848L417.536 298.493C417.488 298.521 417.491 298.566 417.542 298.595L418.833 299.341C418.885 299.371 418.965 299.373 419.012 299.346ZM416.808 296.784L415.692 297.429C415.644 297.457 415.648 297.502 415.699 297.532L416.99 298.278C417.041 298.307 417.121 298.309 417.168 298.282L418.284 297.637C418.332 297.609 418.329 297.563 418.277 297.534L416.986 296.788C416.935 296.758 416.855 296.756 416.808 296.784ZM413.2 298.867L411.31 299.957C411.262 299.985 411.265 300.031 411.316 300.06L412.607 300.806C412.658 300.835 412.739 300.837 412.785 300.809L414.676 299.718C414.723 299.691 414.72 299.645 414.669 299.615L413.378 298.869C413.327 298.841 413.247 298.84 413.2 298.867ZM415.176 297.726L414.059 298.371C414.012 298.398 414.014 298.444 414.065 298.473L415.356 299.219C415.407 299.248 415.487 299.25 415.534 299.222L416.651 298.577C416.698 298.55 416.695 298.504 416.644 298.475L415.353 297.729C415.303 297.7 415.223 297.699 415.176 297.726ZM410.794 300.255L409.677 300.9C409.629 300.928 409.633 300.974 409.684 301.003L410.975 301.749C411.026 301.778 411.105 301.78 411.153 301.752L412.27 301.107C412.318 301.079 412.315 301.034 412.264 301.005L410.973 300.259C410.922 300.23 410.842 300.229 410.794 300.255ZM409.161 301.198L408.045 301.843C407.997 301.871 408 301.917 408.051 301.946L409.343 302.692C409.394 302.721 409.473 302.723 409.52 302.695L410.637 302.05C410.685 302.022 410.681 301.977 410.63 301.948L409.339 301.202C409.289 301.173 409.209 301.171 409.161 301.198ZM414.242 304.231L415.358 303.586C415.406 303.558 415.403 303.513 415.352 303.484L414.061 302.737C414.01 302.709 413.93 302.706 413.883 302.734L412.766 303.379C412.719 303.407 412.722 303.452 412.773 303.482L414.064 304.229C414.114 304.256 414.194 304.258 414.242 304.231ZM412.61 305.173L413.726 304.528C413.774 304.5 413.77 304.454 413.719 304.424L412.428 303.678C412.377 303.649 412.297 303.647 412.25 303.675L411.134 304.32C411.086 304.348 411.089 304.393 411.141 304.422L412.432 305.168C412.482 305.198 412.562 305.201 412.61 305.173ZM410.977 306.116L412.094 305.471C412.141 305.443 412.138 305.397 412.087 305.368L410.796 304.622C410.745 304.593 410.665 304.591 410.618 304.619L409.502 305.264C409.454 305.292 409.457 305.337 409.508 305.366L410.799 306.112C410.849 306.141 410.929 306.142 410.977 306.116ZM409.345 307.058L410.462 306.413C410.51 306.385 410.507 306.339 410.456 306.31L409.165 305.564C409.113 305.535 409.035 305.533 408.987 305.561L407.87 306.206C407.822 306.234 407.826 306.279 407.877 306.308L409.168 307.054C409.217 307.084 409.297 307.085 409.345 307.058ZM417.38 300.288L418.497 299.643C418.544 299.615 418.541 299.569 418.49 299.54L417.199 298.794C417.148 298.765 417.069 298.763 417.021 298.791L415.903 299.436C415.856 299.464 415.859 299.509 415.91 299.539L417.201 300.285C417.252 300.314 417.332 300.316 417.38 300.288ZM415.874 303.288L418.366 301.849C418.414 301.821 418.411 301.776 418.36 301.747L415.224 299.935C415.173 299.906 415.093 299.904 415.046 299.932L413.757 300.676C413.709 300.704 413.713 300.749 413.764 300.779L415.424 301.738C415.475 301.767 415.477 301.813 415.431 301.841L414.4 302.436C414.352 302.464 414.355 302.509 414.407 302.538L415.698 303.285C415.747 303.313 415.827 303.316 415.874 303.288ZM407.529 302.14L406.411 302.785C406.363 302.813 406.367 302.859 406.418 302.888L407.709 303.634C407.76 303.663 407.839 303.665 407.887 303.637L409.003 302.992C409.051 302.964 409.048 302.919 408.997 302.89L407.706 302.144C407.657 302.115 407.577 302.114 407.529 302.14ZM405.896 303.083L404.78 303.728C404.732 303.756 404.736 303.802 404.787 303.832L406.078 304.578C406.129 304.607 406.208 304.609 406.256 304.581L407.372 303.936C407.42 303.908 407.417 303.863 407.365 303.834L406.074 303.088C406.024 303.058 405.944 303.055 405.896 303.083ZM397.74 313.652C397.791 313.681 397.871 313.683 397.918 313.655L399.034 313.01C399.082 312.982 399.079 312.937 399.028 312.907L397.737 312.161C397.685 312.132 397.605 312.129 397.559 312.157L396.442 312.802C396.394 312.83 396.398 312.876 396.449 312.906L397.74 313.652ZM392.837 310.623L391.721 311.268C391.673 311.295 391.676 311.341 391.727 311.37L393.018 312.116C393.07 312.145 393.15 312.147 393.196 312.119L394.313 311.474C394.361 311.447 394.357 311.401 394.306 311.372L393.015 310.626C392.965 310.597 392.885 310.596 392.837 310.623ZM395.465 312.834C395.516 312.864 395.595 312.866 395.643 312.838L396.76 312.193C396.808 312.165 396.805 312.119 396.754 312.091L395.463 311.344C395.411 311.315 395.332 311.313 395.285 311.341L394.168 311.986C394.12 312.014 394.124 312.059 394.175 312.088L395.465 312.834ZM400.622 314.224L401.739 313.579C401.786 313.552 401.783 313.506 401.732 313.477L400.441 312.731C400.39 312.702 400.311 312.7 400.263 312.728L399.147 313.373C399.099 313.4 399.102 313.446 399.153 313.476L400.444 314.221C400.494 314.25 400.574 314.252 400.622 314.224ZM398.811 315.163C398.862 315.193 398.941 315.194 398.989 315.166L400.106 314.521C400.154 314.494 400.151 314.448 400.1 314.419L398.809 313.673C398.757 313.644 398.677 313.642 398.631 313.67L397.514 314.315C397.466 314.342 397.47 314.388 397.521 314.417L398.811 315.163ZM394.47 309.681L393.353 310.326C393.305 310.354 393.309 310.399 393.36 310.428L394.651 311.174C394.702 311.203 394.781 311.205 394.829 311.178L395.945 310.533C395.993 310.505 395.99 310.459 395.938 310.43L394.647 309.684C394.597 309.655 394.517 309.653 394.47 309.681ZM402.632 304.968L401.515 305.613C401.467 305.641 401.471 305.686 401.522 305.715L402.813 306.462C402.864 306.49 402.944 306.493 402.991 306.465L404.107 305.82C404.155 305.792 404.152 305.747 404.101 305.718L402.81 304.971C402.759 304.943 402.679 304.941 402.632 304.968ZM396.102 308.738L394.985 309.383C394.938 309.411 394.941 309.456 394.992 309.485L396.283 310.231C396.334 310.26 396.413 310.262 396.461 310.235L397.578 309.59C397.625 309.562 397.622 309.516 397.571 309.487L396.28 308.741C396.23 308.712 396.15 308.711 396.102 308.738ZM404.264 304.026L403.148 304.671C403.1 304.699 403.103 304.745 403.154 304.774L404.445 305.52C404.496 305.549 404.576 305.551 404.623 305.523L405.74 304.878C405.787 304.85 405.784 304.805 405.733 304.776L404.442 304.03C404.392 304 404.312 303.998 404.264 304.026ZM400.999 305.911L399.883 306.556C399.835 306.584 399.838 306.629 399.889 306.659L401.18 307.405C401.232 307.433 401.312 307.436 401.358 307.408L402.475 306.763C402.523 306.735 402.519 306.689 402.468 306.661L401.177 305.914C401.127 305.886 401.047 305.883 400.999 305.911ZM399.367 306.853L398.25 307.498C398.203 307.526 398.206 307.571 398.257 307.6L399.548 308.346C399.599 308.375 399.679 308.378 399.726 308.35L400.844 307.705C400.891 307.677 400.888 307.631 400.837 307.601L399.546 306.855C399.495 306.827 399.415 306.826 399.367 306.853ZM397.734 307.796L396.618 308.441C396.57 308.469 396.573 308.514 396.625 308.543L397.916 309.289C397.967 309.319 398.046 309.32 398.094 309.293L399.21 308.648C399.258 308.62 399.254 308.574 399.203 308.544L397.912 307.798C397.862 307.77 397.782 307.768 397.734 307.796ZM406.08 308.944L407.196 308.299C407.244 308.271 407.241 308.225 407.19 308.196L405.899 307.45C405.848 307.421 405.769 307.419 405.721 307.447L404.604 308.092C404.556 308.12 404.56 308.165 404.611 308.194L405.902 308.94C405.952 308.969 406.032 308.97 406.08 308.944ZM420.417 294.7L419.3 295.345C419.253 295.373 419.256 295.418 419.307 295.447L420.598 296.193C420.649 296.222 420.728 296.224 420.776 296.197L421.893 295.552C421.94 295.524 421.937 295.478 421.886 295.449L420.595 294.703C420.544 294.674 420.465 294.673 420.417 294.7ZM418.441 295.841L417.324 296.486C417.277 296.514 417.28 296.559 417.331 296.588L418.622 297.334C418.673 297.363 418.752 297.365 418.8 297.338L419.917 296.693C419.964 296.665 419.961 296.619 419.91 296.589L418.619 295.843C418.568 295.815 418.488 295.814 418.441 295.841ZM422.049 293.758L420.933 294.403C420.885 294.431 420.888 294.476 420.94 294.505L422.231 295.251C422.282 295.28 422.362 295.283 422.409 295.255L423.526 294.61C423.574 294.582 423.571 294.536 423.519 294.506L422.228 293.76C422.176 293.732 422.096 293.73 422.049 293.758ZM413.599 302.471L414.716 301.826C414.764 301.798 414.76 301.752 414.709 301.722L413.418 300.976C413.367 300.947 413.287 300.945 413.24 300.973L412.124 301.618C412.076 301.645 412.079 301.691 412.13 301.72L413.421 302.466C413.473 302.496 413.553 302.498 413.599 302.471ZM423.86 292.818C423.809 292.789 423.728 292.787 423.682 292.815L422.565 293.46C422.518 293.488 422.521 293.533 422.572 293.562L423.863 294.308C423.914 294.337 423.993 294.34 424.041 294.312L425.157 293.667C425.205 293.639 425.202 293.593 425.151 293.565L423.86 292.818ZM407.712 308.001L408.829 307.356C408.877 307.328 408.873 307.282 408.822 307.253L407.531 306.507C407.48 306.478 407.401 306.476 407.353 306.504L406.237 307.149C406.189 307.177 406.192 307.222 406.243 307.251L407.534 307.997C407.584 308.026 407.665 308.028 407.712 308.001ZM427.731 296.442L428.847 295.797C428.895 295.77 428.891 295.724 428.84 295.694L427.549 294.948C427.498 294.918 427.419 294.917 427.371 294.945L426.255 295.59C426.207 295.617 426.21 295.663 426.262 295.692L427.553 296.438C427.604 296.468 427.683 296.47 427.731 296.442ZM424.253 296.32L425.37 295.675C425.418 295.647 425.414 295.602 425.363 295.573L424.072 294.827C424.021 294.798 423.942 294.796 423.894 294.823L422.778 295.468C422.73 295.496 422.733 295.542 422.784 295.571L424.075 296.317C424.125 296.346 424.206 296.348 424.253 296.32ZM425.704 293.884C425.653 293.855 425.574 293.853 425.527 293.88L424.41 294.525C424.362 294.553 424.366 294.599 424.417 294.628L425.708 295.374C425.759 295.404 425.839 295.405 425.886 295.377L427.002 294.732C427.05 294.704 427.047 294.659 426.996 294.63L425.704 293.884ZM426.048 293.686L429.184 295.497C429.235 295.526 429.314 295.528 429.362 295.501L430.478 294.856C430.526 294.828 430.523 294.782 430.472 294.752L427.335 292.941C427.284 292.912 427.203 292.91 427.157 292.937L426.04 293.582C425.995 293.61 425.997 293.656 426.048 293.686ZM422.262 295.765L421.145 296.41C421.097 296.438 421.101 296.484 421.152 296.512L422.444 297.259C422.495 297.289 422.575 297.29 422.622 297.262L423.738 296.617C423.786 296.589 423.783 296.544 423.732 296.515L422.441 295.769C422.389 295.74 422.31 295.739 422.262 295.765ZM409.975 302.859L408.859 303.504C408.811 303.531 408.814 303.577 408.865 303.606L410.157 304.352C410.208 304.381 410.288 304.383 410.334 304.355L411.452 303.71C411.5 303.683 411.496 303.637 411.445 303.607L410.154 302.861C410.103 302.833 410.023 302.831 409.975 302.859ZM425.92 297.382C425.971 297.411 426.05 297.413 426.098 297.385L427.216 296.74C427.262 296.713 427.26 296.667 427.209 296.638L425.918 295.892C425.867 295.862 425.788 295.861 425.74 295.889L424.624 296.534C424.576 296.561 424.579 296.607 424.63 296.636L425.92 297.382ZM411.608 301.917L410.491 302.562C410.443 302.59 410.447 302.635 410.498 302.665L411.789 303.411C411.84 303.441 411.92 303.442 411.967 303.415L413.083 302.77C413.131 302.742 413.128 302.696 413.077 302.667L411.786 301.921C411.736 301.89 411.655 301.889 411.608 301.917ZM399.371 312.709C399.422 312.739 399.502 312.74 399.549 312.712L400.666 312.067C400.713 312.039 400.71 311.994 400.659 311.964L399.368 311.218C399.317 311.189 399.238 311.186 399.19 311.214L398.074 311.859C398.026 311.887 398.029 311.933 398.08 311.961L399.371 312.709ZM396.916 310.398L395.799 311.043C395.752 311.07 395.755 311.116 395.806 311.145L397.097 311.891C397.148 311.92 397.228 311.923 397.275 311.895L398.392 311.25C398.439 311.222 398.436 311.176 398.385 311.146L397.094 310.4C397.044 310.372 396.964 310.371 396.916 310.398ZM401.183 311.77L402.299 311.125C402.347 311.097 402.344 311.052 402.292 311.022L401.001 310.277C400.95 310.247 400.87 310.246 400.823 310.273L399.707 310.918C399.659 310.946 399.663 310.992 399.714 311.021L401.005 311.767C401.055 311.796 401.135 311.798 401.183 311.77ZM402.815 310.828L403.932 310.183C403.979 310.156 403.976 310.11 403.925 310.081L402.634 309.335C402.583 309.306 402.504 309.304 402.456 309.332L401.338 309.977C401.291 310.004 401.294 310.05 401.345 310.079L402.636 310.825C402.687 310.854 402.767 310.855 402.815 310.828ZM404.448 309.885L405.564 309.24C405.612 309.213 405.608 309.167 405.557 309.137L404.266 308.391C404.215 308.362 404.135 308.36 404.088 308.388L402.972 309.033C402.924 309.06 402.927 309.106 402.979 309.135L404.27 309.881C404.32 309.911 404.4 309.913 404.448 309.885ZM398.548 309.456L397.432 310.101C397.384 310.129 397.387 310.175 397.439 310.205L398.73 310.951C398.781 310.98 398.861 310.982 398.908 310.954L400.024 310.309C400.072 310.281 400.068 310.236 400.017 310.207L398.726 309.461C398.676 309.431 398.596 309.428 398.548 309.456ZM400.181 308.513L399.064 309.158C399.016 309.186 399.02 309.232 399.071 309.26L400.362 310.007C400.413 310.037 400.493 310.038 400.54 310.01L401.656 309.365C401.704 309.337 401.701 309.292 401.65 309.263L400.359 308.517C400.309 308.488 400.229 308.486 400.181 308.513ZM406.71 304.743L405.594 305.388C405.546 305.416 405.549 305.462 405.601 305.492L406.892 306.237C406.943 306.266 407.022 306.268 407.07 306.24L408.186 305.595C408.234 305.568 408.231 305.522 408.179 305.492L406.888 304.746C406.838 304.718 406.758 304.717 406.71 304.743ZM405.078 305.686L403.962 306.331C403.914 306.359 403.917 306.405 403.968 306.434L405.259 307.18C405.31 307.21 405.39 307.211 405.437 307.183L406.554 306.538C406.601 306.51 406.598 306.465 406.547 306.435L405.256 305.689C405.206 305.661 405.126 305.659 405.078 305.686ZM408.343 303.802L407.226 304.447C407.179 304.474 407.182 304.52 407.233 304.549L408.524 305.295C408.575 305.325 408.655 305.326 408.702 305.298L409.818 304.653C409.866 304.626 409.863 304.58 409.812 304.551L408.521 303.805C408.471 303.776 408.391 303.774 408.343 303.802ZM401.813 307.571L400.696 308.216C400.648 308.244 400.651 308.29 400.702 308.319L401.993 309.065C402.044 309.094 402.125 309.096 402.171 309.068L403.288 308.423C403.336 308.395 403.332 308.35 403.281 308.321L401.99 307.575C401.941 307.546 401.861 307.544 401.813 307.571ZM403.446 306.628L402.329 307.273C402.281 307.301 402.285 307.347 402.336 307.376L403.627 308.122C403.678 308.151 403.758 308.153 403.805 308.125L404.921 307.48C404.969 307.452 404.966 307.407 404.915 307.378L403.624 306.632C403.573 306.603 403.493 306.602 403.446 306.628ZM402.255 313.281L403.371 312.636C403.419 312.609 403.416 312.563 403.364 312.534L402.073 311.788C402.022 311.759 401.942 311.757 401.895 311.785L400.779 312.43C400.731 312.457 400.735 312.503 400.786 312.533L402.077 313.279C402.127 313.308 402.207 313.309 402.255 313.281ZM392.675 312.315L391.384 311.569C391.333 311.54 391.252 311.538 391.206 311.566L390.089 312.211C390.042 312.238 390.045 312.284 390.096 312.313L391.387 313.059C391.438 313.089 391.518 313.09 391.565 313.062L392.681 312.417C392.728 312.391 392.726 312.344 392.675 312.315ZM395.121 313.032L393.83 312.287C393.779 312.257 393.699 312.256 393.652 312.284L391.934 313.276C391.886 313.304 391.89 313.349 391.941 313.378L393.232 314.124C393.283 314.153 393.362 314.155 393.41 314.128L395.128 313.136C395.175 313.108 395.172 313.062 395.121 313.032ZM390.693 310.873L389.402 310.128C389.351 310.099 389.271 310.097 389.224 310.124L387.85 310.918C387.802 310.946 387.805 310.992 387.856 311.021L389.147 311.767C389.199 311.796 389.279 311.798 389.325 311.77L390.7 310.976C390.747 310.948 390.744 310.903 390.693 310.873ZM391.747 310.265C391.798 310.294 391.877 310.296 391.925 310.268L393.042 309.623C393.09 309.595 393.086 309.55 393.035 309.521L391.744 308.774C391.693 308.744 391.613 308.743 391.566 308.771L390.45 309.416C390.402 309.444 390.405 309.49 390.456 309.52L391.747 310.265ZM397.395 313.85L396.104 313.104C396.053 313.075 395.973 313.072 395.926 313.1L393.778 314.34C393.73 314.368 393.733 314.413 393.785 314.442L395.076 315.189C395.127 315.217 395.206 315.22 395.253 315.192L397.402 313.952C397.45 313.925 397.446 313.88 397.395 313.85ZM398.467 315.362L397.176 314.616C397.125 314.587 397.046 314.585 396.998 314.612L395.624 315.406C395.576 315.434 395.579 315.48 395.63 315.509L396.921 316.255C396.973 316.284 397.053 316.286 397.099 316.258L398.474 315.464C398.522 315.438 398.518 315.391 398.467 315.362ZM403.885 303.258C403.936 303.287 404.015 303.289 404.063 303.261L405.179 302.616C405.227 302.588 405.224 302.543 405.173 302.514L403.881 301.768C403.83 301.739 403.75 301.737 403.704 301.764L402.587 302.409C402.539 302.437 402.543 302.483 402.594 302.512L403.885 303.258ZM400.62 305.143C400.671 305.172 400.75 305.174 400.798 305.146L401.915 304.501C401.963 304.473 401.96 304.428 401.909 304.399L400.618 303.653C400.567 303.624 400.488 303.622 400.44 303.649L399.323 304.294C399.276 304.322 399.279 304.368 399.33 304.398L400.62 305.143ZM393.38 309.323C393.431 309.352 393.511 309.354 393.558 309.326L394.674 308.681C394.722 308.653 394.719 308.608 394.667 308.579L393.376 307.833C393.325 307.804 393.245 307.802 393.199 307.829L392.082 308.474C392.034 308.502 392.038 308.548 392.089 308.577L393.38 309.323ZM402.251 304.2C402.302 304.23 402.383 304.231 402.429 304.203L403.546 303.558C403.593 303.53 403.59 303.485 403.539 303.456L402.248 302.71C402.197 302.681 402.118 302.679 402.07 302.706L400.954 303.351C400.906 303.379 400.909 303.425 400.96 303.455L402.251 304.2ZM398.988 306.085C399.039 306.114 399.118 306.116 399.166 306.088L400.282 305.443C400.33 305.415 400.326 305.37 400.275 305.34L398.984 304.593C398.933 304.564 398.853 304.562 398.806 304.59L397.69 305.235C397.642 305.263 397.645 305.308 397.697 305.338L398.988 306.085ZM399.365 315.483C399.313 315.454 399.233 315.452 399.187 315.48L397.469 316.472C397.421 316.5 397.424 316.545 397.475 316.574L398.766 317.32C398.817 317.349 398.898 317.351 398.944 317.324L400.662 316.332C400.71 316.304 400.707 316.258 400.656 316.229L399.365 315.483ZM396.645 307.438C396.696 307.467 396.775 307.469 396.823 307.441L397.939 306.796C397.987 306.768 397.983 306.723 397.932 306.694L396.641 305.948C396.59 305.918 396.51 305.917 396.463 305.944L395.347 306.589C395.299 306.617 395.302 306.663 395.354 306.692L396.645 307.438ZM395.012 308.38C395.063 308.409 395.143 308.411 395.19 308.383L396.307 307.738C396.354 307.71 396.351 307.665 396.3 307.636L395.009 306.89C394.958 306.86 394.878 306.859 394.831 306.886L393.714 307.531C393.667 307.559 393.67 307.605 393.721 307.634L395.012 308.38ZM429.608 298.023C429.556 297.994 429.478 297.991 429.43 298.019L426.681 299.606C426.633 299.634 426.636 299.679 426.688 299.708L427.98 300.455C428.031 300.483 428.11 300.486 428.158 300.458L430.906 298.871C430.954 298.843 430.951 298.798 430.9 298.769L429.608 298.023ZM425.999 300.105C425.948 300.076 425.868 300.074 425.821 300.102L424.705 300.747C424.657 300.775 424.66 300.82 424.711 300.85L426.003 301.597C426.054 301.625 426.134 301.628 426.18 301.6L427.297 300.955C427.345 300.927 427.341 300.882 427.29 300.851L425.999 300.105ZM403.887 312.34L405.004 311.695C405.051 311.667 405.048 311.621 404.997 311.591L403.706 310.845C403.655 310.816 403.575 310.814 403.528 310.842L402.411 311.487C402.364 311.514 402.367 311.56 402.418 311.589L403.709 312.335C403.759 312.365 403.839 312.367 403.887 312.34ZM422.734 301.99C422.683 301.961 422.603 301.959 422.556 301.987L421.44 302.632C421.392 302.66 421.395 302.705 421.447 302.735L422.738 303.481C422.789 303.51 422.869 303.513 422.916 303.485L424.032 302.84C424.08 302.812 424.077 302.766 424.025 302.737L422.734 301.99ZM431.24 297.08C431.189 297.05 431.11 297.048 431.062 297.076L429.946 297.721C429.898 297.749 429.901 297.795 429.952 297.824L431.243 298.57C431.295 298.599 431.375 298.601 431.421 298.573L432.538 297.928C432.586 297.9 432.582 297.855 432.531 297.826L431.24 297.08ZM434.163 296.883L431.027 295.071C430.975 295.042 430.896 295.04 430.849 295.068L429.732 295.713C429.684 295.741 429.688 295.786 429.739 295.815L432.876 297.627C432.927 297.656 433.006 297.658 433.054 297.63L434.17 296.985C434.218 296.958 434.215 296.913 434.163 296.883ZM416.634 305.512C416.583 305.483 416.503 305.481 416.456 305.509L415.082 306.303C415.034 306.33 415.037 306.376 415.088 306.406L416.379 307.152C416.43 307.181 416.509 307.183 416.557 307.155L417.932 306.361C417.979 306.334 417.976 306.288 417.925 306.259L416.634 305.512ZM420.758 303.131C420.707 303.102 420.627 303.1 420.58 303.128L418.862 304.12C418.815 304.147 418.818 304.193 418.869 304.222L420.16 304.968C420.211 304.997 420.29 304.999 420.338 304.971L422.056 303.98C422.104 303.952 422.1 303.906 422.049 303.877L420.758 303.131ZM412.854 307.695C412.803 307.666 412.723 307.664 412.676 307.691L403.483 312.999C403.436 313.027 403.439 313.072 403.49 313.101L404.781 313.847C404.832 313.876 404.911 313.879 404.959 313.851L414.152 308.543C414.2 308.515 414.196 308.47 414.145 308.44L412.854 307.695ZM403.145 313.3C403.094 313.271 403.014 313.269 402.967 313.297L401.593 314.091C401.545 314.119 401.549 314.164 401.6 314.193L402.891 314.939C402.942 314.968 403.022 314.971 403.069 314.943L404.443 314.149C404.491 314.121 404.488 314.075 404.436 314.046L403.145 313.3ZM414.744 306.604C414.692 306.575 414.612 306.573 414.566 306.601L413.191 307.395C413.143 307.422 413.147 307.468 413.198 307.497L414.489 308.243C414.54 308.273 414.62 308.274 414.667 308.246L416.041 307.452C416.089 307.425 416.086 307.379 416.035 307.35L414.744 306.604ZM401.255 314.391C401.204 314.362 401.125 314.36 401.077 314.388L399.703 315.182C399.655 315.21 399.658 315.255 399.709 315.285L401 316.031C401.051 316.06 401.13 316.063 401.178 316.035L402.553 315.241C402.6 315.213 402.597 315.167 402.546 315.137L401.255 314.391ZM418.524 304.421C418.473 304.392 418.394 304.39 418.346 304.418L416.972 305.212C416.924 305.239 416.927 305.285 416.979 305.314L418.27 306.06C418.321 306.089 418.401 306.091 418.448 306.063L419.822 305.269C419.87 305.242 419.867 305.196 419.815 305.167L418.524 304.421ZM424.367 301.048C424.316 301.019 424.236 301.017 424.189 301.045L423.072 301.69C423.025 301.718 423.028 301.763 423.079 301.792L424.37 302.538C424.421 302.567 424.5 302.57 424.548 302.542L425.664 301.897C425.712 301.869 425.709 301.823 425.658 301.793L424.367 301.048ZM427.943 298.451L429.059 297.806C429.107 297.778 429.104 297.732 429.053 297.703L427.762 296.957C427.711 296.928 427.632 296.926 427.584 296.954L426.467 297.599C426.42 297.627 426.423 297.672 426.474 297.701L427.765 298.447C427.816 298.476 427.896 298.477 427.943 298.451ZM420.645 298.403L421.761 297.758C421.809 297.73 421.806 297.685 421.755 297.654L420.464 296.909C420.412 296.881 420.332 296.878 420.286 296.906L419.169 297.551C419.121 297.579 419.125 297.624 419.176 297.653L420.467 298.398C420.517 298.428 420.597 298.431 420.645 298.403ZM416.946 304.799L420.211 302.914C420.259 302.886 420.256 302.841 420.205 302.812L418.914 302.066C418.862 302.037 418.783 302.035 418.736 302.062L415.471 303.947C415.423 303.975 415.426 304.021 415.477 304.05L416.768 304.796C416.818 304.826 416.899 304.827 416.946 304.799ZM426.133 299.389C426.184 299.418 426.264 299.42 426.311 299.393L427.427 298.748C427.475 298.72 427.471 298.674 427.42 298.644L426.129 297.898C426.078 297.869 425.998 297.867 425.951 297.895L424.834 298.54C424.786 298.567 424.789 298.613 424.84 298.642L426.133 299.389ZM424.466 298.327L425.582 297.682C425.63 297.655 425.627 297.609 425.576 297.58L424.284 296.834C424.233 296.804 424.153 296.803 424.107 296.831L422.99 297.475C422.942 297.503 422.946 297.549 422.997 297.578L424.288 298.324C424.339 298.353 424.418 298.355 424.466 298.327ZM415.313 305.742L416.43 305.097C416.478 305.069 416.475 305.024 416.424 304.995L415.133 304.249C415.082 304.22 415.002 304.218 414.955 304.245L413.838 304.89C413.791 304.918 413.794 304.964 413.845 304.993L415.136 305.739C415.186 305.768 415.266 305.77 415.313 305.742ZM422.524 301.472C422.575 301.502 422.655 301.503 422.702 301.475L423.819 300.83C423.866 300.803 423.863 300.757 423.812 300.728L422.521 299.982C422.47 299.953 422.39 299.951 422.343 299.979L421.226 300.624C421.179 300.651 421.182 300.697 421.233 300.727L422.524 301.472ZM407.152 310.455L408.268 309.81C408.316 309.782 408.313 309.736 408.262 309.707L406.971 308.961C406.919 308.932 406.839 308.93 406.793 308.958L405.676 309.603C405.628 309.631 405.632 309.676 405.683 309.705L406.974 310.451C407.024 310.48 407.104 310.483 407.152 310.455ZM408.784 309.512L409.901 308.867C409.949 308.839 409.945 308.793 409.894 308.764L408.603 308.018C408.552 307.989 408.473 307.987 408.425 308.015L407.309 308.66C407.261 308.688 407.264 308.733 407.315 308.762L408.606 309.508C408.656 309.537 408.736 309.54 408.784 309.512ZM405.519 311.397L406.636 310.752C406.684 310.724 406.68 310.678 406.629 310.649L405.338 309.903C405.287 309.874 405.207 309.872 405.16 309.9L404.044 310.545C403.996 310.573 403.999 310.618 404.051 310.648L405.342 311.394C405.392 311.422 405.472 311.424 405.519 311.397ZM412.048 307.627L413.164 306.982C413.212 306.954 413.209 306.909 413.158 306.879L411.867 306.132C411.816 306.103 411.736 306.101 411.689 306.129L410.572 306.774C410.525 306.802 410.528 306.847 410.579 306.876L411.87 307.622C411.921 307.653 412.001 307.655 412.048 307.627ZM410.416 308.57L411.532 307.925C411.58 307.897 411.577 307.852 411.525 307.823L410.234 307.076C410.183 307.048 410.103 307.045 410.056 307.073L408.94 307.718C408.892 307.746 408.895 307.791 408.947 307.82L410.238 308.567C410.289 308.595 410.369 308.597 410.416 308.57ZM413.682 306.685L414.798 306.04C414.846 306.012 414.842 305.967 414.791 305.938L413.5 305.192C413.449 305.163 413.369 305.161 413.322 305.188L412.206 305.833C412.158 305.861 412.161 305.907 412.213 305.936L413.504 306.682C413.554 306.711 413.634 306.712 413.682 306.685ZM421.15 292.743C421.201 292.772 421.281 292.774 421.328 292.746L422.444 292.101C422.492 292.073 422.489 292.028 422.437 291.999L422.094 291.8C422.043 291.771 421.963 291.769 421.916 291.797L420.799 292.441C420.753 292.469 420.755 292.515 420.806 292.544L421.15 292.743ZM413.118 297.927C413.169 297.957 413.249 297.958 413.296 297.93L414.412 297.285C414.46 297.258 414.457 297.212 414.405 297.182L413.114 296.437C413.063 296.407 412.983 296.406 412.937 296.432L411.82 297.077C411.772 297.105 411.776 297.151 411.827 297.181L413.118 297.927ZM416.383 296.042C416.434 296.071 416.513 296.073 416.561 296.045L417.677 295.4C417.725 295.373 417.721 295.327 417.67 295.297L416.379 294.551C416.328 294.522 416.248 294.52 416.201 294.548L415.084 295.193C415.036 295.22 415.039 295.266 415.09 295.295L416.383 296.042ZM411.124 299.078C411.175 299.107 411.255 299.109 411.302 299.081L412.418 298.436C412.466 298.408 412.463 298.363 412.412 298.333L411.121 297.587C411.069 297.558 410.989 297.556 410.943 297.583L409.826 298.228C409.778 298.256 409.782 298.302 409.833 298.332L411.124 299.078ZM414.75 296.984C414.801 297.013 414.881 297.015 414.928 296.987L416.045 296.342C416.092 296.315 416.089 296.269 416.038 296.24L414.747 295.494C414.696 295.464 414.616 295.463 414.569 295.491L413.452 296.136C413.405 296.163 413.408 296.209 413.459 296.239L414.75 296.984ZM407.859 300.963C407.91 300.992 407.989 300.994 408.037 300.966L409.153 300.321C409.201 300.293 409.198 300.248 409.147 300.218L407.856 299.472C407.805 299.443 407.725 299.44 407.678 299.468L406.561 300.113C406.514 300.141 406.517 300.187 406.568 300.217L407.859 300.963ZM409.492 300.02C409.543 300.049 409.622 300.051 409.669 300.023L410.786 299.378C410.834 299.35 410.83 299.305 410.779 299.276L409.488 298.53C409.437 298.501 409.358 298.499 409.31 298.526L408.194 299.171C408.146 299.199 408.149 299.245 408.201 299.275L409.492 300.02ZM417.885 294.628C417.936 294.657 418.016 294.659 418.063 294.631L419.179 293.986C419.227 293.958 419.224 293.913 419.173 293.884L418.829 293.686C418.778 293.657 418.698 293.655 418.651 293.682L417.535 294.327C417.487 294.355 417.49 294.401 417.541 294.43L417.885 294.628ZM422.782 291.8C422.833 291.829 422.912 291.831 422.96 291.803L424.077 291.158C424.124 291.13 424.121 291.085 424.07 291.056L423.726 290.857C423.675 290.828 423.595 290.826 423.548 290.854L422.432 291.498C422.384 291.526 422.387 291.572 422.439 291.602L422.782 291.8ZM425.494 293.367C425.545 293.396 425.626 293.398 425.672 293.37L426.789 292.725C426.837 292.697 426.833 292.652 426.782 292.623L425.491 291.877C425.44 291.848 425.36 291.845 425.313 291.873L424.197 292.518C424.149 292.546 424.152 292.592 424.203 292.62L425.494 293.367ZM429.575 297.508L430.692 296.863C430.74 296.835 430.736 296.789 430.685 296.76L429.394 296.014C429.343 295.985 429.263 295.983 429.216 296.011L428.1 296.656C428.052 296.684 428.055 296.729 428.106 296.758L429.397 297.504C429.449 297.533 429.529 297.536 429.575 297.508ZM419.517 293.685C419.568 293.715 419.647 293.716 419.695 293.688L420.813 293.043C420.861 293.015 420.857 292.97 420.806 292.941L420.463 292.742C420.411 292.713 420.331 292.711 420.285 292.738L419.168 293.383C419.12 293.411 419.124 293.457 419.175 293.486L419.517 293.685ZM406.227 301.905C406.278 301.935 406.358 301.936 406.405 301.908L407.521 301.263C407.569 301.235 407.566 301.19 407.514 301.16L406.223 300.413C406.172 300.384 406.092 300.382 406.045 300.41L404.928 301.055C404.88 301.083 404.883 301.128 404.935 301.157L406.227 301.905Z" fill="#55B45C"/>
<path d="M405.431 291.784L392.085 299.493L392.019 299.458L386.981 296.545C386.114 296.044 385.558 294.832 385.747 293.854L387.637 284.068L398.757 275.072L400.981 276.362L399.102 286.148C398.913 287.126 399.458 288.338 400.325 288.839L405.431 291.784Z" fill="#455A64"/>
<path d="M392.085 299.493V302.06L385.113 298.035C383.801 297.29 382.967 295.455 383.256 293.976L385.402 282.789L387.637 284.068L385.747 293.854C385.558 294.832 386.114 296.044 386.981 296.545L392.019 299.458L392.085 299.493Z" fill="#263238"/>
<path d="M405.432 291.784L392.085 299.493L392.087 302.065L405.434 294.353L405.432 291.784Z" fill="#37474F"/>
<path d="M417.689 226.872C418.304 227.227 418.802 228.129 418.802 228.885V269.847C418.802 270.603 418.271 271.524 417.616 271.902L366.558 301.38C365.903 301.758 364.874 301.777 364.259 301.422C363.644 301.067 363.146 300.165 363.146 299.409V258.448C363.146 257.692 363.677 256.771 364.332 256.393L415.389 226.915C416.044 226.537 417.074 226.518 417.689 226.872Z" fill="#455A64"/>
<path d="M366.557 301.38C365.902 301.758 364.873 301.777 364.258 301.422C363.643 301.067 363.145 300.165 363.145 299.409V258.448C363.145 258.07 363.278 257.65 363.493 257.278L403.218 280.213L366.557 301.38Z" fill="#263238"/>
<path d="M418.801 269.847V228.885C418.801 228.128 418.27 227.822 417.615 228.2L366.557 257.678C365.902 258.056 365.371 258.977 365.371 259.733V300.695C365.371 301.452 365.902 301.758 366.557 301.38L417.615 271.902C418.271 271.524 418.801 270.603 418.801 269.847Z" fill="#37474F"/>
<path d="M415.895 230.489L367.434 258.459C366.91 258.761 366.484 259.497 366.484 260.103V296.471C366.484 297.076 366.909 297.322 367.434 297.02L415.896 269.049C416.419 268.747 416.845 268.011 416.845 267.405V231.037C416.844 230.431 416.419 230.185 415.895 230.489Z" fill="white"/>
<path d="M348.144 363.162L319.403 346.58C318.606 346.12 317.958 345 317.958 344.078L317.955 326.55C317.955 325.629 318.601 324.508 319.4 324.048L339.1 312.678C339.897 312.217 341.191 312.217 341.989 312.678L370.713 329.261C371.51 329.721 372.157 330.841 372.158 331.763L372.168 349.29C372.168 350.211 371.522 351.332 370.725 351.792L351.035 363.161C350.235 363.623 348.942 363.623 348.144 363.162Z" fill="#263238"/>
<path d="M351.024 342.301L370.711 330.93C371.508 330.47 371.508 329.722 370.711 329.262L341.986 312.679C341.189 312.218 339.895 312.218 339.097 312.679L319.397 324.049C318.6 324.509 318.6 325.255 319.397 325.717L348.134 342.302C348.933 342.763 350.226 342.762 351.024 342.301Z" fill="#455A64"/>
<path d="M349.585 342.648V363.509C349.062 363.509 348.539 363.387 348.139 363.165L319.405 346.585C318.604 346.118 317.959 345.006 317.959 344.083L317.948 326.547C317.948 325.777 318.425 324.88 319.046 324.33C318.64 324.78 318.75 325.341 319.394 325.713L348.139 342.304C348.539 342.526 349.051 342.648 349.585 342.648Z" fill="#37474F"/>
<path d="M326.595 325.108C327.111 324.804 327.961 324.806 328.492 325.113L349.152 337.04C349.684 337.347 349.697 337.843 349.181 338.147C348.665 338.45 347.815 338.448 347.284 338.141L326.625 326.214C326.093 325.907 326.079 325.412 326.595 325.108Z" fill="#37474F"/>
<path d="M326.595 325.108C327.111 324.804 327.961 324.806 328.492 325.113L341.07 332.376L339.201 333.477L326.624 326.214C326.093 325.907 326.079 325.412 326.595 325.108Z" fill="#55B45C"/>
<path d="M330.178 323.039C330.694 322.736 331.544 322.738 332.075 323.045L352.735 334.972C353.267 335.279 353.28 335.774 352.764 336.079C352.248 336.382 351.398 336.38 350.867 336.073L330.208 324.146C329.676 323.839 329.662 323.343 330.178 323.039Z" fill="#37474F"/>
<path d="M330.178 323.039C330.694 322.736 331.544 322.738 332.076 323.044L333.762 324.013L331.893 325.114L330.208 324.145C329.676 323.838 329.662 323.343 330.178 323.039Z" fill="#55B45C"/>
<path d="M333.761 320.97C334.277 320.666 335.127 320.669 335.658 320.975L356.318 332.903C356.85 333.21 356.863 333.706 356.347 334.009C355.831 334.313 354.982 334.311 354.45 334.004L333.791 322.076C333.259 321.769 333.245 321.275 333.761 320.97Z" fill="#37474F"/>
<path d="M333.761 320.97C334.277 320.666 335.126 320.669 335.658 320.975L342.963 325.193L341.093 326.294L333.79 322.076C333.258 321.769 333.245 321.275 333.761 320.97Z" fill="#55B45C"/>
<path d="M337.345 318.902C337.861 318.598 338.71 318.6 339.242 318.907L359.902 330.834C360.433 331.141 360.447 331.637 359.931 331.941C359.415 332.244 358.565 332.242 358.034 331.935L337.375 320.008C336.842 319.701 336.83 319.205 337.345 318.902Z" fill="#37474F"/>
<path d="M337.345 318.902C337.861 318.598 338.711 318.6 339.242 318.907L354.037 327.448L352.168 328.549L337.373 320.008C336.842 319.701 336.83 319.205 337.345 318.902Z" fill="#55B45C"/>
<path d="M340.928 316.832C341.444 316.529 342.293 316.531 342.825 316.838L363.485 328.765C364.016 329.072 364.03 329.567 363.514 329.871C362.998 330.175 362.148 330.173 361.616 329.866L340.958 317.939C340.425 317.632 340.412 317.137 340.928 316.832Z" fill="#37474F"/>
<path d="M340.928 316.832C341.444 316.529 342.293 316.531 342.825 316.838L361.433 327.575L359.564 328.676L340.956 317.939C340.425 317.632 340.412 317.137 340.928 316.832Z" fill="#55B45C"/>
<path d="M351.837 357.459V353.907C351.837 352.986 352.343 351.948 352.967 351.588C353.591 351.227 354.097 351.682 354.097 352.604V356.156C354.097 357.076 353.591 358.116 352.967 358.475C352.343 358.835 351.837 358.38 351.837 357.459Z" fill="#37474F"/>
<path d="M353.022 352.121C352.608 352.359 352.273 352.94 352.273 353.418C352.273 353.895 352.608 354.088 353.022 353.85C353.435 353.612 353.77 353.031 353.77 352.554C353.77 352.077 353.434 351.882 353.022 352.121Z" fill="#55B45C"/>
<path d="M355.402 355.413V351.861C355.402 350.94 355.908 349.902 356.532 349.542C357.156 349.181 357.662 349.636 357.662 350.558V354.11C357.662 355.03 357.156 356.069 356.532 356.429C355.908 356.79 355.402 356.335 355.402 355.413Z" fill="#37474F"/>
<path d="M356.531 354.166C356.117 354.405 355.783 354.985 355.783 355.463C355.783 355.94 356.117 356.134 356.531 355.894C356.945 355.655 357.279 355.075 357.279 354.598C357.281 354.122 356.945 353.928 356.531 354.166Z" fill="#55B45C"/>
<path d="M421.975 399.287C422.398 399.848 422.474 401.145 422.904 402.898C423.333 404.65 423.477 406.009 423.191 406.867C422.904 407.726 421.019 409.656 418.707 410.371C416.396 411.086 413.553 410.486 410.801 408.841C408.048 407.197 405.971 405.195 402.051 404.08C398.132 402.964 396.17 402.059 394.314 400.568C392.141 398.823 390.739 396.211 394.897 395.095C399.089 393.97 406.597 395.71 414.822 396.067L421.975 399.287Z" fill="#263238"/>
<path d="M421.975 394.146V400.307C421.975 400.307 421.129 402.355 417.616 402.486C415.474 402.566 413.913 401.585 412.956 400.254V394.146H421.975Z" fill="#FFA8A7"/>
<path d="M410.208 353.839C410.163 361.503 412.359 396.846 412.359 396.846C412.359 396.846 415.493 400.813 422.302 396.846L424.613 357.629L410.208 353.839Z" fill="#37474F"/>
<path d="M403.484 411.334C403.906 411.896 403.983 413.192 404.412 414.945C404.842 416.697 404.986 418.056 404.699 418.915C404.412 419.773 402.528 421.704 400.216 422.419C397.905 423.134 395.062 422.533 392.309 420.889C389.557 419.244 387.48 417.242 383.56 416.127C379.64 415.012 377.679 414.106 375.823 412.615C373.65 410.871 372.248 408.258 376.406 407.142C380.598 406.017 388.106 407.757 396.33 408.114L403.484 411.334Z" fill="#263238"/>
<path d="M403.484 406.192V412.353C403.484 412.353 402.638 414.401 399.125 414.532C396.983 414.611 395.422 413.632 394.464 412.301V406.192H403.484Z" fill="#FFA8A7"/>
<path d="M391.718 365.887C391.673 373.551 393.87 408.892 393.87 408.892C393.87 408.892 397.003 412.859 403.812 408.892L406.123 369.675L391.718 365.887Z" fill="#37474F"/>
<path d="M415.545 438.622C415.545 438.936 415.582 439.223 415.638 439.481C415.777 440.027 416.045 440.434 416.414 440.683L416.442 440.702C417.043 441.09 417.894 441.054 418.828 440.518C420.641 439.472 422.111 436.929 422.111 434.83C422.111 433.812 421.75 433.11 421.185 432.749L421.194 432.74L421.038 432.648H421.029C420.631 432.472 420.159 432.445 419.632 432.593C419.373 432.667 419.105 432.787 418.827 432.944C417.015 433.988 415.545 436.531 415.545 438.622Z" fill="#455A64"/>
<path d="M416.442 431.565C416.96 431.269 417.459 431.121 417.903 431.121C418.245 431.121 418.559 431.214 418.828 431.38L418.912 431.427L421.03 432.648C420.632 432.472 420.16 432.445 419.633 432.593C419.374 432.667 419.106 432.787 418.828 432.944C417.016 433.989 415.546 436.532 415.546 438.622C415.546 438.936 415.582 439.223 415.638 439.481C415.777 440.027 416.045 440.434 416.414 440.683L414.241 439.426L414.204 439.407L414.02 439.296C414.001 439.287 413.983 439.277 413.964 439.258C413.465 438.888 413.159 438.185 413.159 437.242C413.159 435.153 414.629 432.61 416.442 431.565Z" fill="#263238"/>
<path d="M451.061 419.523C451.061 419.838 451.097 420.125 451.153 420.383C451.292 420.929 451.56 421.336 451.93 421.585L451.958 421.604C452.56 421.992 453.41 421.955 454.344 421.419C456.157 420.374 457.627 417.831 457.627 415.731C457.627 414.714 457.267 414.011 456.703 413.651L456.712 413.642L456.555 413.549H456.546C456.148 413.374 455.676 413.346 455.149 413.494C454.89 413.568 454.622 413.688 454.344 413.845C452.532 414.891 451.061 417.434 451.061 419.523Z" fill="#455A64"/>
<path d="M451.958 412.468C452.476 412.172 452.976 412.024 453.419 412.024C453.761 412.024 454.077 412.116 454.344 412.283L454.428 412.329L456.546 413.549C456.148 413.374 455.677 413.346 455.15 413.494C454.89 413.568 454.622 413.688 454.344 413.845C452.532 414.891 451.062 417.434 451.062 419.523C451.062 419.838 451.099 420.125 451.154 420.383C451.293 420.929 451.561 421.336 451.931 421.585L449.759 420.327L449.722 420.308L449.537 420.197C449.518 420.188 449.501 420.178 449.482 420.16C448.982 419.79 448.678 419.087 448.678 418.144C448.676 416.056 450.146 413.513 451.958 412.468Z" fill="#263238"/>
<path d="M444.726 446.079C444.726 446.393 444.689 446.679 444.633 446.938C444.494 447.484 444.226 447.891 443.856 448.14L443.828 448.159C443.227 448.547 442.376 448.511 441.442 447.975C439.629 446.929 438.159 444.386 438.159 442.287C438.159 441.269 438.519 440.567 439.084 440.206L439.075 440.197L439.232 440.105H439.241C439.639 439.929 440.111 439.902 440.638 440.05C440.897 440.123 441.165 440.243 441.443 440.401C443.255 441.445 444.726 443.988 444.726 446.079Z" fill="#455A64"/>
<path d="M443.829 439.022C443.311 438.726 442.812 438.578 442.368 438.578C442.026 438.578 441.712 438.671 441.443 438.837L441.36 438.884L439.241 440.105C439.639 439.929 440.111 439.902 440.638 440.05C440.897 440.123 441.165 440.243 441.443 440.401C443.256 441.446 444.726 443.989 444.726 446.08C444.726 446.395 444.689 446.68 444.633 446.94C444.494 447.486 444.226 447.892 443.856 448.142L446.029 446.884L446.066 446.866L446.25 446.755C446.269 446.746 446.287 446.736 446.306 446.718C446.805 446.348 447.111 445.645 447.111 444.702C447.112 442.61 445.642 440.067 443.829 439.022Z" fill="#263238"/>
<path d="M467.781 434.785C467.781 435.1 467.744 435.387 467.688 435.645C467.549 436.191 467.281 436.598 466.912 436.847L466.884 436.865C466.283 437.253 465.432 437.216 464.498 436.68C462.685 435.635 461.215 433.092 461.215 430.992C461.215 429.975 461.576 429.272 462.141 428.912L462.132 428.903L462.288 428.811H462.297C462.695 428.635 463.167 428.607 463.694 428.755C463.953 428.829 464.221 428.95 464.498 429.106C466.309 430.153 467.781 432.696 467.781 434.785Z" fill="#455A64"/>
<path d="M466.883 427.73C466.365 427.434 465.866 427.286 465.422 427.286C465.079 427.286 464.766 427.378 464.497 427.545L464.413 427.592L462.295 428.813C462.693 428.637 463.165 428.609 463.692 428.757C463.951 428.832 464.219 428.952 464.496 429.109C466.308 430.154 467.778 432.697 467.778 434.786C467.778 435.101 467.741 435.388 467.686 435.646C467.547 436.192 467.279 436.599 466.91 436.848L469.083 435.59L469.119 435.572L469.304 435.46C469.323 435.451 469.341 435.441 469.359 435.422C469.859 435.052 470.165 434.349 470.165 433.406C470.166 431.317 468.696 428.774 466.883 427.73Z" fill="#263238"/>
<path d="M423.216 420.935C423.216 421.25 423.18 421.537 423.124 421.795C422.985 422.34 422.717 422.747 422.347 422.997L422.319 423.016C421.717 423.404 420.867 423.367 419.933 422.831C418.12 421.786 416.65 419.243 416.65 417.143C416.65 416.126 417.01 415.423 417.575 415.063L417.566 415.054L417.723 414.962H417.732C418.13 414.786 418.601 414.758 419.129 414.906C419.388 414.981 419.656 415.1 419.934 415.258C421.746 416.302 423.216 418.845 423.216 420.935Z" fill="#455A64"/>
<path d="M422.319 413.879C421.801 413.583 421.302 413.435 420.858 413.435C420.515 413.435 420.201 413.527 419.933 413.694L419.849 413.741L417.731 414.962C418.129 414.786 418.601 414.758 419.128 414.906C419.387 414.981 419.655 415.1 419.933 415.258C421.745 416.303 423.215 418.846 423.215 420.935C423.215 421.25 423.179 421.537 423.123 421.795C422.984 422.34 422.716 422.747 422.346 422.997L424.519 421.739L424.555 421.72L424.74 421.609C424.759 421.6 424.777 421.59 424.795 421.573C425.295 421.202 425.599 420.499 425.599 419.557C425.603 417.467 424.132 414.924 422.319 413.879Z" fill="#263238"/>
<path d="M442.814 413.995L454.536 410.635V413.138L442.814 419.9V413.995Z" fill="#F5F5F5"/>
<path d="M442.814 413.995L441.659 413.288L453.415 410.076L454.536 410.635L442.814 413.995Z" fill="#FAFAFA"/>
<path d="M437.744 421.467L421.126 415.241V412.707L437.744 414.191V421.467Z" fill="#F5F5F5"/>
<path d="M421.126 412.707L422.347 412.384L438.732 413.443L437.744 414.191L421.126 412.707Z" fill="#FAFAFA"/>
<path d="M437.298 420.666C437.298 422.549 443.079 422.549 443.079 420.666V404.233H437.298V420.666Z" fill="#FAFAFA"/>
<path d="M441.631 416.391L444.81 437.026H442.637L439.665 416.391C440.407 416.602 441.039 416.545 441.631 416.391Z" fill="#FAFAFA"/>
<path d="M439.664 416.391V422.056L442.636 440.519V437.025L439.664 416.391Z" fill="#F5F5F5"/>
<path d="M444.809 437.025H442.636V440.518H444.809V437.025Z" fill="#EBEBEB"/>
<path d="M438.674 421.888L417.246 433.122V429.662L438.674 416.406V421.888Z" fill="#F5F5F5"/>
<path d="M438.674 416.406C438.161 416.333 437.689 416.16 437.298 415.782L415.907 428.758L417.244 429.661L438.674 416.406Z" fill="#FAFAFA"/>
<path d="M417.245 433.122V429.662L415.908 428.759V432.112L417.245 433.122Z" fill="#EBEBEB"/>
<path d="M465.69 429.154L442.797 421.316V416.174L465.69 425.696V429.154Z" fill="#F5F5F5"/>
<path d="M442.797 416.174C442.984 416.124 443.064 415.79 443.079 415.285L466.367 425.417L465.69 425.696L442.797 416.174Z" fill="#FAFAFA"/>
<path d="M466.367 425.417V428.764L465.69 429.154V425.696L466.367 425.417Z" fill="#EBEBEB"/>
<path d="M445.083 375.604H435.294V409.496C435.294 412.31 445.083 412.31 445.083 409.496V375.604Z" fill="#F0F0F0"/>
<path d="M402.496 378.644C402.496 376.897 403.428 375.281 404.941 374.407L439.185 354.638C440.699 353.764 442.563 353.764 444.076 354.638L478.318 374.409C479.831 375.283 480.763 376.898 480.763 378.645L441.631 401.241L402.496 378.644Z" fill="#55B45C"/>
<path d="M402.496 378.642V381.472L439.211 402.667C439.96 403.102 440.792 403.315 441.625 403.315C442.467 403.315 443.299 403.102 444.048 402.667L480.763 381.472V378.642L444.048 399.837C443.299 400.272 442.467 400.494 441.625 400.494C440.793 400.494 439.96 400.271 439.211 399.837L402.496 378.642Z" fill="#FAFAFA"/>
<path d="M402.496 378.642V381.472L439.211 402.667C439.96 403.102 440.792 403.315 441.625 403.315V400.494C440.793 400.494 439.96 400.271 439.211 399.837L402.496 378.642Z" fill="#F5F5F5"/>
<path opacity="0.1" d="M402.496 378.643C402.496 377.871 402.688 377.13 403.02 376.462L440.013 397.82C441.009 398.396 442.238 398.396 443.234 397.821L480.242 376.472C480.572 377.137 480.762 377.875 480.762 378.644L441.63 401.24L402.495 378.644L402.496 378.643Z" fill="black"/>
<path d="M468.917 363.229C468.917 363.229 437.152 353.644 431.63 352.133C426.108 350.621 415.515 348.075 412.419 349.462C409.323 350.848 407.752 352.456 407.467 356.922C407.409 357.762 407.467 361.848 407.467 361.848C407.467 361.848 422.82 366.601 435.399 366.601C447.979 366.6 468.917 363.229 468.917 363.229Z" fill="#263238"/>
<path d="M441.768 309.242L443.879 320.631L455.556 321.979L453.873 306.259L441.768 309.242Z" fill="#FFA8A7"/>
<path d="M430.867 300.148C430.867 300.148 429.334 304.846 429.802 305.135C430.272 305.424 432.357 305.284 432.357 305.284L430.867 300.148Z" fill="#F28F8F"/>
<path d="M433.874 285.09C431.863 287.206 429.952 290.75 430.794 299.724C431.718 309.559 434.657 312.181 435.896 312.758C437.746 313.62 444.043 312.112 446.091 310.603C448.653 308.715 453.479 304.014 454.737 298.221C456.216 291.404 454.323 283.66 449.342 282.094C442.334 279.888 435.577 283.299 433.874 285.09Z" fill="#FFA8A7"/>
<path d="M429.285 289.93C430.48 292.182 432.736 297.784 439.125 299.372C439.125 299.372 439.479 295.553 442.643 295.516C445.827 295.478 446.886 299.375 445.316 302.099C443.744 304.824 441.769 304.195 441.769 304.195C441.769 304.195 442.086 309.557 445.959 311.473C445.959 311.473 450.607 313.591 454.849 310.884C456.758 309.666 458.963 304.388 460.102 300.149C462.51 291.182 462.082 284.316 456.379 282.922C455.18 279.161 453.25 277.953 449.663 277.716C441.942 277.207 436.953 282.922 430.534 282.922C427.185 282.921 427.921 287.356 429.285 289.93Z" fill="#263238"/>
<path d="M456.237 283.559L460.101 281.904C459.644 280.837 458.408 280.343 457.341 280.8C456.274 281.256 455.78 282.491 456.237 283.559Z" fill="#263238"/>
<path d="M468.84 359.412C468.829 365.513 469.414 371.863 466.87 376.334C464.411 380.657 452.799 390.008 439.817 387.823C431.338 386.397 403.933 375.953 403.933 375.953C403.933 375.953 391.804 371.467 391.75 368.277C391.737 367.496 391.665 366.685 391.717 365.84C391.972 361.595 393.688 357.021 402.565 357.256C412.261 357.512 441.028 362.225 441.028 362.225L468.84 359.412Z" fill="#37474F"/>
<path d="M466.582 319.966C465.533 316.779 461.49 313.309 457.443 314.061C450.01 315.442 441.879 317.85 439.724 318.486L439.722 318.485C439.722 318.485 440.689 334.864 432.284 339.822L431.176 360.682C431.176 360.682 433.256 364.836 436.466 366.877C439.937 369.084 444.77 372.393 453.497 371.669C463.857 370.811 468.917 363.227 468.917 363.227C468.917 363.227 468.823 343.517 468.489 334.694C468.207 327.2 467.302 322.155 466.582 319.966Z" fill="#455A64"/>
<path d="M432.07 343.865C432.07 343.865 436.461 339.31 438.007 334.023C438.007 334.023 438.007 341.758 431.984 345.937L432.07 343.865Z" fill="#37474F"/>
<path d="M439.722 318.487C435.134 319.863 432.339 320.113 427.269 327.911C422.2 335.709 411.095 351.18 409.996 353.039C408.466 355.624 407.807 358.703 409.127 361.079C410.36 363.296 413.95 362.325 418.981 357.912C423.846 353.644 433.484 341.571 433.484 341.571C433.484 341.571 438.51 330.568 439.722 318.487Z" fill="#FFA8A7"/>
<path d="M439.721 318.487C439.721 318.487 435.63 319.343 433.088 320.587C432.307 320.97 429.727 321.958 428.073 324.706C424.526 330.599 419.455 338.988 419.455 338.988C419.455 338.988 418.589 346.294 427.461 348.839L432.179 343.747C434.103 341.672 435.709 339.32 436.88 336.745C438.88 332.351 441.159 325.378 439.721 318.487Z" fill="#455A64"/>
<path d="M410.672 362.171C406.428 361.656 396.916 348.621 393.745 344.477C390.572 340.332 387.922 337.875 385.06 336.306C382.198 334.735 379.727 332.262 378.947 327.269C378.222 322.621 382.554 319.658 386.095 324.33C388.344 327.297 390.613 329.172 390.734 328.677C390.854 328.182 390.034 326.116 390.054 323.965C390.079 321.375 391.891 323.077 392.433 323.985C392.974 324.892 393.607 326.37 394.346 328.264C395.252 330.581 394.878 332.927 395.979 334.507C397.081 336.088 411.868 350.256 411.868 350.256L410.672 362.171Z" fill="#FFA8A7"/>
<path d="M482.663 322.141V365.877L447.942 385.999V342.285L482.663 322.141Z" fill="#55B45C"/>
<path opacity="0.1" d="M482.663 322.141V365.877L447.942 385.999V342.285L482.663 322.141Z" fill="black"/>
<path d="M444.786 384.176L447.943 385.998C447.943 385.998 447.943 351.512 447.943 345.908C447.943 344.008 448.519 343.064 449.28 342.645C451.926 341.016 455.425 344.478 455.425 344.478L455.435 341.565L488.977 322.142C485.821 320.319 483.75 319.124 477.383 322.737C471.015 326.35 452.326 337.155 449.37 338.979C447.001 340.441 444.788 342.143 444.788 346.115C444.787 352.998 444.786 384.176 444.786 384.176Z" fill="#55B45C"/>
<path opacity="0.4" d="M449.369 338.978C452.281 337.086 471.014 326.35 477.382 322.736C483.749 319.123 485.819 320.318 488.975 322.141L455.434 341.564C454.295 340.311 452.018 338.944 449.369 338.978Z" fill="white"/>
<path d="M455.424 344.476L488.977 324.98V322.141L455.435 341.564L455.424 344.476Z" fill="#55B45C"/>
<path opacity="0.2" d="M455.424 344.476L488.977 324.98V322.141L455.435 341.564L455.424 344.476Z" fill="black"/>
<path d="M455.928 399.913C456.451 399.913 456.972 399.775 457.448 399.501C458.399 398.951 458.967 397.968 458.967 396.871V373.928C458.967 373.069 458.271 372.374 457.412 372.374C456.554 372.374 455.859 373.071 455.859 373.928V396.748L453.387 395.321C452.644 394.891 451.695 395.146 451.264 395.89C450.836 396.633 451.09 397.583 451.834 398.013L454.41 399.501C454.886 399.776 455.406 399.913 455.928 399.913Z" fill="#E6E6E6"/>
<path d="M474.911 388.851C475.434 388.851 475.955 388.714 476.431 388.439C477.382 387.89 477.949 386.907 477.949 385.809V362.867C477.949 362.008 477.253 361.312 476.394 361.312C475.536 361.312 474.841 362.008 474.841 362.867V385.687L472.369 384.259C471.626 383.83 470.676 384.085 470.246 384.829C469.818 385.572 470.072 386.522 470.815 386.952L473.392 388.439C473.868 388.713 474.389 388.851 474.911 388.851Z" fill="#E6E6E6"/>
</svg>
