<svg width="35%" height="35%" viewBox="0 0 556 556" fill="none" xmlns="http://www.w3.org/2000/svg">
<path d="M127.638 459.212C225.306 518.233 383.658 518.235 481.325 459.214C578.993 400.191 578.993 304.5 481.325 245.479C383.657 186.457 225.305 186.457 127.637 245.477C29.9698 304.498 29.9698 400.191 127.638 459.212Z" fill="#D6D6D6"/>
<path d="M490.447 392.375C499.376 397.771 513.852 397.771 522.78 392.375C531.709 386.979 531.709 378.23 522.78 372.836C513.852 367.44 499.376 367.44 490.447 372.836C481.518 378.23 481.518 386.979 490.447 392.375Z" fill="#B7B7B7"/>
<path d="M86.7737 321.237C86.7737 321.237 84.7137 303.116 75.7001 289.052C66.6865 274.989 54.3008 266.211 42.7442 265.297C31.1876 264.383 21.8545 275.015 34.2196 282.317C46.5847 289.618 68.5528 297.069 78.6618 324.378L86.7737 321.237Z" fill="#A9F6AE"/>
<path d="M86.7737 321.237C86.7737 321.237 84.7137 303.116 75.7001 289.052C66.6865 274.989 54.3008 266.211 42.7442 265.297C31.1876 264.383 21.8545 275.015 34.2196 282.317C46.5847 289.618 68.5528 297.069 78.6618 324.378L86.7737 321.237Z" fill="#263238"/>
<path d="M83.3849 316.531C83.4261 316.523 83.4672 316.511 83.5071 316.494C83.8231 316.366 83.9756 316.007 83.846 315.691C71.6516 285.657 48.4343 273.116 37.8618 270.682C37.5314 270.603 37.1997 270.813 37.1223 271.144C37.046 271.477 37.253 271.809 37.5846 271.885C47.9417 274.27 70.699 286.594 82.7023 316.156C82.816 316.432 83.1041 316.582 83.3849 316.531Z" fill="white"/>
<path d="M21.6546 316.885C22.7016 319.244 25.276 320.473 27.6725 321.439C30.0558 322.395 32.6677 323.439 33.9628 325.67C36.5712 330.175 32.2889 336.51 35.0885 340.897C36.2637 342.736 38.4496 343.705 40.598 344.091C42.3833 344.425 44.2013 344.422 46.012 344.575C46.8835 344.557 47.7453 344.494 48.5853 344.375C51.0689 344.014 53.7644 343.898 56.0399 345.169C59.6202 347.182 60.7204 351.703 62.8954 355.19C65.5026 359.364 70.1128 362.097 74.9567 362.756C76.5665 362.969 79.5598 363.258 81.1986 362.344C81.3281 362.273 81.4334 362.206 81.5375 362.129C81.5484 362.126 81.5581 362.113 81.5678 362.1C81.7929 361.846 82.0761 361.522 82.1972 361.347C82.2274 361.318 82.2444 361.279 82.2613 361.24C82.8955 358.904 81.8595 356.473 81.8183 354.059C81.8135 353.907 81.8123 353.765 81.8207 353.621C81.92 350.816 81.9999 348.027 82.0652 345.228C82.1959 340.08 82.254 334.921 82.2189 329.767C82.1838 326.421 82.5869 322.757 81.1708 319.604C79.6021 316.136 75.7035 316.06 74.2293 312.658C73.6386 311.302 73.3252 309.847 72.7539 308.477C71.0485 304.456 66.9175 301.564 62.5444 301.35C55.7385 301.004 49.6286 306.516 42.8288 306.015C41.0677 305.877 39.3514 305.342 37.6169 305.023C32.1025 303.99 25.7299 305.56 22.6302 310.226C21.3338 312.175 20.7069 314.745 21.6546 316.885Z" fill="#37474F"/>
<path d="M82.8166 350.517C82.8324 350.514 82.8481 350.509 82.8626 350.506C83.1713 350.423 83.3564 350.105 83.2729 349.795C73.8672 314.506 36.6859 309.405 27.987 310.035C27.6723 310.06 27.4278 310.336 27.4496 310.656C27.4726 310.975 27.751 311.216 28.0705 311.193C36.5806 310.579 72.9485 315.568 82.1521 350.095C82.2308 350.39 82.5225 350.57 82.8166 350.517Z" fill="white"/>
<path d="M41.506 332.635C41.6186 332.614 41.7263 332.56 41.8135 332.472C41.9067 332.378 51.3887 323.029 67.1162 325.345C67.4333 325.387 67.7299 325.173 67.7758 324.854C67.8231 324.537 67.6028 324.242 67.2856 324.195C50.9505 321.793 41.0848 331.556 40.9868 331.655C40.7605 331.884 40.7641 332.251 40.9904 332.477C41.132 332.614 41.3245 332.667 41.506 332.635Z" fill="white"/>
<path d="M380.112 18.9402L447.013 57.5654C448.248 58.2795 449.251 60.014 449.251 61.441V245.348C449.251 246.775 448.248 248.51 447.013 249.223L380.112 287.849C378.876 288.563 376.872 288.563 375.636 287.849L308.738 249.225C307.502 248.51 306.5 246.776 306.5 245.349V61.441C306.5 60.014 307.502 58.2783 308.738 57.5654L375.637 18.9402C376.873 18.2261 378.876 18.2261 380.112 18.9402Z" fill="#37474F"/>
<path d="M306.502 61.4374V245.348C306.502 246.774 307.506 248.51 308.736 249.223L375.641 287.85C376.251 288.212 377.067 288.387 377.873 288.387V99.3085C377.067 99.3085 376.261 99.1221 375.641 98.7711L308.736 60.1447L308.126 59.6388L307.329 58.9767C306.823 59.7416 306.502 60.6313 306.502 61.4374Z" fill="#263238"/>
<path d="M438.616 79.5409L388.509 108.47C387.274 109.184 386.271 110.918 386.271 112.345L386.273 131.418C386.273 132.845 387.275 133.424 388.511 132.711L438.616 103.782C439.852 103.068 440.854 101.334 440.854 99.9065L440.855 80.8336C440.854 79.4053 439.852 78.828 438.616 79.5409Z" fill="#455A64"/>
<path d="M436.654 87.9457C436.654 89.2843 435.652 90.9486 434.416 91.6615L392.707 115.742C391.471 116.456 390.469 115.949 390.469 114.61C390.469 113.271 391.471 111.607 392.707 110.894L434.416 86.814C435.653 86.0999 436.654 86.607 436.654 87.9457Z" fill="#A9F6AE"/>
<path d="M436.654 97.642C436.654 98.9806 435.652 100.645 434.416 101.358L392.707 125.438C391.471 126.152 390.469 125.645 390.469 124.306C390.469 122.968 391.471 121.303 392.707 120.591L434.416 96.5103C435.653 95.7961 436.654 96.3033 436.654 97.642Z" fill="#263238"/>
<path d="M434.417 96.5103L411.464 109.763V114.61L434.418 101.358C435.654 100.644 436.656 98.9806 436.656 97.642C436.654 96.3033 435.653 95.7961 434.417 96.5103Z" fill="#A9F6AE"/>
<path d="M438.616 113.477L388.509 142.406C387.274 143.12 386.271 144.855 386.271 146.282L386.273 165.355C386.273 166.782 387.275 167.36 388.511 166.646L438.616 137.717C439.852 137.003 440.854 135.269 440.854 133.842L440.855 114.769C440.854 113.343 439.852 112.764 438.616 113.477Z" fill="#455A64"/>
<path d="M436.654 121.882C436.654 123.221 435.652 124.885 434.416 125.598L392.707 149.678C391.471 150.392 390.469 149.885 390.469 148.546C390.469 147.208 391.471 145.543 392.707 144.831L434.416 120.75C435.653 120.036 436.654 120.543 436.654 121.882Z" fill="#A9F6AE"/>
<path d="M436.654 131.578C436.654 132.917 435.652 134.581 434.416 135.294L392.707 159.374C391.471 160.088 390.469 159.581 390.469 158.243C390.469 156.904 391.471 155.24 392.707 154.527L434.416 130.447C435.653 129.732 436.654 130.24 436.654 131.578Z" fill="#263238"/>
<path d="M434.418 130.447L398.868 150.971V155.818L434.418 135.294C435.654 134.58 436.656 132.917 436.656 131.578C436.655 130.24 435.654 129.732 434.418 130.447Z" fill="#A9F6AE"/>
<path d="M438.616 147.415L388.509 176.344C387.274 177.058 386.271 178.792 386.271 180.219L386.273 199.292C386.273 200.719 387.275 201.298 388.511 200.584L438.616 171.655C439.852 170.941 440.854 169.206 440.854 167.779L440.855 148.706C440.854 147.279 439.852 146.701 438.616 147.415Z" fill="#455A64"/>
<path d="M436.654 155.818C436.654 157.157 435.652 158.821 434.416 159.534L392.707 183.614C391.471 184.328 390.469 183.821 390.469 182.483C390.469 181.144 391.471 179.48 392.707 178.767L434.416 154.686C435.653 153.972 436.654 154.479 436.654 155.818Z" fill="#A9F6AE"/>
<path d="M436.654 165.514C436.654 166.853 435.652 168.517 434.416 169.23L392.707 193.31C391.471 194.025 390.469 193.517 390.469 192.179C390.469 190.84 391.471 189.176 392.707 188.463L434.416 164.383C435.653 163.67 436.654 164.176 436.654 165.514Z" fill="#263238"/>
<path d="M434.417 164.383L419.86 172.786V177.634L434.417 169.23C435.653 168.516 436.655 166.853 436.655 165.514C436.654 164.176 435.653 163.67 434.417 164.383Z" fill="#A9F6AE"/>
<path d="M438.616 181.351L388.509 210.28C387.274 210.994 386.271 212.728 386.271 214.155L386.273 233.228C386.273 234.655 387.275 235.234 388.511 234.52L438.616 205.591C439.852 204.877 440.854 203.142 440.854 201.715L440.855 182.642C440.854 181.215 439.852 180.637 438.616 181.351Z" fill="#455A64"/>
<path d="M436.654 189.756C436.654 191.094 435.652 192.759 434.416 193.471L392.707 217.552C391.471 218.266 390.469 217.759 390.469 216.42C390.469 215.081 391.471 213.417 392.707 212.704L434.416 188.624C435.653 187.91 436.654 188.416 436.654 189.756Z" fill="#A9F6AE"/>
<path d="M436.654 199.452C436.654 200.791 435.652 202.455 434.416 203.168L392.707 227.248C391.471 227.962 390.469 227.455 390.469 226.116C390.469 224.778 391.471 223.115 392.707 222.401L434.416 198.32C435.653 197.606 436.654 198.113 436.654 199.452Z" fill="#263238"/>
<path d="M434.417 198.319L411.464 211.571V216.419L434.418 203.167C435.654 202.453 436.656 200.789 436.656 199.451C436.654 198.113 435.653 197.606 434.417 198.319Z" fill="#A9F6AE"/>
<path d="M438.616 215.287L388.509 244.216C387.274 244.93 386.271 246.665 386.271 248.092L386.273 267.165C386.273 268.592 387.275 269.17 388.511 268.457L438.616 239.528C439.852 238.814 440.854 237.08 440.854 235.653L440.855 216.58C440.854 215.153 439.852 214.574 438.616 215.287Z" fill="#455A64"/>
<path d="M436.654 223.692C436.654 225.031 435.652 226.695 434.416 227.408L392.707 251.488C391.471 252.202 390.469 251.695 390.469 250.356C390.469 249.018 391.471 247.353 392.707 246.64L434.416 222.56C435.653 221.846 436.654 222.353 436.654 223.692Z" fill="#A9F6AE"/>
<path d="M436.654 233.388C436.654 234.727 435.652 236.391 434.416 237.104L392.707 261.184C391.471 261.897 390.469 261.391 390.469 260.053C390.469 258.714 391.471 257.05 392.707 256.337L434.416 232.257C435.653 231.542 436.654 232.05 436.654 233.388Z" fill="#263238"/>
<path d="M434.418 232.257L403.066 250.356V255.204L434.417 237.104C435.653 236.391 436.655 234.727 436.655 233.388C436.655 232.05 435.654 231.542 434.418 232.257Z" fill="#A9F6AE"/>
<path d="M367.379 110.984C365.06 109.639 363.18 110.864 363.18 113.718V224.594C363.18 227.448 365.06 230.851 367.379 232.196C369.698 233.541 371.578 232.316 371.578 229.462L371.579 118.585C371.578 115.731 369.698 112.328 367.379 110.984Z" fill="#37474F"/>
<path d="M367.378 229.743C366.218 229.073 365.279 227.374 365.279 225.947L365.28 114.76C365.28 113.333 366.219 112.718 367.379 113.388C368.538 114.057 369.479 115.756 369.478 117.183L369.476 228.37C369.478 229.797 368.537 230.412 367.378 229.743Z" fill="#263238"/>
<path d="M367.378 229.743C366.218 229.073 365.279 227.374 365.279 225.947L365.28 172.788L369.479 175.212L369.478 228.371C369.478 229.797 368.537 230.412 367.378 229.743Z" fill="#A9F6AE"/>
<path d="M354.783 103.712C352.464 102.367 350.584 103.592 350.584 106.446V217.322C350.584 220.176 352.464 223.579 354.783 224.924C357.102 226.269 358.981 225.044 358.981 222.19L358.983 111.313C358.982 108.46 357.102 105.057 354.783 103.712Z" fill="#37474F"/>
<path d="M354.783 222.471C353.623 221.801 352.684 220.102 352.684 218.675V107.488C352.684 106.061 353.625 105.446 354.784 106.116C355.944 106.785 356.883 108.484 356.883 109.911L356.882 221.098C356.882 222.525 355.941 223.14 354.783 222.471Z" fill="#A9F6AE"/>
<path d="M342.188 96.44C339.868 95.0953 337.989 96.3202 337.989 99.1742V210.05C337.989 212.904 339.868 216.307 342.188 217.652C344.507 218.997 346.386 217.772 346.386 214.918L346.387 104.041C346.386 101.188 344.505 97.7847 342.188 96.44Z" fill="#37474F"/>
<path d="M342.186 215.199C341.027 214.529 340.087 212.83 340.087 211.403L340.089 100.216C340.089 98.7893 341.028 98.1745 342.187 98.8438C343.347 99.5131 344.287 101.212 344.286 102.639L344.285 213.826C344.285 215.253 343.346 215.868 342.186 215.199Z" fill="#263238"/>
<path d="M342.186 215.199C341.027 214.529 340.087 212.83 340.087 211.403L340.089 125.519L344.287 127.943L344.286 213.829C344.285 215.253 343.346 215.868 342.186 215.199Z" fill="#A9F6AE"/>
<path d="M329.592 89.1681C327.273 87.8234 325.393 89.0483 325.393 91.9023V202.778C325.393 205.632 327.273 209.036 329.592 210.38C331.911 211.725 333.791 210.5 333.791 207.646L333.792 96.7692C333.791 93.9164 331.911 90.5128 329.592 89.1681Z" fill="#37474F"/>
<path d="M329.59 207.927C328.431 207.258 327.492 205.558 327.492 204.131V92.9445C327.492 91.5175 328.432 90.9026 329.592 91.5719C330.751 92.2413 331.692 93.9406 331.692 95.3676L331.69 206.554C331.69 207.981 330.75 208.596 329.59 207.927Z" fill="#263238"/>
<path d="M329.59 207.927C328.431 207.258 327.492 205.558 327.492 204.131V185.366L331.69 187.79L331.689 206.556C331.69 207.981 330.75 208.596 329.59 207.927Z" fill="#A9F6AE"/>
<path d="M316.995 81.8963C314.676 80.5515 312.796 81.7764 312.796 84.6305V195.506C312.796 198.36 314.676 201.764 316.995 203.108C319.314 204.453 321.194 203.228 321.194 200.374L321.195 89.4974C321.194 86.6445 319.314 83.241 316.995 81.8963Z" fill="#37474F"/>
<path d="M316.995 200.655C315.836 199.986 314.896 198.286 314.896 196.859L314.898 85.6726C314.898 84.2456 315.837 83.6307 316.996 84.3C318.156 84.9694 319.096 86.6687 319.095 88.0957L319.094 199.282C319.094 200.709 318.154 201.324 316.995 200.655Z" fill="#263238"/>
<path d="M316.995 200.655C315.836 199.986 314.896 198.286 314.896 196.859L314.898 138.851L319.096 141.276L319.095 199.284C319.094 200.709 318.154 201.324 316.995 200.655Z" fill="#A9F6AE"/>
<path d="M369.787 245.687L314.587 213.817C313.598 213.245 312.796 213.709 312.796 214.85V234.956C312.796 236.097 313.598 237.485 314.587 238.057L369.787 269.926C370.775 270.497 371.577 270.033 371.577 268.892V248.785C371.577 247.646 370.775 246.258 369.787 245.687Z" fill="#37474F"/>
<path d="M367.517 251.649C367.517 252.988 366.515 253.495 365.279 252.781L319.095 226.108C317.86 225.394 316.857 223.731 316.857 222.392C316.857 221.053 317.858 220.546 319.095 221.26L365.282 247.933C366.516 248.646 367.517 250.31 367.517 251.649Z" fill="#263238"/>
<path d="M367.517 251.649C367.517 252.988 366.515 253.494 365.279 252.781L331.692 233.379L331.69 228.531L365.281 247.933C366.516 248.646 367.517 250.31 367.517 251.649Z" fill="#A9F6AE"/>
<path d="M367.517 261.345C367.517 262.684 366.515 263.191 365.279 262.477L319.095 235.804C317.86 235.09 316.857 233.427 316.857 232.088C316.857 230.75 317.858 230.242 319.095 230.957L365.282 257.629C366.516 258.342 367.517 260.007 367.517 261.345Z" fill="#263238"/>
<path d="M367.517 261.345C367.517 262.684 366.515 263.191 365.279 262.477L352.684 255.204L352.683 250.356L365.281 257.628C366.516 258.342 367.517 260.007 367.517 261.345Z" fill="#A9F6AE"/>
<path d="M308.738 57.5654L375.638 18.9402C376.874 18.2261 378.878 18.2261 380.114 18.9402L447.014 57.5642C448.249 58.2783 448.249 59.4342 447.014 60.1483L380.113 98.7736C378.877 99.4877 376.873 99.4877 375.637 98.7736L308.739 60.1496C307.502 59.4354 307.502 58.2783 308.738 57.5654Z" fill="#455A64"/>
<path d="M379.218 89.5942L431.113 59.6316C431.855 59.2031 432.456 58.1622 432.456 57.3064V55.5587C432.456 54.7017 431.854 53.6608 431.113 53.2324L379.218 23.2697C378.476 22.8412 377.274 22.8412 376.532 23.2697L324.636 53.2324C323.894 53.6608 323.294 54.7017 323.294 55.5575V57.3052C323.294 58.161 323.895 59.2031 324.636 59.6304L376.532 89.593C377.274 90.0227 378.477 90.0227 379.218 89.5942Z" fill="#263238"/>
<path d="M431.115 54.784L379.219 84.7466C378.477 85.1751 377.275 85.1751 376.533 84.7466L324.638 54.784C323.896 54.3555 323.896 53.662 324.638 53.2335L376.533 24.3057C377.275 23.8773 378.477 23.8773 379.219 24.3057L431.115 53.2335C431.855 53.662 431.855 54.3555 431.115 54.784Z" fill="#455A64"/>
<path d="M377.874 85.065V89.9125C378.359 89.9125 378.845 89.8096 379.217 89.5918L431.115 59.6279C431.86 59.2043 432.459 58.1597 432.459 57.3028V55.5562C432.459 54.8022 431.994 53.9029 431.363 53.4066C431.849 53.8302 431.766 54.4088 431.115 54.7816L379.217 84.7454C378.845 84.9621 378.359 85.065 377.874 85.065Z" fill="#37474F"/>
<path d="M379.217 75.0504L414.319 54.784C415.061 54.3556 415.661 53.3147 415.661 52.4589V50.7112C415.661 49.8554 415.06 48.8133 414.319 48.386L391.814 35.3928C391.072 34.9643 390.057 34.0601 389.547 33.3727L378.799 18.893C378.288 18.2055 377.273 17.9949 376.532 18.4234L341.43 38.6886C340.688 39.117 340.087 40.158 340.087 41.0149L340.089 52.4589C340.089 53.3159 340.69 54.3568 341.431 54.784L376.533 75.0504C377.273 75.4777 378.477 75.4777 379.217 75.0504Z" fill="#263238"/>
<path d="M376.533 70.2017L354.027 57.2084C353.67 57.0026 353.25 56.6855 352.853 56.3357C352.426 55.9593 352.025 55.5441 351.76 55.1883L341.012 40.7087C340.501 40.0212 340.689 39.117 341.431 38.6886L376.533 18.4234C377.275 17.9949 378.289 18.2055 378.8 18.893L389.548 33.3726C390.059 34.0601 390.887 35.0454 391.629 35.4738L414.321 48.386C415.063 48.8145 415.063 49.508 414.321 49.9365L379.219 70.2029C378.477 70.6302 377.274 70.6302 376.533 70.2017Z" fill="#455A64"/>
<path d="M341.43 38.6886L376.532 18.4234C377.274 17.9949 378.288 18.2055 378.799 18.893L389.547 33.3726C389.813 33.7309 390.216 34.14 390.646 34.5164C390.646 34.5164 352.865 56.343 352.854 56.3333C352.426 55.9569 352.024 55.5454 351.76 55.1883L341.012 40.7087C340.5 40.0212 340.688 39.117 341.43 38.6886Z" fill="#37474F"/>
<path d="M405.803 48.7407C404.934 48.2384 403.524 48.2384 402.654 48.7407C401.783 49.243 401.783 50.0563 402.654 50.5586C403.523 51.061 404.933 51.061 405.803 50.5586C406.672 50.0576 406.672 49.243 405.803 48.7407Z" fill="#A9F6AE"/>
<path d="M399.506 52.3767C398.637 51.8744 397.227 51.8744 396.356 52.3767C395.487 52.879 395.487 53.6923 396.356 54.1946C397.225 54.6969 398.635 54.6969 399.506 54.1946C400.375 53.6935 400.375 52.879 399.506 52.3767Z" fill="#A9F6AE"/>
<path d="M393.207 56.0125C392.338 55.5102 390.928 55.5102 390.058 56.0125C389.189 56.5148 389.189 57.3282 390.058 57.8305C390.928 58.3328 392.337 58.3328 393.207 57.8305C394.077 57.3294 394.077 56.5148 393.207 56.0125Z" fill="#263238"/>
<path d="M386.91 59.6485C386.041 59.1462 384.63 59.1462 383.76 59.6485C382.891 60.1508 382.891 60.9641 383.76 61.4664C384.63 61.9687 386.039 61.9687 386.91 61.4664C387.78 60.9653 387.78 60.1508 386.91 59.6485Z" fill="#263238"/>
<path d="M401.079 46.0137C400.209 45.5114 398.8 45.5114 397.93 46.0137C397.06 46.516 397.06 47.3294 397.93 47.8317C398.799 48.334 400.209 48.334 401.079 47.8317C401.95 47.3306 401.95 46.516 401.079 46.0137Z" fill="#A9F6AE"/>
<path d="M394.782 49.6497C393.913 49.1474 392.503 49.1474 391.633 49.6497C390.762 50.152 390.762 50.9653 391.633 51.4676C392.502 51.9699 393.912 51.9699 394.782 51.4676C395.652 50.9666 395.652 50.152 394.782 49.6497Z" fill="#263238"/>
<path d="M388.484 53.2856C387.615 52.7833 386.205 52.7833 385.335 53.2856C384.466 53.7879 384.466 54.6013 385.335 55.1036C386.204 55.6059 387.614 55.6059 388.484 55.1036C389.355 54.6025 389.355 53.7879 388.484 53.2856Z" fill="#A9F6AE"/>
<path d="M382.187 56.9215C381.318 56.4192 379.908 56.4192 379.038 56.9215C378.168 57.4238 378.168 58.2372 379.038 58.7395C379.908 59.2418 381.317 59.2418 382.187 58.7395C383.057 58.2384 383.057 57.4238 382.187 56.9215Z" fill="#263238"/>
<path d="M396.356 43.2868C395.487 42.7845 394.077 42.7845 393.207 43.2868C392.338 43.7891 392.338 44.6024 393.207 45.1047C394.076 45.607 395.486 45.607 396.356 45.1047C397.227 44.6024 397.227 43.7891 396.356 43.2868Z" fill="#263238"/>
<path d="M390.059 46.9227C389.19 46.4204 387.78 46.4204 386.91 46.9227C386.041 47.425 386.041 48.2384 386.91 48.7407C387.779 49.243 389.189 49.243 390.059 48.7407C390.929 48.2384 390.929 47.425 390.059 46.9227Z" fill="#A9F6AE"/>
<path d="M383.762 50.5587C382.891 50.0564 381.482 50.0564 380.612 50.5587C379.743 51.061 379.743 51.8743 380.612 52.3766C381.481 52.8789 382.891 52.8789 383.762 52.3766C384.632 51.8756 384.632 51.061 383.762 50.5587Z" fill="#263238"/>
<path d="M380.577 63.2118C379.708 62.7095 378.298 62.7095 377.428 63.2118C376.559 63.7141 376.559 64.5275 377.428 65.0298C378.297 65.5321 379.707 65.5321 380.577 65.0298C381.446 64.5287 381.446 63.7141 380.577 63.2118Z" fill="#A9F6AE"/>
<path d="M375.854 60.4849C374.985 59.9826 373.575 59.9826 372.705 60.4849C371.836 60.9872 371.836 61.8006 372.705 62.3029C373.575 62.8052 374.984 62.8052 375.854 62.3029C376.723 61.8006 376.723 60.9872 375.854 60.4849Z" fill="#263238"/>
<path d="M377.464 54.1982C376.595 53.6959 375.185 53.6959 374.315 54.1982C373.446 54.7005 373.446 55.5139 374.315 56.0162C375.185 56.5185 376.594 56.5185 377.464 56.0162C378.333 55.5139 378.333 54.6993 377.464 54.1982Z" fill="#263238"/>
<path d="M391.634 40.5634C390.765 40.0611 389.355 40.0611 388.484 40.5634C387.615 41.0657 387.615 41.8791 388.484 42.3814C389.355 42.8837 390.763 42.8837 391.634 42.3814C392.503 41.8791 392.503 41.0645 391.634 40.5634Z" fill="#A9F6AE"/>
<path d="M385.336 44.1982C384.467 43.6959 383.057 43.6959 382.187 44.1982C381.318 44.7005 381.318 45.5139 382.187 46.0162C383.056 46.5185 384.466 46.5185 385.336 46.0162C386.205 45.5151 386.205 44.7005 385.336 44.1982Z" fill="#263238"/>
<path d="M379.039 47.8341C378.169 47.3318 376.76 47.3318 375.89 47.8341C375.019 48.3364 375.019 49.1498 375.89 49.6521C376.759 50.1544 378.169 50.1544 379.039 49.6521C379.908 49.151 379.908 48.3364 379.039 47.8341Z" fill="#A9F6AE"/>
<path d="M372.742 51.4713C371.872 50.969 370.462 50.969 369.592 51.4713C368.722 51.9736 368.722 52.7869 369.592 53.2892C370.461 53.7915 371.871 53.7915 372.742 53.2892C373.611 52.7869 373.611 51.9724 372.742 51.4713Z" fill="#263238"/>
<path d="M371.131 57.7616C370.262 57.2593 368.852 57.2593 367.982 57.7616C367.113 58.2639 367.113 59.0772 367.982 59.5795C368.851 60.0818 370.261 60.0818 371.131 59.5795C372 59.0772 372 58.2626 371.131 57.7616Z" fill="#A9F6AE"/>
<path d="M366.407 55.0346C365.537 54.5323 364.128 54.5323 363.258 55.0346C362.387 55.5369 362.387 56.3502 363.258 56.8525C364.127 57.3548 365.537 57.3548 366.407 56.8525C367.277 56.3502 367.277 55.5357 366.407 55.0346Z" fill="#263238"/>
<path d="M377.8 70.5224V75.3602C378.307 75.3699 378.824 75.2779 379.216 75.0504L414.318 54.7816C415.062 54.3579 415.661 53.3134 415.661 52.4553V50.7087C415.661 49.9546 415.197 49.0553 414.566 48.5591C415.051 48.9827 414.969 49.5613 414.318 49.9341L379.216 70.2029C378.824 70.4292 378.307 70.5333 377.8 70.5224Z" fill="#37474F"/>
<path d="M384.905 32.7662L384.874 32.7239C384.535 32.2651 383.858 32.1247 383.365 32.4092L352.817 50.0454C352.324 50.3311 352.199 50.9326 352.54 51.3914L352.572 51.4337C352.913 51.8912 353.59 52.0304 354.085 51.746L384.623 34.1134C385.118 33.8289 385.244 33.2262 384.905 32.7662Z" fill="#263238"/>
<path d="M384.906 32.7662L384.874 32.7239C384.535 32.2651 383.859 32.1247 383.365 32.4092L360.655 45.5223L361.922 47.2216L384.625 34.1146C385.119 33.8289 385.245 33.2262 384.906 32.7662Z" fill="#A9F6AE"/>
<path d="M382.38 29.3772L382.349 29.3348C382.01 28.8761 381.333 28.7345 380.839 29.0201L350.293 46.6564C349.8 46.942 349.675 47.5448 350.016 48.0023L350.048 48.0447C350.389 48.5022 351.067 48.6414 351.561 48.357L382.1 30.7243C382.593 30.4399 382.719 29.8359 382.38 29.3772Z" fill="#263238"/>
<path d="M382.38 29.3772L382.349 29.3348C382.01 28.8761 381.333 28.7345 380.839 29.0201L373.247 33.4017L374.514 35.1022L382.099 30.7243C382.593 30.4399 382.719 29.8359 382.38 29.3772Z" fill="#A9F6AE"/>
<path d="M379.855 25.9882L379.823 25.9458C379.485 25.4871 378.808 25.3467 378.314 25.6311L347.768 43.2674C347.274 43.553 347.15 44.1558 347.491 44.6133L347.522 44.6557C347.864 45.1132 348.54 45.2524 349.035 44.9679L379.574 27.3353C380.069 27.0509 380.194 26.4469 379.855 25.9882Z" fill="#263238"/>
<path d="M379.854 25.9882L379.823 25.9458C379.484 25.4871 378.807 25.3455 378.312 25.6299L362.402 34.7875L363.669 36.4869L379.572 27.3341C380.067 27.0497 380.193 26.4469 379.854 25.9882Z" fill="#A9F6AE"/>
<path d="M377.329 22.5992L377.298 22.5568C376.959 22.0981 376.283 21.9565 375.789 22.2421L345.243 39.8784C344.749 40.164 344.624 40.7656 344.966 41.2243L344.997 41.2667C345.338 41.7242 346.015 41.8634 346.51 41.5789L377.049 23.9463C377.543 23.6619 377.668 23.0579 377.329 22.5992Z" fill="#263238"/>
<path d="M377.33 22.5992L377.298 22.5568C376.959 22.0981 376.283 21.9565 375.789 22.2421L348.061 38.2504L349.328 39.951L377.049 23.9475C377.543 23.6619 377.669 23.0579 377.33 22.5992Z" fill="#A9F6AE"/>
<path d="M318.069 248.542C318.216 248.477 318.41 248.497 318.625 248.622C319.094 248.893 319.476 249.556 319.476 250.097C319.476 250.336 319.403 250.512 319.279 250.61C319.279 250.613 319.277 250.613 319.277 250.613L319.174 250.672L282.796 271.673L280.403 270.291L318.069 248.542Z" fill="#455A64"/>
<path d="M322.992 251.38C323.139 251.315 323.333 251.337 323.549 251.46C324.017 251.731 324.399 252.395 324.399 252.937C324.399 253.175 324.326 253.352 324.202 253.45C324.202 253.452 324.199 253.452 324.199 253.452L324.096 253.512L287.718 274.513L285.325 273.131L322.992 251.38Z" fill="#455A64"/>
<path d="M327.902 254.216C328.05 254.151 328.243 254.171 328.459 254.296C328.927 254.567 329.31 255.23 329.31 255.771C329.31 256.01 329.236 256.187 329.112 256.285C329.112 256.287 329.109 256.287 329.109 256.287L329.006 256.346L292.628 277.347L290.235 275.965L327.902 254.216Z" fill="#455A64"/>
<path d="M332.822 257.055C332.97 256.989 333.163 257.011 333.379 257.134C333.847 257.406 334.231 258.069 334.231 258.61C334.231 258.848 334.157 259.025 334.034 259.123C334.034 259.126 334.03 259.126 334.03 259.126L333.927 259.185L297.548 280.186L295.157 278.804L332.822 257.055Z" fill="#455A64"/>
<path d="M84.1045 376.134C84.1045 379.104 86.3279 382.796 89.0706 384.38L228.205 464.71C230.947 466.293 235.393 466.293 238.136 464.71L428.51 354.798C431.252 353.214 433.476 349.523 433.476 346.551C433.476 343.581 431.252 339.888 428.51 338.305L289.374 257.977C286.632 256.394 282.186 256.394 279.443 257.977L89.0706 367.888C86.3279 369.471 84.1045 373.164 84.1045 376.134Z" fill="#A9F6AE"/>
<path opacity="0.7" d="M233.174 455.148V465.894C231.372 465.894 229.573 465.504 228.209 464.712L89.0684 384.38C86.3282 382.797 84.1035 379.105 84.1035 376.135C84.1035 373.349 86.0643 369.931 88.5649 368.211C86.3403 369.805 86.5121 372.145 89.0696 373.624L228.209 453.956C229.573 454.747 231.374 455.148 233.174 455.148Z" fill="black"/>
<path d="M79.4473 368.066C76.8753 366.58 74.7898 362.809 74.7898 359.643L74.7886 193.606C74.7886 190.439 77.012 186.588 79.7547 185.005L270.13 75.0927C272.872 73.5095 277.181 73.4296 279.755 74.9148C282.328 76.3999 284.413 80.1714 284.413 83.3377V249.375C284.413 252.541 282.19 256.392 279.447 257.975L89.0709 367.888C86.3282 369.471 82.0193 369.551 79.4473 368.066Z" fill="#A9F6AE"/>
<path opacity="0.7" d="M88.4839 368.188C85.7436 369.472 81.8438 369.449 79.4473 368.062C76.8789 366.583 74.791 362.81 74.791 359.645V193.601C74.791 192.019 75.3417 190.264 76.2471 188.716L85.5584 194.083V194.094C84.664 195.654 84.1024 197.397 84.1024 198.979V365.022C84.1036 367.958 86.0184 369.277 88.4839 368.188Z" fill="black"/>
<path opacity="0.5" d="M84.1045 198.985V365.022C84.1045 368.188 86.3279 369.472 89.0706 367.889L279.446 257.977C282.188 256.394 284.412 252.542 284.412 249.376V83.3378C284.412 80.1715 282.188 78.8873 279.446 80.4704L89.0706 190.384C86.3279 191.967 84.1045 195.817 84.1045 198.985Z" fill="black"/>
<path d="M89.0707 373.623L228.206 453.952C230.949 455.535 235.394 455.535 238.137 453.952L428.512 344.039C431.255 342.456 431.255 339.888 428.512 338.305L289.377 257.977C286.634 256.394 282.188 256.394 279.446 257.977L89.0707 367.888C86.328 369.471 86.328 372.038 89.0707 373.623Z" fill="#A9F6AE"/>
<path opacity="0.3" d="M89.0707 373.623L228.206 453.952C230.949 455.535 235.394 455.535 238.137 453.952L428.512 344.039C431.255 342.456 431.255 339.888 428.512 338.305L289.377 257.977C286.634 256.394 282.188 256.394 279.446 257.977L89.0707 367.888C86.328 369.471 86.328 372.038 89.0707 373.623Z" fill="black"/>
<path d="M91.7407 199.598L275.287 93.6561C276.933 92.706 278.267 93.4758 278.267 95.3761V239.107C278.267 241.007 276.933 243.318 275.287 244.268L91.7407 350.208C90.0958 351.158 88.7607 350.388 88.7607 348.488V204.758C88.762 202.859 90.0958 200.548 91.7407 199.598Z" fill="#FAFAFA"/>
<path d="M212.839 177.171L211.675 210.357C211.675 224.016 203.087 248.702 185.427 266.941C184.385 268.019 182.316 269.096 180.825 269.242C179.935 269.329 179.074 269.365 178.228 269.365C174.053 269.365 170.457 268.352 167.433 266.624L167.325 266.566L167.115 266.435C159.222 261.725 155.352 252.045 155.352 242.879L154.187 211.154C154.158 210.308 154.513 209.497 155.084 208.838C155.519 208.332 156.075 207.92 156.676 207.652C164.757 204.071 176.876 189.753 182.562 175.623C182.967 174.625 183.582 174.299 184.255 174.618L184.357 174.676C184.559 174.785 184.762 174.95 184.964 175.174H184.972C185.008 175.211 185.044 175.254 185.081 175.298C191.114 182.323 202.98 182.316 210.901 176.253C211.502 175.796 212.002 175.652 212.34 175.804L212.384 175.833C212.384 175.833 212.377 175.833 212.377 175.84C212.695 176.013 212.868 176.455 212.839 177.171Z" fill="#A9F6AE"/>
<path opacity="0.2" d="M183.514 174.569C183.143 174.682 182.811 175.011 182.562 175.623C176.876 189.753 164.757 204.071 156.676 207.652C156.075 207.92 155.519 208.332 155.084 208.838C154.513 209.497 154.158 210.307 154.187 211.154L155.352 242.877C155.352 252.044 159.222 261.724 167.115 266.434L167.325 266.564L167.433 266.622C170.457 268.352 174.053 269.365 178.228 269.365C179.074 269.365 179.935 269.329 180.825 269.242C181.637 269.163 182.618 268.802 183.513 268.321L183.514 174.569Z" fill="black"/>
<path opacity="0.3" d="M105.221 369.322L281.931 267.3C283.302 266.509 285.526 266.509 286.897 267.3L295.935 272.518C297.306 273.31 297.306 274.593 295.935 275.384L119.198 377.392C117.827 378.183 115.603 378.183 114.232 377.392L105.221 372.189C103.85 371.398 103.85 370.114 105.221 369.322Z" fill="black"/>
<path opacity="0.3" d="M128.514 382.769L305.222 280.746C306.593 279.955 308.817 279.955 310.188 280.746L365.78 312.844C367.151 313.635 367.151 314.918 365.78 315.71L189.274 417.593C187.902 418.384 185.678 418.388 184.304 417.6L128.519 385.628C127.145 384.841 127.143 383.561 128.514 382.769Z" fill="black"/>
<path d="M286.916 326.648L292.449 323.454C292.684 323.318 292.67 323.09 292.417 322.944L286.019 319.25C285.766 319.105 285.372 319.097 285.137 319.232L279.604 322.426C279.37 322.562 279.384 322.79 279.636 322.936L286.034 326.63C286.286 326.775 286.68 326.783 286.916 326.648ZM275.997 313.955L270.465 317.149C270.23 317.285 270.245 317.514 270.496 317.659L276.894 321.353C277.146 321.498 277.542 321.507 277.777 321.371L283.309 318.177C283.544 318.041 283.531 317.813 283.278 317.667L276.88 313.973C276.628 313.828 276.232 313.82 275.997 313.955ZM258.123 324.276L248.759 329.681C248.525 329.817 248.538 330.046 248.791 330.191L255.189 333.885C255.442 334.03 255.836 334.039 256.071 333.903L265.435 328.498C265.669 328.362 265.656 328.133 265.403 327.988L259.006 324.294C258.753 324.148 258.358 324.139 258.123 324.276ZM267.911 318.623L262.378 321.819C262.144 321.954 262.158 322.183 262.41 322.328L268.808 326.022C269.06 326.169 269.455 326.176 269.69 326.041L275.223 322.846C275.458 322.711 275.444 322.482 275.191 322.337L268.793 318.644C268.542 318.496 268.146 318.488 267.911 318.623ZM246.207 331.156L240.674 334.35C240.439 334.485 240.453 334.714 240.706 334.859L247.104 338.553C247.355 338.699 247.751 338.707 247.986 338.572L253.519 335.377C253.753 335.242 253.739 335.014 253.487 334.868L247.09 331.174C246.836 331.027 246.442 331.02 246.207 331.156ZM238.12 335.824L232.588 339.018C232.353 339.154 232.367 339.382 232.619 339.528L239.017 343.221C239.27 343.367 239.665 343.375 239.899 343.239L245.432 340.045C245.667 339.909 245.652 339.68 245.401 339.535L239.004 335.842C238.75 335.697 238.355 335.688 238.12 335.824ZM263.285 350.845L268.818 347.65C269.052 347.515 269.039 347.286 268.786 347.141L262.389 343.447C262.136 343.302 261.742 343.293 261.507 343.429L255.974 346.623C255.74 346.758 255.753 346.987 256.005 347.132L262.403 350.826C262.654 350.972 263.05 350.98 263.285 350.845ZM255.199 355.513L260.731 352.319C260.966 352.183 260.951 351.955 260.7 351.809L254.303 348.116C254.05 347.971 253.655 347.963 253.42 348.098L247.888 351.292C247.653 351.428 247.666 351.657 247.919 351.802L254.317 355.496C254.568 355.64 254.964 355.649 255.199 355.513ZM247.112 360.181L252.645 356.987C252.879 356.852 252.866 356.624 252.613 356.478L246.216 352.784C245.963 352.638 245.569 352.63 245.334 352.765L239.801 355.96C239.567 356.095 239.58 356.324 239.833 356.469L246.23 360.163C246.481 360.31 246.877 360.317 247.112 360.181ZM239.026 364.85L244.558 361.656C244.793 361.52 244.778 361.291 244.527 361.146L238.13 357.453C237.877 357.308 237.482 357.3 237.248 357.435L231.715 360.629C231.48 360.765 231.493 360.994 231.746 361.139L238.143 364.832C238.395 364.978 238.791 364.987 239.026 364.85ZM278.83 331.317L284.362 328.122C284.597 327.987 284.583 327.758 284.331 327.613L277.933 323.919C277.681 323.772 277.285 323.765 277.05 323.901L271.518 327.095C271.283 327.23 271.296 327.459 271.548 327.604L277.946 331.298C278.199 331.444 278.595 331.452 278.83 331.317ZM271.371 346.176L283.714 339.051C283.948 338.915 283.934 338.686 283.682 338.541L268.146 329.571C267.893 329.426 267.498 329.417 267.263 329.553L260.88 333.239C260.645 333.374 260.658 333.603 260.91 333.748L269.136 338.498C269.389 338.643 269.402 338.872 269.167 339.007L264.061 341.956C263.826 342.091 263.839 342.32 264.092 342.465L270.49 346.159C270.741 346.303 271.137 346.312 271.371 346.176ZM230.034 340.492L224.501 343.688C224.266 343.823 224.281 344.052 224.533 344.197L230.929 347.891C231.182 348.037 231.577 348.045 231.812 347.909L237.344 344.715C237.579 344.58 237.566 344.351 237.313 344.206L230.916 340.512C230.663 340.365 230.269 340.357 230.034 340.492ZM221.947 345.162L216.415 348.356C216.18 348.492 216.193 348.72 216.446 348.866L222.843 352.56C223.096 352.705 223.491 352.713 223.725 352.578L229.258 349.384C229.493 349.248 229.479 349.019 229.226 348.874L222.828 345.18C222.578 345.034 222.182 345.026 221.947 345.162ZM181.539 397.513C181.791 397.658 182.187 397.666 182.422 397.531L187.954 394.337C188.189 394.201 188.174 393.972 187.923 393.827L181.525 390.134C181.272 389.989 180.877 389.981 180.642 390.116L175.11 393.31C174.875 393.446 174.889 393.675 175.141 393.82L181.539 397.513ZM157.257 382.51L151.724 385.704C151.489 385.84 151.503 386.069 151.756 386.214L158.153 389.907C158.405 390.053 158.8 390.062 159.035 389.925L164.567 386.731C164.802 386.595 164.788 386.366 164.536 386.221L158.138 382.528C157.886 382.383 157.492 382.375 157.257 382.51ZM170.272 393.464C170.525 393.609 170.919 393.618 171.154 393.482L176.687 390.288C176.922 390.153 176.907 389.924 176.655 389.778L170.259 386.084C170.006 385.938 169.611 385.931 169.376 386.066L163.844 389.26C163.609 389.396 163.622 389.625 163.875 389.77L170.272 393.464ZM195.817 400.35L201.349 397.156C201.584 397.02 201.571 396.791 201.318 396.646L194.92 392.952C194.667 392.807 194.272 392.798 194.036 392.935L188.504 396.129C188.269 396.265 188.283 396.494 188.535 396.639L194.932 400.332C195.186 400.478 195.582 400.487 195.817 400.35ZM186.848 405.001C187.1 405.147 187.495 405.155 187.73 405.019L193.263 401.825C193.498 401.69 193.483 401.462 193.231 401.316L186.833 397.622C186.58 397.476 186.186 397.468 185.951 397.604L180.418 400.799C180.184 400.934 180.197 401.162 180.45 401.308L186.848 405.001ZM165.343 377.842L159.811 381.036C159.576 381.172 159.59 381.4 159.842 381.546L166.24 385.24C166.493 385.385 166.888 385.393 167.123 385.258L172.655 382.064C172.89 381.928 172.877 381.701 172.624 381.554L166.227 377.86C165.973 377.714 165.578 377.706 165.343 377.842ZM205.774 354.499L200.242 357.693C200.007 357.828 200.022 358.057 200.273 358.202L206.67 361.897C206.923 362.042 207.318 362.05 207.552 361.915L213.085 358.721C213.32 358.585 213.305 358.357 213.054 358.211L206.656 354.517C206.404 354.37 206.009 354.363 205.774 354.499ZM173.43 373.173L167.897 376.368C167.662 376.503 167.677 376.732 167.929 376.877L174.327 380.571C174.58 380.716 174.974 380.726 175.209 380.589L180.742 377.395C180.976 377.26 180.962 377.031 180.71 376.886L174.313 373.192C174.059 373.045 173.665 373.038 173.43 373.173ZM213.861 349.829L208.328 353.023C208.093 353.159 208.108 353.388 208.36 353.533L214.757 357.227C215.009 357.372 215.404 357.382 215.639 357.245L221.171 354.051C221.406 353.915 221.393 353.687 221.14 353.541L214.742 349.847C214.49 349.702 214.096 349.694 213.861 349.829ZM197.688 359.167L192.155 362.361C191.921 362.497 191.934 362.726 192.187 362.871L198.585 366.564C198.837 366.71 199.232 366.719 199.467 366.582L205 363.388C205.235 363.252 205.221 363.023 204.968 362.878L198.57 359.185C198.319 359.04 197.923 359.032 197.688 359.167ZM189.601 363.836L184.069 367.03C183.834 367.165 183.847 367.394 184.1 367.539L190.498 371.233C190.75 371.379 191.146 371.387 191.381 371.251L196.913 368.057C197.148 367.922 197.134 367.693 196.882 367.548L190.485 363.854C190.232 363.708 189.836 363.7 189.601 363.836ZM181.516 368.505L175.984 371.699C175.749 371.835 175.762 372.064 176.014 372.209L182.412 375.903C182.665 376.048 183.059 376.057 183.294 375.921L188.827 372.727C189.062 372.591 189.047 372.363 188.795 372.217L182.399 368.524C182.146 368.377 181.751 368.37 181.516 368.505ZM222.853 374.188L228.385 370.994C228.62 370.858 228.607 370.629 228.354 370.484L221.956 366.79C221.703 366.645 221.308 366.636 221.073 366.772L215.541 369.966C215.306 370.102 215.321 370.33 215.572 370.476L221.969 374.17C222.223 374.316 222.618 374.323 222.853 374.188ZM293.873 303.635L288.341 306.83C288.106 306.965 288.12 307.193 288.372 307.339L294.77 311.033C295.023 311.18 295.418 311.187 295.653 311.051L301.185 307.857C301.42 307.722 301.405 307.493 301.154 307.348L294.756 303.654C294.503 303.507 294.108 303.5 293.873 303.635ZM284.084 309.287L278.551 312.481C278.317 312.616 278.331 312.844 278.583 312.99L284.98 316.684C285.233 316.83 285.627 316.838 285.862 316.703L291.395 313.508C291.629 313.373 291.615 313.144 291.363 312.999L284.965 309.305C284.715 309.158 284.319 309.151 284.084 309.287ZM301.959 298.967L296.426 302.161C296.191 302.297 296.205 302.526 296.457 302.671L302.855 306.364C303.107 306.509 303.503 306.517 303.738 306.382L309.27 303.188C309.505 303.052 309.492 302.823 309.239 302.678L302.842 298.984C302.589 298.839 302.195 298.83 301.959 298.967ZM260.104 342.128L265.637 338.933C265.872 338.798 265.858 338.569 265.605 338.424L259.208 334.73C258.955 334.585 258.561 334.576 258.326 334.712L252.794 337.906C252.559 338.041 252.573 338.269 252.825 338.415L259.223 342.109C259.474 342.255 259.868 342.263 260.104 342.128ZM310.927 294.316C310.676 294.17 310.28 294.162 310.045 294.297L304.512 297.492C304.278 297.627 304.291 297.856 304.544 298.001L310.942 301.695C311.194 301.842 311.59 301.849 311.824 301.713L317.357 298.519C317.592 298.384 317.578 298.156 317.325 298.01L310.927 294.316ZM230.939 369.519L236.472 366.325C236.707 366.19 236.693 365.961 236.44 365.816L230.043 362.122C229.79 361.976 229.396 361.968 229.161 362.103L223.629 365.299C223.394 365.434 223.408 365.663 223.66 365.808L230.057 369.502C230.309 369.646 230.704 369.655 230.939 369.519ZM330.103 312.267L335.636 309.072C335.871 308.937 335.856 308.708 335.604 308.563L329.206 304.87C328.953 304.724 328.559 304.716 328.324 304.852L322.791 308.046C322.557 308.182 322.57 308.41 322.823 308.556L329.221 312.248C329.473 312.394 329.868 312.402 330.103 312.267ZM312.877 311.659L318.41 308.465C318.645 308.329 318.63 308.102 318.378 307.955L311.98 304.261C311.729 304.116 311.333 304.108 311.098 304.243L305.566 307.437C305.331 307.574 305.344 307.802 305.597 307.947L311.995 311.641C312.247 311.786 312.643 311.795 312.877 311.659ZM320.067 299.593C319.815 299.446 319.419 299.439 319.185 299.575L313.652 302.77C313.417 302.906 313.432 303.134 313.683 303.28L320.081 306.974C320.333 307.119 320.729 307.127 320.964 306.992L326.496 303.798C326.731 303.662 326.718 303.433 326.465 303.288L320.067 299.593ZM321.77 298.61L337.306 307.58C337.559 307.725 337.954 307.734 338.189 307.598L343.721 304.404C343.956 304.269 343.943 304.04 343.69 303.894L328.152 294.924C327.899 294.779 327.505 294.771 327.27 294.906L321.737 298.1C321.504 298.236 321.517 298.464 321.77 298.61ZM303.012 308.911L297.479 312.106C297.244 312.241 297.258 312.47 297.511 312.615L303.909 316.308C304.161 316.454 304.556 316.463 304.791 316.326L310.323 313.132C310.558 312.996 310.545 312.768 310.292 312.622L303.895 308.928C303.642 308.784 303.246 308.776 303.012 308.911ZM242.152 344.048L236.619 347.244C236.385 347.379 236.398 347.608 236.651 347.753L243.048 351.447C243.301 351.593 243.695 351.601 243.93 351.466L249.463 348.271C249.697 348.136 249.683 347.907 249.431 347.762L243.034 344.068C242.783 343.921 242.387 343.913 242.152 344.048ZM321.134 316.917C321.386 317.062 321.782 317.071 322.017 316.935L327.549 313.741C327.784 313.605 327.77 313.377 327.518 313.231L321.12 309.537C320.868 309.392 320.472 309.383 320.238 309.519L314.705 312.714C314.47 312.85 314.483 313.079 314.736 313.224L321.134 316.917ZM250.238 339.381L244.706 342.575C244.471 342.711 244.486 342.94 244.737 343.085L251.134 346.779C251.387 346.924 251.782 346.933 252.016 346.797L257.549 343.603C257.784 343.467 257.771 343.239 257.518 343.093L251.121 339.399C250.869 339.253 250.473 339.246 250.238 339.381ZM189.626 392.844C189.879 392.99 190.273 392.998 190.508 392.863L196.041 389.668C196.275 389.533 196.261 389.304 196.009 389.159L189.611 385.465C189.359 385.32 188.964 385.311 188.729 385.447L183.196 388.641C182.961 388.776 182.976 389.005 183.228 389.15L189.626 392.844ZM177.461 381.398L171.929 384.592C171.694 384.728 171.709 384.956 171.96 385.102L178.358 388.796C178.611 388.941 179.006 388.949 179.241 388.814L184.773 385.62C185.008 385.484 184.995 385.255 184.742 385.11L178.345 381.416C178.092 381.271 177.696 381.262 177.461 381.398ZM198.593 388.193L204.126 384.999C204.361 384.863 204.347 384.634 204.096 384.489L197.698 380.796C197.446 380.651 197.05 380.641 196.815 380.778L191.283 383.972C191.048 384.108 191.062 384.337 191.314 384.482L197.712 388.175C197.964 388.321 198.358 388.33 198.593 388.193ZM206.68 383.526L212.212 380.332C212.447 380.196 212.434 379.967 212.182 379.822L205.784 376.128C205.532 375.983 205.137 375.974 204.902 376.11L199.369 379.304C199.134 379.44 199.148 379.668 199.401 379.814L205.799 383.508C206.05 383.653 206.445 383.66 206.68 383.526ZM214.766 378.856L220.299 375.662C220.534 375.525 220.519 375.298 220.267 375.152L213.869 371.458C213.618 371.313 213.222 371.305 212.987 371.441L207.454 374.636C207.22 374.771 207.233 375 207.486 375.145L213.883 378.839C214.137 378.983 214.531 378.992 214.766 378.856ZM185.548 376.73L180.015 379.924C179.781 380.059 179.795 380.288 180.046 380.433L186.444 384.126C186.695 384.273 187.091 384.28 187.326 384.144L192.859 380.95C193.093 380.815 193.08 380.586 192.827 380.441L186.429 376.748C186.179 376.602 185.783 376.594 185.548 376.73ZM193.634 372.061L188.102 375.255C187.867 375.391 187.88 375.62 188.133 375.765L194.531 379.459C194.784 379.604 195.179 379.613 195.414 379.477L200.946 376.283C201.181 376.147 201.167 375.92 200.915 375.773L194.518 372.079C194.264 371.934 193.869 371.926 193.634 372.061ZM225.979 353.386L220.446 356.581C220.212 356.716 220.225 356.945 220.478 357.09L226.876 360.783C227.129 360.929 227.523 360.937 227.758 360.801L233.291 357.607C233.526 357.471 233.512 357.243 233.261 357.097L226.863 353.405C226.61 353.259 226.215 353.251 225.979 353.386ZM217.893 358.055L212.36 361.249C212.125 361.385 212.139 361.613 212.391 361.759L218.789 365.453C219.042 365.598 219.437 365.606 219.672 365.471L225.204 362.277C225.439 362.141 225.426 361.912 225.173 361.767L218.775 358.073C218.523 357.928 218.129 357.919 217.893 358.055ZM234.066 348.718L228.533 351.912C228.298 352.048 228.313 352.276 228.564 352.422L234.961 356.116C235.214 356.261 235.609 356.269 235.844 356.134L241.376 352.94C241.611 352.804 241.596 352.577 241.345 352.43L234.948 348.736C234.696 348.591 234.3 348.582 234.066 348.718ZM201.721 367.393L196.188 370.587C195.953 370.722 195.967 370.951 196.22 371.096L202.618 374.791C202.87 374.936 203.265 374.944 203.5 374.809L209.033 371.615C209.268 371.479 209.254 371.25 209.001 371.105L202.603 367.412C202.35 367.266 201.956 367.257 201.721 367.393ZM209.806 362.724L204.274 365.919C204.039 366.054 204.052 366.283 204.305 366.428L210.703 370.122C210.955 370.267 211.351 370.276 211.585 370.14L217.118 366.945C217.353 366.809 217.339 366.581 217.086 366.435L210.688 362.741C210.437 362.596 210.042 362.589 209.806 362.724ZM203.903 395.681L209.436 392.487C209.671 392.352 209.656 392.124 209.404 391.978L203.006 388.284C202.753 388.138 202.359 388.13 202.124 388.266L196.591 391.46C196.357 391.595 196.37 391.824 196.623 391.969L203.02 395.663C203.273 395.809 203.668 395.817 203.903 395.681ZM156.451 390.891L150.053 387.197C149.8 387.052 149.405 387.043 149.17 387.179L143.638 390.373C143.403 390.508 143.416 390.736 143.669 390.882L150.066 394.576C150.319 394.722 150.714 394.73 150.948 394.595L156.481 391.4C156.717 391.265 156.702 391.036 156.451 390.891ZM168.569 394.448L162.171 390.755C161.919 390.609 161.523 390.6 161.289 390.737L152.776 395.651C152.541 395.787 152.556 396.016 152.808 396.161L159.206 399.854C159.458 399.999 159.853 400.009 160.088 399.872L168.599 394.958C168.835 394.821 168.821 394.593 168.569 394.448ZM146.635 383.75L140.238 380.057C139.985 379.912 139.59 379.902 139.356 380.039L132.546 383.97C132.311 384.106 132.324 384.334 132.577 384.48L138.974 388.174C139.227 388.319 139.622 388.327 139.857 388.192L146.666 384.26C146.902 384.124 146.888 383.895 146.635 383.75ZM151.856 380.736C152.108 380.882 152.504 380.89 152.739 380.754L158.271 377.559C158.506 377.423 158.493 377.196 158.24 377.049L151.842 373.356C151.59 373.211 151.194 373.203 150.959 373.338L145.427 376.532C145.191 376.668 145.205 376.897 145.457 377.042L151.856 380.736ZM179.836 398.496L173.439 394.802C173.186 394.656 172.792 394.648 172.557 394.785L161.917 400.927C161.682 401.063 161.696 401.292 161.948 401.437L168.345 405.131C168.598 405.276 168.993 405.285 169.227 405.149L179.868 399.006C180.103 398.87 180.089 398.641 179.836 398.496ZM185.146 405.983L178.748 402.29C178.496 402.145 178.101 402.135 177.866 402.272L171.056 406.203C170.821 406.339 170.835 406.568 171.088 406.713L177.486 410.407C177.737 410.552 178.133 410.561 178.368 410.425L185.178 406.494C185.412 406.358 185.398 406.129 185.146 405.983ZM211.979 346.024C212.23 346.169 212.626 346.177 212.861 346.042L218.394 342.848C218.628 342.712 218.615 342.485 218.362 342.338L211.965 338.644C211.712 338.498 211.318 338.49 211.082 338.626L205.549 341.82C205.314 341.956 205.328 342.184 205.581 342.33L211.979 346.024ZM195.806 355.362C196.059 355.508 196.453 355.515 196.688 355.38L202.221 352.186C202.456 352.05 202.441 351.823 202.189 351.676L195.792 347.982C195.541 347.837 195.145 347.828 194.91 347.964L189.378 351.158C189.143 351.294 189.157 351.522 189.408 351.668L195.806 355.362ZM159.941 376.066C160.194 376.212 160.589 376.221 160.824 376.084L166.356 372.89C166.591 372.755 166.578 372.526 166.325 372.381L159.927 368.687C159.675 368.541 159.279 368.533 159.045 368.669L153.512 371.863C153.277 371.998 153.29 372.227 153.543 372.372L159.941 376.066ZM203.892 350.692C204.145 350.839 204.54 350.847 204.775 350.71L210.307 347.516C210.542 347.381 210.528 347.152 210.276 347.007L203.879 343.313C203.626 343.167 203.231 343.159 202.997 343.294L197.464 346.489C197.229 346.624 197.243 346.853 197.495 346.998L203.892 350.692ZM187.719 360.03C187.972 360.175 188.367 360.184 188.602 360.047L194.134 356.853C194.369 356.717 194.356 356.489 194.103 356.343L187.706 352.65C187.453 352.505 187.058 352.497 186.824 352.632L181.291 355.826C181.056 355.962 181.071 356.191 181.323 356.336L187.719 360.03ZM189.591 406.584C189.338 406.439 188.943 406.43 188.708 406.566L180.196 411.48C179.961 411.616 179.974 411.845 180.227 411.99L186.625 415.683C186.878 415.829 187.273 415.838 187.508 415.701L196.019 410.787C196.254 410.651 196.239 410.423 195.987 410.277L189.591 406.584ZM176.114 366.729C176.367 366.875 176.762 366.883 176.997 366.748L182.529 363.553C182.764 363.418 182.75 363.189 182.498 363.044L176.101 359.35C175.848 359.205 175.453 359.196 175.219 359.332L169.686 362.526C169.451 362.661 169.466 362.89 169.718 363.035L176.114 366.729ZM168.028 371.398C168.281 371.543 168.675 371.552 168.91 371.416L174.443 368.222C174.678 368.086 174.664 367.858 174.411 367.712L168.013 364.018C167.76 363.872 167.366 363.865 167.131 364L161.598 367.194C161.364 367.33 161.378 367.559 161.63 367.704L168.028 371.398ZM339.399 320.092C339.146 319.946 338.751 319.938 338.517 320.073L324.897 327.936C324.663 328.072 324.676 328.3 324.929 328.446L331.327 332.138C331.579 332.284 331.975 332.292 332.209 332.157L345.828 324.294C346.063 324.158 346.05 323.931 345.797 323.784L339.399 320.092ZM321.524 330.411C321.271 330.266 320.877 330.257 320.642 330.393L315.109 333.587C314.874 333.723 314.889 333.952 315.141 334.097L321.538 337.791C321.79 337.936 322.185 337.945 322.42 337.808L327.952 334.614C328.187 334.478 328.173 334.249 327.921 334.104L321.524 330.411ZM211.99 391.013L217.522 387.819C217.757 387.683 217.742 387.455 217.491 387.309L211.093 383.615C210.84 383.47 210.445 383.462 210.21 383.597L204.678 386.791C204.443 386.927 204.456 387.154 204.709 387.301L211.106 390.995C211.359 391.14 211.755 391.149 211.99 391.013ZM305.351 339.748C305.098 339.603 304.704 339.594 304.469 339.73L298.936 342.924C298.702 343.061 298.716 343.288 298.968 343.434L305.365 347.128C305.618 347.273 306.012 347.281 306.247 347.146L311.78 343.952C312.014 343.816 312.001 343.587 311.748 343.442L305.351 339.748ZM347.485 315.422C347.232 315.276 346.838 315.268 346.603 315.404L341.07 318.598C340.836 318.734 340.85 318.962 341.102 319.108L347.499 322.802C347.752 322.947 348.146 322.955 348.381 322.82L353.914 319.626C354.148 319.49 354.135 319.261 353.882 319.116L347.485 315.422ZM361.97 314.448L346.432 305.476C346.179 305.331 345.785 305.323 345.55 305.458L340.017 308.652C339.783 308.788 339.796 309.017 340.049 309.162L355.586 318.133C355.839 318.278 356.234 318.287 356.469 318.151L362.001 314.956C362.236 314.822 362.222 314.593 361.97 314.448ZM275.134 357.194C274.883 357.048 274.487 357.041 274.252 357.176L267.443 361.107C267.208 361.243 267.221 361.472 267.474 361.617L273.872 365.31C274.125 365.455 274.52 365.463 274.754 365.328L281.564 361.397C281.799 361.261 281.785 361.032 281.532 360.887L275.134 357.194ZM295.563 345.4C295.31 345.255 294.915 345.247 294.681 345.382L286.168 350.296C285.933 350.432 285.948 350.659 286.2 350.806L292.598 354.5C292.849 354.645 293.245 354.654 293.48 354.518L301.993 349.604C302.227 349.468 302.214 349.241 301.961 349.094L295.563 345.4ZM256.409 368.006C256.156 367.861 255.761 367.853 255.527 367.988L209.988 394.28C209.753 394.415 209.766 394.644 210.019 394.789L216.417 398.483C216.669 398.63 217.065 398.638 217.299 398.502L262.838 372.21C263.073 372.074 263.06 371.846 262.807 371.7L256.409 368.006ZM208.316 395.772C208.063 395.627 207.669 395.619 207.434 395.754L200.624 399.685C200.389 399.821 200.404 400.05 200.656 400.195L207.053 403.889C207.306 404.034 207.7 404.043 207.935 403.906L214.744 399.975C214.979 399.839 214.965 399.612 214.713 399.465L208.316 395.772ZM265.771 362.6C265.519 362.453 265.124 362.446 264.889 362.582L258.079 366.513C257.844 366.648 257.858 366.877 258.111 367.022L264.509 370.715C264.76 370.862 265.156 370.87 265.391 370.735L272.201 366.802C272.435 366.667 272.422 366.439 272.169 366.293L265.771 362.6ZM198.953 401.178C198.701 401.032 198.305 401.024 198.07 401.16L191.261 405.091C191.026 405.226 191.041 405.455 191.292 405.6L197.689 409.294C197.942 409.44 198.337 409.448 198.571 409.313L205.381 405.381C205.616 405.246 205.603 405.017 205.35 404.872L198.953 401.178ZM284.498 351.789C284.245 351.642 283.85 351.634 283.616 351.771L276.806 355.702C276.571 355.837 276.586 356.066 276.837 356.211L283.235 359.905C283.487 360.052 283.883 360.059 284.118 359.924L290.927 355.992C291.162 355.857 291.148 355.628 290.896 355.483L284.498 351.789ZM313.438 335.08C313.185 334.934 312.79 334.926 312.555 335.061L307.023 338.256C306.788 338.391 306.802 338.619 307.054 338.765L313.452 342.459C313.704 342.604 314.1 342.613 314.335 342.477L319.867 339.283C320.102 339.148 320.087 338.919 319.836 338.774L313.438 335.08ZM331.156 322.212L336.689 319.018C336.924 318.882 336.91 318.654 336.659 318.508L330.261 314.816C330.009 314.67 329.613 314.662 329.378 314.797L323.846 317.992C323.611 318.127 323.625 318.356 323.877 318.501L330.275 322.194C330.526 322.339 330.921 322.348 331.156 322.212ZM295.003 321.979L300.535 318.784C300.77 318.649 300.757 318.42 300.505 318.275L294.107 314.582C293.855 314.436 293.459 314.427 293.225 314.564L287.692 317.758C287.456 317.894 287.471 318.122 287.723 318.268L294.12 321.96C294.372 322.107 294.767 322.115 295.003 321.979ZM276.68 353.664L292.853 344.326C293.088 344.19 293.073 343.961 292.822 343.816L286.425 340.122C286.173 339.977 285.777 339.968 285.542 340.104L269.369 349.441C269.135 349.576 269.148 349.805 269.401 349.95L275.799 353.643C276.049 353.792 276.445 353.8 276.68 353.664ZM322.187 326.862C322.439 327.008 322.835 327.016 323.07 326.881L328.602 323.686C328.837 323.551 328.824 323.322 328.571 323.177L322.173 319.483C321.921 319.338 321.525 319.329 321.291 319.465L315.757 322.659C315.522 322.794 315.537 323.023 315.788 323.168L322.187 326.862ZM313.93 321.605L319.463 318.409C319.698 318.274 319.683 318.045 319.431 317.9L313.033 314.206C312.78 314.059 312.386 314.052 312.151 314.187L306.619 317.382C306.384 317.517 306.397 317.746 306.65 317.891L313.048 321.585C313.3 321.732 313.696 321.74 313.93 321.605ZM268.594 358.333L274.126 355.139C274.361 355.003 274.348 354.776 274.095 354.629L267.698 350.935C267.445 350.789 267.05 350.782 266.816 350.917L261.283 354.111C261.048 354.247 261.063 354.475 261.314 354.621L267.712 358.315C267.963 358.46 268.359 358.469 268.594 358.333ZM304.313 337.183C304.566 337.328 304.96 337.337 305.195 337.201L310.728 334.007C310.963 333.872 310.948 333.643 310.696 333.498L304.298 329.804C304.045 329.657 303.651 329.65 303.416 329.785L297.883 332.98C297.648 333.115 297.662 333.344 297.915 333.489L304.313 337.183ZM228.163 381.676L233.695 378.482C233.93 378.347 233.915 378.119 233.664 377.973L227.266 374.279C227.014 374.132 226.618 374.125 226.383 374.26L220.851 377.455C220.616 377.59 220.63 377.818 220.881 377.964L227.279 381.658C227.532 381.803 227.927 381.812 228.163 381.676ZM236.249 377.007L241.782 373.813C242.016 373.677 242.002 373.448 241.75 373.303L235.352 369.609C235.1 369.464 234.706 369.455 234.47 369.592L228.937 372.786C228.702 372.922 228.716 373.15 228.969 373.296L235.367 376.989C235.618 377.135 236.013 377.144 236.249 377.007ZM220.076 386.345L225.609 383.151C225.843 383.015 225.83 382.786 225.577 382.641L219.179 378.948C218.926 378.803 218.532 378.793 218.297 378.93L212.764 382.124C212.529 382.26 212.544 382.488 212.796 382.634L219.194 386.328C219.445 386.472 219.84 386.48 220.076 386.345ZM252.421 367.67L257.953 364.476C258.188 364.34 258.175 364.111 257.922 363.966L251.524 360.272C251.272 360.127 250.876 360.118 250.641 360.254L245.109 363.448C244.874 363.584 244.887 363.811 245.14 363.958L251.537 367.652C251.79 367.797 252.186 367.806 252.421 367.67ZM244.334 372.338L249.867 369.144C250.102 369.009 250.088 368.781 249.835 368.635L243.437 364.941C243.186 364.795 242.79 364.787 242.555 364.922L237.022 368.117C236.788 368.252 236.802 368.481 237.054 368.626L243.452 372.32C243.705 372.465 244.099 372.474 244.334 372.338ZM260.507 363.002L266.04 359.807C266.275 359.672 266.26 359.443 266.008 359.298L259.61 355.605C259.357 355.46 258.963 355.45 258.728 355.587L253.195 358.781C252.961 358.917 252.975 359.145 253.227 359.291L259.624 362.985C259.877 363.129 260.272 363.137 260.507 363.002ZM297.502 293.936C297.755 294.081 298.15 294.089 298.384 293.954L303.917 290.76C304.152 290.624 304.137 290.396 303.886 290.25L302.183 289.266C301.93 289.121 301.535 289.112 301.299 289.248L295.766 292.442C295.532 292.578 295.546 292.805 295.798 292.952L297.502 293.936ZM257.716 319.617C257.968 319.762 258.364 319.772 258.598 319.635L264.131 316.441C264.366 316.306 264.353 316.077 264.1 315.932L257.703 312.239C257.45 312.092 257.055 312.084 256.82 312.219L251.288 315.414C251.053 315.549 251.066 315.778 251.318 315.923L257.716 319.617ZM273.889 310.28C274.141 310.426 274.537 310.434 274.771 310.299L280.304 307.104C280.539 306.969 280.524 306.74 280.272 306.595L273.874 302.901C273.622 302.756 273.227 302.747 272.992 302.883L267.46 306.077C267.225 306.212 267.239 306.441 267.491 306.586L273.889 310.28ZM247.842 325.318C248.095 325.463 248.489 325.472 248.724 325.336L254.257 322.142C254.492 322.006 254.477 321.778 254.225 321.632L247.829 317.938C247.576 317.793 247.181 317.785 246.946 317.921L241.414 321.116C241.179 321.251 241.192 321.48 241.445 321.625L247.842 325.318ZM265.803 314.949C266.054 315.094 266.45 315.102 266.685 314.967L272.217 311.773C272.452 311.637 272.438 311.408 272.186 311.263L265.788 307.569C265.536 307.423 265.14 307.415 264.906 307.551L259.373 310.745C259.138 310.881 259.152 311.11 259.405 311.255L265.803 314.949ZM231.669 334.656C231.922 334.801 232.317 334.81 232.551 334.673L238.084 331.479C238.319 331.343 238.305 331.114 238.054 330.969L231.656 327.276C231.403 327.13 231.008 327.123 230.773 327.258L225.241 330.452C225.006 330.588 225.02 330.817 225.272 330.962L231.669 334.656ZM239.755 329.986C240.008 330.132 240.403 330.14 240.638 330.005L246.17 326.81C246.405 326.675 246.391 326.447 246.139 326.301L239.741 322.607C239.488 322.462 239.093 322.453 238.859 322.589L233.326 325.783C233.091 325.918 233.106 326.147 233.357 326.292L239.755 329.986ZM281.329 303.274C281.582 303.419 281.977 303.427 282.211 303.292L287.744 300.098C287.979 299.962 287.964 299.734 287.713 299.588L286.01 298.605C285.758 298.46 285.362 298.451 285.127 298.587L279.595 301.782C279.36 301.918 279.373 302.146 279.626 302.292L281.329 303.274ZM305.588 289.267C305.841 289.412 306.236 289.421 306.471 289.285L312.003 286.091C312.238 285.956 312.224 285.727 311.972 285.582L310.269 284.598C310.016 284.452 309.621 284.444 309.387 284.581L303.854 287.775C303.619 287.91 303.633 288.139 303.886 288.284L305.588 289.267ZM319.027 297.027C319.28 297.172 319.675 297.181 319.91 297.045L325.442 293.851C325.677 293.715 325.662 293.487 325.411 293.341L319.013 289.647C318.761 289.501 318.365 289.494 318.13 289.629L312.598 292.823C312.363 292.959 312.376 293.188 312.629 293.333L319.027 297.027ZM339.243 317.544L344.775 314.348C345.01 314.213 344.997 313.985 344.745 313.839L338.347 310.145C338.095 309.998 337.7 309.991 337.465 310.127L331.932 313.321C331.697 313.456 331.712 313.685 331.964 313.83L338.36 317.524C338.612 317.671 339.007 317.679 339.243 317.544ZM289.416 298.604C289.669 298.75 290.063 298.759 290.298 298.622L295.831 295.428C296.065 295.292 296.051 295.064 295.799 294.918L294.096 293.936C293.843 293.789 293.449 293.782 293.214 293.917L287.681 297.112C287.446 297.247 287.461 297.476 287.713 297.621L289.416 298.604ZM223.583 339.324C223.835 339.47 224.23 339.478 224.465 339.343L229.997 336.148C230.232 336.013 230.219 335.784 229.966 335.639L223.568 331.945C223.315 331.798 222.92 331.791 222.686 331.927L217.153 335.121C216.918 335.256 216.933 335.484 217.185 335.63L223.583 339.324Z" fill="#263238"/>
<path opacity="0.3" d="M259.442 387.861L314.04 356.339C315.685 355.388 318.354 355.388 319.999 356.339L351.308 374.414C352.953 375.364 352.953 376.904 351.308 377.854L296.709 409.377C295.063 410.327 292.395 410.327 290.751 409.377L259.443 391.301C257.797 390.352 257.797 388.812 259.442 387.861Z" fill="black"/>
<path d="M79.4454 368.057C79.9042 368.321 80.4198 368.539 80.9705 368.711C80.4198 368.55 79.9042 368.332 79.4454 368.068C79.2845 367.976 79.1247 367.873 78.9746 367.758C79.1235 367.862 79.2845 367.965 79.4454 368.057Z" fill="#A9F6AE"/>
<path opacity="0.3" d="M284.364 82.5305C284.009 79.9621 281.945 79.0216 279.444 80.4668L89.0668 190.386C87.6906 191.178 86.4633 192.519 85.5579 194.079L76.2466 188.712C77.141 187.164 78.3793 185.799 79.7554 185.009L270.133 75.0891C272.873 73.5072 277.186 73.4261 279.754 74.9173C282.105 76.2692 284.055 79.5493 284.364 82.5305Z" fill="black"/>
<path d="M88.1372 368.527C88.1604 368.493 88.1835 368.481 88.2177 368.458C88.1945 368.481 88.1713 368.492 88.1604 368.515C88.1494 368.527 88.1494 368.527 88.1372 368.527Z" fill="#A9F6AE"/>
<path opacity="0.5" d="M433.48 346.555C433.48 349.525 431.256 353.218 428.514 354.8L238.137 464.708C236.773 465.499 234.972 465.877 233.172 465.877V455.143C234.973 455.143 236.773 454.741 238.137 453.951L428.514 344.044C431.072 342.552 431.244 340.225 429.019 338.631C431.52 340.351 433.48 343.769 433.48 346.555Z" fill="black"/>
<path d="M555.336 252.441C555.339 252.437 555.341 252.433 555.345 252.43L533.091 239.605C533.091 239.605 533.09 239.616 533.09 239.618C532.605 239.351 531.884 239.53 531.012 240.198C530.559 240.544 530.098 240.876 529.628 241.193C529.46 241.307 529.287 241.409 529.118 241.52C528.813 241.717 528.51 241.917 528.199 242.102C527.983 242.231 527.762 242.349 527.543 242.472C527.273 242.625 527.004 242.781 526.729 242.924C526.481 243.053 526.227 243.173 525.977 243.296C525.727 243.419 525.479 243.543 525.227 243.658C524.951 243.784 524.671 243.9 524.391 244.018C524.16 244.115 523.93 244.215 523.696 244.307C523.395 244.426 523.09 244.533 522.786 244.642C522.573 244.719 522.36 244.797 522.145 244.869C521.818 244.978 521.489 245.076 521.159 245.174C520.966 245.231 520.772 245.29 520.577 245.344C520.227 245.44 519.875 245.527 519.523 245.611C519.349 245.652 519.174 245.694 519 245.733C518.627 245.814 518.253 245.888 517.879 245.954C517.726 245.982 517.573 246.01 517.419 246.036C517.024 246.101 516.628 246.157 516.232 246.206C516.101 246.222 515.971 246.239 515.84 246.253C515.423 246.299 515.007 246.337 514.592 246.366C514.482 246.373 514.373 246.38 514.263 246.387C513.828 246.412 513.394 246.428 512.96 246.434C512.872 246.435 512.785 246.435 512.698 246.436C512.245 246.437 511.794 246.43 511.343 246.412C511.278 246.41 511.214 246.405 511.148 246.402C510.68 246.379 510.213 246.345 509.749 246.299C509.704 246.295 509.661 246.29 509.616 246.285C509.134 246.234 508.655 246.172 508.179 246.096C508.156 246.092 508.133 246.088 508.11 246.084C507.704 246.017 507.562 245.985 507.445 245.946L493.643 237.991V237.993C492.626 237.416 491.691 237.835 491.094 239.317C483.08 259.218 466.009 279.392 454.628 284.436C454.406 284.534 454.191 284.649 453.98 284.774C453.841 284.857 453.709 284.952 453.576 285.046C453.517 285.088 453.455 285.126 453.397 285.17C453.225 285.3 453.063 285.439 452.904 285.585C452.893 285.595 452.883 285.605 452.872 285.614C452.701 285.773 452.542 285.94 452.391 286.116L452.39 286.117C451.595 287.042 451.079 288.177 451.123 289.365L452.76 309.581C452.76 322.613 458.311 336.365 469.623 342.942L469.627 342.945L469.629 342.946L491.87 355.764L491.872 355.765L492.028 355.856L492.027 355.85C497.143 358.78 503.424 360.253 510.894 359.54C512.995 359.339 515.91 357.82 517.378 356.304C542.255 330.606 554.351 295.828 554.351 276.589L555.995 254.32C556.026 253.312 555.779 252.689 555.336 252.441Z" fill="#A9F6AE"/>
<path opacity="0.4" d="M515.721 250.712C515.221 250.477 514.732 250.509 514.315 250.784C514.233 250.834 514.151 250.896 514.07 250.968C513.938 251.09 513.816 251.242 513.692 251.415C513.683 251.425 513.672 251.446 513.662 251.466C513.55 251.66 513.438 251.874 513.335 252.128C511.338 257.102 508.77 262.096 505.854 266.866C503.306 271.055 500.493 275.07 497.579 278.76C496.131 280.574 494.674 282.306 493.207 283.937C493.197 283.957 493.186 283.978 493.166 283.988C492.748 284.446 492.34 284.894 491.932 285.332C491.922 285.342 491.912 285.363 491.891 285.383C491.474 285.812 491.066 286.239 490.658 286.656C490.453 286.88 490.25 287.095 490.026 287.309C485.358 291.997 480.783 295.513 476.868 297.246C476.206 297.541 475.584 297.959 475.065 298.468C474.912 298.611 474.769 298.754 474.627 298.917V298.927C474.596 298.968 474.565 298.999 474.535 299.04C474.555 298.999 474.585 298.968 474.616 298.927L452.397 286.115C452.418 286.085 452.438 286.065 452.468 286.034C452.51 285.974 452.56 285.912 452.621 285.852C452.662 285.81 452.702 285.77 452.753 285.729C452.783 285.688 452.824 285.658 452.865 285.617C452.907 285.576 452.946 285.536 452.997 285.494C453.007 285.485 453.018 285.474 453.028 285.474C453.15 285.361 453.262 285.26 453.385 285.168C453.446 285.127 453.507 285.087 453.567 285.045C453.699 284.953 453.832 284.852 453.975 284.771C454.179 284.648 454.404 284.526 454.618 284.434C466.003 279.389 483.074 259.209 491.084 239.315C491.512 238.255 492.113 237.736 492.786 237.736C493.062 237.736 493.346 237.828 493.632 237.99L507.442 245.94L515.721 250.712Z" fill="white"/>
<path opacity="0.1" d="M555.338 252.436C555.338 252.436 555.338 252.436 555.348 252.426L533.089 239.605V239.614C532.6 239.349 531.886 239.533 531.009 240.195C530.562 240.541 530.092 240.878 529.624 241.194C529.46 241.306 529.287 241.408 529.114 241.521C528.808 241.714 528.512 241.919 528.197 242.102C527.982 242.234 527.758 242.346 527.544 242.479C527.269 242.622 527.004 242.785 526.728 242.927C526.484 243.059 526.229 243.172 525.974 243.294C525.73 243.416 525.474 243.549 525.23 243.661C524.944 243.783 524.67 243.905 524.384 244.018C524.16 244.119 523.925 244.222 523.69 244.313C523.395 244.426 523.089 244.537 522.784 244.64C522.57 244.721 522.355 244.803 522.142 244.875C521.816 244.976 521.49 245.079 521.153 245.181C520.96 245.232 520.766 245.293 520.573 245.344C520.226 245.446 519.869 245.528 519.523 245.609C519.35 245.65 519.177 245.701 519.003 245.731C518.625 245.813 518.249 245.895 517.882 245.955C517.718 245.986 517.566 246.016 517.413 246.037C517.026 246.108 516.629 246.159 516.231 246.21C516.099 246.219 515.966 246.24 515.834 246.26C515.416 246.302 515.008 246.342 514.591 246.373C514.478 246.373 514.367 246.383 514.265 246.394C513.827 246.414 513.389 246.435 512.961 246.435H512.695C512.237 246.444 511.789 246.435 511.34 246.414C511.279 246.414 511.208 246.404 511.146 246.404C510.678 246.384 510.208 246.343 509.749 246.303C509.699 246.293 509.657 246.293 509.617 246.282C509.128 246.231 508.649 246.17 508.181 246.098C508.151 246.098 508.13 246.089 508.109 246.089C507.712 246.017 507.57 245.987 507.447 245.946L515.723 250.716L515.869 250.792C516.155 250.945 516.416 251.216 516.702 251.532H516.711C516.762 251.582 516.813 251.644 516.864 251.705C525.364 261.601 542.089 261.591 553.258 253.049C554.104 252.408 554.808 252.203 555.287 252.418L555.349 252.459C555.349 252.459 555.339 252.459 555.339 252.468C555.553 252.581 555.717 252.775 555.818 253.049C555.714 252.761 555.541 252.558 555.338 252.436Z" fill="black"/>
<path opacity="0.2" d="M491.573 355.588L469.627 342.946H469.62C458.315 336.364 452.757 322.613 452.757 309.581L451.121 289.366C451.067 287.83 451.923 286.37 453.147 285.369C452.879 285.598 452.619 285.85 452.39 286.118L474.626 298.928C473.823 299.853 473.319 300.999 473.365 302.184L475 322.399C475.001 335.316 480.459 348.945 491.573 355.588Z" fill="black"/>
<path d="M555.996 254.315L554.345 276.585C554.345 295.827 542.248 330.601 517.379 356.306C515.902 357.825 512.997 359.343 510.887 359.536C503.417 360.249 497.138 358.782 492.022 355.847V355.858L491.87 355.766L491.574 355.593C480.455 348.948 475.002 335.322 475.002 322.399L473.361 302.188C473.32 301.005 473.82 299.864 474.615 298.937L474.626 298.927C474.768 298.764 474.911 298.621 475.064 298.479C475.583 297.97 476.205 297.552 476.867 297.257C480.78 295.524 485.357 292.007 490.025 287.32C490.249 287.106 490.454 286.891 490.657 286.667C491.065 286.25 491.473 285.821 491.89 285.394C491.911 285.374 491.921 285.353 491.931 285.343C492.339 284.905 492.747 284.456 493.165 283.997C493.185 283.988 493.195 283.967 493.206 283.946C494.674 282.316 496.131 280.583 497.578 278.77C500.492 275.081 503.305 271.065 505.853 266.875C508.768 262.105 511.336 257.111 513.334 252.138C513.436 251.883 513.549 251.67 513.661 251.476C513.671 251.455 513.682 251.435 513.691 251.425C513.814 251.252 513.936 251.098 514.069 250.976C514.15 250.905 514.232 250.844 514.314 250.792C514.731 250.517 515.22 250.486 515.72 250.721L515.872 250.792C516.158 250.945 516.412 251.221 516.698 251.536H516.708C516.758 251.587 516.809 251.649 516.86 251.71C525.361 261.606 542.085 261.596 553.255 253.055C554.101 252.414 554.804 252.209 555.283 252.424L555.345 252.465C555.345 252.465 555.335 252.465 555.335 252.475C555.448 252.525 555.529 252.597 555.61 252.709C555.874 253.02 556.026 253.561 555.996 254.315Z" fill="#A9F6AE"/>
<path d="M521.138 327.355L507.892 335.002L509.944 311.042C508.36 310.204 507.351 308.143 507.351 305.184C507.351 299.908 510.558 293.778 514.516 291.494C518.471 289.21 521.68 291.636 521.68 296.911C521.68 299.87 520.671 303.098 519.086 305.764L521.138 327.355Z" fill="#455A64"/>
<path d="M521.138 327.355L509.141 320.429L507.892 335.002L521.138 327.355Z" fill="#37474F"/>
<path d="M514.516 291.494C511.927 292.989 509.665 296.131 508.406 299.603L519.086 305.768V305.765C520.671 303.098 521.68 299.87 521.68 296.911C521.679 291.635 518.472 289.209 514.516 291.494Z" fill="#37474F"/>
<path d="M531.174 195.948C527.495 193.825 522.867 194.062 518.477 196.597L483.681 216.692C476.649 220.752 471.345 229.938 471.345 238.058V280.683C471.345 281.591 471.95 282.498 473.15 283.191C475.549 284.576 479.439 284.576 481.838 283.191C483.037 282.499 483.643 281.591 483.643 280.683V238.058C483.643 234.319 486.591 229.213 489.83 227.342L524.626 207.247C524.638 207.239 524.651 207.232 524.663 207.225C524.663 207.24 524.663 207.254 524.663 207.269V249.894C524.663 250.802 525.268 251.71 526.468 252.402C528.867 253.787 532.757 253.787 535.156 252.402C536.355 251.71 536.96 250.802 536.96 249.894V207.269C536.96 202.197 534.851 198.071 531.174 195.948Z" fill="#37474F"/>
<path d="M524.664 207.269V249.894C524.664 250.802 525.269 251.71 526.468 252.402C527.007 252.713 527.622 252.95 528.277 253.121V205.14L524.664 207.225C524.664 207.24 524.664 207.254 524.664 207.269Z" fill="#263238"/>
</svg>
